<svg width="135" height="111" viewBox="0 0 135 111" fill="none" xmlns="http://www.w3.org/2000/svg">
<path fill-rule="evenodd" clip-rule="evenodd" d="M96.6667 0.0431339C92.7127 0.361064 88.2624 1.70697 84.967 3.58144C83.1054 4.64036 80.592 6.38744 79.1126 7.65074C78.543 8.13714 77.8832 8.86356 77.6738 9.23478C77.613 9.34263 77.4943 9.3391 76.8761 9.21081C75.3852 8.90138 70.2873 9.06008 67.5329 9.5016C63.7912 10.1014 57.6376 12.4823 53.0249 15.1148C51.7177 15.8608 51.2957 16.1513 50.6903 16.7217L50.3067 17.0832L49.5049 16.717C48.4112 16.2176 47.8699 16.0401 46.013 15.572C43.7007 14.9891 43.1059 14.926 39.9948 14.9335C35.5869 14.9439 32.9908 15.2338 29.5084 16.1047C26.3131 16.9036 22.6673 18.5247 19.25 20.6659C18.1258 21.3703 14.917 23.7476 13.3229 25.0571C12.1065 26.0564 10.2568 27.7374 9.13814 28.8602C6.89297 31.1138 5.677 32.9486 3.68204 37.0935C2.49827 39.5528 2.31015 40.1277 1.29926 44.3767C0.34692 48.3799 0.208501 49.3248 0.0510229 52.8971C-0.10992 56.5466 0.115309 60.5714 0.650022 63.6027C1.37896 67.7346 3.57526 74.5599 5.15734 77.6096C6.56141 80.316 8.79191 83.1723 11.9985 86.3696C14.6406 89.0041 16.275 90.2295 18.9877 91.6094C20.6451 92.4526 23.0296 93.2856 24.7737 93.6306C26.9419 94.0598 27.8993 94.2197 29.554 94.4296C30.7797 94.5851 35.2622 94.585 36.1194 94.4295C36.4704 94.3658 37.3728 94.2103 38.1246 94.084C39.7796 93.806 40.6368 93.5354 41.9523 92.8754C43.1061 92.2967 43.3304 92.051 43.0917 91.6274C42.9893 91.4458 42.8541 91.3622 42.5902 91.3177C42.3914 91.2843 42.063 91.2292 41.8603 91.1953C41.5689 91.1466 41.2445 91.2093 40.3099 91.4949C38.9497 91.9106 37.7636 92.1659 36.2116 92.3769C34.6335 92.5915 30.3403 92.521 28.9613 92.2577C25.8644 91.6664 22.6873 90.5784 19.7971 89.1193C16.4998 87.4547 15.4669 86.6255 12.5886 83.333C11.9393 82.5903 11.0652 81.5928 10.6461 81.1164C8.27525 78.4209 6.73868 75.7484 5.18022 71.6095C3.78307 67.8993 2.79818 63.156 2.13663 56.9528C1.98699 55.5499 1.98726 50.9284 2.13708 49.7148C2.60331 45.9374 3.7001 41.3093 4.66712 39.0387C5.225 37.7287 5.71047 36.954 6.81154 35.6165C8.72215 33.2955 9.08425 33.011 11.8642 31.6463C14.3589 30.4217 15.2534 30.117 16.7686 29.9753C17.7287 29.8855 18.1485 29.8932 19.5328 30.026C20.4304 30.112 21.7804 30.2167 22.5327 30.2585C24.3077 30.3572 27.8167 31.0826 29.1169 31.6196C32.0136 32.8162 34.7312 35.0769 37.0021 38.1792C37.1842 38.428 37.6476 39.0183 38.0319 39.4911C39.016 40.7014 41.3769 44.2423 42.3453 45.96C42.7941 46.7562 43.4944 47.9456 43.9015 48.6032C44.9687 50.3268 46.4319 52.963 46.904 54.0123C47.3043 54.9023 48.5215 58.022 49.022 59.4409C49.8448 61.7738 50.6132 64.764 51.219 67.9908C51.6376 70.2207 51.6777 70.7333 51.6488 73.495L51.621 76.1493L51.8363 76.3224C51.9546 76.4175 52.0796 76.4954 52.1139 76.4954C52.2591 76.4954 52.762 75.3181 52.8482 74.7764C52.9681 74.0228 52.9707 70.4648 52.8521 69.2444C52.3205 63.7697 51.3315 59.4983 49.5471 54.9699C48.7653 52.9862 46.5189 48.5622 44.3342 44.704C42.5436 41.5416 42.146 40.9613 40.8349 39.5958C40.4362 39.1807 40.0227 38.6867 39.9157 38.4979L39.7214 38.1548L40.8077 37.1156C43.5941 34.4501 46.6867 32.7185 50.7041 31.5745C54.0803 30.613 57.7927 30.2228 60.5572 30.5388C61.9722 30.7006 62.9129 30.6698 63.3777 30.4465L63.7831 30.2518L64.4954 30.6342C66.7479 31.8435 68.4393 33.4259 70.0394 35.8212C71.6177 38.1838 72.5625 40.4674 73.5978 44.422C74.2914 47.0714 74.597 48.5747 74.9586 51.1171C75.5964 55.6013 75.8999 60.76 75.6519 62.9005C75.4696 64.4733 74.1264 67.5873 72.9927 69.0655C72.6729 69.4824 72.2167 70.0931 71.9789 70.4227C71.7411 70.7521 71.345 71.2253 71.0986 71.4741C70.5982 71.9795 70.4508 72.221 70.4508 72.5357C70.4508 72.8474 70.6191 72.9669 71.0583 72.9669C72.2914 72.9669 74.0929 71.5506 75.3916 69.5602C75.7084 69.0748 76.2138 68.3093 76.5147 67.8592L77.0618 67.0408L77.6831 67.0658C78.0248 67.0796 78.7224 67.173 79.2333 67.2733C82.6993 67.9538 86.46 67.5751 89.6984 66.2193C93.4113 64.6647 96.4882 61.8454 99.6475 57.1027C100.05 56.4978 100.538 55.6917 100.731 55.3114L101.081 54.62L101.838 54.5585C103.73 54.4046 105.108 54.1275 107.005 53.5191C109.562 52.6993 111.237 51.5971 113.815 49.0409C115.372 47.4963 116.24 46.2207 116.55 45.0195C116.693 44.4658 116.622 44.0148 116.392 44.0148C116.331 44.0148 115.56 44.7413 114.68 45.629C112.998 47.3261 112.24 48.0301 111.155 48.9028C108.741 50.845 105.994 52.1079 102.976 52.6643C101.81 52.8791 101.378 52.8961 101.486 52.7228C101.509 52.6846 101.594 51.9413 101.673 51.071C101.753 50.2006 101.865 48.9893 101.922 48.3793C101.989 47.6631 102.006 46.3162 101.971 44.5793C101.897 40.9151 101.766 39.8164 101.04 36.7768C100.82 35.8562 100.613 34.9198 100.581 34.6959C100.308 32.8195 99.4888 30.6261 98.4183 28.9067C96.9701 26.5805 96.2762 25.6564 94.9536 24.2929C93.697 22.9972 92.8931 22.3679 91.7599 21.7928C91.2061 21.5117 90.6552 21.1848 90.5358 21.0662L90.3187 20.8508L90.5204 20.5579C90.805 20.1448 92.6584 18.3424 93.4116 17.7461C96.9805 14.9207 102.663 12.9351 108.33 12.5332C109.736 12.4336 110.651 12.4748 111.649 12.6826C112.196 12.7964 112.387 12.8016 112.712 12.7114C113.096 12.6046 113.126 12.612 113.733 12.9637C115.468 13.9694 116.779 15.2517 118.931 18.0484C121.242 21.0518 121.826 22.4851 122.146 25.9424C122.2 26.527 122.294 27.4839 122.354 28.0686C122.416 28.6633 122.465 30.427 122.465 32.0721C122.465 35.2272 122.401 35.871 121.932 37.3967C121.677 38.2251 121.561 38.6855 121.388 39.5616C121.263 40.1884 121.223 40.2582 120.554 41.0027C119.64 42.0184 119.319 42.7047 119.618 43.0015C119.778 43.1602 120.479 43.1341 120.859 42.9553C121.04 42.87 121.463 42.543 121.799 42.2284C122.398 41.6673 122.425 41.6538 123.176 41.5236C125.042 41.2005 126.623 40.2362 128.542 38.2519C130.13 36.6094 131.256 35.0163 132.332 32.8864C133.364 30.8445 133.82 29.406 134.498 26.0542C134.96 23.7694 135.044 23.0106 134.982 21.6449C134.912 20.0833 134.759 19.433 134.037 17.6111C133.226 15.5675 133.063 15.2235 132.504 14.3842C132.034 13.6789 131.905 13.522 131.156 12.7418L130.795 12.366L131.218 12.1803C131.729 11.9563 131.875 11.8195 132.05 11.4046C132.215 11.0128 132.214 10.6911 132.046 10.2228C131.923 9.8806 131.928 9.8445 132.137 9.54421C132.663 8.78766 132.766 8.15343 132.458 7.55493C132.028 6.71867 131.059 6.40906 129.71 6.67705C129.29 6.76047 128.859 6.85293 128.751 6.88243C128.588 6.92721 128.537 6.88062 128.444 6.59951C128.267 6.06824 127.767 5.5851 127.231 5.42704C126.694 5.2688 125.918 5.36308 125.337 5.65712C125.152 5.75076 124.772 5.92764 124.493 6.05006L123.986 6.27253L123.717 5.79935C122.724 4.05273 118.611 1.61261 115.542 0.949424C113.404 0.487277 109.741 0.838501 107.526 1.71792L106.908 1.96293L106.301 1.68589C104.901 1.04705 103.27 0.584628 101.18 0.234579C99.9353 0.0259434 97.9351 -0.0588317 96.6667 0.0431339ZM101.454 2.52107C103.557 2.87736 104.502 3.26423 107.244 4.89007C108.676 5.73891 110.336 7.31635 111.29 8.73319C111.865 9.58728 112.569 11.4837 112.38 11.6707C112.352 11.6992 112.025 11.6503 111.655 11.562C110.818 11.362 107.606 11.3364 106.332 11.5195C103.428 11.9368 100.785 12.5952 98.7184 13.4164C96.8978 14.1398 94.6794 15.3147 93.384 16.2416C92.5778 16.8185 90.9157 18.2813 90.1646 19.0751C89.8985 19.3564 89.6692 19.5865 89.6553 19.5865C89.6413 19.5865 89.3477 19.2099 89.0027 18.7496C87.7052 17.0185 83.8102 13.4234 81.6926 12.0024C81.0857 11.5953 79.3465 10.7199 79.1444 10.7199C78.9162 10.7199 79.0213 10.4849 79.511 9.90068C81.9931 6.9388 85.5592 4.75915 90.3293 3.2883C91.9078 2.80154 93.7935 2.47719 95.7093 2.36283C96.9562 2.28846 100.688 2.39124 101.454 2.52107ZM114.539 2.85402C115.887 2.96983 116.564 3.12029 117.53 3.51784C119.267 4.23313 120.958 5.41049 122.046 6.66276C122.767 7.49377 123.825 9.05981 123.748 9.18358C123.724 9.22203 123.55 9.21796 123.362 9.17462C122.552 8.98797 120.012 9.12612 118.369 9.44613C117.085 9.6963 115.263 10.2907 114.291 10.7763C114.055 10.8946 113.829 10.9913 113.79 10.9913C113.751 10.9912 113.643 10.7367 113.551 10.4258C113.299 9.57181 112.623 8.29104 111.955 7.40022C111.102 6.26331 109.41 4.61584 108.448 3.98541C108.007 3.69634 107.664 3.44274 107.685 3.42175C107.817 3.29011 110.621 2.92079 112.26 2.81901C113.226 2.75902 113.479 2.76291 114.539 2.85402ZM96.2746 3.40954C95.9799 3.70195 96.3637 4.02477 97.0062 4.02477C97.2458 4.02477 97.4418 3.99111 97.4418 3.95004C97.4418 3.82618 97.0485 3.50037 96.7748 3.3975C96.4507 3.27563 96.4086 3.27663 96.2746 3.40954ZM98.6272 3.45351C98.6272 3.49992 98.6875 3.61681 98.7611 3.71344C98.8736 3.86101 98.8954 3.86553 98.8979 3.74176C98.8995 3.66079 98.8392 3.54389 98.764 3.48192C98.6888 3.41994 98.6272 3.40718 98.6272 3.45351ZM115.861 3.91294C115.861 4.27231 116.493 5.65332 116.657 5.65332C116.685 5.65332 116.682 5.4085 116.651 5.10939C116.571 4.3512 116.24 3.75334 115.899 3.75334C115.878 3.75334 115.861 3.82518 115.861 3.91294ZM94.0709 4.02296C93.8527 4.15677 94.8745 4.74857 95.3238 4.74857C95.4346 4.74857 95.4377 4.72414 95.341 4.60861C95.0176 4.222 94.292 3.88743 94.0709 4.02296ZM110.481 4.04838C110.481 4.11108 110.71 4.34306 110.988 4.56373C111.452 4.93097 111.769 5.3002 112.396 6.20287C112.775 6.74798 113.034 7.04094 113.089 6.9862C113.187 6.88894 112.923 5.88087 112.667 5.37647C112.386 4.82357 111.816 4.25829 111.341 4.06123C110.957 3.90218 110.481 3.89503 110.481 4.04838ZM113.426 4.14311C113.512 4.36622 114.174 5.23542 114.607 5.69322L115.04 6.15094L114.986 5.83427C114.902 5.34761 114.491 4.584 114.153 4.28968C113.842 4.01907 113.338 3.91756 113.426 4.14311ZM91.7037 4.56364C91.6058 4.62362 91.6796 4.70849 92.0106 4.91667C92.6253 5.30346 93.3134 5.42831 92.9618 5.08921C92.5256 4.66859 91.9348 4.42186 91.7037 4.56364ZM89.0527 5.41483C89.0527 5.56131 89.1647 5.70571 89.4078 5.87291C89.7807 6.12922 90.6636 6.4087 90.7357 6.29307C90.8082 6.17672 90.1201 5.58121 89.691 5.38886C89.1594 5.15055 89.0527 5.1549 89.0527 5.41483ZM86.4083 6.49709C86.4083 6.77404 87.3854 7.37597 88.0269 7.49413C88.4095 7.5647 88.4005 7.48273 87.9813 7.08292C87.3807 6.51012 86.4083 6.14795 86.4083 6.49709ZM126.978 6.73097C127.074 6.82597 127.201 7.1373 127.261 7.42275C127.378 7.98496 127.638 8.32207 128.028 8.41915C128.163 8.45281 128.633 8.39237 129.123 8.27837C130.118 8.04721 130.848 8.00224 131.01 8.1622C131.099 8.25033 131.051 8.37645 130.779 8.76857C130.355 9.37937 130.276 9.84142 130.497 10.4162C130.648 10.8088 130.648 10.8402 130.503 10.9206C130.418 10.9678 130.213 11.1252 130.046 11.2703C129.879 11.4154 129.713 11.5342 129.676 11.5342C129.639 11.5342 129.368 11.3123 129.072 11.041C128.383 10.408 127.276 9.73358 126.322 9.36534C125.909 9.20574 125.505 9.02787 125.426 8.97015C125.346 8.91242 125.093 8.57432 124.864 8.21875L124.446 7.5723L124.645 7.40022C125.019 7.07514 125.159 6.99163 125.684 6.77721C126.328 6.51447 126.745 6.49954 126.978 6.73097ZM83.504 7.99546C83.41 8.05454 83.4534 8.1271 83.6864 8.30081C84.5261 8.92699 86.2603 9.78877 86.5128 9.70526C86.5633 9.68852 86.3533 9.42334 86.0463 9.1159C85.1928 8.26118 83.9514 7.71408 83.504 7.99546ZM125.671 8.1755C125.571 8.33601 125.678 8.43046 126.136 8.58526C126.594 8.74007 127.539 8.78684 127.392 8.64751C126.997 8.27439 125.812 7.94913 125.671 8.1755ZM102.138 9.05917C102.367 9.2385 103.287 9.65522 103.339 9.6032C103.394 9.54874 102.226 8.9098 102.078 8.91333C102 8.91514 102.022 8.96807 102.138 9.05917ZM81.3977 9.14802C81.4002 9.19154 81.6567 9.3467 81.9676 9.49282C82.2785 9.63894 82.9708 10.0519 83.5061 10.4104C84.6071 11.148 85.2017 11.4949 85.262 11.4351C85.2847 11.4126 85.1396 11.1814 84.9396 10.9212C84.4807 10.3241 83.5335 9.60818 82.8651 9.35322C82.3196 9.14522 81.39 9.0152 81.3977 9.14802ZM99.1099 9.51481C99.0462 9.6792 99.5404 10.1685 100.088 10.4839L100.386 10.655L100.168 10.27C99.9482 9.88223 99.4281 9.36281 99.2595 9.36281C99.2095 9.36281 99.1422 9.43121 99.1099 9.51481ZM124.65 10.1697C124.806 10.2651 125.32 10.511 125.79 10.7162C127.843 11.6105 128.526 12.244 130.335 14.927C132.047 17.4656 132.315 18.4032 132.313 21.8484C132.309 27.1586 131.417 30.2218 128.659 34.3949C127.327 36.4099 126.209 37.621 124.798 38.5791C123.944 39.1583 123.511 39.3924 122.792 39.6635L122.314 39.8438L122.374 39.4638C122.407 39.2549 122.62 38.4732 122.846 37.7268C123.481 35.6325 123.559 34.8762 123.559 30.8507C123.558 25.0808 123.216 22.7007 122.055 20.38C120.899 18.0689 116.945 13.3917 115.2 12.27C114.862 12.0526 114.585 11.8576 114.585 11.8365C114.585 11.7755 115.662 11.3124 116.409 11.0519C118.088 10.4669 119.844 10.1782 122.244 10.0925C123.272 10.0558 124.17 10.0191 124.24 10.011C124.309 10.0028 124.494 10.0742 124.65 10.1697ZM96.8947 10.3082C96.8947 10.5138 97.8443 11.165 97.9669 11.0434C98.0444 10.9666 97.1904 10.1771 97.0298 10.1771C96.9555 10.1771 96.8947 10.2361 96.8947 10.3082ZM76.0588 11.352C79.5326 11.8176 81.8332 13.226 86.1804 17.5485C87.4759 18.8367 88.8439 20.6382 88.6629 20.8177C88.6304 20.8499 88.2929 20.8303 87.9127 20.7742C86.9532 20.6326 84.1541 20.6498 82.6241 20.8068C79.2063 21.1572 76.0097 22.0169 71.8642 23.7008C68.5816 25.0341 67.1107 25.887 64.3038 28.0849C63.603 28.6337 63.0761 28.9849 62.9981 28.9552C62.9263 28.9278 62.8108 28.9055 62.7415 28.9055C62.6723 28.9055 62.4428 28.651 62.2315 28.34C61.5118 27.2806 57.5334 23.1647 55.8611 21.7495C54.6132 20.6934 52.906 19.5134 51.8261 18.9605C51.6882 18.8899 51.5754 18.8024 51.5754 18.7659C51.5754 18.6598 52.5602 17.8502 53.369 17.2915C54.4752 16.5274 58.9092 14.3276 60.9675 13.5218C61.2433 13.4137 61.9819 13.1707 62.6088 12.9817C63.2358 12.7927 64.0154 12.5366 64.3414 12.4126C65.476 11.981 68.8201 11.3476 70.5876 11.2295C71.5389 11.166 75.2988 11.2501 76.0588 11.352ZM94.6151 11.4372C94.9188 11.68 95.8933 12.196 95.9471 12.1427C96.0077 12.0826 95.1837 11.5704 94.7507 11.399L94.3871 11.255L94.6151 11.4372ZM118.274 11.9238C118.899 12.3837 119.434 12.9478 119.905 13.6434C120.181 14.0509 120.556 14.547 120.737 14.7461L121.066 15.108L121.008 14.7913C120.666 12.9564 119.564 11.6998 118.313 11.7202L118.004 11.7252L118.274 11.9238ZM124.196 11.9311C124.168 12.0044 124.217 12.2199 124.306 12.41C124.541 12.9165 125.074 13.7332 125.131 13.6763C125.187 13.6207 125.054 13.1605 124.779 12.4585C124.581 11.9528 124.29 11.6895 124.196 11.9311ZM122.005 12.12C121.917 12.347 122.42 13.0359 122.982 13.4591C123.393 13.7679 123.435 13.767 123.344 13.4516C123.076 12.5265 122.189 11.644 122.005 12.12ZM92.1971 12.4415C92.0736 12.6396 93.4128 13.5715 93.5811 13.4045C93.6531 13.3332 92.967 12.6211 92.6888 12.4783C92.3887 12.3244 92.2753 12.3159 92.1971 12.4415ZM67.1864 12.819C67.0225 12.9815 67.0478 13.041 67.391 13.3007C67.6976 13.5328 68.6271 13.844 68.6271 13.7146C68.6271 13.5841 68.0351 13.0533 67.7009 12.8841C67.2953 12.6787 67.3241 12.6823 67.1864 12.819ZM64.7515 13.4345C64.6375 13.6176 64.97 13.9581 65.5376 14.2395C66.4087 14.6714 66.6889 14.6066 66.1423 14.0995C65.6059 13.6018 64.8672 13.2486 64.7515 13.4345ZM90.0558 13.614C89.8737 13.7291 90.0024 13.9338 90.4919 14.3067C90.8929 14.6123 91.6647 14.9441 91.7583 14.8512C91.8664 14.744 91.2861 14.0354 90.8814 13.7802C90.4515 13.5093 90.2769 13.4741 90.0558 13.614ZM87.4129 14.0449C87.4138 14.0823 87.5319 14.1942 87.6755 14.2937C87.819 14.3932 88.209 14.7137 88.5421 15.0058C89.4448 15.7975 90.0991 16.2996 90.0007 16.1253C89.525 15.2818 87.4021 13.5752 87.4129 14.0449ZM112.761 14.1081C112.761 14.2553 113.684 15.4783 114.3 16.1485C114.729 16.6147 114.701 16.4562 114.2 15.5941C113.65 14.6455 112.761 13.7279 112.761 14.1081ZM62.2441 14.6416C62.2441 14.8018 62.4793 15.0007 62.928 15.2198C63.3469 15.4244 64.1568 15.6379 64.2319 15.5635C64.3238 15.4723 63.7565 14.9593 63.3185 14.7377C62.8433 14.497 62.2441 14.4434 62.2441 14.6416ZM110.025 14.6125C110.025 14.8316 111.932 17.777 112.074 17.777C112.113 17.777 112.05 17.5562 111.799 16.8062C111.562 16.1002 110.847 14.9629 110.491 14.7259C110.152 14.5008 110.025 14.47 110.025 14.6125ZM107.472 14.7756C107.472 14.9737 109.464 17.3693 109.554 17.2798C109.633 17.201 108.935 15.898 108.564 15.4317C108.142 14.9026 107.472 14.4999 107.472 14.7756ZM105.284 15.4258C105.284 15.5206 105.547 15.8597 106.217 16.6307L106.467 16.9175L106.409 16.6008C106.335 16.1884 106.173 15.8779 105.908 15.6386C105.647 15.4025 105.284 15.2788 105.284 15.4258ZM60.1491 15.9717C60.3583 16.3594 61.8589 17.2846 62.0199 17.125C62.0866 17.0586 61.295 16.2522 60.9319 16.0166C60.7369 15.8901 60.4585 15.7865 60.3132 15.7865C60.0755 15.7865 60.0592 15.805 60.1491 15.9717ZM99.675 16.783C99.5671 16.9565 101.473 18.6022 101.617 18.4596C101.693 18.3846 100.986 17.5081 100.602 17.2002C100.247 16.9155 99.8841 16.6913 99.7785 16.6913C99.753 16.6913 99.7065 16.7326 99.675 16.783ZM57.0465 16.9717C57.0465 17.3319 59.4334 18.8725 59.8023 18.7504C59.9641 18.697 58.5217 17.2888 58.076 17.0651C57.6696 16.8609 57.0465 16.8045 57.0465 16.9717ZM43.6878 17.6454C46.5978 18.1344 46.8104 18.1922 49.142 19.1293C51.2404 19.9728 53.0821 21.0834 54.9036 22.604C55.9814 23.5035 58.3629 25.8997 59.5569 27.2859C60.2256 28.062 60.9294 28.8273 61.1209 28.9863L61.469 29.2757L61.1043 29.229C58.0207 28.8347 53.5281 29.3673 49.8428 30.5639C45.8432 31.8626 42.8021 33.6867 40.2286 36.3306L39.2315 37.355L38.9976 37.0542C37.2361 34.7875 35.576 33.1352 34.0221 32.102C32.5115 31.0977 30.1178 29.9695 27.9583 29.2439C26.5042 28.7555 25.9018 28.63 23.6725 28.351C22.4235 28.1948 19.3254 28.2182 17.6999 28.3963C16.9476 28.4787 16.1269 28.5684 15.8761 28.5958C14.2947 28.768 12.0913 29.5111 10.5994 30.3753C10.3552 30.5167 10.1167 30.6196 10.0693 30.604C10.0219 30.5883 10.4884 30.0859 11.1059 29.4874C15.2685 25.4536 19.2809 22.9402 25.4962 20.473C27.8218 19.5499 29.8976 18.9085 32.5679 18.2881C35.6993 17.5605 36.6938 17.4467 40.086 17.4279C42.0941 17.4167 42.4583 17.4387 43.6878 17.6454ZM54.36 18.2239C54.3308 18.2706 54.708 18.5772 55.1981 18.9051C55.6881 19.233 56.4378 19.769 56.8641 20.0961C57.2904 20.4231 57.7548 20.7501 57.8962 20.8227C58.1501 20.9531 58.1518 20.9522 58.041 20.7456C57.5797 19.8853 56.4984 18.8312 55.6413 18.4062C55.1105 18.1429 54.4674 18.0514 54.36 18.2239ZM97.0771 18.8026C97.0771 19.097 99.2551 20.8937 99.417 20.733C99.5557 20.5954 98.5627 19.3787 97.9525 18.9383C97.5795 18.6693 97.0771 18.5914 97.0771 18.8026ZM43.4598 19.097C43.4598 19.1916 43.86 19.495 44.2349 19.6847L44.5997 19.8692L44.1718 19.4564C43.801 19.0987 43.4598 18.9265 43.4598 19.097ZM75.0101 19.128C75.0101 19.2569 75.4899 19.5673 75.7908 19.633L76.0588 19.6916L75.7182 19.3676C75.4014 19.0664 75.0101 18.9339 75.0101 19.128ZM73.068 19.2817C72.956 19.3929 73.195 19.6744 73.6026 19.9113C73.8295 20.0433 74.0372 20.1295 74.0641 20.1029C74.1449 20.0228 73.9381 19.7116 73.6374 19.4606C73.3577 19.227 73.1796 19.171 73.068 19.2817ZM40.3668 19.7724C40.2149 19.8351 40.1756 19.8926 40.2405 19.957C40.3816 20.097 41.5925 20.3242 42.0294 20.2926L42.4112 20.2651L41.901 20.024C41.3106 19.7448 40.683 19.642 40.3668 19.7724ZM36.046 20.0989C35.9554 20.124 35.897 20.1911 35.916 20.2479C36.0034 20.5078 38.1681 21.4033 38.6824 21.3923C38.9386 21.3868 38.1573 20.7139 37.5294 20.3992C37.0264 20.1472 36.3589 20.012 36.046 20.0989ZM70.6332 20.2995C70.6332 20.4922 71.1148 20.8879 71.5877 21.084C72.0206 21.2635 72.0464 21.2522 71.858 20.9663C71.6588 20.664 71.5809 20.5873 71.2119 20.3299C70.8592 20.084 70.6332 20.0721 70.6332 20.2995ZM94.4729 20.7129C94.3038 20.8382 94.3184 20.8636 94.7974 21.2782C95.0733 21.517 95.6477 22.0463 96.074 22.4544C96.9495 23.2925 97.694 23.8902 97.7694 23.8154C97.836 23.7493 97.2223 22.6253 96.8684 22.1651C96.3244 21.458 95.84 21.0101 95.3901 20.7982C94.8585 20.5479 94.7138 20.5344 94.4729 20.7129ZM68.5359 20.9806C68.5359 21.1678 69.2555 21.8613 69.7005 22.103C70.284 22.4198 70.204 22.1501 69.5041 21.4421C68.9467 20.8779 68.5359 20.6822 68.5359 20.9806ZM32.5403 21.1274C32.0589 21.3195 32.4981 21.5802 33.6815 21.805C34.424 21.9459 36.165 21.9895 36.165 21.8672C36.165 21.7707 34.6889 21.2461 34.086 21.1285C33.5068 21.0154 32.8224 21.0149 32.5403 21.1274ZM66.2108 21.8482C66.0426 22.1182 66.9678 22.928 67.6013 23.0652C67.971 23.1454 67.9866 23.0218 67.6603 22.5972C67.1886 21.9836 66.3851 21.5684 66.2108 21.8482ZM87.8141 22.0679C88.4624 22.1402 89.008 22.1585 89.1667 22.1133C89.3878 22.0504 89.5124 22.0885 89.9038 22.3388C90.1629 22.5043 90.7295 22.828 91.163 23.0579C92.2864 23.6537 92.8603 24.1107 94.2051 25.4808C96.6039 27.9247 98.6717 31.3925 99.2199 33.8911C99.3443 34.4581 99.6706 35.9196 99.9451 37.1387C100.219 38.3579 100.507 39.8631 100.584 40.4836C100.795 42.1809 100.775 46.5 100.544 49.0409C100.199 52.8399 100.166 53.0874 99.9848 53.2391C99.8931 53.316 99.6274 53.7251 99.3945 54.1481C98.2826 56.1665 97.2994 57.3923 94.855 59.8072C92.4029 62.2298 91.2753 63.099 89.3477 64.0531C87.3517 65.041 86.0808 65.353 83.6873 65.4424C81.7195 65.5161 80.4227 65.4398 79.3414 65.187C78.4795 64.9855 77.723 64.9356 77.2144 65.0467L76.9112 65.1129L76.966 64.7197C77.2063 62.9927 77.2575 60.5682 77.1049 58.129C77.0045 56.5229 76.6948 53.2686 76.558 52.3838C76.018 48.8884 75.6835 47.3151 74.8658 44.422C74.0187 41.4257 73.1546 39.0467 72.3196 37.4132C70.6187 34.0857 68.0448 31.243 65.5279 29.9124C65.1248 29.6993 64.8174 29.4892 64.8446 29.4456C64.9591 29.2618 66.8307 27.8303 67.7152 27.2498C69.7369 25.9232 73.7704 24.2039 77.0618 23.2656C80.8897 22.1745 84.8313 21.7354 87.8141 22.0679ZM28.9078 22.2899C28.5719 22.3763 28.4142 22.4652 28.4142 22.5679C28.4142 22.6758 28.6144 22.7382 29.3082 22.8466C29.644 22.8991 30.5753 23.1205 31.3777 23.3386C32.1801 23.5568 33.0008 23.7592 33.2014 23.7885L33.5662 23.8417L33.247 23.5641C32.81 23.1838 32.1088 22.7946 31.3637 22.5185C30.6952 22.2708 29.4366 22.1537 28.9078 22.2899ZM63.9766 23.1401C63.9766 23.2974 64.2247 23.6368 64.5628 23.9423C64.9076 24.254 65.7675 24.7158 65.8502 24.6339C65.9544 24.5304 65.3328 23.7615 64.8404 23.3846C64.3757 23.0288 63.9766 22.9159 63.9766 23.1401ZM25.3595 23.5174C24.2153 23.8075 24.0915 24.0185 25.0631 24.0226C26.4874 24.0286 26.944 24.1348 29.3106 25.0102C30.3586 25.3979 30.6253 25.4287 30.229 25.1163C30.1085 25.0213 29.9073 24.8524 29.782 24.7411C28.5829 23.676 26.7426 23.1669 25.3595 23.5174ZM61.0748 23.6973C61.1445 24.0043 63.9148 26.3731 64.0488 26.2402C64.1344 26.1553 63.4418 25.0344 63.0209 24.5766C62.4158 23.9185 61.8516 23.5674 61.3989 23.5674C61.1388 23.5674 61.0531 23.6017 61.0748 23.6973ZM79.2958 25.2645C79.2958 25.3409 79.8906 25.92 80.2973 26.2395C80.523 26.4168 80.5233 26.4168 80.3934 26.2364C80.0124 25.7073 79.2958 25.0727 79.2958 25.2645ZM21.7366 25.5407C20.6862 25.822 20.7454 25.8944 22.08 25.9609C24.8179 26.0977 25.0257 26.138 27.1601 26.9469C28.2151 27.3468 28.7789 27.5145 28.7789 27.4284C28.7789 27.3047 27.4384 26.4242 26.767 26.107C25.6434 25.5761 25.0884 25.4533 23.6269 25.4122C22.5957 25.3833 22.2323 25.4079 21.7366 25.5407ZM77.1986 25.9647C77.1986 26.196 77.826 26.803 78.3148 27.0447C78.5712 27.1714 78.7975 27.2587 78.8177 27.2386C78.8726 27.1842 78.5716 26.7299 78.2536 26.3871C77.8037 25.902 77.1986 25.6598 77.1986 25.9647ZM129.91 26.2138C129.916 26.4603 129.929 26.4786 129.995 26.3269C130.103 26.0769 130.103 25.9198 129.995 25.9198C129.945 25.9198 129.907 26.0521 129.91 26.2138ZM129.233 26.5075C129.161 26.6931 129.362 27.6463 129.46 27.5862C129.504 27.5595 129.539 27.367 129.538 27.1585C129.536 26.5111 129.369 26.1553 129.233 26.5075ZM74.0528 26.7654C73.8337 26.9275 73.7681 26.8588 75.0221 27.7794C76.0263 28.5165 76.9383 29.0367 77.1208 28.9764C77.2627 28.9295 76.47 27.9138 75.9167 27.4334C75.1374 26.7571 74.4145 26.498 74.0528 26.7654ZM49.4143 26.945C49.4494 27.0361 49.4781 27.1229 49.4781 27.1378C49.4781 27.1528 49.632 27.2813 49.82 27.4237L50.162 27.6824L49.9612 27.3666C49.8508 27.1929 49.6682 26.9896 49.5554 26.915C49.3658 26.7895 49.3552 26.7918 49.4143 26.945ZM48.0498 27.1473C47.9672 27.3606 48.2031 27.7281 48.6118 28.0231C48.8983 28.2298 48.9827 28.2569 49.0048 28.1495C49.0432 27.9643 48.8191 27.5525 48.5166 27.2524C48.232 26.9699 48.1275 26.9464 48.0498 27.1473ZM45.7395 27.3744C45.7395 27.5926 47.2138 29.086 47.2685 28.9232C47.3207 28.7676 46.8491 27.9569 46.4678 27.5471C46.0948 27.1463 45.7395 27.062 45.7395 27.3744ZM127.818 27.81C127.739 28.1144 127.648 28.2686 127.527 28.2999C127.372 28.3401 127.352 28.4262 127.358 29.0101C127.362 29.3755 127.416 29.8374 127.478 30.0364L127.592 30.3983L127.699 29.9189C127.758 29.6551 127.807 29.2036 127.807 28.9154C127.807 28.6272 127.867 28.1923 127.941 27.9491C128.015 27.7059 128.043 27.4751 128.004 27.4363C127.965 27.3975 127.881 27.5657 127.818 27.81ZM71.7614 28.0518C71.5993 28.1778 71.6114 28.2015 72.001 28.5219C72.2267 28.7076 72.9242 29.3713 73.5511 29.997C74.6156 31.0591 75.1487 31.5124 75.2341 31.4276C75.2871 31.375 74.5788 30.0135 74.3026 29.6372C73.3901 28.3938 72.2428 27.6781 71.7614 28.0518ZM43.7334 28.2008C43.7334 28.2611 43.9573 28.5156 44.231 28.7663C44.7435 29.2357 45.4659 29.6967 45.4659 29.5543C45.4659 29.4204 44.7204 28.6236 44.338 28.3488C43.9576 28.0754 43.7334 28.0205 43.7334 28.2008ZM41.3657 28.8828C41.3738 29.05 41.6228 29.3701 42.0009 29.6988C42.4877 30.1222 43.4598 30.684 43.4598 30.5421C43.4598 30.3654 42.2412 29.2081 41.8449 29.0084C41.4265 28.7976 41.3609 28.7804 41.3657 28.8828ZM125.403 30.0138C125.371 30.4244 125.323 31.3098 125.298 31.9816L125.252 33.203L125.488 32.708C125.867 31.9127 126.009 31.2194 125.964 30.3811C125.935 29.8232 125.882 29.588 125.757 29.4508C125.665 29.35 125.561 29.2674 125.526 29.2674C125.491 29.2674 125.436 29.6032 125.403 30.0138ZM70.3522 30.0453C70.659 30.2741 71.0837 30.6859 71.2959 30.9604C72.3454 32.3179 73.1197 33.2542 73.1598 33.2143C73.2469 33.1278 72.1664 31.2032 71.7139 30.6389C71.2269 30.0316 70.5693 29.6319 70.0543 29.6302C69.8122 29.6294 69.8326 29.6577 70.3522 30.0453ZM38.1727 30.0847C38.3858 30.4797 40.7387 32.2689 40.8716 32.137C40.9479 32.0613 40.0663 31.0384 39.5678 30.6245C39.0688 30.2099 38.5294 29.9195 38.2363 29.9074C38.1004 29.9018 38.0899 29.9312 38.1727 30.0847ZM35.0707 30.4295C35.0707 30.484 35.3887 30.7399 35.7774 30.9984C36.1662 31.2569 36.7919 31.7181 37.168 32.0232C38.2786 32.9242 38.6325 33.1825 38.6849 33.1305C38.7736 33.0424 38.0221 32.1185 37.4066 31.5589C36.8076 31.0143 35.8983 30.4947 35.3561 30.3871C35.1754 30.3513 35.0707 30.3668 35.0707 30.4295ZM56.4082 33.9252C57.0016 34.5365 57.2578 34.63 56.7615 34.0543C56.5294 33.7852 56.2627 33.5509 56.1688 33.5337C56.0509 33.5122 56.1252 33.6337 56.4082 33.9252ZM53.3522 34.698C53.2918 34.7949 53.7915 35.427 54.3467 35.956L54.6722 36.2662L54.595 35.9987C54.3368 35.1053 53.5871 34.3208 53.3522 34.698ZM50.9739 35.1836C50.9372 35.2786 51.0583 35.517 51.3131 35.8506C51.8787 36.5911 53.0549 37.75 53.1019 37.6132C53.2216 37.2656 52.3069 35.603 51.8226 35.2881C51.4771 35.0635 51.0411 35.0098 50.9739 35.1836ZM28.6421 35.3715C27.6197 35.6666 27.1838 35.8318 27.179 35.9264C27.1767 35.9711 27.0536 36.2521 26.9054 36.5506C26.669 37.0272 26.6367 37.1874 26.6414 37.8625C26.6558 39.9175 27.3072 41.1037 28.6369 41.4959C29.9142 41.8726 31.2527 41.9381 32.001 41.6603C33.2872 41.1828 34.2182 39.3483 33.897 37.924C33.6629 36.8864 32.6098 35.7295 31.5338 35.3281C30.8476 35.0721 29.6162 35.0906 28.6421 35.3715ZM47.814 35.8442C47.5187 35.9203 47.6507 36.1381 48.3242 36.6866C49.0772 37.2999 49.3172 37.577 50.0475 38.6768C50.3283 39.0998 50.7356 39.6283 50.9528 39.8513C51.3428 40.2521 51.3478 40.2541 51.375 40.022C51.4647 39.2609 50.754 37.5951 50.0041 36.8083C49.3692 36.1423 48.3679 35.7015 47.814 35.8442ZM12.3774 36.1518C12.0066 36.3357 11.5934 36.6571 11.1719 37.0896C10.7581 37.5142 10.2999 37.8724 9.8804 38.0991C8.69936 38.7377 7.90595 39.7192 7.75303 40.7313C7.55753 42.0246 8.84699 43.9649 10.1521 44.3414C11.6471 44.7726 14.3242 43.9336 15.3136 42.7237C15.9442 41.9526 16.3482 40.862 16.5634 39.3494C16.8002 37.6855 16.0632 36.6997 14.1058 36.0625C13.3217 35.8073 13.0434 35.8217 12.3774 36.1518ZM21.6149 36.1324C21.2134 36.3752 20.7546 36.985 20.7546 37.2755C20.7546 37.6236 21.3443 38.1902 21.7937 38.2738C22.4664 38.399 23.201 38.0124 23.4076 37.4245C23.6326 36.784 22.9979 35.9623 22.2787 35.9629C22.0644 35.9631 21.7707 36.038 21.6149 36.1324ZM31.5145 36.3131C32.9222 37.0475 33.4236 38.111 33.0115 39.488C32.7952 40.2107 32.0888 40.8827 31.3951 41.0255C30.754 41.1576 29.3349 40.9738 28.6112 40.6649C27.7785 40.3094 27.47 39.7075 27.3565 38.2161C27.2932 37.3855 27.3938 36.8439 27.7049 36.3399L27.8909 36.0387L29.4975 36.0688C30.9782 36.0967 31.1363 36.1158 31.5145 36.3131ZM14.1783 37.1606C14.8091 37.3931 15.3426 37.8713 15.4804 38.3276C15.6087 38.7524 15.4927 39.5208 15.1386 40.5908C14.7261 41.8377 14.1653 42.4571 13.0151 42.9366C11.1844 43.6998 10.2058 43.639 9.38243 42.7109C8.70428 41.9464 8.54471 41.048 8.94538 40.2502C9.22495 39.6935 9.51465 39.413 10.4739 38.7703C11.0078 38.4125 11.3285 38.1169 11.5977 37.7345C11.9509 37.2326 12.0107 37.1895 12.5574 37.0417C13.1939 36.8697 13.4377 36.8876 14.1783 37.1606ZM22.3665 37.1026C22.445 37.3057 22.2301 37.4162 21.8103 37.3885C21.3404 37.3575 21.3004 37.1962 21.7327 37.0761C22.2298 36.9381 22.3041 36.9412 22.3665 37.1026ZM45.0328 37.47C44.7812 37.5708 44.9602 37.7899 45.8535 38.4748C47.327 39.6047 48.3006 40.7014 48.9643 41.9791C49.197 42.427 49.5985 43.0768 49.8567 43.4232C50.2798 43.9909 50.3332 44.0338 50.3986 43.8586C50.5173 43.5401 50.331 42.2093 50.0658 41.4815C49.7419 40.5926 49.3431 39.9872 48.5818 39.229C47.7717 38.4219 46.9527 37.8292 46.3264 37.5967C45.8546 37.4215 45.2916 37.3664 45.0328 37.47ZM105.061 38.6688C105.033 38.7142 105.053 39.3554 105.107 40.0938C105.228 41.7415 105.222 41.8002 104.647 45.4172C104.392 47.0153 104.357 47.2878 104.401 47.3308C104.473 47.4028 104.604 47.1206 105.061 45.902C105.749 44.0668 106.013 42.8766 106.013 41.6091C106.013 40.7227 105.787 39.6509 105.457 38.9743C105.27 38.5914 105.161 38.5075 105.061 38.6688ZM116.682 38.9369C116.682 39.4038 116.777 39.853 116.876 39.853C116.92 39.853 116.956 39.568 116.956 39.2196C116.956 38.717 116.927 38.5863 116.819 38.5863C116.721 38.5863 116.682 38.6856 116.682 38.9369ZM43.4598 39.567C43.4598 39.6088 43.559 39.6878 43.6803 39.7427C44.1765 39.967 45.5185 40.8873 45.9776 41.318C46.6441 41.9436 47.0352 42.5553 47.7063 44.0217C48.2646 45.2418 48.7408 46.1338 48.8016 46.0734C48.8716 46.0039 48.4699 44.3671 48.2085 43.6568C47.5852 41.9632 46.6302 40.7868 45.3286 40.1089C44.3405 39.5944 43.4598 39.339 43.4598 39.567ZM112.611 40.9844C112.527 41.2026 112.629 42.4062 112.757 42.7029L112.875 42.9744L112.996 42.7029C113.173 42.3077 113.164 41.1705 112.983 40.9903C112.802 40.8116 112.679 40.8096 112.611 40.9844ZM109.954 41.8604C109.808 42.005 109.818 43.0045 109.971 43.6982L110.092 44.241L110.249 43.8849C110.654 42.9692 110.424 41.3935 109.954 41.8604ZM107.744 42.2657C107.744 42.3071 107.659 42.7278 107.557 43.2006C107.33 44.2515 107.106 45.6719 107.159 45.725C107.217 45.7824 107.232 45.7539 107.551 44.9648C107.928 44.0324 108.165 42.8647 108.048 42.5175C107.968 42.2794 107.748 42.0966 107.744 42.2657ZM35.1091 43.915C34.677 44.1097 34.3119 44.448 34.1046 44.8458C33.6975 45.6269 34.2523 46.7884 35.1085 46.9479C36.4418 47.196 37.7697 45.4332 37.0522 44.3675C36.6498 43.7698 35.8464 43.5827 35.1091 43.915ZM21.8582 44.029C21.3526 44.1732 20.5686 45.0331 20.1157 45.94C19.7782 46.6159 19.7187 46.8181 19.7163 47.2971C19.7107 48.4264 20.4551 49.2042 22.022 49.706C22.5162 49.8642 23.4267 49.8262 23.9695 49.6247C24.6745 49.363 25.4222 48.6649 25.7888 47.9259C26.0418 47.416 26.0889 47.2212 26.0889 46.6857C26.0889 45.3197 25.3733 44.6567 23.3487 44.1471C22.3835 43.9042 22.315 43.8987 21.8582 44.029ZM36.3821 44.9361C36.5479 45.3965 36.0103 46.0923 35.3899 46.2201C35.0089 46.2985 34.8381 46.177 34.9744 45.9245C35.032 45.8175 35.0539 45.6894 35.0229 45.6398C34.992 45.59 35.0127 45.411 35.0688 45.2419C35.2859 44.5893 36.1819 44.3807 36.3821 44.9361ZM22.7204 44.9166C22.8738 44.9532 23.0995 45.0462 23.222 45.1231C23.3443 45.2 23.7024 45.3545 24.0176 45.4664C24.3547 45.5861 24.6786 45.7736 24.8041 45.9216C25.4411 46.6727 24.9994 47.9202 23.8511 48.6126C23.3967 48.8867 23.3018 48.9098 22.7607 48.8785C22.0503 48.8375 21.4693 48.5875 21.0281 48.1334C20.7535 47.8505 20.709 47.744 20.709 47.3692C20.709 46.5381 21.8843 44.6208 22.2911 44.7881C22.3739 44.8221 22.567 44.88 22.7204 44.9166ZM120.01 45.2512C119.342 45.6016 118.846 46.3421 118.58 47.3877C118.346 48.3034 118.389 49.649 118.687 50.7552C119.168 52.5466 119.948 52.655 119.674 50.8927C119.493 49.7283 119.517 48.0641 119.723 47.4403C119.901 46.9029 120.346 46.328 120.536 46.3893C120.598 46.4092 120.722 46.6668 120.812 46.9618C121.297 48.5542 121.692 48.7636 122.838 48.0362C123.439 47.6553 124.138 47.395 124.252 47.5098C124.295 47.5531 124.394 47.894 124.471 48.2672C124.583 48.8102 124.667 48.9954 124.888 49.1945C125.136 49.4168 125.234 49.4433 125.813 49.4433C126.538 49.4433 126.487 49.3584 126.269 50.2069C126.152 50.659 126.217 50.9805 126.489 51.2939L126.703 51.5415L126.523 51.9934C126.425 52.242 126.288 52.5536 126.219 52.686C126.007 53.0957 125.527 54.5138 125.531 54.7208C125.534 54.8777 125.678 54.7679 126.251 54.1749C127.391 52.9948 127.985 51.871 127.803 51.2417C127.757 51.0827 127.638 50.8662 127.538 50.7606C127.367 50.5798 127.364 50.5433 127.49 50.1273C127.564 49.8846 127.624 49.5665 127.624 49.4203C127.624 48.7821 127.043 48.3576 126.168 48.3576C125.719 48.3576 125.718 48.3567 125.659 48.0184C125.53 47.2665 125.414 46.985 125.11 46.6832C124.922 46.4968 124.69 46.3605 124.544 46.3509C123.814 46.303 123.277 46.4462 122.604 46.8681C122.402 46.9943 122.203 47.0766 122.162 47.051C122.12 47.0255 122.061 46.851 122.031 46.6632C121.837 45.4714 120.874 44.7983 120.01 45.2512ZM6.25065 48.7831C5.70801 49.2362 5.54825 50.0403 5.89029 50.5969C6.25312 51.1873 7.36841 50.9412 7.67972 50.2018C8.15179 49.0807 7.12048 48.0569 6.25065 48.7831ZM7.16497 49.6953C7.16041 50.228 6.82987 50.5194 6.54783 50.2395C6.37959 50.0726 6.41771 49.6748 6.62725 49.4105C6.89333 49.0748 7.16908 49.2209 7.16497 49.6953ZM38.4336 49.4701C37.9965 49.7658 37.3475 50.4671 37.1307 50.8778C36.747 51.605 36.5795 53.6216 36.8422 54.3518C37.116 55.1132 37.7048 55.6188 38.7081 55.9542C40.7081 56.6227 42.3238 55.4933 42.7799 53.108C42.9346 52.2987 42.8735 51.7954 42.542 51.1508C42.0321 50.1592 40.6676 49.3332 39.4477 49.2778C38.8415 49.2503 38.7263 49.2721 38.4336 49.4701ZM12.7373 49.6329C12.6158 49.681 12.3398 49.8821 12.1238 50.0796C11.9079 50.277 11.6975 50.4386 11.6561 50.4386C11.5156 50.4386 10.5276 51.4663 10.1104 52.0465C8.9886 53.6062 8.98586 55.006 10.1027 56.0071C10.6975 56.5403 11.1993 56.7253 12.0463 56.7236C12.6732 56.7223 12.8621 56.682 13.3889 56.4363C14.9363 55.7145 15.935 54.159 15.9441 52.4566C15.9474 51.8342 15.9094 51.6369 15.7077 51.2278C15.0974 49.9902 13.7121 49.2463 12.7373 49.6329ZM40.4988 50.5301C41.0701 50.7731 41.5664 51.189 41.8206 51.6378C42.391 52.6447 41.7723 54.6622 40.7243 55.2129C39.913 55.639 38.5384 55.3562 37.8967 54.6309C37.5012 54.1841 37.3927 53.5092 37.5206 52.2933C37.5783 51.7459 37.648 51.2152 37.6758 51.1138C37.7097 50.9901 37.9716 50.8186 38.473 50.5918C39.3122 50.2122 39.7219 50.1997 40.4988 50.5301ZM14.1772 50.8664C14.3594 51.0101 14.6032 51.3085 14.7191 51.5295C15.1672 52.3843 14.8192 53.9177 13.9638 54.8571C13.4796 55.3888 12.6532 55.7766 12.004 55.7766C11.5936 55.7766 11.4055 55.7239 11.0754 55.5161C9.92489 54.7922 9.98371 53.6829 11.2692 51.8606C11.9724 50.8635 12.1315 50.7109 12.4751 50.7037C12.6405 50.7001 12.8579 50.6602 12.9582 50.6149C13.2705 50.4739 13.8245 50.5882 14.1772 50.8664ZM96.1864 51.3433C96.1864 51.5175 96.2052 51.5887 96.228 51.5017C96.251 51.4146 96.251 51.272 96.228 51.185C96.2052 51.098 96.1864 51.1692 96.1864 51.3433ZM29.1665 52.6942C29.0034 52.7957 28.8701 52.9099 28.87 52.9479C28.87 52.986 28.7228 53.18 28.5428 53.379C28.3629 53.5781 28.1417 53.8834 28.0513 54.0576C27.8387 54.4667 27.4482 55.7579 27.3231 56.4653C27.0757 57.8643 27.7979 59.0504 29.2209 59.5816C30.5947 60.0945 32.2052 59.2961 32.9834 57.7163C33.2726 57.1293 33.2925 57.0297 33.2913 56.1838C33.2902 55.3365 33.2704 55.2397 32.9792 54.6617C32.2174 53.1492 30.1495 52.0821 29.1665 52.6942ZM77.993 52.6379C77.9678 52.703 78.0061 53.1407 78.0781 53.6105C78.3386 55.3104 78.3826 55.9478 78.3841 58.0385C78.3855 60.1572 78.4421 61.1147 78.5656 61.1147C78.6691 61.1147 79.288 58.5271 79.3987 57.6314C79.5198 56.6521 79.4468 54.8265 79.2607 54.1755C79.0885 53.573 78.783 52.8879 78.5944 52.6812C78.4224 52.4926 78.0593 52.4665 77.993 52.6379ZM119.919 53.0089C119.761 53.1304 119.755 53.1619 119.874 53.2416C119.949 53.2923 120.174 53.3778 120.375 53.4315C121.399 53.7055 122.136 54.2384 122.918 55.2692C123.932 56.6065 124.582 56.865 124.561 55.9237C124.543 55.067 123.444 53.7686 122.273 53.219C121.755 52.976 121.523 52.9226 120.877 52.898C120.281 52.8752 120.059 52.9009 119.919 53.0089ZM22.4016 53.2942C22.1701 53.5018 21.9889 53.7754 21.8927 54.0628C21.7509 54.4862 21.7523 54.536 21.9213 55.0298C22.0635 55.4458 22.1612 55.5822 22.4072 55.7086C22.8058 55.9134 23.0511 55.9083 23.4899 55.6863C23.871 55.4933 24.2669 54.9316 24.3652 54.444C24.446 54.0427 24.2577 53.5666 23.8917 53.2478C23.6399 53.0284 23.4917 52.9719 23.1681 52.9719C22.8298 52.9719 22.7006 53.0263 22.4016 53.2942ZM93.4169 53.2207C93.3717 53.7834 93.5556 54.6909 93.715 54.6909C93.8177 54.6909 93.9134 53.7356 93.8462 53.3802C93.8019 53.1455 93.7395 53.0624 93.6079 53.0624C93.5038 53.0624 93.4244 53.1282 93.4169 53.2207ZM113.035 53.203C111.06 53.6233 109.347 54.5645 107.43 56.2817C105.925 57.6301 105.212 58.5125 103.531 61.1109C101.701 63.9378 100.115 65.758 97.5362 67.9908C95.2004 70.0133 94.1653 70.7368 92.1986 71.7217C89.7922 72.9268 88.0914 73.5545 85.6333 74.1451C81.7813 75.0705 79.8273 75.1608 75.8308 74.5984C73.4683 74.2659 72.9489 74.2194 71.5451 74.2152C69.2513 74.2083 67.3406 74.5741 65.4997 75.3726C63.7442 76.1342 62.8003 77.0772 62.2722 78.5975C61.8733 79.7456 61.9775 81.8335 62.4336 81.8335C62.53 81.8335 62.6088 81.8202 62.6088 81.804C62.6088 81.4831 62.9243 79.7285 63.0598 79.2959C63.5596 77.7 64.7833 76.7732 67.2367 76.1324C69.5438 75.5297 71.606 75.5081 75.6028 76.0446C79.9512 76.6284 82.212 76.5191 86.1804 75.5333C89.4422 74.7231 92.6051 73.4198 94.9459 71.9216C96.5864 70.8715 98.0381 69.66 100.298 67.4549C102.427 65.3778 103.603 63.878 105.201 61.2012C106.209 59.5144 106.901 58.6206 108.051 57.5214C109.573 56.067 110.734 55.3311 112.305 54.8242C114.104 54.2439 117.294 54.492 119.186 55.3592C120.418 55.9238 121.542 56.9643 122.487 58.413C123.324 59.6974 123.536 60.5375 123.535 62.5623C123.534 64.0943 123.399 64.8049 122.79 66.4742C122.441 67.4311 120.649 70.6583 119.715 72.0112C118.095 74.3589 114.817 78.0377 112.534 80.0692C111.421 81.0596 110.299 82.2019 110.299 82.3447C110.299 82.4095 110.409 82.5341 110.543 82.6214C110.738 82.7481 110.983 82.7798 111.752 82.7778C112.57 82.7756 112.774 82.7447 113.107 82.5721C113.538 82.348 116.145 79.9487 116.998 78.9906C120.261 75.3261 123.526 70.3239 124.338 67.7463C124.933 65.8587 125.214 63.8379 125.139 61.9989C125.059 60.0446 124.757 59.0695 123.768 57.5813C122.377 55.486 120.838 54.2432 118.87 53.6255C117.268 53.1223 114.392 52.9141 113.035 53.203ZM23.5813 53.7862C23.9505 54.1525 23.6778 54.9009 23.071 55.1866C22.6994 55.3616 22.7292 55.3749 22.5918 54.9715C22.4414 54.5297 22.4625 54.2345 22.6685 53.8993C22.8842 53.5482 23.2908 53.4979 23.5813 53.7862ZM30.7223 53.8285C30.9824 53.9514 31.3671 54.2182 31.5771 54.4215C32.6526 55.4628 32.6304 57.0726 31.527 58.0617C31.0038 58.5308 30.6788 58.6721 30.1285 58.6698C29.1992 58.666 28.443 58.0975 28.2376 57.2485C28.1501 56.8861 28.1566 56.6077 28.2718 55.788C28.3501 55.231 28.4142 54.7371 28.4142 54.6905C28.4142 54.644 28.6296 54.4682 28.8929 54.2998C29.1562 54.1313 29.4498 53.9062 29.5453 53.7994C29.7748 53.543 30.1362 53.5519 30.7223 53.8285ZM91.3877 54.6531C91.2535 55.0002 91.4045 56.0602 91.6058 56.1837C91.7417 56.267 92.0619 55.5444 92.0619 55.1543C92.0619 54.6403 91.9881 54.51 91.6971 54.51C91.5496 54.51 91.4199 54.5699 91.3877 54.6531ZM81.683 54.988C81.5011 55.2056 81.3945 56.2711 81.4006 57.8123C81.4069 59.4087 81.4815 60.244 81.6012 60.0576C81.7261 59.863 82.0266 58.2811 82.1307 57.2695C82.241 56.1987 82.1949 55.3462 82.011 55.054C81.8772 54.8415 81.8159 54.8292 81.683 54.988ZM83.6692 55.3309C83.4837 55.6748 83.8249 58.4014 84.1187 58.9222C84.2647 59.1811 84.3567 58.4724 84.3567 57.0885C84.3567 55.9829 84.3334 55.7825 84.1735 55.5124C83.9447 55.126 83.8065 55.0763 83.6692 55.3309ZM88.3232 55.5284C88.3232 55.8875 88.7035 57.4507 88.8186 57.5649C88.979 57.7241 88.7623 55.6361 88.5838 55.3016C88.4379 55.0284 88.3232 55.1282 88.3232 55.5284ZM85.9169 55.3984C85.8344 55.531 86.2344 57.8961 86.3605 58.0212C86.4807 58.1405 86.5261 57.8869 86.5313 57.068C86.5344 56.5695 86.4857 56.0354 86.4196 55.8437C86.3052 55.5115 86.0096 55.2497 85.9169 55.3984ZM111.935 56.2243C111.32 56.4096 111.1 56.7487 111.468 56.9443C111.86 57.1523 115.588 57.1734 115.588 56.9677C115.588 56.9076 115.439 56.8335 114.732 56.5428C113.987 56.2368 112.468 56.0637 111.935 56.2243ZM70.7787 57.1564C70.7166 57.5613 70.532 61.6715 70.476 63.8959C70.4296 65.74 70.489 66.705 70.6335 66.4491C70.7527 66.2374 71.3389 63.2392 71.464 62.2004C71.6391 60.7464 71.6154 58.4787 71.4179 57.8123C71.1463 56.895 70.8633 56.6046 70.7787 57.1564ZM44.1892 57.4278C43.8475 57.6593 43.5508 58.1529 43.5514 58.4894C43.552 58.9029 43.8781 59.2909 44.4278 59.5321C45.1216 59.8366 45.4202 59.8251 45.7436 59.4818C46.4896 58.6894 45.9313 57.2242 44.8835 57.2242C44.6251 57.2242 44.3866 57.2942 44.1892 57.4278ZM19.7971 57.8703C18.6115 58.3879 18.2715 58.8897 18.273 60.1194C18.2741 61.1053 18.5003 61.7255 19.0905 62.361C19.6705 62.9853 20.1114 63.2105 20.8612 63.2651C21.5954 63.3185 22.0758 63.1251 22.658 62.5417C23.1663 62.0323 23.4168 61.3551 23.4255 60.4671C23.4315 59.8597 23.3955 59.7002 23.1339 59.1728C22.7716 58.4426 22.26 58.0321 21.383 57.7677C20.61 57.5347 20.5579 57.5381 19.7971 57.8703ZM111.766 57.6899C111.158 57.7622 110.963 57.8597 111.073 58.037C111.155 58.1681 111.734 58.0807 112.305 57.8514C112.531 57.7606 112.695 57.6811 112.67 57.6746C112.483 57.626 112.276 57.6295 111.766 57.6899ZM45.1945 57.9491C45.5277 58.1261 45.502 59.0467 45.1602 59.1769C45.0887 59.2041 44.8751 59.0639 44.667 58.8533C44.2675 58.4488 44.2464 58.2262 44.5857 57.9904C44.8108 57.834 44.9587 57.824 45.1945 57.9491ZM21.3258 58.4907C22.4323 58.9014 22.9797 60.0492 22.6332 61.232C22.2997 62.3702 21.36 62.8571 20.4341 62.3718C19.6209 61.9455 19.2173 61.2866 19.1388 60.2574C19.08 59.487 19.1947 59.073 19.5639 58.722C20.0076 58.3003 20.6026 58.2222 21.3258 58.4907ZM6.28056 58.7815C6.03354 58.8997 5.70883 59.535 5.70928 59.8992C5.70965 60.1719 6.00928 60.7527 6.14953 60.7527C6.19275 60.7527 6.32278 60.8342 6.43841 60.9337C6.74442 61.1971 7.21485 61.1714 7.49051 60.8762C8.38568 59.9178 7.41546 58.238 6.28056 58.7815ZM119.38 59.1116C119.353 59.1544 119.62 59.592 119.972 60.0842C120.747 61.1661 121.083 61.8313 121.335 62.7884C121.441 63.1865 121.635 63.8155 121.767 64.1861L122.007 64.86L122.09 64.548C122.136 64.3765 122.153 63.7475 122.129 63.1503C122.095 62.32 122.036 61.937 121.878 61.5218C121.512 60.5645 120.708 59.591 119.977 59.2209C119.572 59.0156 119.453 58.994 119.38 59.1116ZM110.044 59.317C109.879 59.3643 109.719 59.4665 109.689 59.5442C109.552 59.8968 110.202 59.903 111.323 59.5596C111.66 59.4562 111.914 59.3364 111.887 59.2932C111.823 59.1893 110.427 59.2074 110.044 59.317ZM7.05847 59.5042C7.17218 59.617 7.21157 60.3174 7.10981 60.4183C7.0778 60.45 6.93418 60.393 6.79066 60.2915C6.59461 60.1531 6.52959 60.0335 6.52959 59.8117C6.52959 59.6492 6.55695 59.4891 6.59041 59.456C6.68716 59.3599 6.93929 59.3859 7.05847 59.5042ZM109.706 60.9738C108.923 61.0947 108.349 61.33 108.411 61.5045C108.456 61.6311 108.947 61.6096 109.342 61.4638C109.975 61.2296 110.481 60.987 110.481 60.9176C110.481 60.8767 110.471 60.8473 110.459 60.8522C110.446 60.8571 110.108 60.9118 109.706 60.9738ZM37.1329 61.575C36.6128 61.981 36.5211 62.5499 36.8486 63.3402C36.9935 63.6898 37.5018 64.0103 37.9083 64.0084C38.5698 64.0052 39.2653 63.344 39.2653 62.7184C39.2653 62.3417 38.9334 61.7652 38.6005 61.5639C38.1929 61.3172 37.456 61.3228 37.1329 61.575ZM69.2824 61.5864C69.1435 61.7242 69.1358 64.0046 69.2725 64.4934C69.326 64.6846 69.3849 64.8262 69.4033 64.8079C69.5191 64.693 69.7212 63.289 69.7213 62.5989C69.7213 61.9191 69.6926 61.7502 69.5559 61.6276C69.4284 61.513 69.3658 61.5036 69.2824 61.5864ZM11.4955 62.1431C10.6881 62.5161 10.2682 63.1809 10.2682 64.086C10.2682 64.6828 10.3679 65.0121 10.8475 66.0004C11.2892 66.9104 11.6203 67.2864 12.3688 67.7276C12.9265 68.0563 13.0397 68.0911 13.3698 68.0358C14.4999 67.8464 15.3921 66.332 15.2519 64.8415C15.1502 63.762 14.3135 62.5023 13.4353 62.1067C12.8835 61.8582 12.0794 61.8733 11.4955 62.1431ZM38.2126 62.0756C38.3788 62.1389 38.627 62.5673 38.627 62.7909C38.627 63.0438 38.1223 63.467 37.8208 63.467C37.3343 63.467 37.2592 63.3947 37.2592 62.9267C37.2592 62.2351 37.6695 61.8689 38.2126 62.0756ZM66.9858 62.0879C66.9858 62.1255 67.028 62.2985 67.0797 62.4724C67.1313 62.6462 67.2136 63.7028 67.2627 64.8202C67.3478 66.758 67.4312 67.2749 67.5826 66.8017C68.0162 65.4463 68.2067 63.5958 67.9851 62.8939C67.8361 62.422 67.4731 62.0194 67.1967 62.0194C67.0807 62.0194 66.9858 62.0502 66.9858 62.0879ZM119.505 63.3159C119.934 64.1546 120.049 64.4796 120.14 65.1028C120.31 66.2661 120.507 67.2079 120.6 67.3004C120.651 67.351 120.707 67.2812 120.743 67.1218C120.775 66.9777 120.848 66.7173 120.904 66.5432C120.961 66.369 121.005 65.799 121.003 65.2765C120.999 64.2248 120.87 63.8291 120.311 63.1572C120.019 62.8057 119.294 62.2908 119.09 62.2908C119.029 62.2908 119.214 62.7474 119.505 63.3159ZM13.0871 62.8297C13.6814 63.1305 14.1334 63.7747 14.3276 64.5979C14.4116 64.9535 14.4088 65.1743 14.3147 65.6296C14.1028 66.6545 13.5196 67.266 12.753 67.2666C12.4256 67.2669 12.3117 67.2136 12.0184 66.9226C11.3313 66.2409 10.7661 64.9226 10.8383 64.1704C10.8925 63.6057 11.2434 63.092 11.7425 62.8469C12.2333 62.6059 12.6348 62.6007 13.0871 62.8297ZM107.883 62.7836C107.632 62.8473 107.304 62.9534 107.153 63.0196L106.88 63.14L107.133 63.1741C107.378 63.2069 108.374 62.9252 108.658 62.7432C108.855 62.617 108.459 62.6376 107.883 62.7836ZM54.2198 62.9168C54.2198 63.0124 54.2808 63.3279 54.3553 63.618C54.7982 65.3423 54.8174 65.6495 54.8509 71.5419C54.8549 72.2262 54.8943 72.786 54.9386 72.786C54.9829 72.786 55.0393 72.6943 55.0639 72.5824C55.9189 68.6978 56.0205 66.8873 55.4993 64.8241C55.2848 63.9753 55.1307 63.6148 54.7739 63.1277C54.4772 62.7228 54.2198 62.6248 54.2198 62.9168ZM57.5104 64.1248C57.3356 64.5809 57.3058 66.3102 57.4472 67.8024C57.5856 69.2651 57.7033 69.7165 57.8112 69.1985C58.2175 67.2479 58.3332 65.41 58.0993 64.6203C57.9188 64.0103 57.6431 63.7784 57.5104 64.1248ZM106.196 64.2502C105.364 64.4715 105.212 64.825 105.95 64.8232C106.324 64.8224 107.06 64.5361 107.427 64.2488C107.599 64.1138 107.584 64.1064 107.153 64.1115C106.902 64.1144 106.471 64.1768 106.196 64.2502ZM44.8276 64.2758C44.3928 64.3624 43.9535 64.602 43.7797 64.847C43.317 65.4995 43.1716 65.724 42.9743 66.0908C42.2294 67.4758 42.5547 69.2534 43.7137 70.1304C44.9408 71.0591 46.6239 70.9926 47.4964 69.9813C47.8999 69.5136 48.2036 68.6344 48.2024 67.9374C48.2011 67.1909 47.8976 66.065 47.5545 65.5346C46.9709 64.6321 45.7853 64.0848 44.8276 64.2758ZM59.8374 64.5753C59.7816 64.9532 59.9169 67.6118 59.9957 67.69C60.1309 67.8242 60.2329 64.7834 60.1065 64.3882C60.0078 64.0796 59.8993 64.1551 59.8374 64.5753ZM45.8807 64.9252C46.4681 65.0719 47.0502 65.6166 47.2987 66.252C47.5605 66.9219 47.5854 68.2118 47.347 68.7585C47.001 69.5519 46.366 69.9363 45.5136 69.8685C43.9509 69.744 43.0784 68.4406 43.4902 66.8457C43.7737 65.7481 44.523 64.9601 45.4027 64.8346C45.4432 64.8288 45.6583 64.8696 45.8807 64.9252ZM118.365 65.194C118.452 65.5561 118.464 66.9645 118.391 68.3074L118.323 69.5741L118.553 69.0901C119.155 67.8274 119.317 66.3738 118.939 65.6415C118.826 65.4231 118.639 65.184 118.523 65.1101C118.322 64.9817 118.315 64.9852 118.365 65.194ZM30.2835 65.8908C29.9756 65.9993 29.2036 66.4694 28.9282 66.7163C28.1208 67.4399 27.7088 68.9941 28.0494 70.0308C28.4384 71.2144 30.1564 72.604 31.5683 72.8773C32.5672 73.0706 33.6753 72.654 34.2478 71.87C34.7666 71.1594 34.921 70.5968 34.9279 69.3931C34.9338 68.3456 34.9235 68.2863 34.6371 67.7053C34.2791 66.9793 33.5414 66.2706 32.9084 66.0448C32.4456 65.8797 30.6192 65.7726 30.2835 65.8908ZM105.375 65.8783C104.902 65.9498 104.463 66.1242 104.463 66.241C104.463 66.3077 104.555 66.3619 104.668 66.3613C104.879 66.3604 105.831 65.9572 105.831 65.8688C105.831 65.8179 105.767 65.8193 105.375 65.8783ZM32.5816 66.5888C33.1437 66.7544 33.7239 67.2831 34.0018 67.8828C34.265 68.4512 34.2792 69.7933 34.0295 70.5169C33.659 71.5909 32.692 72.1919 31.6809 71.9767C30.555 71.7372 29.1004 70.6245 28.8207 69.7889C28.5586 69.0061 28.8421 68.0149 29.6108 67.0263C29.9488 66.5916 30.0144 66.5497 30.4049 66.5189C31.4252 66.4384 32.1502 66.4616 32.5816 66.5888ZM104.073 67.5467C103.642 67.6474 103.187 67.8767 103.187 67.9931C103.187 68.1555 103.657 68.0835 104.131 67.8486C104.912 67.4611 104.892 67.3553 104.073 67.5467ZM116.833 68.5428C116.808 68.7119 116.745 69.1149 116.693 69.4384C116.642 69.7618 116.575 70.3929 116.546 70.8407L116.492 71.655L116.722 71.2315C116.849 70.9985 117.04 70.4925 117.147 70.107C117.373 69.2886 117.344 68.6976 117.063 68.4195L116.878 68.2352L116.833 68.5428ZM20.2531 69.1128C19.3882 69.385 18.5974 70.006 18.2545 70.6825C18.0015 71.1817 17.912 71.8674 18.0276 72.4235C18.2442 73.4671 18.6871 74.0021 19.9663 74.7657C20.8573 75.2975 20.9741 75.3427 21.4476 75.3385C21.7304 75.336 22.006 75.29 22.0603 75.2361C22.1145 75.1823 22.284 75.1381 22.437 75.1379C22.7251 75.1376 23.2603 74.8626 23.4711 74.6066C23.8365 74.1628 23.9819 73.6459 23.9834 72.786C23.9856 71.5149 23.628 70.6592 22.7566 69.8504C21.9311 69.0843 21.1114 68.8428 20.2531 69.1128ZM21.8118 70.2952C22.6113 70.8158 23.1384 71.8505 23.1384 72.8992C23.1384 73.5131 23.0094 73.838 22.6 74.2562C22.2948 74.5679 22.2266 74.5955 21.7619 74.5955C21.2839 74.5955 21.2044 74.5601 20.3162 73.9524C19.1699 73.168 18.9078 72.8213 18.8564 72.0205C18.8035 71.1959 19.1405 70.6111 19.8883 70.2302C20.7003 69.8166 21.0973 69.83 21.8118 70.2952ZM11.5904 70.9675C11.156 71.1572 10.8136 71.7349 10.8173 72.2716C10.82 72.6562 11.109 73.2691 11.3754 73.4548C11.6353 73.636 12.2402 73.8139 12.5333 73.7954C12.8226 73.777 13.2506 73.4616 13.4155 73.1452C13.7172 72.5664 13.4527 71.6397 12.8571 71.189C12.5252 70.9378 11.906 70.8295 11.5904 70.9675ZM114.911 71.4495C114.877 71.5626 114.829 72.0825 114.804 72.605C114.761 73.4954 114.767 73.5397 114.9 73.3116C115.1 72.9658 115.328 71.9236 115.262 71.6593C115.174 71.3138 114.985 71.2007 114.911 71.4495ZM12.5853 71.8882C12.8216 72.1667 12.8874 72.5425 12.7404 72.7727C12.6974 72.8401 12.4939 72.9699 12.2882 73.0613L11.9141 73.2275L11.7295 72.9945C11.4963 72.7004 11.4773 72.0147 11.6957 71.7753C11.9308 71.5175 12.312 71.5658 12.5853 71.8882ZM113.27 74.318C112.987 75.206 112.982 75.2629 113.219 74.9121C113.466 74.5451 113.697 73.7685 113.589 73.6622C113.538 73.6112 113.414 73.8661 113.27 74.318ZM40.1293 74.7766C39.737 74.8974 39.2733 75.4086 39.1353 75.8725L39.0172 76.2693L38.4346 76.2399C37.9435 76.2151 37.8018 76.2441 37.5328 76.424C36.8328 76.8921 36.8562 77.984 37.5908 79.1388C37.7166 79.3364 37.8062 79.5063 37.7901 79.516C37.1759 79.8889 36.9504 80.0858 36.8417 80.3437C36.5662 80.998 36.7692 81.6218 37.4803 82.3058C37.7515 82.5665 37.9172 82.8219 37.9878 83.0879C38.108 83.5412 38.3571 83.8203 38.8757 84.0828C39.4289 84.3628 40.5915 84.6455 41.4242 84.7024C42.1121 84.7494 42.1738 84.7699 42.2238 84.9672C42.2925 85.2388 42.5314 85.2456 42.5861 84.9775C42.6089 84.8656 42.6486 84.4188 42.6744 83.9848C42.724 83.1481 42.9822 82.1442 43.3208 81.4716C43.5983 80.9205 43.8453 80.1522 43.8075 79.9577C43.783 79.8311 43.6924 79.8832 43.3661 80.2116C42.6366 80.9458 42.1806 82.0519 42.0341 83.4427C42.0015 83.7519 41.95 84.0044 41.9195 84.0039C41.7519 84.0008 39.5777 83.0812 39.4348 82.9529C39.3416 82.8692 39.2653 82.7138 39.2653 82.6076C39.2653 82.3442 38.9489 81.7484 38.7272 81.5944C38.6275 81.5251 38.4591 81.3475 38.3532 81.1997L38.1604 80.9312L38.6546 80.7142C39.5494 80.3216 39.6818 79.7844 39.1055 78.8844C38.6601 78.1888 38.4312 77.6905 38.5293 77.6304C38.5725 77.6039 38.8071 77.6193 39.0505 77.6647C39.294 77.7101 39.6068 77.7254 39.7456 77.6986C40.1056 77.6292 40.3595 77.2317 40.3595 76.7376C40.3595 76.5131 40.3844 76.2649 40.4149 76.1862C40.5149 75.9274 41.0619 76.0156 41.7729 76.405C42.2544 76.6687 42.5395 76.7669 42.824 76.7669C43.1832 76.7669 43.2526 76.8085 43.6914 77.2871C43.9536 77.5732 44.2965 77.8811 44.453 77.9712C44.7177 78.1235 44.7421 78.1243 44.7968 77.9828C44.9044 77.7046 44.6617 76.7629 44.3637 76.302C44.035 75.794 43.7094 75.592 43.1578 75.5539C42.9196 75.5374 42.5112 75.3839 42.0723 75.1457C41.3205 74.7379 40.6619 74.6127 40.1293 74.7766ZM56.3281 76.7363C55.7385 77.0327 55.4953 77.7887 55.8497 78.223L56.0207 78.4325L56.2078 78.0686C56.5634 77.377 56.8113 77.3439 57.5096 77.8947C57.9534 78.2447 58.4122 78.3129 58.7281 78.0759C58.9843 77.8836 59.086 77.9059 59.6388 78.2754L60.1362 78.6076L59.9986 78.9313C59.9229 79.1093 59.8374 79.5281 59.8086 79.8619C59.7667 80.3485 59.7877 80.5167 59.9149 80.7093C60.0491 80.9123 60.0929 80.9304 60.198 80.8261C60.4239 80.6015 61.1596 78.6348 61.2125 78.1138C61.272 77.5282 61.1807 77.4147 60.8548 77.669L60.6295 77.8449L60.1736 77.4089C59.5673 76.8291 59.0989 76.7359 58.4314 77.0623C58.2675 77.1424 58.1763 77.1375 58.0211 77.0399C57.338 76.6106 56.7779 76.5102 56.3281 76.7363ZM68.4903 77.3125C67.1127 77.526 66.1671 78.2635 65.697 79.4911C65.4923 80.0254 65.6112 80.1372 65.9546 79.7331C66.609 78.963 67.2563 78.4165 67.8976 78.0927C68.6772 77.699 69.1727 77.3862 69.1736 77.2871C69.1743 77.2112 69.1345 77.2126 68.4903 77.3125ZM29.2985 77.6185C28.6628 77.754 28.5351 77.873 28.0544 78.7786C27.6249 79.5873 27.4111 80.4726 27.4111 81.4419C27.4111 82.0137 27.4555 82.2166 27.6852 82.6941C28.344 84.0636 30.2566 85.1148 31.5431 84.8146C32.221 84.6563 32.6101 84.4385 33.0382 83.9777C33.6507 83.3184 33.8555 82.8326 33.9722 81.7624C34.0748 80.822 33.9495 79.7855 33.6599 79.1781C33.359 78.547 32.673 77.9233 32.0082 77.6765C31.4244 77.4597 30.1699 77.4329 29.2985 77.6185ZM70.77 78.0776C69.843 78.327 69.083 78.7537 69.083 79.0248C69.083 79.182 70.3431 78.6496 71.1803 78.1386C71.5428 77.9173 71.4288 77.9003 70.77 78.0776ZM48.3651 78.167C47.2927 78.4598 45.4131 79.6372 44.8948 80.3406C44.297 81.1517 43.769 82.4138 43.4491 83.7959C43.2636 84.597 43.2441 84.9081 43.249 86.9906L43.2545 89.2977L43.5806 90.2208C43.9997 91.4075 44.0901 91.577 44.8252 92.5548C45.1618 93.0027 45.5976 93.6011 45.7936 93.8848C46.3364 94.6706 47.9764 96.5487 48.7461 97.2659C50.8969 99.2703 51.3704 99.6807 52.5328 100.548C54.2725 101.846 55.5588 102.695 57.0339 103.519C57.7179 103.901 58.9277 104.595 59.7224 105.06C60.517 105.526 61.5634 106.104 62.0476 106.344C64.5837 107.603 70.0459 109.363 74.0221 110.202C75.9808 110.615 81.0148 111.019 83.0801 110.928C83.6819 110.901 84.7488 110.856 85.4509 110.827C88.1142 110.719 90.7615 110.357 92.4722 109.868C93.3697 109.611 96.5352 108.55 97.3333 108.239C98.3685 107.834 99.959 107.021 100.677 106.529C101.55 105.93 102.953 104.696 103.409 104.125C104.043 103.333 105.28 101.56 105.7 100.842C105.921 100.464 106.264 99.7069 106.462 99.1595C107.271 96.9181 107.434 95.6423 107.151 93.753C106.866 91.8471 106.393 90.8338 105.215 89.6053C104.081 88.4237 102.91 87.7669 101.089 87.2918C100.194 87.0583 100.01 87.0421 98.2625 87.0415C96.6698 87.0411 96.2448 87.0715 95.3901 87.2472C94.1472 87.5026 90.0987 88.5208 88.688 88.9328C85.3071 89.92 83.3855 90.255 80.0463 90.4392C75.827 90.6719 73.8197 90.1919 68.9919 87.7954C67.382 86.9964 64.6382 85.3803 63.5627 84.5978C63.1634 84.3072 62.488 83.7759 62.0617 83.417C58.2593 80.216 54.8307 78.4595 51.7385 78.1283C50.5625 78.0024 48.8976 78.0214 48.3651 78.167ZM73.6556 78.2142C73.238 78.3122 72.6393 78.5869 72.6393 78.6806C72.6393 78.8268 73.0253 78.7562 73.4923 78.5247C74.2302 78.1588 74.2778 78.0684 73.6556 78.2142ZM32.0399 78.5387C32.9678 78.9892 33.2905 79.7149 33.2313 81.2181C33.1905 82.2579 32.9584 82.9185 32.4639 83.4033C31.547 84.302 30.0649 84.1913 29.0105 83.1451C28.3153 82.4553 28.1942 82.081 28.2563 80.8148C28.3162 79.5934 28.4192 79.2704 28.8908 78.8252C29.0884 78.6386 29.2569 78.4834 29.2653 78.4802C29.2736 78.4771 29.5882 78.419 29.9643 78.351C30.8498 78.191 31.4321 78.2437 32.0399 78.5387ZM51.4019 79.3004C52.7028 79.4482 54.7536 80.1154 56.0051 80.7978C57.8787 81.8195 59.1149 82.6592 61.3778 84.4479C62.8595 85.6191 63.5235 86.0667 65.5268 87.2446C69.1701 89.3869 72.8701 90.8862 75.8814 91.4404C76.8497 91.6187 77.259 91.6403 79.5694 91.6351C82.9985 91.6275 84.3932 91.4464 87.7761 90.5692C95.9109 88.4599 97.2674 88.208 99.3369 88.4225C100.796 88.5739 101.315 88.7197 102.546 89.3246C103.504 89.7958 104.676 90.9547 105.133 91.8843C106.136 93.9211 106.1 96.4109 105.03 99.0637C104.208 101.1 102.678 102.714 99.7359 104.647C98.5123 105.45 97.5529 105.966 96.2352 106.527C92.5046 108.115 89.4913 108.633 83.9007 108.649C80.8336 108.657 80.1521 108.611 76.7426 108.155C69.3852 107.172 63.865 105.094 56.7627 100.635C56.0913 100.213 55.1726 99.6507 54.7213 99.3852C52.4512 98.0498 48.5747 94.318 46.8888 91.8447C44.9052 88.9352 44.3072 86.68 44.8177 84.0347C45.0898 82.6249 45.7054 80.9932 46.0024 80.8946C46.0834 80.8678 46.4781 80.6411 46.8793 80.391C48.5125 79.3733 49.6438 79.1004 51.4019 79.3004ZM22.2829 81.4772C21.919 81.6678 21.5752 82.2074 21.5752 82.5879C21.5752 83.4447 22.7732 84.5195 23.5206 84.3334C23.8688 84.2466 24.2865 83.8546 24.4026 83.5053C24.4855 83.2561 24.4781 83.0958 24.3663 82.7166C24.1849 82.102 24.0161 81.8736 23.506 81.5527C23.021 81.2474 22.7532 81.2309 22.2829 81.4772ZM48.2371 81.9784C47.6903 82.3413 47.4002 82.6415 46.9784 83.2811C46.1874 84.4806 45.9277 85.5656 46.1391 86.7883C46.2992 87.7141 46.4135 87.7792 46.6334 87.0695C46.7316 86.7523 46.8408 86.269 46.876 85.9953C47.0329 84.7771 47.5315 83.7524 48.4717 82.7155C49.12 82.0006 49.2063 81.743 48.7972 81.743C48.6841 81.743 48.4321 81.849 48.2371 81.9784ZM23.5594 82.3607C23.7869 82.644 23.8618 83.1214 23.7139 83.3453C23.5367 83.6137 23.2499 83.6079 22.8339 83.3274C22.4714 83.083 22.3503 82.8403 22.4313 82.5202C22.5301 82.1293 23.2875 82.0222 23.5594 82.3607ZM55.9448 82.4117C56.0159 82.4972 56.1596 82.6123 56.264 82.6675C56.4367 82.7589 56.4421 82.7539 56.3245 82.6124C56.2534 82.5269 56.1098 82.4118 56.0054 82.3566C55.8326 82.2652 55.8272 82.2702 55.9448 82.4117ZM110.412 84.4091C109.112 85.0096 108.12 86.02 107.477 87.3977C107.153 88.0917 106.583 89.6272 106.514 89.9943C106.429 90.4426 106.525 90.7001 106.777 90.7001C107.151 90.7001 107.427 90.3392 107.884 89.2525C108.459 87.8877 108.794 87.308 109.349 86.7252C109.871 86.1756 110.915 85.4525 111.186 85.4525C111.461 85.4525 111.172 86.4646 110.583 87.5653C110.254 88.1781 110.224 88.5449 110.481 88.8001C110.743 89.0595 110.929 89.03 111.873 88.5792C112.708 88.1809 113.54 87.9148 113.641 88.0142C113.729 88.1013 113.343 88.5676 112.809 89.0207C112.005 89.7018 111.859 90.1774 112.321 90.605C112.517 90.7861 112.738 90.8739 113.468 91.0603C113.681 91.1148 113.855 91.2134 113.855 91.2796C113.855 91.3456 113.578 91.5226 113.24 91.6728C111.924 92.2565 111.696 92.9241 112.529 93.7504C112.783 94.0032 112.886 94.1635 112.819 94.2057C112.762 94.2415 112.182 94.2959 111.53 94.3266C110.618 94.3694 110.222 94.4292 109.815 94.5853C109.187 94.8262 109.163 94.987 109.713 95.2881C110.349 95.6359 111.163 95.7937 112.078 95.7463C112.923 95.7024 113.254 95.5926 113.83 95.1656C114.373 94.7621 114.449 93.8796 113.988 93.3361C113.865 93.1906 113.764 93.0358 113.764 92.9921C113.764 92.9484 113.917 92.8321 114.104 92.7337C115.643 91.9227 115.718 90.656 114.263 90.0576C113.988 89.9448 113.764 89.8266 113.764 89.7949C113.764 89.7633 113.9 89.5774 114.066 89.3818C114.586 88.7681 114.767 88.402 114.767 87.9605C114.767 87.6126 114.724 87.5135 114.487 87.3153C114.25 87.1179 114.116 87.081 113.635 87.081C113.321 87.081 112.864 87.1406 112.62 87.2134C112.376 87.2862 112.161 87.3306 112.143 87.3119C112.124 87.2932 112.214 86.987 112.344 86.6313C112.612 85.8917 112.651 85.1301 112.44 84.7257C112.143 84.1557 111.259 84.0177 110.412 84.4091ZM58.6879 84.6344C58.6879 84.7388 59.4972 85.2224 59.563 85.1573C59.6269 85.0939 58.9467 84.5477 58.8038 84.5477C58.74 84.5477 58.6879 84.5867 58.6879 84.6344ZM47.861 85.2567C47.802 85.2929 47.6481 85.5515 47.5189 85.8314C47.3149 86.2736 47.2838 86.4645 47.2821 87.2869C47.2801 88.2668 47.3464 88.7414 47.4744 88.6629C47.6623 88.5477 48.1585 85.3796 48.0114 85.2337C47.9877 85.2102 47.92 85.2205 47.861 85.2567ZM48.2268 88.0989C47.9873 88.406 48.0289 89.0084 48.3402 89.7429C48.4545 90.0126 48.5103 90.0669 48.5726 89.9691C48.6849 89.7931 48.6777 88.7405 48.5614 88.3251C48.4619 87.9695 48.374 87.9101 48.2268 88.0989ZM65.8915 89.0694C66.0993 89.2215 67.2593 89.8035 67.2593 89.7555C67.2593 89.6882 66.2108 89.0974 65.9721 89.0302C65.7995 88.9818 65.7829 88.9898 65.8915 89.0694ZM49.2019 89.5723C49.1015 89.6923 49.0998 89.7954 49.1924 90.1416C49.2546 90.3741 49.3696 90.6254 49.448 90.7001C49.5769 90.8227 49.5861 90.7763 49.5441 90.2167C49.4929 89.5326 49.3927 89.3441 49.2019 89.5723ZM98.9511 90.1495C98.8784 90.2662 99.9266 91.5143 100.097 91.5143C100.241 91.5143 99.8413 90.7329 99.5323 90.4105C99.2011 90.0652 99.0469 89.9959 98.9511 90.1495ZM97.7231 90.4513C97.8515 90.6994 98.3608 91.2429 98.4648 91.2429C98.5609 91.2429 98.2982 90.8204 98.0009 90.4965C97.7246 90.1956 97.5785 90.1718 97.7231 90.4513ZM96.4417 90.6573C96.4384 90.8629 96.6766 91.2429 96.8087 91.2429C96.9669 91.2429 96.8971 90.9842 96.6697 90.7277C96.4661 90.4982 96.4442 90.4914 96.4417 90.6573ZM95.071 91.203C95.071 91.3946 95.1079 91.5024 95.1622 91.4691C95.2123 91.4383 95.2534 91.2935 95.2534 91.1471C95.2534 91.0007 95.2123 90.881 95.1622 90.881C95.112 90.881 95.071 91.0259 95.071 91.203ZM50.4547 91.0311C50.396 91.1256 50.6073 92.0322 50.7118 92.1344C50.781 92.2019 50.6696 91.3739 50.5747 91.1143C50.5398 91.0187 50.4858 90.9814 50.4547 91.0311ZM107.577 91.7179C108.076 92.9434 108.145 93.3619 108.15 95.1967C108.157 97.2182 108.215 97.395 108.648 96.7177C109.005 96.1589 109.151 95.446 109.083 94.5905C108.971 93.1887 108.444 91.8575 107.837 91.4465C107.672 91.3346 107.502 91.2429 107.46 91.2429C107.418 91.2429 107.471 91.4566 107.577 91.7179ZM93.4368 91.4766C93.4412 91.582 93.4628 91.6034 93.4919 91.5313C93.5183 91.466 93.515 91.3879 93.4847 91.3579C93.4544 91.3279 93.4329 91.3812 93.4368 91.4766ZM54.0035 94.1858C53.896 94.4637 54.5985 95.9587 54.933 96.1639C55.1717 96.3102 54.7072 94.5175 54.4257 94.206C54.2495 94.0109 54.0743 94.0025 54.0035 94.1858ZM55.533 94.9881C55.5018 95.0687 55.5014 95.2667 55.5319 95.4281C55.5945 95.7581 56.0958 96.8524 56.1843 96.8524C56.259 96.8524 56.1586 96.2219 55.9794 95.5646C55.8236 94.9935 55.6284 94.7414 55.533 94.9881ZM57.3201 96.7637C57.3201 96.8965 57.7807 97.6017 57.8334 97.5494C57.8977 97.4855 57.4971 96.6714 57.4012 96.6714C57.3566 96.6714 57.3201 96.713 57.3201 96.7637ZM102.33 97.2883C102.305 97.329 102.215 97.6649 102.131 98.0347C102.047 98.4046 101.793 99.1143 101.568 99.6119C101.056 100.74 100.704 101.657 100.76 101.713C100.784 101.737 101.042 101.436 101.334 101.045C102.4 99.6184 102.863 98.3989 102.644 97.5939C102.547 97.2343 102.433 97.1236 102.33 97.2883ZM58.597 97.5504C58.598 97.757 59.5491 98.9232 59.6418 98.8312C59.7188 98.7548 58.9759 97.6807 58.7707 97.5717C58.675 97.5209 58.5969 97.5113 58.597 97.5504ZM100.55 98.9666C100.445 99.1342 100.36 99.2965 100.36 99.3272C100.36 99.358 100.078 100.005 99.734 100.764C99.0629 102.245 98.9492 102.564 99.1163 102.497C99.2731 102.434 100.03 101.406 100.403 100.75C100.794 100.061 101.046 99.2264 100.963 98.8976C100.883 98.5829 100.778 98.6005 100.55 98.9666ZM97.2957 102.145C96.2801 103.637 96.2272 103.797 97.0168 102.986C97.7246 102.258 98.1144 101.618 98.0641 101.266C98.0406 101.102 97.8813 101.285 97.2957 102.145ZM92.3207 104.43C92.0065 104.757 91.2412 105.832 91.2412 105.946C91.2412 105.976 91.4513 105.826 91.708 105.611C92.1427 105.248 92.8825 104.338 92.8825 104.166C92.8825 103.992 92.6245 104.113 92.3207 104.43ZM89.8986 104.899C89.1744 105.404 88.1817 106.288 88.0358 106.559C87.9468 106.724 87.9604 106.733 88.1994 106.674C89.0379 106.467 90.4691 105.55 90.7439 105.044C90.9137 104.732 90.8767 104.452 90.6656 104.452C90.5967 104.452 90.2515 104.654 89.8986 104.899ZM86.7683 105.64C86.2414 106.017 85.5369 106.743 85.6595 106.783C85.7987 106.829 86.7702 106.318 87.1108 106.02C87.4359 105.735 87.5352 105.425 87.3155 105.38C87.2377 105.364 86.9915 105.481 86.7683 105.64ZM77.0326 106.072C76.3181 106.317 76.2399 106.443 76.802 106.443C77.3441 106.443 77.8369 106.292 77.8369 106.127C77.8369 106.037 77.6302 105.884 77.533 105.903C77.5247 105.905 77.2994 105.981 77.0326 106.072ZM84.0484 106.219C83.5871 106.481 82.7609 107.148 82.7609 107.259C82.7609 107.354 83.7579 106.969 84.1773 106.712C84.4801 106.527 84.767 106.21 84.767 106.061C84.767 105.924 84.4428 105.995 84.0484 106.219ZM79.321 106.434C78.8286 106.749 78.5609 106.986 78.6951 106.986C78.7217 106.986 78.9792 106.882 79.2674 106.756C79.796 106.524 80.1165 106.298 80.1165 106.157C80.1165 106 79.8552 106.091 79.321 106.434ZM81.366 106.483C81.1756 106.55 80.8473 106.721 80.6366 106.862C80.3018 107.086 80.2784 107.122 80.4514 107.148C80.8937 107.213 81.9938 106.738 81.9184 106.514C81.8653 106.355 81.7462 106.349 81.366 106.483Z" fill="white"/>
</svg>
