<svg width="160" height="90" viewBox="0 0 160 90" fill="none" xmlns="http://www.w3.org/2000/svg">
<path fill-rule="evenodd" clip-rule="evenodd" d="M79.5421 0.0433673C78.0151 0.201102 75.6117 0.918117 74.4627 1.55878C72.0651 2.89548 70.3727 5.90052 70.368 8.82921L70.3664 9.87929L67.0074 9.96286C65.16 10.0088 61.928 10.0407 59.8253 10.0337C52.89 10.0106 41.5651 10.4981 38.6337 10.946C36.9796 11.1986 34.8506 11.5909 34.1796 11.7666C32.0798 12.3168 27.3063 14.1127 25.5802 15.0021C23.8318 15.9031 19.7968 18.9547 18.0956 20.6628C16.8308 21.9325 15.3324 24.1827 14.2117 26.495C13.5359 27.8895 12.2818 31.622 11.7181 33.9169C11.0152 36.7785 10.7099 38.8732 10.5046 42.2427C9.9365 51.5704 9.92405 57.7697 10.4585 65.2366C10.8458 70.6456 10.9407 72.312 10.9417 73.715L10.9428 75.2026L8.80122 75.2824C7.62346 75.3263 5.522 75.3602 4.13144 75.3575L1.60321 75.3527L1.02219 75.6465C-0.34073 76.3354 -0.34073 77.5753 1.02219 79.4917C1.94446 80.7887 3.92991 82.5697 8.59422 86.284C11.3472 88.4762 12.652 89.2635 14.18 89.6543C15.3847 89.9624 19.5633 90.0244 28.9665 89.8738C37.2804 89.7406 47.0335 89.6388 70.7487 89.4376C78.6191 89.3707 90.9326 89.2619 98.112 89.1957C105.291 89.1296 115.762 89.0387 121.379 88.9937C126.996 88.9488 132.6 88.8583 133.832 88.7927C135.063 88.727 138.037 88.6764 140.44 88.6804C146.309 88.69 146.669 88.6806 147.466 88.4976C148.921 88.164 150.04 87.4854 152.681 85.3357C156.181 82.4867 158.169 80.5871 158.887 79.4051C159.439 78.4964 160.084 76.6265 159.991 76.2035C159.895 75.7644 159.455 75.2677 158.922 74.9957C158.516 74.7885 158.196 74.7616 155.139 74.6776C153.303 74.627 151.134 74.5835 150.318 74.5809L148.836 74.5761L148.7 72.4734C148.604 70.9839 148.572 67.3745 148.592 60.099C148.608 54.4497 148.582 49.7645 148.534 49.6873C148.486 49.6102 148.406 47.8668 148.356 45.813C148.265 42.1131 148.15 40.8131 147.644 37.7752C146.394 30.2692 146.065 29.0303 144.261 25.0338C142.364 20.8343 140.837 18.64 138.473 16.7207C137.779 16.1566 135.358 14.5547 134.685 14.2135C133.93 13.8307 132.606 13.3159 131.429 12.9471C130.858 12.7683 129.948 12.4616 129.408 12.2654C128.867 12.0692 128.203 11.8541 127.933 11.7873C126.767 11.4992 125.285 11.2069 124.219 11.0549C123.588 10.9648 122.236 10.7451 121.215 10.5666C119.419 10.2527 117.522 10.0592 113.514 9.78087C112.241 9.69239 108.12 9.64433 101.172 9.63668L90.7413 9.62532L90.6185 8.59294C90.4541 7.2097 90.3147 6.73901 89.7571 5.68358C88.3294 2.98123 86.0084 0.99436 83.5292 0.35217C82.3868 0.0562532 80.6895 -0.0751522 79.5421 0.0433673ZM111.712 12.4273C115.6 12.6036 121.433 13.1538 123.212 13.512C127.504 14.376 127.589 14.4029 130.882 15.9521C131.213 16.1075 132.127 16.5237 132.914 16.8771C134.454 17.5685 135.606 18.3091 136.563 19.2216C138.521 21.0895 140.615 23.9179 141.84 26.349C143.423 29.49 143.904 31.2638 144.865 37.491C145.072 38.827 145.281 40.8206 145.409 42.6796C145.478 43.6709 145.584 45.0227 145.645 45.6836C145.706 46.3444 145.797 49.8345 145.847 53.4392C145.898 57.044 145.994 60.7306 146.062 61.6318C146.185 63.2518 146.38 73.535 146.301 74.2211L146.261 74.5761L143.842 74.5971C142.512 74.6086 140.023 74.6138 138.31 74.6086L135.197 74.5991L135.192 68.4977C135.186 62.6312 134.985 51.7823 134.863 50.763C134.831 50.4926 134.731 49.657 134.642 48.906C134.221 45.3763 133.727 43.0731 132.999 41.2544C132.215 39.2977 131.437 38.476 129.264 37.3129C127.547 36.3935 126.223 35.8063 125.148 35.4867C123.39 34.9647 121.395 34.5736 120.014 34.4801C117.635 34.3191 107.613 34.1358 104.885 34.2034C103.473 34.2384 95.2637 34.2915 86.6424 34.3213C78.021 34.3511 70.0087 34.4228 68.8371 34.4803C67.6656 34.538 65.3553 34.6159 63.7031 34.6535C62.0509 34.6911 59.8635 34.7682 58.8422 34.8249C56.8625 34.9348 55.7121 34.9688 48.0825 35.1437C38.2525 35.3691 34.8978 35.7421 31.8566 36.948C30.6086 37.4428 28.5979 38.8786 27.5214 40.0436C26.574 41.0689 25.7935 42.8719 25.4196 44.899C24.7027 48.7845 24.256 58.1741 24.4805 64.6358C24.5463 66.5283 24.6194 69.6789 24.6429 71.6372L24.6856 75.1977L19.6045 75.2754C16.81 75.3181 14.5099 75.338 14.4934 75.3197C14.4768 75.3012 14.4074 74.4505 14.3391 73.4292C14.165 70.8275 14.0246 69.1275 13.8116 67.0389C13.6538 65.4915 13.628 63.8381 13.6294 55.3508C13.6314 43.5708 13.6935 42.1544 14.3953 37.8733C15.3533 32.0294 17.2752 27.3755 20.0114 24.2736C23.0589 20.8188 25.9034 18.5136 29.2942 16.7509C33.2057 14.7175 36.9793 13.7038 42.1293 13.3032C45.74 13.0224 55.6375 12.7054 57.4221 12.8134C58.083 12.8534 60.762 12.8256 63.3754 12.7515C65.9888 12.6774 72.3299 12.5987 77.4667 12.5766C92.6932 12.5111 101.165 12.4219 102.154 12.317C103.178 12.2081 108.142 12.2654 111.712 12.4273ZM121.221 37.3143C123.477 37.6748 124.503 37.9972 126.372 38.9332C127.281 39.3886 128.865 40.5447 129.294 41.0661C130.235 42.2101 131.098 44.1404 131.365 45.6974C131.733 47.8382 131.776 49.3319 132.04 69.0325L132.115 74.5761H130.862C130.172 74.5761 128.359 74.5991 126.832 74.6272C125.305 74.6553 116.879 74.7038 108.107 74.7352C99.3354 74.7664 89.3091 74.8049 85.8263 74.8206L79.4938 74.8492L79.4754 62.6149C79.4575 50.809 79.4123 48.8549 79.0988 46.2843C78.8196 43.995 78.2599 42.1637 77.214 40.1166C76.6824 39.0763 76.0349 38.2698 75.3912 37.8461C75.1276 37.6725 75.1542 37.6662 76.1558 37.6621C80.5005 37.6448 95.346 37.4148 98.7128 37.3127C106.582 37.0742 110.088 37.0203 114.989 37.062C119.171 37.0977 120.101 37.1353 121.221 37.3143ZM69.4244 37.7662C71.3982 38.109 72.4084 38.5122 73.5005 39.3932C74.3622 40.0883 75.0671 41.1759 75.7012 42.7888C76.2851 44.274 76.4177 44.7403 76.5859 45.902C76.9617 48.4974 76.967 48.7453 76.9317 61.8503C76.9124 68.9997 76.8897 74.857 76.8813 74.8663C76.8727 74.8759 68.4111 74.9364 58.0775 75.0009C47.7439 75.0656 36.7508 75.1499 33.6483 75.1886L28.0074 75.2587L27.9439 73.6885C27.909 72.8249 27.8531 69.9801 27.8195 67.3666C27.7861 64.7532 27.713 61.9513 27.6573 61.1403C27.5212 59.1605 27.5214 51.0363 27.6576 49.3975C27.8027 47.6535 27.9499 46.7749 28.3172 45.4638C29.0177 42.963 29.9367 41.6267 31.9158 40.2315C33.3576 39.2151 34.0896 38.8676 35.2654 38.6414C37.7907 38.1556 38.8208 38.0827 44.587 37.9811C49.804 37.8891 53.9371 37.7655 59.2245 37.5433C60.396 37.494 62.8823 37.474 64.7496 37.4989C67.5224 37.5357 68.3792 37.5848 69.4244 37.7662ZM93.3872 40.1945C93.3619 40.2697 93.4301 40.6014 93.5386 40.9319C93.6471 41.2623 93.8062 41.9259 93.8919 42.4065C93.9778 42.8871 94.1076 43.4279 94.1804 43.6081L94.3129 43.9358L94.4791 43.4989C94.6966 42.9269 94.7223 41.1972 94.519 40.8226C94.2686 40.3614 93.9349 40.058 93.6781 40.058C93.5434 40.058 93.4124 40.1195 93.3872 40.1945ZM96.2609 40.2147C96.1028 40.4052 96.1707 40.9351 96.4393 41.6064C96.6477 42.1273 96.7704 42.1357 96.8641 41.6358C96.9638 41.1045 96.8496 40.4948 96.6046 40.2497C96.4224 40.0676 96.3861 40.0639 96.2609 40.2147ZM82.0116 40.4492C81.9161 40.698 81.8945 40.66 82.5209 41.3425C83.2309 42.1158 83.5055 42.5547 83.8468 43.4617C84.4751 45.131 84.6012 46.5292 84.7852 53.8762C84.8483 56.3995 84.9441 59.0539 84.9979 59.7748C85.0835 60.9195 85.3331 62.4984 85.5074 62.9972C85.6062 63.2796 85.7371 62.9162 85.9422 61.7911C86.0974 60.9396 86.1278 60.153 86.1145 57.317C86.0984 53.853 85.8624 48.0798 85.6601 46.199C85.4391 44.1449 84.9334 42.6468 84.058 41.4544C83.3884 40.5422 82.1999 39.9585 82.0116 40.4492ZM86.8608 40.483C86.8608 40.5966 87.0591 40.9285 87.3014 41.2203C88.1921 42.2935 88.5083 43.3145 88.7178 45.7928C88.8811 47.7248 89.0102 48.587 89.2878 49.5998C89.5553 50.5762 89.6285 50.5171 89.7419 49.2337C89.8184 48.3673 89.567 44.233 89.3777 43.244C89.1619 42.1165 88.5525 41.0405 87.8566 40.5583C87.3633 40.2165 86.8608 40.1785 86.8608 40.483ZM90.5384 40.3493C90.3845 40.5032 90.4794 40.7569 90.8406 41.1567C91.3196 41.6868 91.4367 42.1045 91.5588 43.7173C91.6134 44.4383 91.6817 45.1265 91.7106 45.2466C91.7396 45.3668 91.7946 45.6119 91.833 45.7913C91.9224 46.2095 92.0192 46.0446 92.267 45.0516C92.5438 43.9424 92.5245 42.4493 92.2234 41.6718C91.8719 40.7642 90.8924 39.9954 90.5384 40.3493ZM39.5717 45.9389C39.3311 46.3884 39.7996 46.9136 40.1683 46.6077C40.3849 46.428 40.3674 46.1364 40.1271 45.919C39.868 45.6844 39.7048 45.6903 39.5717 45.9389ZM72.6193 50.3848C72.5813 50.4838 72.6275 50.5807 72.7317 50.6206C72.9254 50.695 73.2234 50.5484 73.2911 50.3456C73.3574 50.1464 72.6958 50.1851 72.6193 50.3848ZM57.5389 50.7163C57.3236 50.9317 57.3236 51.0311 57.5391 51.2468C57.8784 51.5859 58.4432 51.3587 58.2337 50.9672C58.0554 50.634 57.7365 50.5188 57.5389 50.7163ZM38.6628 61.1313C38.342 61.4179 38.306 61.5104 38.306 62.0496C38.306 62.5565 38.358 62.7136 38.6424 63.0648C39.2545 63.8211 40.2641 64.165 41.0241 63.876C41.3744 63.7428 41.6752 63.2875 41.5901 63.0192C41.5135 62.778 41.0905 62.5603 40.6986 62.5603C40.056 62.5603 39.453 62.0039 39.453 61.4108C39.453 61.0913 39.2909 60.8126 39.1052 60.8126C39.058 60.8126 38.859 60.956 38.6628 61.1313ZM64.2009 64.9878C64.1074 65.1213 64.0308 65.3352 64.0308 65.4632C64.0308 65.8139 64.4788 66.4133 64.9069 66.6353C65.4335 66.9084 66.3779 66.8437 66.8583 66.5017C67.7667 65.8549 67.399 64.9075 66.3824 65.2752C65.7504 65.5037 65.2821 65.4363 64.976 65.0727C64.6478 64.6825 64.4313 64.6588 64.2009 64.9878ZM157.743 76.1437C158.099 76.2623 158.135 76.3111 158.122 76.6543C158.101 77.2331 157.68 78.224 157.218 78.7834C156.121 80.1107 152.701 83.0873 150.435 84.6872C147.932 86.455 147.891 86.4725 146.035 86.5933C143.079 86.7858 131.551 86.9697 121.816 86.9796C116.439 86.9851 110.073 87.0487 107.67 87.1211C105.267 87.1934 97.6723 87.2711 90.7933 87.2939C66.4262 87.3746 53.789 87.4634 51.5234 87.5698C50.2618 87.629 47.8531 87.679 46.1709 87.6811C44.4887 87.6831 41.2199 87.731 38.9068 87.7877C36.5938 87.8444 30.8201 87.9214 26.0762 87.959C21.3325 87.9965 17.4177 88.048 17.3765 88.0735C17.3353 88.0989 17.0878 88.0443 16.8265 87.9521C16.5651 87.8598 15.9838 87.7085 15.5347 87.6158C14.1883 87.3377 12.0925 86.2208 9.461 84.3794C7.25446 82.8352 2.94669 79.0544 2.37572 78.1609C2.06112 77.6684 2.27457 77.4524 3.15762 77.3691C3.5643 77.3309 12.7206 77.2518 23.5048 77.1936C54.0932 77.0283 76.0272 76.8694 113.132 76.5441C133 76.37 155.665 76.0473 155.773 75.937C155.87 75.838 157.266 75.9845 157.743 76.1437ZM154.689 78.2749C154.101 78.5687 152.131 79.9356 151.145 80.7333C150.101 81.5786 148.178 83.4975 148.277 83.5965C148.388 83.7076 151.05 82.2733 152.005 81.5881C153.913 80.2185 155.891 78.0545 155.214 78.076C155.139 78.0784 154.903 78.1679 154.689 78.2749ZM36.2306 78.6941C35.6703 78.9964 34.7621 79.7052 33.4506 80.864C31.8314 82.2945 29.9496 84.2618 29.9496 84.5241C29.9496 84.6712 30.2063 84.529 31.6599 83.5764C34.5507 81.6818 37.0336 79.3023 36.7878 78.6618C36.7141 78.4696 36.6386 78.4739 36.2306 78.6941ZM122.744 79.0997C121.892 79.4958 120.218 80.7096 118.648 82.0708C117.468 83.094 116.367 84.1888 116.518 84.1888C116.836 84.1888 119.338 82.61 120.966 81.3822C122.418 80.2868 123.732 78.9678 123.551 78.7871C123.528 78.7637 123.165 78.9044 122.744 79.0997ZM82.7645 79.079C82.2323 79.2677 81.1091 80.0385 79.6514 81.215C78.1382 82.4361 75.7189 84.7234 75.7189 84.9328C75.7189 85.4051 81.0908 81.8122 82.6846 80.2741C83.311 79.6695 83.5144 79.2992 83.3393 79.082C83.2123 78.9243 83.2007 78.9243 82.7645 79.079ZM150.106 80.1348C149.158 80.9041 148.137 81.8948 148.291 81.8948C148.552 81.8948 151.31 79.7827 151.393 79.519C151.5 79.1841 150.96 79.442 150.106 80.1348ZM53.5301 79.9927C52.3911 80.7593 49.7839 83.1291 48.5638 84.5067C48.0411 85.097 48.2451 85.0057 49.6015 84.0421C52.1462 82.2341 54.3089 80.2538 54.3089 79.7316C54.3089 79.5223 54.15 79.5756 53.5301 79.9927ZM100.176 80.4463C99.4762 81.1063 98.6519 82.1547 98.4796 82.6039C98.3875 82.8438 98.6768 82.7215 99.5321 82.1594C100.381 81.6012 101.481 80.5251 101.572 80.1642C101.641 79.8882 101.478 79.7147 101.145 79.7118C101.041 79.7109 100.605 80.0415 100.176 80.4463ZM146.55 80.3929C145.622 81.2155 144.892 81.9301 145.083 81.8281C145.55 81.5784 147.373 80.0466 147.375 79.9013C147.378 79.7198 147.166 79.8464 146.55 80.3929ZM31.2518 80.3634C30.2089 81.0663 27.2187 84.0003 27.2187 84.3207C27.2187 84.5446 29.371 82.903 30.535 81.7912C31.1954 81.1605 31.9158 80.2782 31.9158 80.1001C31.9158 79.9704 31.7191 80.0484 31.2518 80.3634ZM101.965 80.6785C101.207 81.335 100.233 82.3318 100.35 82.3318C100.597 82.3318 102.918 80.3423 102.918 80.1305C102.918 79.9254 102.671 80.0679 101.965 80.6785ZM77.4042 80.9104C76.6556 81.5575 75.1569 83.1758 74.9347 83.5772C74.8353 83.7566 74.8695 83.75 75.1874 83.5283C76.6618 82.4999 78.1831 81.1658 78.474 80.6461C78.5854 80.4469 78.4999 80.2563 78.2989 80.2563C78.223 80.2563 77.8204 80.5507 77.4042 80.9104ZM117.37 81.0086C117.022 81.3022 116.515 81.7761 116.245 82.0615L115.753 82.5807L116.447 82.1013C117.398 81.4435 118.427 80.486 118.19 80.4797C118.088 80.477 117.719 80.715 117.37 81.0086ZM49.7731 80.9073C49.1503 81.3932 47.4733 83.2573 47.2004 83.7672C47.0081 84.1266 47.8917 83.4773 48.9503 82.4815C49.7804 81.7006 50.3295 80.9347 50.2437 80.6774C50.2238 80.6176 50.012 80.721 49.7731 80.9073ZM114.387 81.1988C114.022 81.4418 112.749 82.6844 112.749 82.7981C112.749 82.9247 113.59 82.3321 114.221 81.7615C114.776 81.2588 114.893 80.8622 114.387 81.1988ZM47.0173 81.7717C46.3803 82.3018 44.4613 84.319 44.3809 84.5429C44.3241 84.7012 46.3156 83.0665 47.236 82.1993C47.6415 81.8172 47.9733 81.4449 47.9733 81.3719C47.9733 81.1113 47.6469 81.2478 47.0173 81.7717ZM73.8513 81.9343C73.0057 82.6608 71.8237 83.8611 71.9537 83.8611C72.0878 83.8611 73.9 82.3657 74.4585 81.7941C75.2361 80.9986 74.8317 81.0918 73.8513 81.9343ZM26.0111 81.6998C25.5264 81.9351 23.177 84.1776 23.177 84.405C23.177 84.8129 26.0879 82.4697 26.4713 81.7533C26.6341 81.4492 26.5482 81.4392 26.0111 81.6998Z" fill="white"/>
</svg>
