<svg width="116" height="135" viewBox="0 0 116 135" fill="none" xmlns="http://www.w3.org/2000/svg">
<path fill-rule="evenodd" clip-rule="evenodd" d="M49.3074 0.168288C48.9423 0.494375 46.5043 3.8989 45.7363 5.15509C45.3698 5.75446 44.9186 6.47018 44.7336 6.74556C44.0581 7.75095 42.5469 10.2405 42.5469 10.3479C42.5469 10.371 42.3686 10.6864 42.1508 11.0485C40.9861 12.9841 39.6065 15.4071 37.8082 18.6761C37.258 19.6762 36.6591 20.727 36.4773 21.0111C36.043 21.69 35.3169 23.2408 35.1647 23.8146C35.0812 24.1295 35.0398 24.9992 35.0305 26.6367C35.0119 29.9238 34.8904 31.6525 34.5778 33.076C34.101 35.2484 32.6483 37.4357 30.4762 39.2516C30.071 39.5904 29.6131 40.0655 29.4587 40.3074C29.3044 40.5492 28.8433 41.5664 28.4342 42.5678C28.025 43.5692 27.5875 44.6138 27.4619 44.8892C26.7296 46.494 26.3681 47.3266 25.8484 48.6049C25.1581 50.3031 24.7892 51.1672 24.3742 52.0582C24.2051 52.4212 23.9261 53.0199 23.7541 53.3886C23.2177 54.5385 23.1256 54.9183 23.1817 55.7511C23.2093 56.1609 23.296 56.742 23.3744 57.0424C23.9491 59.2447 23.904 61.7789 23.266 63.1223C22.5756 64.5762 21.6368 65.2814 18.5465 66.6676C18.3532 66.7543 18.1013 66.964 17.9867 67.1337C17.8721 67.3033 17.3972 68.6252 16.9312 70.0712C16.0814 72.7091 14.8253 76.078 12.7942 81.1666C12.1946 82.6687 11.4776 84.4917 11.2008 85.2177C10.6508 86.6601 10.4151 87.2098 9.0936 90.1336C7.36102 93.9664 7.38068 93.8972 7.39925 96.0908C7.42766 99.4636 7.10803 101.37 6.30383 102.623C5.9406 103.189 5.48342 103.558 4.41194 104.15C3.30477 104.762 3.08101 104.933 2.77022 105.402C2.50212 105.807 2.47454 105.871 1.59386 108.158C0.674229 110.546 0.11946 112.44 0.0334318 113.484C-0.0302016 114.257 -0.0199125 114.335 0.215413 114.857C0.507817 115.506 0.90928 115.925 2.0799 116.805C3.88239 118.16 6.46451 119.647 8.95504 120.765C9.28049 120.911 10.1816 121.334 10.9574 121.704C15.7498 123.991 20.6208 125.674 27.4653 127.405C30.207 128.099 31.7486 128.423 33.58 128.689C39.15 129.497 42.3857 129.727 45.8644 129.56C49.0711 129.407 50.0376 129.3 50.7727 129.018L51.3971 128.778L51.3333 127.874C51.2981 127.377 51.236 126.882 51.1952 126.775C51.1127 126.558 50.2414 126.245 48.7828 125.909C48.3322 125.805 47.6768 125.622 47.3263 125.503C46.9758 125.383 45.8287 125.078 44.7773 124.825C41.2776 123.982 34.449 121.717 31.8503 120.538C30.5095 119.929 28.2201 119.073 26.227 118.435L24.1541 117.772L24.0139 117.312C23.7671 116.502 23.7549 116.001 23.965 115.295C24.0707 114.941 24.3023 114.064 24.4796 113.348C24.6569 112.631 25.0215 111.509 25.2898 110.853C25.5581 110.197 25.9905 108.985 26.2507 108.158C26.5852 107.096 26.9318 106.242 27.4345 105.24C28.26 103.595 28.4401 103.062 28.7026 101.488C28.8085 100.854 29.0129 99.8108 29.1567 99.1711C29.4615 97.8167 29.5624 97.1994 29.7636 95.4591C29.8446 94.7581 29.9264 94.1687 29.9452 94.1491C29.9639 94.1296 30.5663 94.1092 31.2837 94.1036L32.5882 94.0936L33.2893 93.747C33.688 93.55 34.2327 93.1769 34.5519 92.8822C35.302 92.1897 36.3252 90.6181 36.1439 90.4368C36.0604 90.3532 35.0144 91.0676 34.4039 91.6253C33.3922 92.5492 32.546 92.9529 31.4862 93.0174C30.5414 93.0747 30.5191 93.0218 31.1183 92.1419C32.295 90.4137 33.0176 88.51 33.7076 85.3194C34.0806 83.5948 34.2108 82.2427 34.1369 80.8601C34.0696 79.6024 34.1275 79.5323 34.4473 80.4839C34.7184 81.2903 34.8985 82.4582 34.9036 83.4425C34.9078 84.2828 35.0793 85.7005 35.1901 85.8112C35.3133 85.9344 35.6723 84.2825 35.7644 83.1694C35.8398 82.2566 35.6326 80.982 35.2553 80.0386C35.1074 79.6686 35.0021 79.35 35.0214 79.3307C35.0867 79.2655 35.7101 80.0179 35.9015 80.3931C36.0061 80.598 36.1935 81.2779 36.3181 81.9038C36.5496 83.0668 36.8556 84.0342 36.9921 84.0342C37.1378 84.0342 37.2835 82.7993 37.2525 81.8265C37.2354 81.2881 37.2511 80.8477 37.2873 80.8478C37.3236 80.8479 37.4204 80.9812 37.5023 81.1439C37.684 81.5044 38.1797 82.0407 38.2762 81.981C38.3772 81.9187 38.2888 81.1488 38.1227 80.6434C37.9477 80.1107 37.3274 79.2542 36.8584 78.8972C36.6657 78.7506 35.9721 78.3614 35.3171 78.0324C34.4284 77.586 34.1194 77.3867 34.0994 77.2468C34.0847 77.1438 34.2841 76.3654 34.5425 75.5172C35.284 73.0835 35.8472 70.6604 36.3083 67.921C36.6723 65.7589 36.9698 65.0612 37.8749 64.2461C38.7874 63.4246 39.4076 62.321 39.6698 61.0525C40.0119 59.3976 39.9539 57.4561 39.4956 55.2217C39.2573 54.0597 39.1976 52.6613 39.3563 51.962C39.635 50.7341 40.1674 48.6196 40.5869 47.074C41.3547 44.2455 41.7436 42.5673 42.4963 38.8354C42.668 37.9842 42.9339 36.7757 43.0871 36.1498C43.4218 34.7833 43.5172 33.9731 43.5914 31.8712C43.6222 30.995 43.691 30.0733 43.744 29.8229C43.7971 29.5726 44.1638 28.6885 44.559 27.8585C45.6672 25.5306 45.6816 25.4556 45.6616 22.1305C45.6438 19.1617 45.7015 18.536 46.1335 17.011C46.2509 16.5973 46.3675 16.1768 46.3929 16.0766C46.5706 15.3749 47.5289 11.8121 47.7397 11.0697C48.3834 8.80177 49.2431 4.90365 49.5751 2.74694C49.64 2.32518 49.7382 1.96532 49.7934 1.94738C49.8485 1.92936 50.0909 2.3768 50.3321 2.94176C50.5732 3.50672 51.1081 4.64621 51.5209 5.4739C51.9336 6.30168 52.7215 8.10417 53.2721 9.47943C54.4611 12.4501 54.8894 13.4485 56.0627 15.9856C57.9226 20.0071 57.9809 20.1724 57.8863 21.1589C57.8519 21.5181 57.7017 22.5287 57.5526 23.405C57.2328 25.2841 57.1165 27.5927 57.2868 28.685C57.3453 29.0605 57.5349 29.7789 57.7081 30.2813C57.8812 30.7837 58.0229 31.2708 58.0229 31.3639C58.0229 31.4568 58.1069 31.8149 58.2095 32.1596C58.4818 33.0738 59.4674 34.4724 61.0725 36.2222C61.484 36.6708 61.7863 36.9151 63.3698 38.0792C63.9431 38.5005 64.0041 38.6118 64.5158 40.1669C64.9906 41.6099 65.3209 42.2861 66.2663 43.7513C67.3337 45.4056 67.5186 45.7595 68.1792 47.4134C68.5146 48.2532 69.1306 49.6162 69.548 50.4423C70.319 51.968 70.4584 52.2265 71.5124 54.0837C72.3244 55.5145 73.3289 57.3298 74.1824 58.9086C74.5749 59.6346 75.237 60.8366 75.654 61.5796C76.0708 62.3228 76.4119 62.9457 76.4119 62.9639C76.4119 62.9822 76.5372 63.2096 76.6903 63.4693C76.8434 63.7289 77.3001 64.5807 77.7052 65.3622C79.354 68.5432 80.4743 70.6599 81.0107 71.608C81.3222 72.1587 81.6856 72.8244 81.8181 73.0873L82.0592 73.5652H82.961H83.8629L83.7402 73.3149C83.6727 73.1771 83.2008 72.2042 82.6914 71.1528C80.7715 67.1905 79.5968 64.841 79.0726 63.9155C77.3913 60.947 76.6369 59.5396 75.3752 57.0178C74.6054 55.4792 73.5876 53.5034 73.1135 52.6272C71.9535 50.4836 71.5712 49.7573 69.9501 46.6189C69.1872 45.1418 68.533 43.8924 68.4961 43.8423C68.4593 43.7922 68.1506 43.2187 67.81 42.5678C67.4696 41.9169 66.9988 41.0361 66.7641 40.6106C66.5293 40.185 66.0754 39.3247 65.7555 38.6988C65.1984 37.6091 65.1221 37.5088 63.9537 36.3319C62.0897 34.4541 61.6324 33.8278 60.6638 31.8257C59.5412 29.5052 59.1932 28.0783 59.0654 25.2712C59.0153 24.1718 59.0362 23.834 59.2174 22.8132C59.3717 21.9443 59.427 21.2911 59.4256 20.3553C59.4237 19.1149 59.4143 19.054 59.0752 18.0823C58.7232 17.0735 58.149 15.7109 56.664 12.3604C56.2162 11.3501 55.748 10.1892 55.6236 9.78058C55.3796 8.97974 54.983 8.15588 53.1109 4.56072C51.9273 2.28776 51.174 0.96539 50.8544 0.599885C50.3423 0.0140748 49.6853 -0.169178 49.3074 0.168288ZM48.5552 3.00139C48.5552 3.1851 48.4085 3.70372 47.3285 7.33729C46.6796 9.52013 46.2122 11.1705 45.008 15.5304C44.7591 16.4317 44.4828 17.4149 44.394 17.7153C44.253 18.1928 44.2318 18.6851 44.2257 21.6298C44.2176 25.5501 44.2702 25.2665 43.1415 27.4655C42.2737 29.156 42.1964 29.5089 42.0894 32.2719C42.0416 33.5066 41.9489 34.7045 41.8774 35.0119C41.8075 35.3123 41.6044 36.1316 41.4261 36.8326C41.2478 37.5336 40.9752 38.783 40.8204 39.6092C40.34 42.1714 40.2233 42.6625 38.7221 48.4396C38.1621 50.5945 37.8131 52.1661 37.8131 52.5328C37.8131 52.71 37.6859 52.9736 37.4501 53.2852C36.8703 54.0512 36.2515 55.7984 35.9505 57.5192C35.779 58.4992 35.7706 60.1621 35.9339 60.7753C36.0777 61.3156 36.4317 62.1411 36.493 62.0798C36.6397 61.933 36.9001 60.4888 36.9014 59.8155C36.9034 58.6999 37.121 57.1187 37.4442 55.8719C37.7514 54.6865 37.8632 54.4041 37.9358 54.6299C37.9884 54.7933 38.3068 56.1857 38.4667 56.9513C38.6447 57.804 38.6142 60.2789 38.4167 61.0024C38.1646 61.9255 37.4196 63.2272 36.7023 63.9975C36.0381 64.7109 35.681 65.2483 35.4763 65.8422C35.4077 66.0416 35.186 67.0314 34.9838 68.0416C34.5614 70.1524 33.7922 73.2951 33.3089 74.8852C32.76 76.6912 32.6989 77.0843 32.853 77.8127C33.1573 79.2503 33.1121 82.0168 32.7512 84.0342C32.541 85.2094 31.9352 87.4875 31.5823 88.4296C31.0095 89.959 30.0433 91.7142 29.0907 92.9557C28.8024 93.3314 28.5119 94.7044 28.4839 95.8233C28.4575 96.882 28.4077 97.1647 27.9795 98.6909C27.6923 99.7147 27.5735 100.276 27.4302 101.285C27.2583 102.496 27.045 103.108 26.2569 104.654C25.6539 105.836 25.3757 106.51 25.0777 107.511C24.8633 108.231 24.4467 109.389 24.152 110.084C23.4632 111.708 23.0289 113.241 22.6496 115.389C22.5107 116.175 22.2811 116.59 21.6862 117.127C21.2512 117.52 20.9826 117.532 19.5151 117.221C18.9393 117.099 18.0743 116.916 17.5928 116.813C17.1113 116.711 16.2306 116.564 15.6355 116.488C15.0405 116.411 13.6934 116.208 12.642 116.036C11.5905 115.864 10.5459 115.701 10.3206 115.674C7.08755 115.288 5.97137 115.106 4.46939 114.718C3.37797 114.436 2.15464 114.022 1.96856 113.872C1.80069 113.737 1.92769 112.832 2.1764 112.392C2.44358 111.918 2.82993 110.757 3.34765 108.871C3.90943 106.824 4.03415 106.509 4.3606 106.31C5.44874 105.647 6.11885 105.181 6.51485 104.811C7.27863 104.097 8.08593 102.873 8.532 101.752C9.01713 100.534 9.13474 99.8055 9.27594 97.1439C9.43489 94.1482 9.43998 94.1283 10.6356 91.8177C11.9314 89.3137 12.703 87.4346 13.327 85.2632C13.6567 84.1159 13.8995 83.4542 14.8298 81.1666C15.5611 79.3682 16.3761 77.0053 16.7294 75.659C17.0915 74.2794 17.1429 74.127 17.651 72.928C17.9162 72.3021 18.2604 71.3599 18.4159 70.8342C19.2703 67.9461 19.2338 68.0101 20.1797 67.7363C22.5132 67.0611 23.5002 66.5657 24.4685 65.5836C26.1431 63.8851 26.4726 61.4154 25.5232 57.6796C25.2492 56.6011 25.1671 56.1232 25.207 55.8383C25.2365 55.6267 25.2997 55.4294 25.3473 55.4C25.4907 55.3114 25.7545 56.0693 25.969 57.1863C26.1687 58.2257 26.3403 58.8455 26.4624 58.9676C26.533 59.0381 26.571 58.1767 26.5394 57.2244C26.5154 56.4997 26.6323 56.5637 26.8537 57.3963C27.1848 58.6418 27.2923 59.6081 27.2955 61.3665C27.2991 63.4703 27.2494 63.7005 26.3928 65.5446C25.8835 66.6407 25.4418 67.9609 25.5486 68.0676C25.6271 68.1461 26.109 67.6865 26.6117 67.054C27.5746 65.8424 28.0376 64.8039 28.2602 63.3568C28.4069 62.4027 28.3238 59.3078 28.1212 58.1803C27.802 56.4044 27.1501 54.875 26.3425 54.0072C25.999 53.638 25.9091 53.4845 25.9692 53.3699C26.3683 52.6087 27.111 50.9527 27.3842 50.2147C27.868 48.9079 28.449 47.6146 29.3499 45.8395C29.874 44.8071 30.2688 43.8764 30.528 43.063C31.0851 41.314 31.2348 41.07 32.1605 40.4017C33.7962 39.2209 34.6949 38.0247 35.6968 35.6947C36.5419 33.7294 36.7248 32.8985 36.7236 31.0295C36.7231 30.2156 36.7628 29.1402 36.812 28.6395C36.8612 28.1388 36.9412 27.0485 36.9898 26.2168C37.0953 24.4097 37.1097 24.3649 38.3998 21.8173C38.9085 20.8129 39.5854 19.4381 39.9041 18.7622C41.3983 15.593 43.9214 10.6965 45.1578 8.56626C45.4049 8.14067 45.9058 7.20338 46.2709 6.48338C46.8217 5.39743 47.3189 4.5478 48.3151 2.99037C48.448 2.78254 48.5552 2.78745 48.5552 3.00139ZM51.3318 11.9438C50.9938 12.0477 50.8013 12.1941 50.6639 12.452C50.5249 12.7131 50.5255 12.7165 50.7573 12.9324C50.9031 13.0683 51.0799 13.1181 51.4173 13.1186C52.0393 13.1192 52.5378 13.2692 52.6568 13.4914C52.8868 13.9212 52.3449 15.0752 51.7702 15.3796C51.4678 15.5398 50.8951 15.5059 50.4131 15.2993C50.0316 15.1357 49.964 15.1296 49.8458 15.2478C49.6619 15.4317 49.8472 15.8748 50.23 16.1664C51.0598 16.7985 52.2286 16.6124 53.0509 15.7171C53.3366 15.4063 53.7465 14.446 53.8052 13.9503C53.9145 13.0276 53.388 12.2612 52.4545 11.984C51.9285 11.8278 51.7325 11.8208 51.3318 11.9438ZM41.6818 18.0372C41.2916 18.1175 41.0527 18.2628 40.7816 18.585C40.5428 18.8688 40.4744 19.1635 40.6256 19.2569C40.6702 19.2845 40.9382 19.2012 41.2209 19.0719C41.5036 18.9424 41.9601 18.806 42.2354 18.7686C42.8978 18.6787 43.0031 18.5657 42.6927 18.278C42.4253 18.0302 42.0964 17.9519 41.6818 18.0372ZM39.9737 20.3265C39.7312 20.7006 39.7207 20.9573 39.9559 20.7621C40.0847 20.6552 40.3164 20.0516 40.2529 19.9881C40.233 19.9682 40.1074 20.1204 39.9737 20.3265ZM50.3464 21.5531C50.2643 21.6351 50.4602 21.8574 50.6146 21.8574C50.7691 21.8574 50.7761 21.7478 50.6308 21.6025C50.5074 21.479 50.4334 21.4662 50.3464 21.5531ZM39.3304 22.1002C39.2144 22.2161 39.2698 22.8365 39.4062 22.9498C39.5758 23.0905 39.8159 22.9266 39.8159 22.6698C39.8159 22.2658 39.5162 21.9143 39.3304 22.1002ZM41.2724 23.1959C40.7018 23.2941 40.3621 23.4221 40.3621 23.5389C40.3621 23.7016 40.6671 23.799 40.9311 23.7204C41.1869 23.6443 41.7262 23.2918 41.727 23.2001C41.7276 23.1296 41.6607 23.129 41.2724 23.1959ZM37.9955 39.0404C37.5693 39.2534 37.5423 39.4627 37.9227 39.6039C38.4259 39.7906 38.4948 39.8463 38.524 40.0897C38.5619 40.4045 38.2218 41.1726 37.9203 41.4534C37.7863 41.5782 37.5562 41.7186 37.4092 41.7656C37.0673 41.8747 37.0259 42.0082 37.2613 42.2435C37.5028 42.4851 38.0341 42.4902 38.4204 42.2546C38.9818 41.9123 39.5189 40.6022 39.3929 39.8823C39.3174 39.4505 39.1023 39.0988 38.8407 38.9797C38.5407 38.843 38.365 38.8556 37.9955 39.0404ZM62.1994 40.122C61.8431 40.5324 61.7825 40.8837 62.0683 40.8837C62.2204 40.8837 62.4171 40.4188 62.3773 40.1534C62.3479 39.9582 62.3425 39.9573 62.1994 40.122ZM60.936 41.0061C60.936 41.2479 61.1933 41.5209 61.4211 41.5209C61.6148 41.5209 61.6137 41.3898 61.417 41.057C61.2245 40.731 60.936 40.7005 60.936 41.0061ZM28.8007 50.5334C28.8007 50.6546 29.1391 50.9885 29.262 50.9885C29.3156 50.9885 29.2718 50.8657 29.1648 50.7154C28.9717 50.4443 28.8007 50.3588 28.8007 50.5334ZM66.4116 52.0961C66.3083 52.3046 66.2487 52.5153 66.2789 52.5643C66.3417 52.6659 66.5262 52.338 66.6148 51.9672C66.6998 51.6119 66.629 51.6567 66.4116 52.0961ZM64.2403 53.0877C64.0488 53.2861 64.2661 53.5375 64.629 53.5375C65.0609 53.5375 65.6426 53.2918 65.5144 53.1636C65.3631 53.0123 64.3701 52.9532 64.2403 53.0877ZM50.5316 54.3357C50.0698 54.846 49.8829 55.8748 50.1401 56.4903C50.439 57.2058 51.401 57.7367 52.0658 57.5531C52.4878 57.4366 52.7429 57.2088 52.7429 56.9483C52.7429 56.6586 52.5672 56.5497 51.9133 56.4345C51.1796 56.3054 50.8745 56.028 50.781 55.4054C50.745 55.1646 50.7563 54.7893 50.8062 54.5712C50.9064 54.1333 50.7984 54.0409 50.5316 54.3357ZM75.2285 68.2226C75.2285 68.3803 75.7548 68.8817 75.8356 68.8009C75.9553 68.6811 75.6045 68.1031 75.412 68.1031C75.3111 68.1031 75.2285 68.1569 75.2285 68.2226ZM59.9695 68.4168C59.8844 68.6385 60.1062 68.8314 60.4464 68.8314C60.8513 68.8314 60.8347 68.7282 60.3892 68.4779C60.07 68.2985 60.0177 68.2908 59.9695 68.4168ZM75.4187 69.876C74.9996 70.5397 74.9575 70.6682 75.2418 70.4159C75.5206 70.1684 75.9568 69.5545 75.9568 69.4095C75.9568 69.1521 75.778 69.3071 75.4187 69.876ZM78.2782 74.6702C68.5709 74.8576 65.9591 75.0095 62.7112 75.5751C62.2136 75.6617 61.8467 75.7433 60.0256 76.1719C58.1143 76.6218 56.9033 77.1399 56.3614 77.7397C55.9156 78.2331 55.7488 78.5799 55.7565 78.9971C55.76 79.189 55.7333 79.7466 55.6969 80.2362L55.6308 81.1264L55.9663 81.8051C56.4394 82.7624 56.7452 82.9563 58.9787 83.7159C59.3793 83.8522 59.7352 83.9897 59.7697 84.0217C59.8043 84.0536 59.7919 84.4059 59.7421 84.8046C59.5563 86.2934 58.9977 86.9098 56.7714 88.083C54.0135 89.5364 53.1261 90.2158 52.3881 91.4387C51.6042 92.7377 51.4721 93.2657 51.2454 96.0053C51.0812 97.9915 51.1417 108.36 51.3374 111.742C51.4095 112.986 51.4682 114.645 51.468 115.429C51.4677 116.212 51.5165 117.479 51.5763 118.245L51.6851 119.637L50.4113 120.93C48.8568 122.508 48.2821 123.14 48.2821 123.272C48.2821 123.609 49.7923 122.098 51.1043 120.448C51.363 120.123 51.6084 119.844 51.6495 119.829C51.6907 119.814 51.7506 120.162 51.7827 120.603C51.8148 121.043 51.88 121.752 51.9275 122.178C51.9752 122.603 52.0163 123.361 52.0189 123.862C52.0217 124.363 52.0608 125.203 52.1061 125.728C52.3585 128.664 52.6587 129.332 54.275 130.557C55.74 131.667 57.2744 132.345 60.2077 133.177C62.8089 133.916 65.8538 134.389 70.5979 134.791C73.3613 135.025 81.9306 135.074 86.2437 134.88C88.1714 134.794 89.7795 134.704 89.8174 134.681C89.8552 134.657 91.1457 134.601 92.685 134.555C96.6221 134.439 98.3509 134.258 101.429 133.643C102.165 133.496 103.402 133.254 104.178 133.105C108.14 132.344 110.75 131.448 112.66 130.192C114.621 128.902 115.297 127.642 115.469 124.957C115.652 122.108 115.717 117.556 115.64 112.938C115.598 110.334 115.597 106.955 115.639 105.427C115.784 100.165 115.356 93.235 114.78 91.5446C114.423 90.4949 114.11 90.1292 112.598 88.9989C111.464 88.1506 110.304 87.5091 109.192 87.1148C108.576 86.8961 108.223 86.7087 107.935 86.4467C107.469 86.0236 107.369 85.7072 107.366 84.6487C107.364 83.9771 107.374 83.9432 107.569 83.9431C107.874 83.943 108.813 83.4643 109.245 83.0889C109.729 82.6679 110.001 82.1024 110.1 81.3099C110.254 80.0804 109.905 79.0309 109.066 78.203C108.342 77.4898 107.348 77.0292 105.543 76.571C103.326 76.0082 101.595 75.7318 98.9886 75.524C98.0123 75.4462 96.8447 75.3432 96.3941 75.2952C95.9435 75.2471 95.1651 75.1652 94.6644 75.1133C94.1637 75.0614 92.5046 74.9803 90.9775 74.933C89.4504 74.8858 87.7094 74.8062 87.1085 74.7561C85.6069 74.6311 82.081 74.5967 78.2782 74.6702ZM22.9289 76.1648C22.6556 76.3055 22.343 76.635 22.3392 76.7864C22.3381 76.8307 22.6189 76.8467 22.9633 76.8222C23.3078 76.7975 23.6514 76.8119 23.7269 76.8542C23.9723 76.9916 24.4219 77.7922 24.5259 78.2776C24.654 78.875 24.538 79.685 24.1571 80.8507C24.0054 81.3147 23.9032 81.7161 23.9299 81.7428C24.0328 81.8457 24.6115 81.1646 24.8735 80.6322C25.3482 79.6679 25.4803 78.5336 25.2079 77.7616C25.015 77.2149 24.4434 76.3922 24.1188 76.1943C23.7794 75.9874 23.297 75.9754 22.9289 76.1648ZM81.2169 76.4801C82.8551 76.531 85.4039 76.6327 86.881 76.7059C88.358 76.7792 90.9184 76.8822 92.5706 76.9347C95.145 77.0165 98.3397 77.207 99.4438 77.3443C99.619 77.3661 100.131 77.4276 100.582 77.4807C102.954 77.7609 106.42 78.5172 107.411 78.971C108.002 79.2413 108.046 79.4193 107.623 79.8321C107.17 80.2749 106.654 80.4633 104.974 80.7988C102.757 81.2412 101.755 81.3695 99.6258 81.4831C98.5994 81.5379 97.1247 81.6435 96.3486 81.7177C95.5725 81.7919 94.2206 81.922 93.3444 82.007C91.1743 82.2173 83.3625 82.2075 80.2809 81.9907C79.1293 81.9097 77.3268 81.8048 76.2754 81.7577C73.6389 81.6396 71.6077 81.4905 69.4478 81.2567C68.7969 81.1861 67.7522 81.0841 67.1264 81.0297C65.8393 80.918 63.7752 80.6335 62.7567 80.4275C60.8951 80.0509 58.0229 79.0655 58.0229 78.8034C58.0229 78.637 58.6763 78.228 59.3431 77.977C61.101 77.3153 63.1629 77.0226 67.6726 76.7945C68.2484 76.7654 69.3545 76.6989 70.1305 76.6468C71.4098 76.561 74.9069 76.4419 77.3024 76.4027C77.8172 76.3942 79.5788 76.429 81.2169 76.4801ZM81.5099 76.9053C80.3947 76.9375 77.9502 77.0989 76.9581 77.2059C74.4221 77.4793 74.0328 77.5661 74.8188 77.6833C75.0692 77.7206 78.9404 77.7887 83.4216 77.8346C87.9028 77.8804 91.6414 77.9469 91.7297 77.9821C91.9259 78.0606 92.7072 77.9532 92.7072 77.8478C92.7072 77.7342 90.4215 77.3488 88.6561 77.1646C87.9886 77.0948 82.8104 76.8388 82.5568 76.863C82.4567 76.8724 81.9855 76.8915 81.5099 76.9053ZM66.0795 77.9349L65.8064 78.0043L66.1424 78.0152C66.3272 78.0211 66.5037 77.985 66.5346 77.9349C66.5977 77.8328 66.4807 77.8328 66.0795 77.9349ZM61.1384 78.2587C60.8866 78.4349 60.8806 78.6603 61.1207 78.9182C61.5052 79.3308 62.2708 79.5609 64.0312 79.7925C66.0523 80.0585 68.9075 80.2319 68.7549 80.0793C68.674 79.9984 65.759 79.3938 63.9197 79.0765C61.6315 78.6817 61.343 78.5966 61.3528 78.3197C61.3568 78.2082 61.3558 78.117 61.3504 78.117C61.345 78.117 61.2496 78.1808 61.1384 78.2587ZM83.4216 78.2564C81.6985 78.3963 80.2521 78.5714 80.0078 78.6695C79.9045 78.711 80.4833 78.7452 81.3452 78.7485C82.2536 78.7519 82.8873 78.7908 82.9209 78.8452C82.9537 78.8982 82.8513 78.941 82.676 78.9477C82.4058 78.9578 82.417 78.9667 82.7844 79.033C83.4761 79.1579 86.8923 79.3189 87.4954 79.2551C88.3785 79.1617 88.2182 78.9693 87.1761 78.872C86.8616 78.8426 86.6177 78.805 86.6343 78.7884C86.6508 78.7719 87.1126 78.7322 87.6603 78.7001C88.6862 78.6402 88.8882 78.5826 88.6796 78.4095C88.3216 78.1124 86.02 78.0454 83.4216 78.2564ZM66.4436 78.9363C66.5437 78.9793 66.7281 79.0145 66.8533 79.0145C67.0607 79.0145 67.0647 79.0076 66.8988 78.9363C66.7986 78.8932 66.6143 78.8581 66.4891 78.8581C66.2817 78.8581 66.2777 78.865 66.4436 78.9363ZM105.27 79.0653C105.27 79.3264 104.898 79.4886 103.797 79.7069C102.961 79.8727 101.656 80.2749 101.586 80.3883C101.442 80.6207 104.241 80.6064 105.033 80.3708C105.53 80.2227 105.998 79.7601 105.998 79.4176C105.998 79.1066 105.756 78.8452 105.468 78.8452C105.319 78.8452 105.27 78.9001 105.27 79.0653ZM67.3084 79.1183C67.4336 79.1584 67.618 79.1924 67.7181 79.1939L67.9002 79.1965L67.7181 79.1183C67.618 79.0753 67.4336 79.0413 67.3084 79.0428L67.0809 79.0454L67.3084 79.1183ZM84.2865 79.5659C83.8318 79.6205 83.8321 79.6207 84.5506 79.688C85.5374 79.7807 87.9734 79.7733 87.9734 79.6778C87.9734 79.5062 85.4252 79.4289 84.2865 79.5659ZM101.993 79.5427C101.818 79.5599 101.449 79.6135 101.173 79.6619C100.898 79.7103 100.468 79.7761 100.218 79.8078C99.5405 79.894 99.5781 79.9726 100.263 79.9029C101.954 79.7306 102.518 79.6584 102.767 79.5821C103.034 79.5 103.032 79.4983 102.676 79.5049C102.475 79.5086 102.168 79.5256 101.993 79.5427ZM59.021 80.3195C59.102 80.3443 58.9645 80.4635 58.6701 80.6238C58.4039 80.7686 58.2302 80.9019 58.284 80.9198C58.3379 80.9379 58.7005 80.8706 59.09 80.7705C59.7498 80.6009 60.2988 80.5947 60.2988 80.757C60.2988 80.7954 60.0632 80.9228 59.7753 81.0402C59.0876 81.3205 59.3618 81.3689 60.2974 81.1323L61.0252 80.9482L61.8682 81.1654C62.8653 81.4222 64.3753 81.6995 65.5788 81.8467C66.0544 81.9049 66.7099 81.9888 67.0353 82.033C67.3608 82.0772 67.8619 82.1388 68.1491 82.1698C68.4362 82.2009 68.6884 82.2542 68.7095 82.2884C68.7306 82.3225 68.438 82.6145 68.0594 82.9373C67.6807 83.26 67.4149 83.5386 67.4688 83.5567C67.6001 83.6004 68.615 83.0862 69.1521 82.7037C69.5949 82.3883 70.0228 82.3202 70.5816 82.4761C70.7964 82.536 70.7893 82.5478 70.3995 82.7788C70.1765 82.9109 69.7294 83.2337 69.4061 83.496L68.8182 83.973L67.7219 83.8592C64.9464 83.5708 62.2519 83.1301 60.7212 82.7139C57.5562 81.8538 57.5443 81.8455 57.6304 80.5614L57.6832 79.7742L58.2855 80.0265C58.6167 80.1652 58.9477 80.2971 59.021 80.3195ZM85.8341 80.3867L85.1058 80.4383L85.743 80.506C86.5171 80.5881 87.9399 80.5936 88.2315 80.5155C88.3901 80.473 88.4132 80.4391 88.3225 80.3816C88.1929 80.2995 87.0319 80.3019 85.8341 80.3867ZM108.365 80.8526C108.365 81.5158 108.229 81.8047 107.692 82.277C106.975 82.908 105.325 83.373 102.266 83.8061C100.687 84.0296 100.092 84.1156 98.8521 84.2997C97.3086 84.5287 96.0561 84.6474 93.9362 84.7649C91.5636 84.8964 85.4599 84.9713 84.514 84.8804L83.7402 84.806L84.2533 84.4734C84.5354 84.2905 85.0286 83.9184 85.349 83.6465L85.9316 83.1523L88.5684 83.084C90.0186 83.0465 91.6081 82.9883 92.1006 82.9547C92.5931 82.9211 93.0111 82.918 93.0295 82.9476C93.0478 82.9773 92.8159 83.2441 92.5142 83.5406C91.7932 84.2493 91.6244 84.5571 92.2142 84.0878C92.4603 83.8919 92.8665 83.5372 93.1169 83.2995C93.5073 82.9287 93.6335 82.8627 94.0044 82.8356C94.2422 82.8182 94.4369 82.8339 94.4369 82.8705C94.4369 82.9071 94.1959 83.2557 93.9013 83.645C93.6068 84.0343 93.3845 84.3729 93.4072 84.3974C93.4508 84.4441 94.0736 83.8065 94.6301 83.1456L94.9569 82.7576L96.0851 82.6699C98.8815 82.4527 99.5967 82.3901 99.8307 82.3418C99.9684 82.3133 100.081 82.314 100.081 82.3433C100.081 82.3725 99.8558 82.7309 99.5806 83.1396C99.3053 83.5485 99.1034 83.9062 99.1319 83.9347C99.1861 83.989 99.9379 83.2271 100.401 82.6481C100.635 82.3562 100.745 82.2978 101.195 82.2296C101.773 82.142 101.872 82.174 101.686 82.3882C101.467 82.6411 100.9 83.4837 100.901 83.5554C100.901 83.5934 101.245 83.2662 101.664 82.828C102.083 82.39 102.503 82.0285 102.597 82.0248C102.69 82.0212 102.992 81.9853 103.267 81.9452C103.543 81.905 103.796 81.8884 103.831 81.9083C103.865 81.9281 103.835 82.0855 103.762 82.2581C103.69 82.4306 103.631 82.6213 103.631 82.6816C103.631 82.8295 104.054 82.4243 104.278 82.0614C104.462 81.7636 104.518 81.7434 105.722 81.5362L106.037 81.4821L105.722 81.8188L105.407 82.1555L105.894 81.8138C106.162 81.6259 106.675 81.3381 107.035 81.1742C107.394 81.0103 107.81 80.749 107.959 80.5934C108.107 80.4379 108.259 80.3086 108.297 80.3062C108.334 80.3038 108.365 80.5496 108.365 80.8526ZM88.1554 81.1211C87.9355 81.1674 88.1328 81.1915 88.7927 81.1988C89.4396 81.206 89.7044 81.1808 89.612 81.1211C89.4568 81.0208 88.6318 81.0208 88.1554 81.1211ZM73.4826 82.7099C76.6728 82.972 80.9469 83.2052 82.7192 83.2137C82.9603 83.2148 82.9412 83.2465 82.3323 83.8553C81.9802 84.2075 81.692 84.5377 81.692 84.5889C81.692 84.7222 82.7078 84.1628 83.1443 83.7891C83.3469 83.6157 83.5127 83.4213 83.5127 83.357C83.5127 83.2842 83.6923 83.2187 83.9906 83.1829C84.6482 83.1039 85.1513 83.1097 85.1513 83.1963C85.1513 83.2359 84.9567 83.4177 84.7189 83.6001C84.4811 83.7824 84.0832 84.1391 83.8347 84.3926L83.3829 84.8535L82.5602 84.8535C82.1077 84.8535 80.9796 84.8133 80.0533 84.7643C79.1271 84.7154 77.5294 84.6314 76.503 84.5779C74.8147 84.4898 73.8126 84.4148 70.3581 84.1183C69.7573 84.0666 69.2074 84.0047 69.1362 83.9807C69.0651 83.9566 69.4133 83.7355 69.91 83.4894C70.4068 83.2433 70.9362 82.9389 71.0864 82.8131C71.4106 82.5414 71.4248 82.5408 73.4826 82.7099ZM22.9061 83.177C22.5965 83.3125 22.4941 83.5015 22.7696 83.4291C22.9582 83.3795 23.4251 83.0345 23.293 83.0423C23.243 83.0452 23.0689 83.1059 22.9061 83.177ZM38.6774 83.3068C38.6205 83.3989 38.6414 83.512 38.8333 84.151C38.9034 84.3849 38.9604 84.4579 39.0108 84.3786C39.1111 84.2205 39.1052 83.9646 38.9918 83.5563C38.8978 83.2179 38.7868 83.1298 38.6774 83.3068ZM20.868 83.5821C21.0545 83.7375 21.6089 83.8391 21.6089 83.718C21.6089 83.6292 21.064 83.3971 20.8624 83.4L20.653 83.4031L20.868 83.5821ZM62.9267 84.2113C64.5872 84.5112 66.4761 84.7665 68.7195 84.9939C69.4705 85.07 70.4742 85.1733 70.9498 85.2232C74.7546 85.6228 79.0966 85.7916 85.743 85.7982C90.6823 85.8032 91.5779 85.7816 93.8451 85.602C97.6875 85.298 99.5309 85.1 102.175 84.7072C102.701 84.6292 103.39 84.5275 103.706 84.4813C104.305 84.3938 105.56 84.1508 105.843 84.0675C105.992 84.0238 106.004 84.0828 105.98 84.7287L105.953 85.438L105.316 85.6367C104.965 85.7461 104.146 85.9427 103.495 86.0738C100.15 86.7474 97.1604 87.344 96.7303 87.4238C96.4646 87.4731 96.269 87.5354 96.2959 87.5622C96.3422 87.6085 97.3938 87.4944 98.5789 87.3143C98.8794 87.2686 99.4529 87.1839 99.8534 87.126C101.19 86.9327 103.942 86.4068 104.58 86.2229C104.926 86.1229 105.364 85.9386 105.554 85.8131C105.926 85.5668 105.959 85.5808 105.955 85.9839C105.953 86.2302 105.917 86.2579 105.452 86.3674C104.413 86.6121 103.545 86.7842 102.266 86.9991C100.304 87.3287 98.0115 87.8358 97.9367 87.9567C97.9118 87.9971 98.4661 88.0054 99.1683 87.9754C99.8706 87.9454 100.445 87.9427 100.445 87.9696C100.445 87.9965 100.128 88.091 99.7396 88.1797C99.3516 88.2683 98.9952 88.3755 98.9476 88.4179C98.8365 88.5169 98.7608 88.5197 100.621 88.3564C103.259 88.1247 104.932 87.8573 106.334 87.4431C106.466 87.4042 106.595 87.442 106.717 87.5559C106.818 87.6503 107.241 87.9072 107.656 88.127C109.858 89.2926 112.186 90.8835 112.859 91.6828C113.223 92.1162 113.465 92.7516 113.564 93.5375C113.614 93.9397 113.696 99.4477 113.749 106.055C113.802 112.544 113.851 118.14 113.859 118.491C113.889 119.853 113.722 125.352 113.632 125.956C113.432 127.295 112.646 128.33 111.294 129.033C110.515 129.438 107.198 130.696 106.441 130.873C104.951 131.222 102.339 131.758 101.765 131.833C100.706 131.97 95.7699 132.464 94.1182 132.599C89.6636 132.962 89.5455 132.966 81.3278 132.966C73.335 132.966 71.978 132.927 70.085 132.647C69.7846 132.603 69.2111 132.52 68.8105 132.464C67.3902 132.263 62.9643 131.443 61.6188 131.131C59.1726 130.564 57.9132 130.059 56.343 129.015C55.9902 128.78 55.4673 128.449 55.1809 128.279C54.5254 127.889 54.1084 127.332 54.1084 126.848C54.1084 126.654 54.0501 126.271 53.9789 125.998C53.617 124.608 53.3455 119.457 53.197 111.163C53.1463 108.334 53.0639 105.077 53.0139 103.925C52.8843 100.945 52.8816 94.865 53.0095 94.1682C53.2628 92.7875 53.7929 91.708 54.5521 91.0267C55.0947 90.5397 56.3646 89.7834 57.4918 89.2756C58.5634 88.7929 59.25 88.3558 59.8597 87.7681L60.3363 87.3088L61.5237 87.5789C63.4701 88.0217 66.7622 88.5808 66.7622 88.4686C66.7622 88.4411 66.5882 88.3776 66.3753 88.3275C66.1625 88.2774 65.4968 88.1094 64.896 87.9543C64.2952 87.7991 63.094 87.5129 62.2266 87.3182C61.3592 87.1236 60.6311 86.9459 60.6085 86.9234C60.5861 86.9008 60.5948 86.8114 60.6281 86.7247C60.6958 86.5482 60.6497 86.5424 61.9829 86.895C63.579 87.3172 66.3581 87.8153 67.6271 87.9066L68.1733 87.9459L67.7636 87.808C67.5383 87.7322 66.6371 87.4838 65.7608 87.2561C64.8846 87.0285 64.1268 86.7984 64.0767 86.7449C64.015 86.6789 64.0192 86.6663 64.0897 86.7057C64.1994 86.7672 67.6682 87.3515 68.4464 87.4398C69.1375 87.5181 68.7341 87.3797 66.6365 86.8188C64.7643 86.3182 63.9172 86.1101 62.1796 85.7241C61.6369 85.6035 61.1858 85.4914 61.1772 85.475C61.1686 85.4587 61.1756 85.1023 61.1926 84.6832L61.2237 83.9212L61.5578 83.9728C61.7415 84.0011 62.3575 84.1085 62.9267 84.2113ZM61.4822 86.0914L61.7098 86.2304L61.4822 86.1805C61.357 86.153 61.2035 86.13 61.1408 86.1293C61.0783 86.1286 61.027 86.0871 61.027 86.037C61.027 85.9071 61.2178 85.9299 61.4822 86.0914ZM63.5513 86.6382C63.5211 86.6684 63.4426 86.6717 63.3769 86.6454C63.3043 86.6163 63.3258 86.5948 63.4319 86.5904C63.5279 86.5865 63.5816 86.608 63.5513 86.6382ZM63.9155 86.7292C63.8853 86.7595 63.8067 86.7627 63.7411 86.7364C63.6684 86.7074 63.69 86.6858 63.796 86.6814C63.892 86.6775 63.9457 86.699 63.9155 86.7292ZM106.135 86.8639C106.135 86.9369 106.026 87.0053 105.885 87.0216C105.597 87.0548 105.564 86.975 105.793 86.8011C105.983 86.6573 106.135 86.6852 106.135 86.8639ZM76.0685 87.9997C76.0965 88.0278 76.4004 88.0915 76.7437 88.1412C79.2458 88.5038 83.1152 88.7548 84.0134 88.613L84.5596 88.5268L83.9678 88.4702C83.6424 88.439 82.6797 88.3674 81.8285 88.311C80.9773 88.2545 79.5026 88.1516 78.5513 88.082C76.6575 87.9437 75.9903 87.9216 76.0685 87.9997ZM86.6989 88.2864C86.5236 88.3081 86.3394 88.3659 86.2893 88.4148C86.23 88.4729 86.4354 88.4944 86.881 88.4766C87.2574 88.4616 87.5637 88.4085 87.5637 88.3584C87.5637 88.2574 87.1867 88.226 86.6989 88.2864ZM90.5224 88.4039C90.071 88.4593 90.1052 88.4667 90.8691 88.4801C91.4145 88.4897 91.6965 88.4625 91.6603 88.4039C91.6 88.3063 91.3185 88.3063 90.5224 88.4039ZM107.108 88.4191C107.147 88.5453 108.253 89.3143 108.395 89.3143C108.508 89.3143 107.648 88.604 107.331 88.4359C107.127 88.3277 107.079 88.3241 107.108 88.4191ZM59.9292 88.9201C59.2052 89.3194 59.1709 89.3526 59.5705 89.2683C59.9271 89.193 60.5313 88.9074 60.6126 88.7756C60.7433 88.5643 60.4695 88.6221 59.9292 88.9201ZM79.5526 89.2388C81.8348 89.4849 88.2617 89.6016 88.3868 89.3992C88.4198 89.3458 88.4324 89.2878 88.4148 89.2702C88.3972 89.2526 86.2526 89.2229 83.6491 89.2042C81.0456 89.1854 79.2022 89.201 79.5526 89.2388ZM91.1596 89.3975L90.7499 89.4534L91.1951 89.5204C92.0151 89.6438 92.6806 89.5833 92.5647 89.3957C92.5101 89.3073 91.8142 89.3082 91.1596 89.3975ZM57.1125 90.3385C56.6369 90.6014 56.1185 90.9086 55.9606 91.0212C55.8026 91.1339 55.6388 91.2269 55.5964 91.228C55.4913 91.2308 55.0443 91.5856 55.1427 91.5881C55.3079 91.5924 57.5578 90.3825 57.8511 90.1316C58.3096 89.7394 58.0799 89.8038 57.1125 90.3385ZM109.185 89.9931C109.185 90.0404 110.253 90.8945 110.726 91.2254C111.285 91.6164 110.92 91.2364 110.112 90.5861C109.394 90.0086 109.185 89.8747 109.185 89.9931ZM110.732 92.0076C110.151 92.2249 110.148 92.228 110.55 92.1789C111.143 92.1066 111.642 91.9607 111.642 91.8597C111.642 91.7237 111.376 91.7669 110.732 92.0076ZM55.3125 92.7032C55.1628 92.8836 54.9115 93.6137 55.0227 93.5449C55.1533 93.4643 55.49 92.7764 55.4531 92.6658C55.4348 92.6107 55.3763 92.6263 55.3125 92.7032ZM107.287 92.7344C107.019 92.8064 106.732 92.9049 106.65 92.9533C106.514 93.0325 106.516 93.0414 106.667 93.044C106.915 93.048 107.807 92.7752 107.868 92.6765C107.935 92.569 107.882 92.5742 107.287 92.7344ZM56.2091 92.8969C56.2934 92.9892 58.8189 93.232 58.9943 93.1647C59.1234 93.1152 59.1024 93.089 58.8842 93.0278C58.5539 92.9352 56.136 92.8168 56.2091 92.8969ZM106.254 93.1089C106.32 93.1352 106.399 93.1319 106.429 93.1017C106.459 93.0714 106.405 93.05 106.309 93.0539C106.203 93.0583 106.182 93.0798 106.254 93.1089ZM111.551 93.1573C110.363 93.4148 107.4 94.1642 107.338 94.223C107.299 94.2604 107.606 94.2358 108.021 94.1684C108.435 94.1011 109.021 94.0083 109.321 93.9622C110.041 93.852 112.073 93.4157 112.341 93.3136C112.458 93.2695 112.553 93.1913 112.553 93.14C112.553 93.0279 112.113 93.0356 111.551 93.1573ZM60.893 93.3072C61.13 93.5442 62.9905 93.7025 62.9161 93.4795C62.8953 93.417 62.7178 93.3365 62.5216 93.3005C62.1095 93.2248 60.816 93.2302 60.893 93.3072ZM104.087 93.5019L103.859 93.5748H104.087C104.212 93.5748 104.417 93.5419 104.542 93.5019L104.769 93.4289H104.542C104.417 93.4289 104.212 93.4618 104.087 93.5019ZM111.506 93.7418C111.205 93.8107 110.796 93.903 110.596 93.9468C108.998 94.2971 106.506 94.9431 106.715 94.9527C106.784 94.9559 107.275 94.8971 107.807 94.8221C110.333 94.4661 112.189 94 112.189 93.7219C112.189 93.651 112.158 93.5983 112.12 93.6047C112.083 93.6113 111.806 93.6729 111.506 93.7418ZM64.849 93.7779C65.1812 93.9219 66.3957 94.0584 66.5545 93.9696C66.7813 93.8426 66.4481 93.7647 65.4877 93.7201C64.8177 93.6889 64.6739 93.702 64.849 93.7779ZM57.1882 94.6811C55.2362 94.7538 55.2769 94.7933 57.6587 95.1374C58.3347 95.2351 59.9323 95.3987 61.2091 95.501C62.4859 95.6033 63.9811 95.7269 64.5319 95.7757C71.5232 96.3945 74.5752 96.5335 78.5057 96.4122C79.9828 96.3666 82.6057 96.2863 84.3344 96.2338C86.0632 96.1813 87.6381 96.0941 87.8343 96.0399C88.1586 95.9503 88.1749 95.932 88.0139 95.8368C87.8849 95.7606 85.9715 95.7313 80.9637 95.7289C76.3862 95.7268 73.6649 95.689 72.8161 95.6158C71.53 95.5049 70.1984 95.3994 67.9457 95.2298C67.2698 95.1789 66.2866 95.0965 65.7608 95.0467C61.9844 94.689 59.6508 94.5894 57.1882 94.6811ZM111.883 95.4819C111.852 95.6697 111.83 96.0486 111.835 96.3239C111.843 96.7931 111.848 96.8045 111.919 96.506C112.039 96.0078 112.1 95.1405 112.015 95.1405C111.974 95.1405 111.914 95.2942 111.883 95.4819ZM54.4789 95.7951C54.4824 95.9608 54.5205 96.1783 54.5635 96.2784C54.6226 96.4159 54.6434 96.3558 54.6482 96.0334C54.6517 95.7986 54.6136 95.5811 54.5635 95.5501C54.5095 95.5167 54.4752 95.6162 54.4789 95.7951ZM99.1252 95.7411C97.4178 95.9012 94.0482 96.1831 92.161 96.3239C87.6283 96.6622 71.8184 96.9786 69.0836 96.7858C67.1187 96.6472 61.1553 96.569 61.8008 96.6903C62.5556 96.832 65.0095 97.1423 66.125 97.2372C69.3228 97.5089 72.0661 97.5996 77.2313 97.6046C85.8128 97.6129 88.9194 97.4468 96.9403 96.5508C101.411 96.0515 102.169 95.9472 102.812 95.7435C103.204 95.6193 103.16 95.6139 101.811 95.6177C101.035 95.62 99.8261 95.6755 99.1252 95.7411ZM54.4329 97.5889C54.1871 97.9865 54.144 109.3 54.3763 112.437C54.43 113.163 54.5141 116.072 54.5631 118.901C54.6121 121.73 54.6933 124.331 54.7434 124.681C54.8644 125.527 55.2565 126.296 55.8789 126.909C56.476 127.496 56.5193 127.408 56.1514 126.351C56.0234 125.984 55.8631 125.498 55.7953 125.273C55.5887 124.587 55.4831 122.602 55.4246 118.309C55.394 116.056 55.334 113.577 55.2912 112.801C55.1636 110.485 55.024 106.921 54.8794 102.287C54.8044 99.8834 54.7184 97.8248 54.6883 97.7122C54.6315 97.5004 54.5207 97.4469 54.4329 97.5889ZM92.4341 97.6969C91.5242 97.8126 90.1954 98.2056 89.5029 98.5636C89.2452 98.697 89.233 98.7208 89.3812 98.8037C89.4717 98.8544 89.7552 98.8728 90.0113 98.8448C90.2674 98.8168 91.0708 98.7256 91.7968 98.6422C94.2144 98.3648 95.9835 98.6848 98.1416 99.7899C99.5063 100.489 100.435 101.145 101.119 101.894C102.071 102.938 102.502 104.024 102.594 105.61C102.643 106.463 102.843 107.612 102.987 107.869C103.038 107.96 103.137 107.758 103.301 107.233C103.81 105.599 103.494 103.949 102.332 102.165C100.926 100.008 97.9599 98.2834 94.71 97.7327C93.8658 97.5897 93.3411 97.5814 92.4341 97.6969ZM111.978 97.6576C111.884 97.7513 111.903 98.6724 112 98.7322C112.114 98.8027 112.235 97.7905 112.126 97.6811C112.079 97.6339 112.012 97.6234 111.978 97.6576ZM67.8649 98.3259C65.7905 98.6907 64.3555 99.1985 63.0496 100.03C61.6454 100.923 60.0824 103.078 59.8142 104.49C59.7312 104.927 59.8722 104.814 60.845 103.67C62.8836 101.273 63.7457 100.629 65.8064 99.9679C68.5815 99.0769 70.5248 99.026 72.7896 99.7848C75.2805 100.619 76.7199 101.677 77.5064 103.251C77.7166 103.672 77.9557 104.094 78.0378 104.189C78.1462 104.314 78.1567 104.372 78.0761 104.4C77.7235 104.524 75.9314 105.824 75.3162 106.403C73.5426 108.071 72.6666 109.765 72.2618 112.308C72.1748 112.855 72.0908 113.318 72.0751 113.338C72.0595 113.357 71.9848 113.322 71.9092 113.259C71.8336 113.197 71.4742 113.063 71.1104 112.962C70.2549 112.726 67.3419 112.627 66.3572 112.801C64.813 113.075 62.974 113.976 61.7479 115.061C60.5505 116.12 59.4303 118.44 59.2562 120.221C59.066 122.168 60.0373 125.138 61.3099 126.498C61.6158 126.825 61.9006 127.071 61.943 127.045C61.9854 127.019 61.7957 126.573 61.5215 126.055C60.2551 123.662 59.8524 121.157 60.4255 119.238C61.1888 116.681 62.9444 114.851 65.4422 114.009C66.1244 113.779 66.2714 113.763 67.7636 113.765C69.5775 113.767 70.128 113.867 71.3722 114.418C71.9183 114.66 72.1501 114.811 72.1731 114.941C72.3696 116.051 72.4566 116.418 72.6855 117.106C73.2413 118.777 74.0286 120.077 75.179 121.223C75.965 122.006 76.8079 122.554 77.5682 122.778C78.0752 122.926 78.8814 122.921 78.9316 122.768C78.9483 122.717 78.8082 122.595 78.6201 122.497C76.0405 121.15 74.3348 119.232 73.4862 116.723C72.927 115.07 72.8197 113.666 73.1331 112.103C73.4898 110.323 74.0118 109.096 74.8611 108.041C76.1223 106.473 77.9199 105.255 80.0004 104.559C81.228 104.148 82.1194 104.029 83.4671 104.094C85.9117 104.214 87.9059 104.975 89.3757 106.35C90.282 107.198 90.5058 107.501 91.1354 108.728L91.591 109.617L90.8974 110.104C89.1291 111.346 87.6287 113.479 86.7594 115.987C85.6439 119.207 85.7572 121.828 87.1213 124.357C88.7962 127.462 90.5683 128.939 93.5875 129.746C94.5341 129.999 95.887 130.026 96.3825 129.802C96.6739 129.67 96.716 129.62 96.6254 129.511C96.416 129.258 95.7492 129.014 94.4824 128.727C92.3917 128.253 90.9532 127.646 90.0948 126.874C89.2832 126.144 88.1067 124.217 87.6612 122.887C87.2375 121.623 87.1471 119.168 87.4726 117.763C88.1534 114.823 89.7369 112.218 91.693 110.818C92.2442 110.424 93.8759 109.759 94.5734 109.645C94.7236 109.621 95.2971 109.512 95.8479 109.405C96.6639 109.245 97.1778 109.209 98.6245 109.209C100.589 109.21 100.897 109.256 102.608 109.806C103.601 110.125 104.086 110.192 104.247 110.032C104.348 109.93 104.05 109.427 103.757 109.203C102.992 108.619 101.891 108.304 99.8823 108.092C98.5541 107.953 98.3702 107.953 97.2423 108.093C96.5755 108.176 95.8047 108.308 95.5293 108.386C95.2539 108.463 94.7519 108.566 94.4137 108.613C94.0755 108.661 93.4989 108.803 93.1324 108.93C92.7658 109.056 92.4436 109.16 92.4163 109.16C92.389 109.16 92.346 108.976 92.3206 108.75C92.2479 108.105 91.3735 106.716 90.4855 105.833C89.0693 104.426 87.6892 103.696 85.6786 103.292C85.2927 103.215 84.8888 103.152 84.7812 103.152C84.6604 103.152 84.6035 103.108 84.6325 103.038C84.6582 102.975 84.7892 102.678 84.9237 102.378L85.168 101.832L84.9234 102.059C84.7889 102.184 84.5764 102.461 84.4512 102.674L84.2237 103.061L83.2537 103.061C81.8697 103.061 80.7523 103.277 79.4365 103.799C79.0722 103.944 78.7606 104.062 78.7442 104.062C78.7277 104.062 78.6906 103.779 78.6615 103.434C78.5748 102.398 78.0285 101.585 76.7761 100.626C75.9173 99.968 74.945 99.466 73.6337 99.0037C71.254 98.1643 69.7728 97.9903 67.8649 98.3259ZM25.1551 100.465C23.9728 101.271 23.7476 101.446 23.5206 101.734C23.2414 102.088 23.868 101.798 24.593 101.238C25.3289 100.669 26.4239 99.7019 26.3385 99.6958C26.3112 99.6939 25.7787 100.04 25.1551 100.465ZM87.2906 99.8889C86.8973 100.093 86.5168 100.406 86.5168 100.527C86.5168 100.725 86.8484 100.559 87.2746 100.149C87.5338 99.9001 87.7253 99.6971 87.7003 99.6982C87.6752 99.6993 87.4909 99.7851 87.2906 99.8889ZM111.781 100.921C111.755 101.046 111.71 101.26 111.682 101.395C111.442 102.53 111.373 104.211 111.368 108.978C111.365 111.757 111.324 114.809 111.278 115.76C111.231 116.711 111.151 118.76 111.1 120.312C110.996 123.468 110.883 124.65 110.621 125.319C110.167 126.48 110.095 126.696 110.095 126.907C110.095 127.12 110.117 127.11 110.509 126.726C111.129 126.12 111.457 125.376 111.604 124.253C111.785 122.857 111.915 116.985 111.915 110.161C111.914 106.447 111.955 103.577 112.019 102.736C112.121 101.397 112.085 100.694 111.913 100.694C111.866 100.694 111.807 100.796 111.781 100.921ZM24.3791 102.722C22.7344 103.849 21.7065 104.758 22.3144 104.547C22.6606 104.427 25.4506 102.155 25.2503 102.156C25.2253 102.157 24.8333 102.411 24.3791 102.722ZM67.9165 103.992C66.9671 104.985 65.3057 106.912 65.3057 107.02C65.3057 107.089 66.3472 106.173 67.4781 105.109C68.6965 103.963 69.3307 103.064 68.9243 103.059C68.8618 103.058 68.4082 103.478 67.9165 103.992ZM69.19 104.085C68.7156 104.598 68.2127 105.161 68.0726 105.336L67.8179 105.655L68.0866 105.427C68.6233 104.973 70.0141 103.556 70.1197 103.356C70.3446 102.931 70.0262 103.18 69.19 104.085ZM75.4333 103.216C75.3047 103.263 75.2787 103.571 75.3972 103.644C75.4399 103.67 75.5525 103.634 75.6475 103.564C75.8006 103.45 75.8047 103.421 75.6837 103.305C75.6086 103.232 75.4959 103.192 75.4333 103.216ZM96.6475 103.721C96.3007 104.181 96.0366 104.608 96.0991 104.608C96.1372 104.608 96.7274 103.824 96.9382 103.493C97.2036 103.077 97.031 103.212 96.6475 103.721ZM72.335 103.485C71.8364 103.899 72.098 104.699 72.7317 104.699C73.137 104.699 73.4078 104.431 73.4078 104.031C73.4078 103.491 72.7384 103.151 72.335 103.485ZM100.627 104.108C100.526 104.23 100.53 104.277 100.651 104.398C100.846 104.593 101.103 104.484 101.066 104.223C101.03 103.973 100.79 103.911 100.627 104.108ZM98.5264 104.51C98.1214 104.915 98.1819 105.426 98.6652 105.68C98.8753 105.791 99.2348 105.678 99.4107 105.447C99.4758 105.361 99.5304 105.14 99.5319 104.956C99.5341 104.701 99.4778 104.577 99.2949 104.433C98.975 104.181 98.8422 104.194 98.5264 104.51ZM106.962 104.484C106.914 104.609 106.927 104.615 107.043 104.519C107.201 104.388 107.218 104.335 107.1 104.335C107.056 104.335 106.993 104.402 106.962 104.484ZM23.4751 104.853C21.9902 105.726 20.8806 106.541 20.8806 106.758C20.8806 106.827 20.9031 106.884 20.9307 106.884C21.1699 106.884 22.4664 106 23.3841 105.211C23.7346 104.91 24.0603 104.631 24.1078 104.59C24.3123 104.417 23.9848 104.553 23.4751 104.853ZM22.7173 106.88C21.1943 107.805 19.8792 108.87 19.8792 109.178C19.8792 109.413 19.9747 109.386 20.5744 108.985C21.4716 108.385 23.7171 106.429 23.5086 106.429C23.4817 106.429 23.1256 106.632 22.7173 106.88ZM59.2643 106.747C59.1379 107.064 59.0846 108.211 59.1879 108.395C59.4082 108.789 59.5566 107.778 59.4031 106.93C59.3485 106.628 59.3247 106.597 59.2643 106.747ZM81.8034 108.591C80.7072 109.905 77.6122 113.997 76.278 115.896C75.8087 116.565 76.0197 116.344 77.1059 115.032C79.7956 111.781 82.3292 108.481 82.3292 108.228C82.3292 108.058 82.137 108.191 81.8034 108.591ZM21.4966 109.278C19.1016 110.804 17.5011 112.092 17.7237 112.315C17.8954 112.486 20.0084 110.93 22.2806 108.959C22.7497 108.552 22.4364 108.679 21.4966 109.278ZM10.5489 109.068C10.5183 109.117 10.5207 109.399 10.5541 109.694C10.6082 110.173 10.5929 110.253 10.4116 110.434C10.1379 110.708 9.50835 110.653 8.99073 110.311C8.535 110.009 8.3178 110.062 8.3178 110.476C8.3178 110.865 8.64388 111.331 9.0682 111.55C10.1897 112.129 11.4264 111.606 11.6748 110.447C11.7904 109.908 11.71 109.611 11.3446 109.228C11.1043 108.976 10.6607 108.887 10.5489 109.068ZM59.5403 110.093C59.6726 111.266 59.8982 111.868 60.1229 111.646C60.208 111.563 60.2081 111.441 60.1235 111.1C60.0128 110.655 59.615 109.706 59.5386 109.706C59.5156 109.706 59.5164 109.88 59.5403 110.093ZM78.9164 110.582C78.8304 110.713 78.805 110.793 78.86 110.759C78.965 110.694 79.177 110.343 79.1111 110.343C79.0901 110.343 79.0025 110.451 78.9164 110.582ZM20.1903 111.87C19.3433 112.41 18.425 113.015 18.1496 113.215C17.8742 113.415 17.4353 113.722 17.1743 113.896C16.6995 114.212 16.5093 114.44 16.7193 114.44C17.0498 114.44 18.6392 113.392 20.562 111.907C22.2957 110.569 22.2426 110.563 20.1903 111.87ZM29.9037 111.013C29.7654 111.18 30.0652 111.558 30.61 111.903C31.0052 112.154 31.5317 112.255 31.5317 112.08C31.5317 111.919 31.0321 111.404 30.6281 111.147C30.171 110.857 30.0514 110.835 29.9037 111.013ZM94.6549 111.276C93.8224 112.177 89.7574 117.626 89.9183 117.626C89.9454 117.626 90.4444 117.042 91.0272 116.329C91.6101 115.615 92.1552 114.95 92.2385 114.85C92.5649 114.458 94.3219 112.185 94.631 111.754C95.2801 110.851 95.2933 110.586 94.6549 111.276ZM27.8448 111.063C27.4166 111.134 27.2297 111.233 27.3025 111.351C27.3811 111.478 27.8474 111.453 28.4009 111.292C29.2107 111.057 28.8311 110.901 27.8448 111.063ZM106.271 111.315C106.271 111.476 107.029 112.255 107.186 112.255C107.312 112.255 107.031 111.719 106.745 111.413C106.481 111.131 106.271 111.087 106.271 111.315ZM81.3944 112.733C80.5407 113.777 78.9334 115.896 78.9955 115.896C79.0329 115.896 79.5133 115.349 80.5085 114.173C81.1332 113.434 82.2382 111.969 82.2382 111.88C82.2382 111.721 82.1449 111.815 81.3944 112.733ZM91.8422 113.328C91.1654 114.226 91.1192 114.294 91.2274 114.227C91.3612 114.144 92.3705 112.798 92.3295 112.757C92.3116 112.74 92.0923 112.997 91.8422 113.328ZM31.8594 113C31.8357 113.116 31.7941 113.377 31.7669 113.579C31.7398 113.782 31.6208 114.253 31.5025 114.626C31.2501 115.422 31.031 116.519 31.1087 116.596C31.2489 116.736 32.1034 115.448 32.344 114.734C32.5848 114.019 32.5807 113.664 32.3268 113.218C32.0829 112.79 31.918 112.713 31.8594 113ZM100.142 113.135C100.039 113.238 100.074 113.502 100.206 113.611C100.446 113.81 100.778 113.518 100.66 113.211C100.607 113.074 100.255 113.022 100.142 113.135ZM60.5719 113.486C60.5719 113.637 60.9564 114.248 61.1934 114.473C61.4465 114.713 61.6643 114.736 61.6643 114.522C61.6643 114.353 61.2673 113.896 60.92 113.666C60.7285 113.54 60.5719 113.459 60.5719 113.486ZM107.91 113.533C107.91 113.74 108.201 114.634 108.252 114.584C108.319 114.516 108.084 113.535 107.985 113.474C107.944 113.449 107.91 113.475 107.91 113.533ZM102.193 113.912C102.06 114.045 102.05 114.317 102.176 114.395C102.329 114.49 102.63 114.347 102.63 114.179C102.63 114.026 102.468 113.803 102.357 113.803C102.327 113.803 102.253 113.852 102.193 113.912ZM94.7602 115.824C94.4041 116.239 93.1254 118.081 93.1934 118.081C93.2516 118.081 94.5304 116.474 94.8829 115.958C95.2672 115.396 95.195 115.317 94.7602 115.824ZM4.69324 116.028C5.48497 116.229 5.68925 116.33 6.78495 117.06C8.6203 118.283 10.7334 119.519 10.8276 119.425C10.88 119.373 9.03342 117.767 8.25553 117.189C7.94583 116.959 7.70804 116.745 7.72698 116.714C7.78706 116.617 9.04607 116.827 9.04607 116.934C9.04607 117.222 15.5907 121.763 15.7606 121.593C15.7844 121.569 15.4201 121.185 14.9511 120.739C13.399 119.263 13.1623 119.065 10.6012 117.109C10.4722 117.01 10.7497 117.002 11.42 117.084C12.4392 117.209 12.4515 117.214 12.5837 117.58C12.7119 117.934 13.5962 118.77 14.9633 119.829C16.3838 120.929 18.1792 122.176 18.862 122.535C19.0542 122.637 19.0654 122.632 18.9839 122.481C18.8981 122.322 17.992 121.429 16.8278 120.356C16.0585 119.647 14.865 118.663 13.9768 118.006C13.1365 117.384 13.1543 117.355 14.2731 117.531C14.5776 117.579 15.0131 117.641 15.2407 117.67C15.6203 117.718 15.6878 117.768 16.0557 118.274C16.4838 118.862 17.8361 120.158 19.0579 121.151C20.1691 122.055 22.3775 123.712 22.4183 123.673C22.5345 123.562 19.5176 120.415 17.8866 118.946C17.3305 118.445 16.8755 118.01 16.8754 117.979C16.8751 117.914 17.4694 118.017 18.2105 118.21C18.6457 118.324 18.7874 118.418 19.137 118.827C20.2178 120.092 24.6706 124.427 24.778 124.319C24.8138 124.283 23.6985 122.859 22.8524 121.859C22.2491 121.147 21.5383 120.375 20.5392 119.348L19.8672 118.657L20.8414 118.678L21.8155 118.698L22.1201 119.083C23.2468 120.507 27.952 125.06 28.1216 124.89C28.2571 124.755 23.6043 119.536 22.6531 118.757L22.2359 118.415L22.4194 118.232L22.6028 118.048L23.039 118.285C23.2788 118.416 23.639 118.611 23.8393 118.72C24.0666 118.844 24.38 119.163 24.6733 119.569C24.9318 119.928 25.6113 120.733 26.1835 121.359C27.4183 122.709 30.7097 125.943 30.779 125.874C30.8895 125.764 27.2185 121.351 25.7393 119.816C25.5732 119.644 25.4532 119.487 25.4729 119.467C25.5034 119.437 26.8097 119.874 27.5308 120.157C27.6585 120.207 27.9322 120.467 28.1388 120.735C28.6258 121.366 31.0347 123.729 32.26 124.778C33.7421 126.046 34.1717 126.389 34.1717 126.303C34.1717 126.166 30.8824 122.63 29.9356 121.75C29.4401 121.289 29.0577 120.889 29.0858 120.861C29.1405 120.806 29.7204 121.05 31.031 121.678C31.812 122.052 31.9288 122.149 33.5292 123.769C35.1625 125.421 36.5648 126.733 36.4034 126.457C36.2678 126.225 34.6728 124.266 33.9942 123.498C33.6403 123.098 33.3819 122.761 33.4199 122.749C33.4578 122.737 33.9488 122.902 34.5108 123.115L35.5326 123.501L36.7884 124.728C38.6211 126.52 39.3259 127.158 38.3944 126.183C36.49 124.19 36.0982 123.771 36.1172 123.752C36.1285 123.741 36.5987 123.894 37.1622 124.093C38.0838 124.417 38.2753 124.526 39.0695 125.173C40.0773 125.993 41.5618 127.018 41.6338 126.943C41.6603 126.915 41.241 126.476 40.7019 125.969C40.1629 125.461 39.7225 125.018 39.7233 124.984C39.7242 124.951 40.0423 125.022 40.4304 125.143C40.8185 125.265 41.2816 125.404 41.4598 125.454C41.638 125.503 42.0272 125.734 42.3246 125.965C42.6221 126.197 43.1114 126.55 43.4118 126.75L43.958 127.112L43.3866 126.544C43.0724 126.232 42.8322 125.959 42.853 125.938C42.8737 125.917 43.2332 125.982 43.6519 126.083C44.8403 126.367 47.0185 126.815 48.1683 127.011C48.5313 127.072 48.8284 127.151 48.8284 127.185C48.8284 127.219 48.4904 127.34 48.0773 127.453C47.0872 127.724 45.475 127.809 43.0476 127.718C39.2097 127.573 36.4348 127.216 31.3952 126.22C25.7525 125.104 24.9118 124.877 18.8778 122.831C13.5496 121.024 12.3362 120.549 9.73002 119.244C7.12651 117.94 3.44934 115.821 3.76814 115.807C3.79436 115.806 4.21057 115.906 4.69324 116.028ZM101.052 116.321C100.921 116.453 100.995 116.716 101.164 116.716C101.343 116.716 101.485 116.488 101.396 116.343C101.336 116.247 101.139 116.234 101.052 116.321ZM81.5249 118.136C81.0787 118.448 81.555 119.164 82.0098 118.864C82.278 118.687 82.2942 118.313 82.0411 118.136C81.9269 118.056 81.8108 117.99 81.783 117.99C81.7552 117.99 81.6391 118.056 81.5249 118.136ZM69.2936 119.743C68.8312 120.315 68.1007 121.362 68.1395 121.398C68.1853 121.439 69.3721 120.021 69.6011 119.652C69.8641 119.227 69.662 119.287 69.2936 119.743ZM47.5539 120.006C46.7011 120.62 45.0293 121.975 44.8316 122.213C44.6364 122.448 44.7975 122.506 45.1373 122.323C45.7048 122.017 47.7148 120.267 48.2792 119.587C48.4637 119.365 48.3757 119.416 47.5539 120.006ZM68.4762 119.801C68.3096 119.995 68.0364 120.354 67.869 120.597C67.5718 121.03 67.5784 121.026 68.1586 120.431C68.763 119.812 69.0254 119.447 68.8663 119.447C68.8184 119.447 68.6428 119.606 68.4762 119.801ZM48.3277 121.028C46.7927 122.395 46.4025 122.786 46.4884 122.872C46.5209 122.905 46.6817 122.828 46.8459 122.701C47.4246 122.253 49.8618 119.81 49.7284 119.811C49.709 119.812 49.0787 120.359 48.3277 121.028ZM41.7332 120.269C41.1453 120.593 40.9083 120.794 40.9083 120.969C40.9083 121.141 41.4719 120.825 42.0117 120.351C42.4921 119.929 42.3996 119.902 41.7332 120.269ZM43.7759 120.233C42.4241 120.922 41.7603 121.45 42.2458 121.45C42.4633 121.45 43.5165 120.8 44.0035 120.366C44.4774 119.944 44.4156 119.907 43.7759 120.233ZM45.1872 120.691C44.4322 121.155 43.7304 121.701 43.7304 121.825C43.7304 121.988 43.9992 121.895 44.484 121.563C45.0522 121.174 46.0865 120.265 45.9562 120.269C45.9086 120.27 45.5626 120.46 45.1872 120.691ZM70.7043 122.651C70.4688 122.765 70.2216 123.243 70.2216 123.584C70.2216 123.873 70.592 124.272 70.8606 124.272C71.0939 124.272 71.3808 124.13 71.6554 123.88C72.0522 123.519 71.8376 122.849 71.2538 122.627C70.9858 122.526 70.9617 122.527 70.7043 122.651ZM81.2823 123.538L80.9182 123.597L81.2823 123.706C81.7886 123.858 82.3292 123.85 82.3292 123.691C82.3292 123.474 81.9814 123.423 81.2823 123.538ZM74.1208 123.768C73.9998 124.034 74.1423 124.272 74.4223 124.272C74.661 124.272 74.8399 123.87 74.6846 123.683C74.5107 123.473 74.2362 123.515 74.1208 123.768ZM84.9009 124.009C84.4227 124.147 84.5493 124.284 85.1276 124.253C85.5398 124.232 85.6566 124.192 85.6806 124.067C85.7152 123.885 85.4096 123.862 84.9009 124.009ZM63.1208 127.903C63.1208 128.128 64.2142 128.914 64.5273 128.914C64.8917 128.914 64.5927 128.611 63.7721 128.148C63.1417 127.792 63.1208 127.784 63.1208 127.903ZM72.2698 128.417C71.8192 128.537 71.4129 128.636 71.3671 128.638C71.3212 128.64 71.3035 128.661 71.3278 128.686C71.3662 128.724 71.6523 128.672 72.8862 128.4C73.025 128.37 73.1605 128.309 73.1875 128.265C73.2525 128.16 73.221 128.165 72.2698 128.417ZM66.5802 128.974C66.1913 129.104 66.1771 129.127 66.4436 129.191C66.9556 129.315 68.1877 129.289 68.301 129.153C68.3819 129.055 68.3725 129.014 68.2592 128.971C68.0879 128.905 66.7797 128.908 66.5802 128.974Z" fill="white"/>
</svg>
