<svg width="114" height="135" viewBox="0 0 114 135" fill="none" xmlns="http://www.w3.org/2000/svg">
<path fill-rule="evenodd" clip-rule="evenodd" d="M37.2711 0.0462318C37.1628 0.0644499 36.1435 0.125307 35.0061 0.181438C33.8687 0.237668 32.3937 0.326593 31.7282 0.378982C31.0628 0.43147 30.11 0.499614 29.6109 0.530339C29.112 0.561162 28.1719 0.626257 27.522 0.675002C26.872 0.723846 25.6312 0.813851 24.7646 0.875005C23.3206 0.977026 21.0529 1.22056 19.2007 1.47256C16.3604 1.85898 14.6635 2.24254 12.7998 2.91937C10.2902 3.83076 9.22029 4.51251 8.68744 5.53962L8.42657 6.04264L8.42204 8.4553L8.41761 10.868L8.75253 12.0285C9.20562 13.5986 9.35973 13.7545 11.1832 14.4872C12.3107 14.9401 12.5475 15.0696 12.5191 15.2178C12.5002 15.3168 12.4559 16.5943 12.4207 18.0567C12.362 20.4929 12.3397 20.7443 12.1549 21.059C12.044 21.2478 11.2906 21.9786 10.4808 22.683C9.67101 23.3873 8.48251 24.4736 7.83965 25.0969C6.63441 26.2656 2.81403 30.4769 2.16409 31.3532C0.611908 33.4463 0.287625 35.9886 0.0967789 47.5593C-0.0721075 57.798 -0.046702 59.4977 0.389055 67.147C0.660553 71.9128 0.689212 72.6732 0.7417 76.5023C0.766516 78.3167 0.852188 80.7096 0.931953 81.82C1.01172 82.9303 1.10202 84.2375 1.13255 84.725C1.51149 90.7748 2.01834 95.2742 2.49152 96.7883C3.08779 98.6962 3.77919 99.8595 5.39459 101.673C6.16497 102.537 6.49369 102.81 7.91155 103.762C9.67043 104.943 10.487 105.39 11.8067 105.895C12.2717 106.073 13.4276 106.528 14.3754 106.907C16.3422 107.693 18.0706 108.271 19.7566 108.705C21.6678 109.198 24.3494 109.782 25.1748 109.886C25.5991 109.94 26.8769 110.095 28.0143 110.231C29.1517 110.367 30.4369 110.521 30.8702 110.573C32.8688 110.813 35.1848 110.895 37.9112 110.823C43.2109 110.683 44.887 110.624 44.9276 110.575C45.0361 110.444 45.4957 108.87 45.4415 108.815C45.4072 108.781 42.6021 108.726 39.2079 108.692C32.5572 108.626 30.9118 108.571 28.8514 108.348C25.6599 108.003 24.5491 107.766 20.9241 106.659C20.22 106.444 19.0456 106.1 18.3145 105.895C17.5833 105.69 16.3646 105.259 15.6064 104.937C14.8481 104.615 13.6959 104.133 13.046 103.866C10.7529 102.925 8.7546 101.931 7.92927 101.321C6.97179 100.614 5.64462 98.9136 5.0774 97.6675C4.19003 95.7179 3.65944 91.7809 3.49243 85.9067C3.4617 84.8235 3.39484 83.0731 3.34383 82.0169C3.29292 80.9608 3.22674 79.4984 3.19671 78.7672C3.1195 76.8883 2.9645 73.8624 2.85362 72.0708C2.74027 70.2403 2.58448 65.9992 2.51348 62.8141C2.46198 60.5021 2.39137 58.4293 2.30707 56.7578C2.17935 54.2239 2.1435 42.2361 2.25715 40.0661C2.53593 34.7432 2.8615 33.3486 4.21131 31.6956C4.94032 30.803 9.80406 25.8834 11.8892 23.9296C12.7283 23.1434 13.5087 22.3217 13.6574 22.068C14.0114 21.4639 14.0701 20.9035 14.0851 17.987L14.0976 15.5539L14.7536 15.8019C15.5404 16.0994 17.8062 16.6521 19.1023 16.8626C21.7273 17.2889 23.1793 17.5104 24.0261 17.6134C24.5406 17.6759 26.0694 17.9003 27.4235 18.1121C31.235 18.708 32.2283 18.832 34.0706 18.9421C34.5852 18.9728 35.2056 19.0173 35.4493 19.0411C35.9362 19.0884 44.1034 19.2296 46.3801 19.23C50.2117 19.2306 59.2139 18.9893 60.7084 18.8458C61.2193 18.7968 63.6374 18.5256 64.1551 18.4593C66.152 18.2034 67.7961 17.9204 69.4013 17.5561C70.2286 17.3683 71.27 17.1459 71.7155 17.062C72.8047 16.8567 74.2239 16.4755 75.0222 16.1739C76.1481 15.7484 76.0408 15.679 75.9704 16.7882C75.8205 19.1476 75.7647 21.23 75.8405 21.6356C75.9506 22.225 76.2825 22.6334 77.2835 23.4114C80.0799 25.5849 83.9002 28.9012 85.4088 30.4647C85.862 30.9345 86.8448 32.1804 87.0024 32.4851C87.4828 33.4141 87.5205 33.7726 87.5928 38.0966C87.623 39.911 87.6908 42.304 87.7434 43.4143C87.9372 47.5085 88.0347 51.2315 88.0351 54.5524C88.0353 56.4266 88.0783 58.5094 88.1307 59.1808C88.2965 61.3059 88.4265 64.8389 88.4422 67.6394C88.4505 69.1289 88.4912 70.9014 88.5328 71.5784C88.7452 75.0394 88.9547 80.8292 88.8944 81.5738C88.8679 81.9015 88.7324 82.4208 88.5902 82.7397C88.3367 83.3084 87.4609 84.4466 86.6772 85.2256C86.2475 85.6526 86.2023 85.9906 86.5599 86.1042C86.6573 86.1351 86.7627 86.2271 86.794 86.3086C86.8377 86.4227 86.895 86.4332 87.0428 86.3541C87.1483 86.2976 87.3639 86.2514 87.5219 86.2514C88.176 86.2514 89.5962 84.8469 90.1756 83.627C90.6764 82.5722 90.6898 82.3762 90.7268 75.5175C90.7372 73.6164 90.5906 63.7316 90.5489 63.5148C90.5321 63.4273 90.4888 62.2922 90.4529 60.9923C90.3972 58.9788 90.2359 55.9225 90.0551 53.4589C90.0293 53.1068 89.9596 50.8911 89.9004 48.5351C89.8413 46.179 89.7568 43.7417 89.7126 43.1189C89.6685 42.496 89.6263 41.0029 89.6187 39.8008C89.5997 36.7906 89.4769 35.3303 89.1259 33.9406C88.6464 32.0421 88.3006 31.3258 87.0635 29.6693C86.2358 28.5611 83.7697 26.2913 80.6006 23.721C79.173 22.5633 78.1416 21.624 77.9845 21.3389C77.8027 21.0087 77.6928 19.7095 77.6404 17.2661L77.5867 14.7673L78.2192 14.3679C79.3738 13.6387 80.0682 12.7041 80.3963 11.4375C80.5926 10.6804 80.6034 8.08227 80.4139 7.22435C80.1936 6.22708 79.8396 5.57399 79.1823 4.9525C77.9103 3.74992 77.0519 3.23942 75.3816 2.69228C73.4715 2.06657 71.7722 1.78 66.3215 1.16423C60.6718 0.525908 58.0327 0.318814 54.4059 0.228807C53.1602 0.197885 51.5427 0.131117 50.8116 0.0804015C49.6096 -0.00310621 37.7429 -0.032943 37.2711 0.0462318ZM50.2207 2.10655C51.2227 2.1356 52.6851 2.2003 53.4704 2.25032C54.2558 2.30025 55.5409 2.36692 56.3262 2.39843C60.3817 2.56101 61.2801 2.6332 64.8444 3.08264C67.5902 3.42888 68.4516 3.51475 70.8514 3.68167C73.1046 3.83845 73.3052 3.87646 75.3321 4.53191C76.8559 5.02469 77.8202 5.61663 78.099 6.23033C78.3303 6.73975 78.3312 6.95275 78.1035 7.32598C77.5677 8.20468 76.4735 8.99701 75.1848 9.43957C74.2034 9.77665 70.4332 10.4531 66.4692 11.0034C61.3205 11.718 60.0442 11.8181 51.6978 12.161C47.5614 12.3309 42.8699 12.31 38.9944 12.1044C37.9924 12.0513 36.6852 11.984 36.0894 11.9548C33.3743 11.8221 32.8513 11.7928 31.5102 11.6979C24.2881 11.1873 16.0379 9.54789 11.7107 7.7636C11.3199 7.6024 10.9265 7.47054 10.8364 7.47054C10.5651 7.47054 10.4364 7.25743 10.4364 6.80819C10.4364 5.79507 11.9821 4.93941 15.0155 4.27322C18.9701 3.40476 24.0343 2.67712 27.3743 2.4976C27.9429 2.46707 28.7406 2.42108 29.1468 2.39548C30.8726 2.28646 34.5402 2.15628 37.5665 2.0964C39.3539 2.06115 40.8351 2.01457 40.8584 1.99291C40.9068 1.9478 47.5131 2.02796 50.2207 2.10655ZM38.1081 2.84886C35.955 2.9558 33.4142 3.16241 30.8702 3.43755C28.9137 3.64917 26.8858 4.00034 25.1253 4.43236C23.1048 4.92818 22.4708 5.29658 24.3795 4.86575C25.4965 4.61365 27.9773 4.18656 28.9957 4.07105C29.3188 4.03441 29.6511 3.99177 29.7342 3.97631C29.9408 3.938 33.2669 3.73426 35.2523 3.63825C36.146 3.59511 38.539 3.55247 40.57 3.54351C42.6011 3.53455 44.4623 3.50757 44.706 3.48354C44.9498 3.45951 45.4518 3.41234 45.8217 3.37856C46.1914 3.34478 46.4733 3.29643 46.448 3.27103C46.3444 3.16753 44.2543 2.93266 42.6384 2.84305C40.7382 2.73768 40.3389 2.73817 38.1081 2.84886ZM34.4153 4.03678C32.148 4.28149 29.5073 4.7138 29.3561 4.86506C29.3269 4.89411 29.7222 4.89332 30.2344 4.86309C30.7466 4.83296 31.5644 4.78559 32.0519 4.75792C32.5393 4.73015 34.7993 4.66377 37.0741 4.6102C39.3489 4.55673 41.3652 4.47805 41.5548 4.43541C41.8782 4.36283 41.8539 4.35072 41.1609 4.23973C40.7547 4.17464 40.0757 4.07725 39.652 4.02338C38.7412 3.90758 35.5366 3.91565 34.4153 4.03678ZM58.3222 4.09212C58.418 4.11713 58.551 4.11546 58.6177 4.08848C58.6843 4.06149 58.6059 4.04111 58.4434 4.04308C58.281 4.04505 58.2264 4.06711 58.3222 4.09212ZM59.1328 4.22644C59.3494 4.27125 59.6596 4.30522 59.8221 4.30197L60.1175 4.29597L59.8221 4.22083C59.6596 4.17947 59.3494 4.14549 59.1328 4.1453L58.7389 4.145L59.1328 4.22644ZM66.1738 4.80646C66.1738 4.92631 66.6653 5.06959 67.5525 5.20835C67.9587 5.27186 68.5318 5.36364 68.8262 5.41239C69.4317 5.51274 69.7773 5.52662 69.6982 5.44745C69.6687 5.418 69.5174 5.37211 69.3618 5.34543C69.2062 5.31874 68.9459 5.2562 68.7834 5.20628C68.5345 5.12996 67.7356 4.9786 66.4446 4.76333C66.2956 4.73842 66.1738 4.75792 66.1738 4.80646ZM35.2313 5.00814C33.9792 5.10554 34.0799 5.38925 35.3754 5.41426C35.7952 5.42243 36.2604 5.43238 36.4094 5.43652C37.1133 5.45591 39.7425 5.28023 39.816 5.20884C39.8879 5.13902 39.102 5.082 36.5818 4.97427C36.2568 4.96038 35.6491 4.97565 35.2313 5.00814ZM75.2157 5.50545C75.8386 6.08587 75.8243 6.3162 75.1274 6.91277C73.8675 7.99118 71.4796 8.76304 68.3895 9.09076C68.0646 9.12523 67.2669 9.21514 66.617 9.29067C65.967 9.3661 64.9256 9.47778 64.3028 9.53893C62.7535 9.69088 60.928 9.92623 60.8731 9.98109C60.7338 10.1203 61.421 10.1505 63.6452 10.1024C66.1978 10.0474 68.2302 9.8254 70.6831 9.3338C73.3956 8.79012 75.937 7.49851 76.1764 6.54181C76.2676 6.17765 76.0812 5.82845 75.635 5.5279C75.2021 5.23602 74.9097 5.22046 75.2157 5.50545ZM15.7589 5.70723C14.7156 5.97636 14.2241 6.23644 14.074 6.59863C13.9684 6.85368 13.973 6.94162 14.1035 7.16113C14.3624 7.59659 14.924 7.83825 16.1938 8.06051C16.8456 8.17464 17.619 8.31015 17.9124 8.36165C18.2057 8.41315 18.5603 8.45087 18.7002 8.44545C19.0107 8.43334 18.8019 8.38381 17.0835 8.06149C15.6729 7.79689 14.9828 7.55641 14.6657 7.21893C14.325 6.85625 14.4673 6.71296 15.7351 6.14121C16.3357 5.8703 16.859 5.61554 16.8979 5.57487C17.0161 5.45139 16.5328 5.50752 15.7589 5.70723ZM36.688 6.17784C36.6186 6.2901 37.9439 6.35668 38.9452 6.29109L39.733 6.23949L38.7482 6.16622C37.4424 6.06903 36.7528 6.07287 36.688 6.17784ZM17.1406 6.58425C17.2842 6.88569 17.3297 6.94152 17.3297 6.81646C17.3297 6.76358 17.2608 6.63438 17.1766 6.52921C17.0321 6.349 17.0301 6.35215 17.1406 6.58425ZM22.0073 7.37206C22.1156 7.41864 22.3594 7.45665 22.5489 7.45665C22.8282 7.45665 22.8563 7.4406 22.6966 7.37206C22.5883 7.32548 22.3446 7.28747 22.155 7.28747C21.8757 7.28747 21.8477 7.30352 22.0073 7.37206ZM68.3403 8.23717C67.6479 8.281 63.9735 8.75171 63.9221 8.80321C63.82 8.90524 66.1099 8.83798 67.3555 8.70238C68.7979 8.54531 69.2084 8.45973 69.2493 8.30758C69.2769 8.20497 69.0846 8.19 68.3403 8.23717ZM79.2196 9.48339C79.2974 10.8317 79.2532 11.0727 78.7533 12.0248C78.3902 12.7165 78.0706 12.9419 76.0707 13.9171C74.2608 14.7996 73.6606 15.0019 70.658 15.7408C67.4196 16.5379 64.4626 16.9762 60.7084 17.2158C58.8067 17.3371 36.7783 17.4006 35.4493 17.2885C33.8211 17.1512 30.3896 16.8251 30.0823 16.7783C29.9199 16.7536 28.7012 16.5779 27.3743 16.3879C25.0071 16.0491 24.1363 15.9323 21.0718 15.5421C19.2011 15.304 17.5668 15.0106 16.3942 14.7022C15.1879 14.385 11.8851 13.2341 11.4022 12.9627C10.8314 12.6419 10.4174 11.9802 10.369 11.3111C10.3474 11.0132 10.29 10.3052 10.2414 9.73775C10.1927 9.17024 10.1721 8.68672 10.1956 8.66328C10.219 8.63984 10.3176 8.69253 10.4147 8.78037C10.8223 9.14926 13.725 10.2121 15.4586 10.6273C15.6482 10.6727 16.3351 10.8464 16.985 11.0131C18.0125 11.2768 20.446 11.7886 22.155 12.1004C23.8606 12.4115 26.8259 12.8266 28.7529 13.0242C31.4797 13.3037 31.425 13.2995 36.8772 13.6342C44.0059 14.0717 55.0316 13.8298 62.4278 13.0736C68.0068 12.5032 73.5513 11.3683 75.8937 10.3174C76.7975 9.91186 78.0708 9.12897 78.5901 8.65954C78.8293 8.44328 79.0528 8.26465 79.087 8.26238C79.1211 8.26012 79.1807 8.80962 79.2196 9.48339ZM19.1023 8.48238C19.1293 8.51232 19.4839 8.5848 19.8901 8.64349C20.2963 8.70228 20.9167 8.79396 21.2687 8.84723C23.0518 9.11726 24.398 9.24488 24.6154 9.16442C24.7977 9.09697 24.6778 9.06309 24.0682 9.01001C23.291 8.94236 22.5228 8.85521 21.0225 8.66466C19.4881 8.46987 19.0536 8.42861 19.1023 8.48238ZM31.0671 10.2279C30.9046 10.2692 30.816 10.3092 30.8702 10.3167C30.9243 10.3242 31.2567 10.3752 31.6087 10.43C33.505 10.7256 35.4461 10.8243 40.5302 10.8838C45.35 10.9402 46.5092 10.915 46.3513 10.7571C46.2289 10.6347 43.5427 10.4269 42.0472 10.4242C41.1535 10.4226 38.96 10.3566 37.1726 10.2775C33.6978 10.1238 31.545 10.1062 31.0671 10.2279ZM54.1105 10.6218C53.533 10.6857 53.5387 10.6873 54.3567 10.6939C54.8171 10.6976 55.3045 10.6651 55.4399 10.6218C55.7469 10.5235 54.9991 10.5235 54.1105 10.6218ZM49.8039 10.7916C49.9809 10.8135 50.2468 10.8131 50.3948 10.7907C50.5428 10.7681 50.398 10.7502 50.073 10.7508C49.748 10.7513 49.627 10.7697 49.8039 10.7916ZM76.7454 11.6338C75.8439 12.3859 75.1351 13.1104 75.1351 13.28C75.1351 13.4327 76.3635 12.9316 76.9601 12.5357C77.5986 12.1118 77.9087 11.7109 77.9278 11.2844C77.9508 10.7709 77.6864 10.849 76.7454 11.6338ZM16.9073 12.5025C16.6415 12.7612 16.5634 12.883 16.6896 12.8418C17.0094 12.7373 17.5253 12.355 17.526 12.222C17.5271 12.0017 17.3301 12.0911 16.9073 12.5025ZM74.1426 12.3879C73.6912 12.6876 72.969 13.3791 73.1074 13.3791C73.4884 13.3791 74.8977 12.3708 74.7808 12.1818C74.6995 12.0502 74.6059 12.0804 74.1426 12.3879ZM71.1532 13.3319C70.4799 13.7889 70.3608 13.97 70.7336 13.97C71.0303 13.97 71.9118 13.4091 71.86 13.2535C71.7895 13.0417 71.5401 13.0694 71.1532 13.3319ZM23.2629 14.0658C23.0327 14.1703 22.8444 14.2785 22.8444 14.3063C22.8444 14.3562 23.7355 13.9979 23.8189 13.9145C23.9169 13.8166 23.6549 13.8878 23.2629 14.0658ZM25.822 14.3173C25.5383 14.5082 25.3063 14.6817 25.3063 14.7027C25.3063 14.7237 25.5721 14.612 25.8971 14.4547C26.2221 14.2972 26.488 14.1238 26.488 14.0692C26.488 13.906 26.3638 13.9523 25.822 14.3173ZM28.0471 14.1583C27.5568 14.4033 27.0558 14.7675 27.1202 14.8319C27.2602 14.972 28.6544 14.2721 28.6544 14.0617C28.6544 13.9244 28.4503 13.9568 28.0471 14.1583ZM29.8728 14.4031C28.3931 15.1976 27.8668 15.6904 29.1222 15.106C29.4066 14.9736 29.6392 14.8835 29.6392 14.9057C29.6392 15.0203 30.8749 14.2556 30.902 14.1243C30.952 13.8817 30.7333 13.941 29.8728 14.4031ZM68.5812 14.383C68.2478 14.5982 68.1453 14.7086 68.2563 14.7329C68.4866 14.7832 69.3251 14.3693 69.3251 14.2053C69.3251 13.9906 69.1085 14.0424 68.5812 14.383ZM46.6599 15.266C45.637 15.7764 44.5702 16.4319 44.7624 16.4319C44.938 16.4319 46.4608 15.8533 47 15.5816C47.9398 15.1081 48.3082 14.7578 47.8662 14.7578C47.7627 14.7578 47.2199 14.9864 46.6599 15.266ZM58.9201 15.3343C58.412 15.739 58.0238 16.1364 58.1367 16.1364C58.454 16.1364 59.5759 15.3236 59.5759 15.0937C59.5759 14.8741 59.4314 14.9271 58.9201 15.3343ZM42.92 15.5424C42.462 15.8457 42.0543 16.2349 42.1944 16.2349C42.346 16.2349 43.3198 15.7226 43.4372 15.5811C43.5135 15.4892 43.5216 15.4049 43.4599 15.3433C43.3984 15.2818 43.2068 15.3524 42.92 15.5424ZM44.625 15.4477C44.1656 15.6562 43.5894 16.0374 43.6468 16.0948C43.7089 16.1568 44.9064 15.7629 45.1588 15.5976C45.3963 15.442 45.4014 15.248 45.168 15.2523C45.1035 15.2535 44.8592 15.3414 44.625 15.4477ZM60.5838 15.6004L60.216 15.9506L60.6165 15.7553C61.098 15.5205 61.3637 15.2501 61.1129 15.2501C61.0242 15.2501 60.7862 15.4077 60.5838 15.6004ZM15.6192 17.9336C15.5545 18.175 15.533 19.9372 15.5955 19.8703C15.6399 19.8228 15.7217 19.2549 15.8146 18.348C15.8566 17.9382 15.844 17.712 15.7792 17.712C15.7238 17.712 15.6519 17.8118 15.6192 17.9336ZM74.356 18.664C74.3607 19.0341 74.3972 19.5585 74.4369 19.8293C74.4984 20.2473 74.5201 20.2844 74.5803 20.0755C74.6973 19.6704 74.6116 18.0786 74.4704 18.0318C74.3794 18.0017 74.3496 18.1666 74.356 18.664ZM70.4575 20.4711C70.295 20.5088 70.007 20.6093 69.8174 20.6946L69.4728 20.8495L69.8174 20.7918C70.3945 20.6952 70.954 20.5136 70.8506 20.4565C70.7969 20.4267 70.62 20.4333 70.4575 20.4711ZM19.4469 20.9583C20.5118 21.1451 22.5148 21.2733 24.9124 21.3084C27.9184 21.3522 27.3034 21.232 23.6747 21.0664C19.5377 20.8778 18.8941 20.8613 19.4469 20.9583ZM37.1694 21.557C36.1781 21.6374 35.2715 21.8456 35.4603 21.9495C35.8143 22.1444 38.2488 22.2391 43.7213 22.271C49.3474 22.3038 50.741 22.2703 50.1222 22.1172C48.6283 21.7476 47.458 21.6631 42.9335 21.5977C40.6858 21.5652 38.6473 21.5283 38.4036 21.5158C38.1598 21.5032 37.6044 21.5218 37.1694 21.557ZM30.0922 21.6487C30.2858 21.7269 31.2801 21.7963 31.6087 21.7545C32.0057 21.704 31.2877 21.5664 30.624 21.5658C30.123 21.5653 29.952 21.592 30.0922 21.6487ZM61.9886 21.6511C61.8091 21.7282 61.8134 21.7357 62.0378 21.7357C62.1732 21.7357 62.3726 21.6977 62.481 21.6511C62.6605 21.574 62.6562 21.5665 62.4317 21.5665C62.2963 21.5665 62.0969 21.6045 61.9886 21.6511ZM73.9534 21.7003C73.818 21.7777 73.7515 21.8411 73.8057 21.8411C73.8599 21.8411 74.015 21.7777 74.1504 21.7003C74.2858 21.6229 74.3522 21.5596 74.2981 21.5596C74.2439 21.5596 74.0888 21.6229 73.9534 21.7003ZM55.5876 22C54.9526 22.1185 55.0533 22.1244 56.8678 22.0741C57.9511 22.0442 58.926 21.9839 59.0343 21.9401C59.3609 21.8081 56.3344 21.8606 55.5876 22ZM17.7399 22.488C17.8087 22.5569 18.5515 22.7055 19.9885 22.938C21.5029 23.1831 23.9276 23.3091 23.9276 23.1428C23.9276 23.0807 23.9166 23.0298 23.903 23.0298C23.8894 23.0298 23.531 22.9633 23.1064 22.882C21.8218 22.6361 19.9034 22.4408 18.7658 22.4398C18.1745 22.4393 17.7129 22.461 17.7399 22.488ZM70.8022 22.5374C70.6803 22.6162 70.6888 22.6319 70.8514 22.6274C70.9598 22.6244 71.137 22.584 71.2453 22.5374C71.4257 22.4599 71.4216 22.4523 71.1961 22.4474C71.0607 22.4443 70.8834 22.4849 70.8022 22.5374ZM66.8632 22.8328C66.0065 22.9008 64.0929 23.0955 59.0343 23.6296C57.3955 23.8026 55.4773 24.1777 55.0541 24.408C54.6344 24.6364 58.0006 24.7055 59.9206 24.5079C62.3979 24.2529 65.8945 23.7966 66.8139 23.6083C67.7713 23.4122 68.5759 23.0818 68.583 22.882C68.5875 22.7555 68.0363 22.7396 66.8632 22.8328ZM14.9663 23.5386C14.9663 24.0246 15.0149 24.0089 15.0939 23.4975C15.1254 23.293 15.1097 23.1282 15.0585 23.1282C15.0078 23.1282 14.9663 23.3129 14.9663 23.5386ZM26.488 23.5293C27.1938 23.7378 27.6697 23.7735 27.6697 23.6181C27.6697 23.4431 27.1879 23.3249 26.5062 23.3327L25.8479 23.3403L26.488 23.5293ZM31.658 23.6118C31.301 23.6671 31.2872 23.6794 31.5102 23.7438C31.8745 23.849 32.5935 23.8325 32.5935 23.7191C32.5935 23.6649 32.5307 23.6206 32.4538 23.6206C32.377 23.6206 32.2551 23.6049 32.183 23.5858C32.1108 23.5666 31.8746 23.5784 31.658 23.6118ZM36.6556 23.8854C36.7504 23.9102 36.9056 23.9102 37.0003 23.8854C37.095 23.8607 37.0175 23.8404 36.828 23.8404C36.6384 23.8404 36.5609 23.8607 36.6556 23.8854ZM41.7025 23.8901C41.9497 24.135 43.8468 24.4066 43.9658 24.2141C44.1035 23.9915 43.8645 23.9222 42.7347 23.8574C41.9876 23.8146 41.6374 23.8256 41.7025 23.8901ZM37.3954 23.9857C37.5179 24.0092 37.6951 24.0083 37.7893 23.9837C37.8834 23.9591 37.7832 23.9398 37.5665 23.9409C37.3499 23.9419 37.2729 23.9621 37.3954 23.9857ZM49.2359 23.987C48.938 24.0083 48.6507 24.0692 48.5973 24.122C48.5341 24.1848 48.8942 24.2086 49.6313 24.1903C50.301 24.1736 50.7623 24.122 50.7623 24.0638C50.7623 23.9576 50.1064 23.9246 49.2359 23.987ZM75.1853 24.21C75.1102 24.3314 75.7279 24.9388 76.1534 25.1622C76.3884 25.2855 76.4199 25.2865 76.3503 25.1687C76.0276 24.6213 75.3008 24.0232 75.1853 24.21ZM32.3421 24.8762C31.6347 25.5308 30.5338 26.9428 28.0616 30.3662C27.5532 31.0703 26.6457 32.2668 26.0451 33.0251C23.9409 35.6815 22.3873 37.7909 22.1936 38.2545C22.0317 38.6421 22.0159 39.2568 22.1581 39.6309L22.2595 39.8978L22.5078 39.6646C22.6443 39.5363 22.8358 39.251 22.9333 39.0307C23.0308 38.8104 23.4609 38.1667 23.8893 37.6002C24.9005 36.2628 26.6479 33.8927 27.5981 32.5698C28.2095 31.7185 30.2429 28.6682 32.168 25.7142C32.4651 25.2584 32.8379 24.5069 32.7671 24.5069C32.7528 24.5069 32.5616 24.6731 32.3421 24.8762ZM54.7971 25.1186C54.6197 25.5808 57.0074 29.4411 59.0873 32.0551C60.0026 33.2055 61.3964 35.2166 62.1823 36.521C62.4923 37.0355 62.8769 37.5939 63.037 37.7618C63.2829 38.0197 63.3553 38.2232 63.5047 39.0754C63.6274 39.7759 63.6485 40.0921 63.5736 40.1104C63.5143 40.125 62.934 40.2372 62.284 40.3599C60.5895 40.6795 60.5645 40.7718 62.1855 40.724C63.1963 40.6943 63.707 40.6339 64.0993 40.4978C64.758 40.2694 64.8693 40.0662 64.3356 40.066L63.9581 40.0658V39.2884C63.9581 38.7108 63.9169 38.4641 63.7978 38.3284C63.7096 38.2281 63.6069 37.9336 63.5696 37.6743C63.5323 37.4149 63.4205 36.9667 63.3213 36.6781C62.9863 35.7048 61.378 33.288 60.202 31.9911C59.0114 30.678 57.3609 28.5186 56.0617 26.5741C55.0944 25.1264 54.8861 24.8866 54.7971 25.1186ZM13.5388 25.6984C12.8621 26.1275 10.7528 28.2125 9.82828 29.3658C9.14732 30.2154 8.3604 31.4987 8.52042 31.4987C8.68212 31.4987 9.46333 30.7498 10.3603 29.7348C10.9151 29.1071 11.9256 28.0176 12.6062 27.3135C14.3993 25.4583 14.6778 24.976 13.5388 25.6984ZM43.5209 26.6006C43.3914 26.7758 43.1892 27.03 43.0718 27.1656C41.2625 29.2532 38.3953 32.6804 38.458 32.6804C38.5258 32.6804 38.4793 32.7291 39.6838 31.4003C40.1983 30.8327 40.7808 30.1905 40.9782 29.9734C42.2033 28.6254 43.4628 27.0781 43.6852 26.6479C43.8932 26.2456 43.8026 26.2195 43.5209 26.6006ZM77.6173 26.5995C77.6595 26.741 78.758 27.3179 78.8362 27.2396C78.892 27.1838 77.8073 26.4764 77.6658 26.4764C77.6189 26.4764 77.5971 26.5319 77.6173 26.5995ZM20.7151 28.1751C20.1886 28.7292 18.7091 30.4653 17.9249 31.4495C17.5795 31.8828 17.1628 32.3812 16.9986 32.5573C16.8345 32.7334 16.7284 32.8774 16.763 32.8774C16.8873 32.8774 21.1703 27.9453 21.1703 27.8021C21.1703 27.7111 21.1058 27.7641 20.7151 28.1751ZM79.9643 28.6183C79.9697 28.7205 81.1563 29.6296 81.93 30.1244C82.8687 30.7246 83.1739 31.0566 83.6725 32.0199C83.9191 32.4962 84.1365 32.8702 84.1557 32.851C84.2422 32.7644 83.9835 31.6325 83.7718 31.1717C83.4523 30.4761 82.9638 30.0188 81.8972 29.4172C81.4007 29.1371 80.8491 28.8262 80.6715 28.7262C80.3442 28.5421 79.9572 28.4831 79.9643 28.6183ZM71.7803 30.4893C71.1118 31.2108 70.9613 31.4423 71.4762 30.9571C71.9271 30.5322 72.2613 30.12 72.1551 30.12C72.137 30.12 71.9683 30.2863 71.7803 30.4893ZM42.8192 30.4893C42.682 30.6383 42.2931 31.1368 41.9551 31.5972C41.4722 32.2551 41.4286 32.3394 41.7516 31.9911C42.1452 31.5666 42.9175 30.6 43.0696 30.3416C43.1883 30.1399 43.0851 30.2008 42.8192 30.4893ZM38.148 33.0005L37.9604 33.222L38.182 33.0344C38.3038 32.9312 38.4036 32.8316 38.4036 32.8129C38.4036 32.7341 38.3243 32.7923 38.148 33.0005ZM6.07979 34.0339C5.91908 34.2147 5.58544 34.9526 5.6398 35.007C5.65713 35.0242 5.81892 34.7946 5.99943 34.4967C6.32726 33.9559 6.37049 33.7068 6.07979 34.0339ZM85.0409 34.7017C84.6667 34.9396 84.3122 35.1838 84.2531 35.2443C84.1323 35.368 84.9623 35.0665 85.1574 34.9157C85.3292 34.7831 85.3352 34.7976 85.4541 35.6347L85.5591 36.3733L85.5334 35.5613C85.5119 34.8781 85.5364 34.7235 85.6884 34.5859C85.8727 34.4192 85.9283 34.2507 85.7952 34.2626C85.7546 34.2663 85.4151 34.4639 85.0409 34.7017ZM4.845 36.5689C4.7865 36.8391 4.7548 37.0762 4.77449 37.0959C4.83367 37.1552 5.03496 36.3186 4.99153 36.1936C4.96937 36.1299 4.9034 36.2988 4.845 36.5689ZM80.177 37.012C79.9983 37.0543 79.821 37.1215 79.7831 37.1612C79.7064 37.2415 80.2936 37.1306 80.6006 37.0069C80.8497 36.9063 80.6111 36.9093 80.177 37.012ZM85.2957 37.6831C85.0187 38.6075 84.9527 39.6644 84.9345 43.4638C84.921 46.2734 84.8808 47.5084 84.7944 47.7706C84.6278 48.275 84.0661 48.7255 82.8807 49.3054C81.258 50.0992 78.5496 51.07 76.5244 51.5839C74.0332 52.216 69.4691 53.0135 66.3649 53.3593C65.8536 53.4162 65.2912 53.489 65.1152 53.521L64.7952 53.5793V52.0096V50.44L65.6568 50.1163C66.8733 49.6594 66.8891 49.5877 65.7553 49.6703C65.2248 49.7089 64.7915 49.7019 64.7871 49.6546C64.7535 49.3005 64.7032 48.2443 64.6556 46.8978C64.6079 45.5472 64.5048 44.4102 64.3529 43.562C64.3335 43.4537 64.2815 43.1435 64.2373 42.8727C64.1578 42.3853 64.1563 42.3895 64.0926 43.2666C64.0572 43.754 64.0181 44.9727 64.0057 45.9747C63.9934 46.9767 63.9554 48.2618 63.9214 48.8305C63.8496 50.0321 64.0435 49.9391 62.3056 49.6053C61.266 49.4056 61.2192 49.4049 60.049 49.5718C58.6075 49.7774 58.0151 49.7345 56.3973 49.3075C55.2644 49.0085 55.0925 48.9896 53.4704 48.9868C51.9789 48.984 51.6278 49.0144 50.8608 49.213C49.7846 49.4914 49.5424 49.6567 50.3697 49.5481C50.694 49.5054 51.8012 49.4706 52.8303 49.4706C54.6878 49.4706 54.7121 49.4733 56.1785 49.8551C57.4544 50.1872 57.8032 50.24 58.7389 50.2425C59.3347 50.2442 60.088 50.2162 60.413 50.1806C61.0139 50.1145 61.4239 50.1594 62.9346 50.4565L63.7822 50.6232L63.8377 52.0657C63.8682 52.859 63.8602 53.5424 63.8199 53.5843C63.6665 53.7438 56.6274 54.2668 52.4364 54.4301C49.3408 54.5507 45.2249 54.5595 42.6832 54.4511C41.4398 54.398 39.7355 54.3279 38.896 54.2951C34.8916 54.139 30.5096 53.8438 24.9616 53.3564C22.3799 53.1297 22.4974 53.1554 22.5158 52.8188C22.5247 52.6563 22.5649 50.9606 22.6051 49.0507C22.6627 46.3156 22.6507 45.4632 22.5486 45.0378C22.4773 44.7407 22.3859 44.4975 22.3455 44.4975C22.256 44.4975 22.1789 45.5898 22.0545 48.6219C21.8807 52.8582 21.8606 53.0649 21.6232 53.0649C21.3331 53.0647 18.9825 52.7979 17.5968 52.6078C16.9583 52.5204 16.4087 52.476 16.3754 52.5093C16.1948 52.6898 18.2639 53.2538 20.2347 53.5612C20.993 53.6795 21.6688 53.7921 21.7365 53.8114C21.8922 53.8559 21.9048 54.633 21.8514 60.8938C21.7671 70.7935 21.813 76.1144 22.0083 79.0967C22.0337 79.4842 22.0997 80.8204 22.1549 82.0661C22.2103 83.3119 22.2779 84.6471 22.3053 85.0333C22.3328 85.4196 22.3991 87.7461 22.4528 90.2033C22.5065 92.6606 22.5707 94.9148 22.5955 95.2127C22.6203 95.5106 22.687 96.5963 22.7435 97.6254C22.8001 98.6544 22.8705 99.8237 22.8999 100.224L22.9535 100.951L22.6773 100.893C22.5255 100.86 21.7365 100.676 20.9241 100.483C19.0316 100.032 17.5834 99.7417 17.2486 99.7458C17.0016 99.7487 16.9965 99.7575 17.167 99.8868C17.4446 100.097 20.4773 101.068 21.8261 101.378L23.0236 101.654L23.1356 102.249C23.3797 103.545 23.972 104.969 24.5708 105.7L24.8129 105.996L24.8134 105.692C24.8137 105.524 24.7206 105.037 24.6066 104.608C23.9691 102.213 23.9021 101.76 24.1984 101.849C24.6205 101.977 28.0174 102.416 30.0823 102.61C31.8368 102.774 33.0466 102.823 35.4493 102.824C38.5761 102.826 42.6254 102.626 42.1316 102.494C41.9886 102.456 40.0166 102.375 37.7495 102.314C35.4824 102.253 33.2773 102.181 32.8493 102.153C28.8687 101.892 27.8896 101.802 25.9463 101.52C23.8351 101.214 23.9897 101.3 23.9064 100.376C23.8421 99.6639 23.589 94.7561 23.48 92.1107C23.3382 88.6666 23.2219 86.1034 23.1404 84.6265C22.8599 79.5407 22.7591 76.176 22.6949 69.7566C22.6657 66.8319 22.6221 63.8185 22.5981 63.0603C22.574 62.302 22.5237 59.9351 22.4862 57.8006L22.4181 53.9195L23.3944 53.9863C24.8193 54.0838 26.6003 54.2292 27.6697 54.3356C31.7132 54.7376 33.7104 54.8905 36.7787 55.0331C41.0195 55.2301 44.1928 55.33 46.1832 55.329C49.9499 55.3272 57.6311 54.9003 63.1879 54.3838L63.8949 54.3182L63.9459 54.6517C64.0586 55.389 64.2853 62.3893 64.3537 67.2455C64.3861 69.5474 64.4544 71.8933 64.5055 72.4585C64.603 73.5366 64.9669 75.0967 65.0886 74.9582C65.4693 74.5251 65.4676 69.8204 65.083 59.7613C65.0261 58.2719 64.9712 56.4107 64.9612 55.6253L64.9429 54.1974L65.2383 54.1736C66.0395 54.109 68.2636 53.8144 69.9159 53.5541C72.0136 53.2235 75.6053 52.481 77.0554 52.0782C80.2216 51.1987 83.4353 49.8166 84.4269 48.9079C84.7055 48.6525 84.96 48.4421 84.9924 48.4401C85.0248 48.4382 85.0804 48.9795 85.116 49.6429C85.1515 50.3063 85.2289 51.6026 85.288 52.5233C85.3471 53.4441 85.4077 57.0114 85.4226 60.4507C85.4376 63.8899 85.4802 67.28 85.5174 67.9841C85.5546 68.6882 85.6488 70.4386 85.7268 71.8739C85.8048 73.3092 85.8727 75.7243 85.8775 77.2408C85.886 79.9075 85.9513 81.0893 86.079 80.8844C86.1967 80.6956 86.445 79.697 86.5662 78.9256C86.6578 78.3425 86.6715 77.0644 86.6207 73.8049C86.5836 71.4159 86.5345 69.2396 86.5118 68.9688C86.4889 68.698 86.445 67.5902 86.4141 66.5069C86.3832 65.4237 86.3378 64.1386 86.3132 63.6511C86.2306 62.0109 86.1681 59.6344 86.1149 56.1177C86.0859 54.195 86.0395 52.1343 86.0119 51.5386C85.9644 50.5109 85.8415 46.0284 85.7216 40.9524C85.6613 38.3978 85.597 37.4334 85.482 37.3623C85.4402 37.3364 85.3563 37.4808 85.2957 37.6831ZM75.6768 38.2864C75.5684 38.3297 74.527 38.5506 73.3626 38.7772C70.2051 39.3916 68.7262 39.728 68.2892 39.9316L67.8971 40.1143L68.7067 40.1433C69.3793 40.1675 70.9719 39.9766 72.1316 39.7328C72.9878 39.5527 74.2688 39.2281 74.5935 39.1089C75.1729 38.8963 76.2184 38.3565 76.2184 38.27C76.2184 38.1751 75.9334 38.1836 75.6768 38.2864ZM12.1191 38.6304C12.2085 38.7198 13.5215 38.9827 13.8645 38.9799C14.4496 38.9751 14.0358 38.822 13.1042 38.6987C12.1948 38.5782 12.0574 38.5687 12.1191 38.6304ZM17.5759 39.3705C17.3028 39.4342 17.3253 39.4494 17.8713 39.571C18.1963 39.6433 18.7489 39.7068 19.0995 39.712C19.6132 39.7196 19.743 39.6904 19.7689 39.5618C19.7888 39.463 19.7149 39.3791 19.5747 39.3416C19.2804 39.2627 17.9557 39.2819 17.5759 39.3705ZM23.9052 40.3083C23.595 40.3761 23.3181 40.4085 23.2898 40.3803C23.2614 40.3519 23.2383 40.3746 23.2383 40.4308C23.2383 40.6021 24.614 40.9099 25.9956 41.0477C27.1955 41.1674 33.4595 41.299 33.8069 41.2118C34.3426 41.0774 34.1041 40.9351 33.0366 40.7524C32.7658 40.7061 32.1676 40.6019 31.7072 40.5209C31.2468 40.4398 30.4398 40.3265 29.9139 40.2691C28.6023 40.1258 24.6201 40.1518 23.9052 40.3083ZM4.20707 40.5585C4.04626 41.2212 3.90239 57.1121 4.0372 59.3182C4.08023 60.0223 4.14355 62.7919 4.17792 65.4729C4.23898 70.2389 4.38718 76.3588 4.47946 77.9302C4.72456 82.1031 4.90438 85.8073 4.96711 87.9747C5.05219 90.9155 5.35855 93.3988 5.90401 95.57C6.31899 97.2217 6.80546 98.1562 7.79426 99.2008C8.23316 99.6645 8.61151 100.025 8.63494 100.001C8.69216 99.9441 8.35685 99.2909 7.71863 98.2162C6.34085 95.8961 6.00239 93.8667 5.60839 85.562C5.55048 84.3434 5.46323 82.7924 5.41429 82.1154C5.36535 81.4384 5.2975 80.4413 5.26352 79.8997C5.22955 79.3581 5.16189 78.2945 5.11315 77.5362C4.80117 72.6772 4.65307 63.0363 4.71216 51.4401C4.74288 45.4283 4.72328 43.9773 4.59241 42.5773C4.50634 41.6565 4.39782 40.7702 4.35134 40.6077L4.26675 40.3123L4.20707 40.5585ZM55.833 40.7864C55.8056 40.8154 55.0301 40.8657 54.1097 40.8982C52.269 40.9634 50.316 41.1393 50.1879 41.2515C50.0329 41.3872 52.8319 41.4518 54.7998 41.3579C56.8247 41.2613 57.7018 41.1179 57.3776 40.9365C57.1868 40.8297 55.9097 40.7055 55.833 40.7864ZM42.3918 40.9416C41.8926 40.9891 41.7704 41.0256 41.9487 41.0737C43.0502 41.3713 45.1369 41.5246 45.7647 41.354C46.2102 41.2329 46.2914 41.1165 46.0108 41.0011C45.7729 40.9033 43.2329 40.8615 42.3918 40.9416ZM37.3696 41.1024L36.8772 41.2289L37.3696 41.237C37.9298 41.2463 38.3051 41.167 38.3051 41.0394C38.3051 40.9246 37.9747 40.9468 37.3696 41.1024ZM22.2873 42.7742C22.2876 43.2075 22.3049 43.3725 22.3257 43.1409C22.3466 42.9093 22.3463 42.5548 22.3251 42.3531C22.3039 42.1514 22.2869 42.3409 22.2873 42.7742ZM76.568 43.2024C76.6955 43.3161 78.3246 43.7616 79.4759 43.9975C79.9946 44.1037 80.7037 44.2867 81.0515 44.404C82.0458 44.7394 83.6164 45.5423 84.0338 45.9285C84.4759 46.3376 84.591 46.3061 84.3675 45.8373C83.9295 44.919 81.616 43.5404 80.0504 43.2649C79.1684 43.1097 76.4086 43.0602 76.568 43.2024ZM68.3492 47.8998C67.4149 48.1024 67.4186 48.1245 68.3895 48.1366C68.877 48.1426 69.586 48.1919 69.9651 48.2458C71.2957 48.4356 72.2928 48.4662 73.1503 48.3439C74.0276 48.2188 75.3863 47.8671 75.3054 47.7862C75.2804 47.7611 74.5508 47.7912 73.6841 47.8529C72.5227 47.9356 71.845 47.9365 71.1067 47.8562C69.8311 47.7174 69.1396 47.7283 68.3492 47.8998ZM8.2762 48.5843C8.27512 48.6926 8.36089 48.892 8.46685 49.0274C8.71206 49.3409 8.71206 49.1799 8.46685 48.732C8.32603 48.4748 8.27768 48.4374 8.2762 48.5843ZM9.67082 50.4237C9.69209 50.4875 9.88412 50.65 10.0976 50.7847C10.4071 50.9801 10.4558 50.9917 10.3379 50.8423C10.0102 50.4267 9.58239 50.1582 9.67082 50.4237ZM41.284 51.212C40.5127 51.4279 40.3454 51.5858 40.9393 51.5374C43.149 51.3571 43.1327 51.3566 44.5091 51.6492C45.9686 51.9595 46.8902 51.998 49.1867 51.8444C50.9767 51.7249 50.4847 51.6119 48.1021 51.5955C46.2709 51.5829 46.0479 51.5611 44.9569 51.2894C43.5162 50.9306 42.3752 50.9066 41.284 51.212ZM12.6028 51.3829C12.6028 51.5067 13.107 51.7275 13.5876 51.8143C13.9307 51.8762 13.9302 51.8755 13.4891 51.6464C12.904 51.3424 12.6028 51.2529 12.6028 51.3829ZM17.2805 57.908C16.7388 58.6102 16.0741 59.4631 15.8033 59.8035C14.8059 61.057 13.204 63.2078 13.2717 63.2029C13.31 63.2001 13.6516 62.7949 14.0307 62.3025C14.4099 61.8101 14.7651 61.3582 14.8201 61.2982C15.0492 61.0488 17.7085 57.6029 18.0081 57.1676C18.6333 56.2589 18.2572 56.6415 17.2805 57.908ZM79.7964 57.4225C79.4147 57.8281 76.9548 60.792 75.2398 62.9126C74.5171 63.8062 73.8587 64.615 73.7767 64.7097C73.6946 64.8045 73.6496 64.8821 73.6766 64.8821C73.731 64.8821 75.3594 63.0559 76.267 61.977C76.5861 61.5979 76.8743 61.2655 76.9078 61.2385C77.2481 60.9627 80.2566 57.1025 80.1311 57.1025C80.1127 57.1025 79.962 57.2464 79.7964 57.4225ZM40.0923 60.5245C38.6166 61.9993 34.0043 67.5138 31.5102 70.7856C31.2124 71.1765 30.7331 71.7916 30.4453 72.1528C30.1575 72.5139 29.875 72.898 29.8177 73.0063C29.6922 73.2439 29.6499 73.2883 30.9396 71.8246C31.5122 71.1747 32.4066 70.1625 32.927 69.5752C33.4475 68.9881 34.5491 67.7058 35.3752 66.7256C36.2013 65.7455 37.3141 64.4313 37.8481 63.8049C38.9886 62.4674 40.5623 60.5162 40.8115 60.1306C41.1242 59.647 40.784 59.8332 40.0923 60.5245ZM74.2851 61.4687C74.184 61.6006 73.8206 62.0569 73.4778 62.4828C72.9117 63.186 72.9009 63.2074 73.3602 62.7156C74.1299 61.8915 74.5778 61.3375 74.5206 61.2804C74.4923 61.2522 74.3863 61.3368 74.2851 61.4687ZM12.8428 63.668C12.6912 63.8668 12.6174 63.9984 12.6789 63.9604C12.8049 63.8825 13.2312 63.3065 13.1629 63.3065C13.1386 63.3065 12.9945 63.4691 12.8428 63.668ZM34.0608 65.2514C33.6062 65.7496 33.2057 66.2738 32.65 67.0978L32.185 67.7871L33.0852 66.8663C34.0387 65.8908 34.563 65.234 34.563 65.015C34.563 64.7935 34.4148 64.8634 34.0608 65.2514ZM38.545 65.6877C37.6859 66.7796 37.6516 66.8295 38.0173 66.4577C38.5574 65.9082 39.221 65.0759 39.1642 65.0191C39.1355 64.9904 38.8569 65.2913 38.545 65.6877ZM73.35 65.2514C73.2276 65.4075 73.231 65.411 73.3872 65.2886C73.482 65.2142 73.5595 65.1366 73.5595 65.1163C73.5595 65.0352 73.4787 65.0873 73.35 65.2514ZM59.5575 68.9442C59.1323 69.5142 58.8721 69.9044 58.9173 69.9044C58.9602 69.9044 59.6627 68.9934 59.8095 68.7473C59.9553 68.5027 59.7909 68.6314 59.5575 68.9442ZM57.0714 69.3437C56.6289 69.8991 56.6187 69.9228 56.9569 69.6089C57.3714 69.224 57.7614 68.7197 57.6377 68.7283C57.5934 68.7313 57.3385 69.0083 57.0714 69.3437ZM104.776 70.462C103.946 70.8005 97.4784 74.1137 97.2923 74.2962L97.0461 74.5377L97.0542 78.6958C97.0632 83.2482 97.0825 83.4237 97.6203 83.831C97.7919 83.961 98.6192 84.419 99.4587 84.8489C100.298 85.2787 101.628 85.9758 102.413 86.398C105.411 88.0099 105.349 87.989 106.085 87.6183C106.532 87.3932 108.051 86.3929 108.626 85.9443C108.821 85.7927 109.574 85.3077 110.3 84.8665C111.429 84.181 112.066 83.7433 112.836 83.1236C112.972 83.0145 112.994 82.4657 113.013 78.6429C113.029 75.4043 113.005 74.2459 112.918 74.1282C112.854 74.0411 112.269 73.6678 111.62 73.2985C110.407 72.6094 110.151 72.4854 106.795 70.9607C105.765 70.4929 105.103 70.3292 104.776 70.462ZM105.734 71.8179C106.101 72.0038 106.844 72.341 107.386 72.5671C109.015 73.2478 111.236 74.3098 111.944 74.7471L112.267 74.9469L112.256 78.8671L112.245 82.7874L112.031 82.8411C111.653 82.9363 109.501 84.218 107.78 85.3737C106.859 85.9918 105.946 86.582 105.75 86.6852L105.394 86.8727L104.519 86.3918C103.512 85.8381 100.742 84.4117 99.3323 83.7203L98.3689 83.2479L98.416 82.7145C98.4736 82.0631 98.2181 76.9958 98.083 76.1083C97.9322 75.1181 97.9008 75.1776 98.8432 74.6667C99.3172 74.4098 99.9708 74.0407 100.296 73.8465C100.621 73.6523 101.263 73.3196 101.724 73.1073C102.697 72.6583 104.483 71.7147 104.622 71.5756C104.785 71.4119 105.043 71.4681 105.734 71.8179ZM104.038 72.283C103.558 72.5454 102.511 73.2844 102.555 73.3294C102.583 73.3566 102.943 73.2508 103.357 73.0942C104.084 72.8187 104.579 72.4856 104.579 72.2725C104.579 72.1395 104.29 72.145 104.038 72.283ZM104.893 72.4401C104.915 72.5537 105.035 72.623 105.245 72.6433C105.578 72.6755 105.647 72.5869 105.446 72.3859C105.256 72.1962 104.854 72.2356 104.893 72.4401ZM106.36 73.1177C106.583 73.3604 109.257 74.7222 109.799 74.8691C110.011 74.9268 109.989 74.8848 109.64 74.562C108.939 73.9139 106.974 72.8586 106.469 72.8586H106.121L106.36 73.1177ZM103.529 73.5994C103.255 73.736 102.952 73.9345 102.856 74.0404C102.526 74.4054 102.947 74.3846 103.631 74.0021C104.648 73.4334 104.56 73.0857 103.529 73.5994ZM36.0401 73.5921C34.1282 74.1557 32.3118 75.4792 31.7587 76.7118C31.5211 77.2413 31.4951 77.4025 31.5254 78.1605C31.5876 79.7192 32.2417 80.5933 34.2263 81.7707C35.4128 82.4746 36.1392 83.11 37.3422 84.4961C38.6642 86.0193 41.193 87.1206 44.4352 87.5853C44.6924 87.6223 44.903 87.6616 44.903 87.6729C44.903 87.6841 44.6989 87.9063 44.4495 88.1665C44.2002 88.4268 43.8904 88.8668 43.7612 89.1443C43.3344 90.061 43.4809 90.6487 44.3296 91.4244C45.003 92.04 45.8133 92.4765 46.8267 92.7699C47.5217 92.9711 47.8188 92.9967 49.4329 92.9947C50.4349 92.9934 51.72 92.934 52.2887 92.8625C54.5496 92.5783 58.0149 92.7256 60.0224 93.1912C60.3793 93.2739 60.7824 93.3417 60.918 93.3417C61.129 93.3417 61.1601 93.3808 61.1334 93.6125C61.1122 93.798 61.0558 93.8701 60.9546 93.8414C60.5766 93.7342 58.3975 93.7265 57.6748 93.8299C54.4043 94.2975 51.6398 95.5725 50.6816 97.0555L50.3054 97.6377L49.8445 97.5614C49.591 97.5196 48.8962 97.4366 48.3004 97.377C47.7046 97.3174 46.7714 97.2054 46.2265 97.128C45.3061 96.9973 44.8673 96.9179 43.7213 96.675C41.9714 96.3039 40.104 96.1813 39.5178 96.3988C38.8876 96.6328 38.9228 97.1519 39.587 97.4176C39.958 97.5661 41.161 97.7824 42.5495 97.9503C43.0632 98.0125 43.3913 98.1099 43.5953 98.2607C43.8145 98.4228 44.3935 98.5785 45.8011 98.8539C49.0704 99.4937 50.0187 99.5658 50.559 99.2157C50.6708 99.1431 50.9518 99.0589 51.1833 99.0283C51.6745 98.9636 52.3439 98.6302 53.3628 97.9428C54.3006 97.3102 55.8788 96.5598 56.8113 96.3031C57.6119 96.0828 59.071 95.8565 60.3391 95.756C61.1276 95.6935 61.1515 95.6979 61.1515 95.906C61.1515 96.086 61.1117 96.1103 60.903 96.0579C60.5882 95.9789 59.1909 96.1504 58.2107 96.3883C56.1684 96.884 54.8581 97.5923 52.7341 99.3487C51.2762 100.554 49.9507 102.214 48.9529 104.084C47.8833 106.088 47.3322 107.654 46.3919 111.363C45.4895 114.922 45.215 115.944 45.0464 116.374C44.9696 116.57 44.8219 117.089 44.7183 117.529C44.6147 117.969 44.4808 118.42 44.4208 118.532C44.361 118.644 44.3009 118.949 44.2874 119.21C44.2655 119.634 44.2861 119.687 44.4818 119.715C44.6021 119.732 45.289 119.568 46.0082 119.351C46.7273 119.133 47.7145 118.863 48.2019 118.75C49.8603 118.365 50.2694 118.242 53.1257 117.274C56.4726 116.14 56.6876 116.058 58.0203 115.395C60.4532 114.186 62.07 112.702 63.8694 110.027C65.2473 107.978 66.4743 105.445 66.718 104.146C66.8213 103.595 66.9607 103.707 66.9683 104.346C66.988 106.001 66.9416 106.583 66.7495 107.097C66.4887 107.794 65.874 108.946 65.2205 109.964C64.1173 111.68 63.9985 112.089 63.9544 114.317C63.9171 116.202 63.8514 116.724 63.3657 118.995C63.0221 120.601 63.0099 120.725 63.0643 122.047C63.0956 122.806 63.1725 123.714 63.2352 124.066C63.2978 124.418 63.3386 125.054 63.3257 125.479C63.2888 126.69 63.3887 127.209 63.6844 127.344C63.8972 127.441 63.9561 127.427 64.1038 127.244C64.1984 127.128 64.3054 126.841 64.3418 126.608C64.378 126.374 64.6012 125.186 64.8376 123.968C65.0739 122.749 65.3455 121.296 65.441 120.738L65.6148 119.723L66.0173 120.112C67.02 121.079 68.3848 121.279 69.1492 120.57C69.2953 120.435 69.439 120.324 69.4684 120.324C69.4979 120.324 69.522 120.602 69.522 120.942C69.522 121.628 69.6668 122.964 69.8229 123.722C70.2943 126.006 70.9233 127.254 73.4724 130.962C74.1273 131.915 74.2732 132.231 74.635 133.483C75.0402 134.884 75.9818 135.282 77.7782 134.811C79.2461 134.425 80.3936 133.455 81.0839 132.014C81.5791 130.981 81.7736 130.264 81.9731 128.735C82.0502 128.144 82.1712 127.217 82.242 126.676C82.3984 125.478 82.3959 123.541 82.2362 122.343C82.1712 121.855 82.0302 120.792 81.9227 119.979C81.5391 117.082 81.1514 115.01 80.4484 112.101C79.7668 109.281 79.1216 106.142 78.8757 104.449C78.3352 100.727 78.108 99.6201 77.6411 98.4309C77.575 98.2625 77.6268 98.2557 78.4947 98.3188C79.958 98.4253 81.5518 98.1143 81.8699 97.6601C81.9789 97.5044 82.0468 97.4895 82.2658 97.5728C82.6326 97.7122 84.7889 97.97 85.5889 97.97C85.9525 97.97 86.3584 97.9289 86.4909 97.8784C86.7134 97.7939 86.7307 97.7396 86.7189 97.1645L86.7061 96.5421L85.4259 96.5077C83.3706 96.4524 83.1987 96.4497 82.4224 96.4591C81.2477 96.4734 79.3403 96.4265 77.7929 96.3453L76.3639 96.2702L76.2316 96.5175C76.0766 96.807 76.0924 96.8727 76.6636 98.3147C76.9005 98.9129 77.1808 99.8609 77.2894 100.432C77.5298 101.696 77.81 103.797 77.7467 103.86C77.7212 103.886 77.4666 103.71 77.1809 103.471C76.8952 103.231 76.5374 102.956 76.3857 102.86C76.2115 102.75 75.9903 102.425 75.7852 101.977C75.6066 101.588 75.2765 101.038 75.0516 100.755C74.8267 100.472 74.6428 100.202 74.6428 100.155C74.6428 100.108 74.7725 99.8076 74.9311 99.4875C75.3691 98.6037 75.7174 96.5914 75.4324 96.5914C75.3291 96.5914 75.3117 96.6497 75.087 97.7483C75.0066 98.1409 74.8751 98.6199 74.7945 98.8126C74.6199 99.2306 74.2677 99.7426 74.1548 99.7426C74.1105 99.7426 74.046 99.5539 74.0114 99.3234C73.9299 98.78 73.5345 97.932 73.1681 97.5147C72.8838 97.1909 72.8811 97.1772 73.014 96.7357C73.2196 96.0524 73.4044 95.8382 73.9421 95.6596C74.7714 95.3841 74.831 95.0597 74.0972 94.8175C73.819 94.7257 73.692 94.7396 73.3244 94.9022C72.7305 95.1649 72.3931 95.6895 72.273 96.5367C72.1877 97.1402 72.2005 97.2377 72.4321 97.7441C72.91 98.7888 72.9471 98.713 71.5649 99.514C70.1533 100.332 69.4932 100.578 68.3157 100.724C67.3419 100.845 66.2794 100.725 65.6318 100.421C65.0974 100.17 63.6165 98.9666 63.199 98.4438C62.2986 97.3164 61.9281 96.1547 61.9328 94.4736C61.9373 92.8879 62.2046 92.0325 63.0507 90.8973C63.3202 90.5356 63.6265 90.0493 63.7314 89.8166C63.8828 89.4809 63.9606 89.4058 64.1085 89.4526C64.6956 89.6391 65.6567 89.7715 66.5382 89.7876C67.4906 89.8049 67.5735 89.7898 68.1391 89.4954C68.8665 89.1168 68.9727 88.8633 68.6434 88.2913C68.5222 88.0807 68.4453 87.8862 68.4723 87.859C68.4995 87.8319 68.8747 87.9178 69.3061 88.0498C70.9472 88.5523 72.1647 89.4915 73.2086 91.0608C73.9287 92.1432 74.1781 92.6744 74.3459 93.483C74.4866 94.1602 74.7085 94.7203 74.8364 94.7203C74.99 94.7203 75.1341 94.0243 75.1323 93.2924C75.131 92.7959 75.0652 92.4445 74.8973 92.0362C73.7766 89.3107 71.6666 87.5467 69.31 87.365L68.5372 87.3055V86.8708C68.5372 86.609 68.6374 86.2245 68.7889 85.904L69.0408 85.3719L69.5678 85.8011C70.2726 86.3753 71.0421 86.6553 72.0824 86.7164C73.6018 86.8057 74.7349 86.4392 75.5933 85.5807C75.8465 85.3276 76.1327 84.9428 76.2294 84.7258C76.3261 84.5087 76.4952 84.2759 76.6053 84.2084C76.7769 84.1031 76.7894 84.0506 76.693 83.8391C76.6312 83.7035 76.5546 83.5911 76.5226 83.5894C76.4907 83.5877 76.3869 83.5272 76.2918 83.4551C76.1318 83.3336 76.1302 83.2927 76.2703 82.8957C76.7846 81.438 76.3455 79.0105 75.4278 78.2384C75.0987 77.9615 74.756 77.9055 74.564 78.0976C74.364 78.2976 74.43 78.5733 74.8295 79.2057C75.3971 80.1045 75.5585 80.655 75.4802 81.426C75.4241 81.9788 75.2965 82.6811 75.1826 83.0654C75.1579 83.1489 74.9606 83.1422 74.4282 83.0399C72.7594 82.7192 72.4508 82.6928 71.741 82.8095C70.3057 83.0457 69.2194 83.8314 68.5905 85.0886L68.2589 85.7514L68.1955 84.8935C68.1608 84.4217 68.0655 83.6802 67.984 83.2458C67.8737 82.6584 67.8625 82.3853 67.9403 82.1808C68.0672 81.8469 68.0687 80.8493 67.9439 79.8504C67.8931 79.4442 67.8234 78.7573 67.7888 78.3241C67.7238 77.5083 67.5587 77.0931 67.2991 77.0931C67.0857 77.0931 66.5338 77.3889 66.4364 77.5556C66.3816 77.6492 66.2647 77.6763 66.0857 77.637C65.8895 77.5939 65.7686 77.6318 65.6366 77.7775C65.4612 77.9714 65.4631 77.9981 65.7093 78.7414C66.0574 79.7926 66.1738 80.4256 66.1738 81.2674C66.1738 81.9415 66.1585 81.9923 65.9225 82.0998C65.522 82.2823 65.3517 82.8198 65.3639 83.8633C65.3697 84.3644 65.3482 84.7742 65.3162 84.7742C65.2842 84.7742 64.899 84.544 64.4603 84.2626C62.6521 83.1025 61.0759 82.2923 59.1024 81.5086C57.6897 80.9475 56.0862 80.0928 54.0613 78.8214C50.0148 76.2806 46.5948 74.9759 40.8655 73.787C39.3735 73.4774 36.7842 73.3728 36.0401 73.5921ZM101.613 73.8103C101.49 73.9588 101.498 73.9631 101.699 73.8561C101.928 73.734 101.985 73.6464 101.834 73.6464C101.787 73.6464 101.687 73.7202 101.613 73.8103ZM107.1 74.472C107.15 74.6014 109.783 76.1175 110.09 76.1935C110.213 76.224 110.215 76.205 110.104 76.0704C110.031 75.983 110.005 75.9114 110.046 75.9114C110.295 75.9114 109.113 75.2123 108.223 74.8332C106.984 74.3054 107.043 74.3246 107.1 74.472ZM100.296 74.5327C100.262 74.5869 100.279 74.6312 100.333 74.6312C100.388 74.6312 100.459 74.5869 100.493 74.5327C100.526 74.4786 100.509 74.4342 100.455 74.4342C100.401 74.4342 100.329 74.4786 100.296 74.5327ZM40.4716 74.8633C40.9319 74.942 41.7739 75.0796 42.3426 75.1692C43.8319 75.4037 45.4157 75.8418 47.2122 76.5161C48.0759 76.8403 48.8229 77.1305 48.8721 77.1609C49.263 77.4025 47.2153 77.4762 46.3603 77.2513C46.0733 77.1758 45.3954 76.9372 44.8537 76.7211C43.0574 76.0042 42.2613 75.9651 40.5374 76.5092C40.0408 76.6659 39.5353 76.795 39.414 76.7959C39.0118 76.7992 38.2331 76.4361 37.4332 75.8723C36.9987 75.5661 36.4795 75.2472 36.2795 75.1637C36.0731 75.0774 35.9533 74.975 36.0025 74.9269C36.3092 74.6277 38.8778 74.5911 40.4716 74.8633ZM101.773 74.7297C101.739 74.7838 101.756 74.8282 101.811 74.8282C101.865 74.8282 101.936 74.7838 101.97 74.7297C102.003 74.6755 101.986 74.6312 101.932 74.6312C101.878 74.6312 101.806 74.6755 101.773 74.7297ZM99.8628 75.2762L99.873 75.7637L99.973 75.3864C100.044 75.1178 100.041 74.9773 99.9628 74.899C99.8816 74.8177 99.8553 74.9168 99.8628 75.2762ZM37.1234 76.5551C37.4213 76.7815 37.8644 77.0671 38.1081 77.1897C38.3519 77.3124 38.5668 77.4265 38.5858 77.4434C38.6049 77.4603 38.5021 77.5989 38.3576 77.7514C38.0323 78.0945 37.7697 78.5893 37.6223 79.1371L37.5097 79.555H36.1536C35.1047 79.555 34.6137 79.6015 33.9862 79.7601C33.0423 79.9988 33.0196 79.9896 32.6364 79.2062C32.3269 78.5737 32.2891 77.5954 32.5526 77.0401C32.7769 76.5673 33.5761 75.8724 34.2884 75.5305L34.8812 75.246L35.7315 75.6947C36.1991 75.9416 36.8255 76.3287 37.1234 76.5551ZM98.7131 75.4305C98.5773 75.6502 98.5388 77.1415 98.6628 77.3734C98.8175 77.6626 99.0473 77.6402 99.1256 77.3285C99.3076 76.6034 98.9643 75.024 98.7131 75.4305ZM99.8146 77.2034C99.6245 78.428 99.7054 81.5745 99.9379 81.9897C100.11 82.2966 100.245 81.4392 100.246 80.0448C100.247 78.0403 99.9689 76.21 99.8146 77.2034ZM43.9214 77.2972C44.353 77.4637 44.706 77.6375 44.706 77.6836C44.706 77.7297 44.6009 77.8926 44.4724 78.0457C44.3437 78.1988 44.1579 78.5803 44.0594 78.8935C43.9245 79.3222 43.8434 79.4488 43.7313 79.4059C43.3943 79.2765 41.3295 79.3634 40.1387 79.5569C39.3455 79.6859 38.7186 79.7374 38.4446 79.6963C38.2053 79.6605 38.0097 79.6131 38.0097 79.5911C38.0097 79.432 38.63 78.6218 39.1065 78.1586C39.6423 77.6379 39.7514 77.5793 40.6923 77.3085C42.1049 76.9017 42.8887 76.8989 43.9214 77.2972ZM50.6648 78.0177C51.6215 78.5241 52.3745 79.0103 53.5689 79.8933L54.1105 80.2936L53.0273 80.325C51.7476 80.3621 51.0913 80.2388 50.2207 79.7977C49.647 79.507 48.1527 78.3359 48.1527 78.1769C48.1527 78.1422 48.387 78.0399 48.6733 77.9497C48.9597 77.8594 49.2809 77.7198 49.3873 77.6395C49.4936 77.5591 49.5989 77.4918 49.6214 77.4902C49.6437 77.4884 50.1133 77.7258 50.6648 78.0177ZM105.17 77.6289C105.17 77.8297 105.363 77.9242 105.498 77.7894C105.584 77.7036 105.576 77.6531 105.465 77.5829C105.257 77.4516 105.17 77.465 105.17 77.6289ZM45.9862 78.0286C46.2841 78.1086 46.7126 78.1746 46.9383 78.1752C47.2947 78.1761 47.3749 78.2186 47.5467 78.4964C47.6555 78.6725 48.1018 79.1262 48.5385 79.5049C49.3524 80.2106 49.3834 80.3158 48.7828 80.3359C48.669 80.3397 48.3684 80.4532 48.1147 80.588L47.6534 80.8333L47.2507 80.5791C47.0291 80.4392 46.3327 80.1557 45.7031 79.949C45.0735 79.7424 44.5583 79.5347 44.5583 79.4877C44.5583 79.3587 45.3216 77.8807 45.3875 77.8821C45.4189 77.8827 45.6883 77.9487 45.9862 78.0286ZM67.0526 78.3487C67.0431 78.6059 67.0697 79.4651 67.1117 80.2578C67.1538 81.0507 67.1634 81.7637 67.1333 81.8424C67.0957 81.9403 66.9808 81.9711 66.7695 81.9402L66.4607 81.8948L66.5389 81.4389C66.674 80.6504 66.5902 79.7864 66.3149 79.1288C65.9063 78.1527 65.907 78.1673 66.2658 78.2391C66.5089 78.2877 66.6207 78.2551 66.7734 78.0912C66.8812 77.9755 66.992 77.8809 67.0196 77.8809C67.0474 77.8809 67.0622 78.0915 67.0526 78.3487ZM102.911 78.609C102.737 78.9333 102.92 79.4645 103.275 79.6685C103.654 79.8862 104.014 79.9569 104.186 79.8477C104.306 79.7721 104.236 79.6643 103.816 79.2762C103.5 78.9839 103.299 78.7153 103.299 78.5856C103.299 78.3016 103.068 78.3156 102.911 78.609ZM98.8292 78.6276C98.7373 78.8671 98.7581 79.3155 98.8752 79.6225L98.9812 79.8997L99.118 79.6535C99.2654 79.3883 99.2945 79.0469 99.1997 78.6933C99.1312 78.4375 98.9167 78.3995 98.8292 78.6276ZM17.7145 79.7723C17.3171 80.2757 16.4106 81.4187 15.7001 82.3123C14.5352 83.7775 13.1419 85.563 11.781 87.3346C11.0251 88.3187 11.5499 87.7446 12.9514 86.0544C13.6476 85.2149 14.4008 84.3065 14.6253 84.0357C16.7827 81.4337 18.5983 79.0181 18.4831 78.903C18.4578 78.8778 18.112 79.2689 17.7145 79.7723ZM37.2752 80.1205C37.9229 80.2148 38.7281 80.2871 39.0646 80.2811L39.6765 80.2701L39.8347 80.7464C39.9217 81.0083 40.122 81.4568 40.2796 81.7429C40.4374 82.029 40.5673 82.3096 40.5683 82.3664C40.5693 82.4232 40.4139 82.5262 40.2229 82.5953C39.8848 82.7175 38.7523 83.7504 38.547 84.1236C38.4556 84.2901 38.3506 84.2057 37.5678 83.3358C36.5197 82.1711 35.9313 81.6957 34.6444 80.9734C34.1122 80.6747 33.6767 80.3892 33.6767 80.3392C33.6767 80.2329 33.898 80.1726 34.7107 80.0569C35.628 79.9265 36.0084 79.9359 37.2752 80.1205ZM43.9022 80.2849C45.4087 80.714 46.1464 80.9705 46.4675 81.1771C46.9089 81.4612 47.5829 82.1677 48.1892 82.9822L48.6512 83.6028L48.4687 83.8685C48.3683 84.0146 48.2097 84.3004 48.1164 84.5034C47.9297 84.9091 47.846 84.9487 47.6568 84.7208C47.3618 84.3653 46.5373 84.0874 44.0167 83.4939C42.9682 83.247 42.1031 82.8277 41.6412 82.3425C41.2613 81.9435 40.1761 80.3897 40.1761 80.2447C40.1761 80.1059 40.7284 80.0645 42.0964 80.1011C42.8404 80.121 43.5967 80.198 43.9022 80.2849ZM50.4669 80.784C50.7919 80.9178 51.2605 81.0552 51.5083 81.0894C51.7666 81.1249 52.0011 81.2205 52.058 81.3134C52.1124 81.4024 52.273 81.6747 52.4148 81.9184L52.6726 82.3616H51.5205C50.4676 82.3616 50.3236 82.3842 49.8478 82.6246L49.327 82.8876L49.0976 82.5261C48.9713 82.3273 48.6862 81.9454 48.4641 81.6776C48.2418 81.4097 48.0769 81.1736 48.0976 81.153C48.169 81.0815 49.5812 80.5595 49.7283 80.5501C49.8096 80.5449 50.1419 80.6502 50.4669 80.784ZM55.466 81.1257C55.7495 81.2855 56.8826 81.7735 57.984 82.2101C59.0853 82.6469 60.1045 83.0682 60.2489 83.1466C60.4993 83.2826 60.4794 83.2894 59.8183 83.2932C59.3256 83.2959 59.0134 83.3541 58.7387 83.4941C58.3793 83.6774 58.3242 83.6809 57.9546 83.5433C57.736 83.4619 57.114 83.309 56.5724 83.2034C56.0308 83.098 55.0677 82.8986 54.4322 82.7604C53.7968 82.6223 53.2539 82.5093 53.2259 82.5093C53.1979 82.5093 53.175 82.4243 53.175 82.3205C53.175 82.2167 53.0877 81.9281 52.981 81.6791C52.8743 81.4302 52.7746 81.1939 52.7594 81.154C52.7274 81.0698 53.9143 80.864 54.5305 80.8469C54.829 80.8385 55.0997 80.9193 55.466 81.1257ZM98.9276 80.991C98.8443 81.208 98.8651 81.7321 98.9663 81.9677C99.0252 82.1048 99.0531 81.9625 99.0579 81.4999C99.0649 80.8255 99.0354 80.7102 98.9276 80.991ZM14.0175 82.1404C13.3553 82.9713 12.9477 83.5132 12.8511 83.691C12.7248 83.9236 13.0922 83.5141 13.779 82.657C14.6179 81.6102 14.6072 81.6251 14.5541 81.5718C14.5284 81.5463 14.287 81.8021 14.0175 82.1404ZM66.9084 82.9325C67.1266 83.2655 67.6604 86.4717 67.5209 86.6112C67.4933 86.6388 67.2786 86.4746 67.0438 86.2464C66.8091 86.0182 66.4291 85.6773 66.1994 85.4888C65.9595 85.2918 65.8109 85.0991 65.8501 85.0358C65.8876 84.975 65.9452 84.5164 65.9781 84.0166C66.0232 83.3313 66.0826 83.0584 66.2196 82.907C66.4587 82.6427 66.725 82.6527 66.9084 82.9325ZM41.1167 82.9114C41.2267 83.0892 42.1611 83.6426 42.7365 83.8706C43.0344 83.9887 43.7908 84.1932 44.4173 84.3253C45.0439 84.4573 45.9967 84.7051 46.5345 84.8759C47.0725 85.0466 47.5569 85.1971 47.6111 85.2101C47.6652 85.2231 47.7104 85.5278 47.7115 85.8871L47.7134 86.5405L46.0867 86.4891C43.5426 86.4088 41.8226 86.1087 40.4716 85.5095C39.6778 85.1573 38.896 84.6894 38.896 84.5664C38.896 84.4454 39.581 83.8198 40.3239 83.2625C40.9716 82.7765 41.0201 82.755 41.1167 82.9114ZM53.0273 83.3586C53.4606 83.4371 54.1696 83.5827 54.6029 83.6821C55.0362 83.7816 55.723 83.9166 56.1293 83.982C57.8388 84.2575 58.1327 84.3628 59.1203 85.0539C59.6358 85.4146 60.06 85.7375 60.063 85.7715C60.07 85.8526 57.9782 85.9809 56.4247 85.9945L55.1937 86.0052L54.2582 85.6004C53.101 85.0995 52.9323 85.0587 52.02 85.0587C51.4138 85.0587 51.1799 85.1092 50.6627 85.3512C50.3189 85.5121 49.8412 85.8248 49.6012 86.0461C49.2571 86.3631 49.0887 86.4483 48.8064 86.4483C48.3988 86.4483 48.4058 86.4685 48.5833 85.8018C48.8113 84.9458 49.3094 84.0233 49.7449 83.6504C50.4083 83.0826 51.1432 83.0172 53.0273 83.3586ZM66.4008 83.4855C66.4429 83.7613 66.5234 83.8215 66.5408 83.5903C66.5487 83.4853 66.5136 83.3737 66.4626 83.3423C66.4118 83.3108 66.384 83.3753 66.4008 83.4855ZM74.1011 83.6855C74.5344 83.7901 75.0367 83.95 75.2173 84.0409L75.5457 84.2061L75.2173 84.5457C74.7739 85.0043 73.6519 85.5428 72.8702 85.6722C71.7534 85.8571 69.368 85.5454 69.2533 85.1996C69.1978 85.0324 69.878 84.3124 70.3557 84.0324C71.2634 83.5005 72.7599 83.3619 74.1011 83.6855ZM78.0894 83.888C77.954 83.9313 77.6797 83.9712 77.4798 83.9766C77.0764 83.9875 76.931 84.1218 77.1009 84.3267C77.1777 84.4192 77.1804 84.4813 77.1095 84.5251C76.9362 84.6321 76.9942 85.1263 77.2125 85.4038C77.3259 85.5481 77.5954 85.7561 77.8113 85.8663C78.1751 86.0519 78.2214 86.0551 78.4421 85.9105C78.7404 85.715 78.7413 85.628 78.4467 85.4703C78.1368 85.3044 77.7288 84.5927 77.9105 84.5349C78.8096 84.2494 78.807 84.2495 78.9429 84.4354C79.0151 84.5341 79.0742 84.8059 79.0742 85.0392C79.0742 85.5741 79.2302 85.5875 79.3709 85.0648C79.4833 84.6471 79.4426 84.3808 79.2094 84.011C79.061 83.7757 78.5985 83.7249 78.0894 83.888ZM63.4707 84.882C64.9991 85.8118 66.1156 86.5699 66.2307 86.7562C66.2782 86.833 66.1446 86.8413 65.7679 86.7853C65.0648 86.6805 63.0069 86.7172 62.6833 86.8402C62.4491 86.9293 62.364 86.8799 61.7094 86.2745C61.315 85.9098 60.7955 85.4793 60.5549 85.3179C60.3144 85.1566 59.9263 84.8719 59.6926 84.6853C59.1515 84.2534 59.2311 84.2034 60.6311 84.0958C61.2152 84.0509 61.7619 84.0079 61.8459 84.0003C61.9298 83.9926 62.661 84.3894 63.4707 84.882ZM16.3199 84.9958C15.6216 86.0044 15.5273 86.1529 15.5847 86.1529C15.6256 86.1529 16.5846 84.827 16.8846 84.3557C16.9793 84.2067 17.033 84.0849 17.0037 84.0849C16.9744 84.0849 16.6668 84.4948 16.3199 84.9958ZM95.3597 84.6734C94.5909 85.0155 90.3477 87.4653 89.0941 88.2909L87.8385 89.1178L87.8229 91.9929C87.7916 97.717 87.8518 98.6594 88.2487 98.6594C88.3091 98.6594 88.574 98.792 88.8374 98.9541C89.6636 99.4624 91.4965 100.4 92.3684 100.76C92.8288 100.95 93.6486 101.327 94.1903 101.598C94.7319 101.869 95.2973 102.121 95.4467 102.159C95.5962 102.196 95.7428 102.266 95.7726 102.314C95.8024 102.362 95.978 102.401 96.1628 102.401C96.4084 102.401 97.0023 102.116 98.3693 101.343C99.398 100.761 100.773 99.9962 101.425 99.6441C103.217 98.6762 103.622 98.3812 103.767 97.9375C103.839 97.717 103.896 96.9805 103.903 96.165C103.926 93.7617 103.825 88.8686 103.75 88.6968C103.652 88.4716 103.119 88.1327 101.91 87.5269C101.347 87.2446 100.699 86.8847 100.469 86.727C100.034 86.4283 96.0095 84.4736 95.8545 84.4858C95.8058 84.4895 95.5831 84.574 95.3597 84.6734ZM70.1129 84.9712C70.3038 85.0946 70.4083 85.0946 70.4083 84.9712C70.4083 84.917 70.3085 84.8734 70.1867 84.8742C70.0076 84.8755 69.9934 84.894 70.1129 84.9712ZM72.4579 84.94C72.5289 84.9684 72.6139 84.9649 72.6465 84.9322C72.6792 84.8995 72.6211 84.8763 72.5173 84.8805C72.4026 84.8852 72.3793 84.9086 72.4579 84.94ZM71.1961 85.1074C71.1961 85.1282 71.2848 85.1683 71.3931 85.1967C71.5016 85.2251 71.5655 85.208 71.535 85.159C71.4821 85.0732 71.1961 85.0297 71.1961 85.1074ZM53.4495 86.0425C54.1262 86.3856 54.1748 86.5325 53.5969 86.4884C53.3919 86.4727 52.4487 86.4572 51.5009 86.4538L49.7776 86.4476L50.1222 86.237C51.2141 85.5699 52.3828 85.5016 53.4495 86.0425ZM96.3279 85.8524C96.462 85.9579 96.8972 86.2076 97.2949 86.4072C97.6926 86.6068 98.4071 87.006 98.8825 87.2942C99.8994 87.9109 102.393 89.2057 102.563 89.2057C102.766 89.2057 102.807 89.9946 102.806 93.8724L102.805 97.6254L102.388 97.8536C102.158 97.9791 101.549 98.3083 101.034 98.5851C100.52 98.8618 99.7443 99.3322 99.311 99.6302C98.5498 100.154 96.7343 101.218 96.3812 101.347C96.275 101.386 96.067 101.314 95.8396 101.158C95.2077 100.725 93.5742 99.9431 92.2794 99.4531C91.5972 99.1949 90.7054 98.8247 90.2976 98.6304C89.8897 98.4361 89.4355 98.2313 89.2882 98.1752L89.0203 98.0734V93.8953V89.7171L89.9804 89.1304C91.2505 88.3543 93.1337 87.2792 94.2395 86.6988C94.5915 86.5141 95.1012 86.2074 95.372 86.0172C95.9514 85.6102 96.0077 85.6005 96.3279 85.8524ZM79.0414 86.1201C78.9339 86.2274 78.9681 86.6625 79.1245 87.1779C79.307 87.7794 79.3067 87.827 79.1214 87.827C78.6714 87.827 77.5666 88.8744 77.0871 89.7555C76.7419 90.3901 76.4149 91.5857 76.4168 92.2072C76.4186 92.8044 76.6643 93.8962 76.8663 94.2046C76.9818 94.3807 76.986 94.4362 76.8865 94.4647C76.8169 94.4846 76.5606 94.5541 76.3168 94.6191C75.825 94.7504 75.4306 94.9705 75.4306 95.1139C75.4306 95.2966 76.0189 95.5081 76.5271 95.5081C77.1975 95.5081 77.747 95.2382 78.5076 94.5353C79.5429 93.5786 80.0364 92.5836 80.2622 90.9977C80.3611 90.3032 80.3491 89.0477 80.2375 88.3817C80.2132 88.2368 80.3108 88.1678 80.699 88.0557C81.5692 87.8043 82.2172 87.7918 83.2654 88.006C83.8037 88.116 84.4584 88.298 84.7201 88.4104C85.3284 88.6716 85.635 88.6711 85.7755 88.4087C85.9325 88.1151 85.8196 87.7834 85.407 87.3266C84.685 86.5274 83.6835 86.1681 82.6932 86.353C82.0873 86.4661 80.7182 86.991 80.3304 87.2589C80.1818 87.3616 80.0191 87.4201 79.9686 87.3889C79.9183 87.3578 79.8013 87.1001 79.7088 86.8164C79.6162 86.5327 79.4966 86.2453 79.443 86.1775C79.3368 86.0435 79.1454 86.016 79.0414 86.1201ZM60.7963 86.391C61.31 86.5118 61.4567 86.6075 62.072 87.2228C62.4545 87.6052 62.7417 87.9437 62.7105 87.975C62.6792 88.0062 62.3267 87.9022 61.9272 87.7439C60.8594 87.3206 59.7386 86.9826 58.761 86.7887C58.2858 86.6944 57.9189 86.5955 57.9456 86.5687C58.0599 86.4543 59.0805 86.2676 59.6252 86.2613C59.9501 86.2575 60.4772 86.3159 60.7963 86.391ZM76.2543 86.9766C75.964 87.2264 75.965 87.3879 76.2563 87.2761C76.4295 87.2096 76.6606 86.8578 76.5823 86.7795C76.5571 86.7543 76.4095 86.8429 76.2543 86.9766ZM96.5625 86.8279C96.4917 86.9424 96.8849 87.2978 97.2248 87.4265C97.5542 87.5514 97.9816 87.5648 97.9816 87.4502C97.9816 87.1034 96.7311 86.5551 96.5625 86.8279ZM74.6499 87.0193C74.2812 87.2025 74.1381 87.4331 74.3932 87.4331C74.604 87.4331 75.0665 87.1912 75.2282 86.9965C75.3367 86.8658 75.3281 86.8429 75.1718 86.847C75.0704 86.8495 74.8356 86.9271 74.6499 87.0193ZM95.3083 87.0518C95.0184 87.158 94.8754 87.49 95.0847 87.5704C95.1586 87.5986 95.3531 87.5089 95.517 87.371C95.9816 86.98 95.8894 86.8388 95.3083 87.0518ZM65.1891 87.4485C65.5411 87.5047 66.1031 87.5735 66.438 87.6014L67.0469 87.6521L67.3961 88.1782C67.6418 88.5481 67.7107 88.7256 67.6287 88.7763C67.5645 88.816 66.9561 88.8461 66.2766 88.8433C65.1817 88.8387 64.9465 88.8059 64.2062 88.5541C63.4711 88.3042 63.3309 88.2171 63.0359 87.827L62.7008 87.3839L62.9848 87.3284C63.3391 87.2593 64.3472 87.3141 65.1891 87.4485ZM84.5347 87.5443C84.6889 87.6857 84.3661 87.6368 84.0965 87.478L83.8503 87.333L84.1457 87.3958C84.3082 87.4302 84.4833 87.4971 84.5347 87.5443ZM72.4291 87.6266C72.2641 87.8938 72.8033 88.0295 73.4462 87.8824C73.8908 87.7808 73.7274 87.6515 73.0544 87.5724C72.6681 87.527 72.4807 87.5433 72.4291 87.6266ZM76.4367 87.9272C76.0054 88.3587 75.8966 88.6533 76.1894 88.5969C76.3934 88.5576 76.9466 87.7959 76.8914 87.6303C76.8685 87.5617 76.6777 87.6864 76.4367 87.9272ZM56.2481 88.0036C56.0427 88.209 55.8165 88.5302 55.7455 88.7175C55.6746 88.9047 55.5354 89.2574 55.4362 89.5011L55.256 89.9442L54.2893 89.9108C53.2566 89.8749 52.6122 90.0193 52.0614 90.4097C51.9094 90.5176 51.7658 90.5866 51.7423 90.5632C51.6572 90.478 52.2224 88.9511 52.4546 88.6391C52.5858 88.463 52.7386 88.1881 52.7943 88.0284C52.9109 87.694 52.991 87.6818 55.3168 87.6487L56.6216 87.63L56.2481 88.0036ZM58.4339 87.8239C59.0243 87.9291 60.4569 88.316 61.6172 88.6836C63.6251 89.3199 63.7159 89.3593 63.5001 89.5005C63.3754 89.582 63.1299 89.7739 62.9545 89.9267L62.6357 90.2047L62.1737 89.8868C61.4812 89.4104 60.8038 89.1841 60.062 89.1814C59.7065 89.1802 59.3162 89.2324 59.1947 89.2973C58.9994 89.4018 58.9298 89.3755 58.5915 89.07C58.3811 88.8799 57.9627 88.6117 57.6616 88.474C57.3604 88.3363 57.114 88.2029 57.114 88.1777C57.114 88.1335 57.3333 87.6287 57.3514 87.6313C57.3563 87.6321 57.8433 87.7188 58.4339 87.8239ZM49.6774 87.8194L52.1377 87.827L51.7946 88.1699L51.4516 88.5128L50.2699 88.5726C48.3381 88.6702 47.5316 88.9498 46.6951 89.8117C46.3224 90.1956 45.9779 90.7594 45.8468 91.1998C45.7686 91.4624 45.655 91.415 45.0587 90.8699C44.5939 90.4451 44.5091 90.315 44.5091 90.0264C44.5091 89.2174 45.3904 88.266 46.4815 87.8972C46.7182 87.8172 46.9805 87.7653 47.0645 87.7818C47.1484 87.7983 48.3243 87.8153 49.6774 87.8194ZM93.4024 88.1058C92.692 88.5028 91.7776 89.1033 91.7776 89.1729C91.7776 89.2057 91.9767 89.2052 92.2201 89.1718C92.9124 89.0769 94.1288 88.4148 94.3416 88.0171C94.4309 87.8503 94.4098 87.8272 94.1691 87.8288C94.0182 87.8298 93.6733 87.9544 93.4024 88.1058ZM74.5443 88.1994C74.2773 88.2957 74.1674 88.3733 74.268 88.3947C74.3596 88.4142 74.6255 88.3425 74.8588 88.2354C75.3705 88.0003 75.1621 87.9765 74.5443 88.1994ZM99.1668 88.4565C99.2461 88.532 99.4218 88.6229 99.5572 88.6587L99.8034 88.7237L99.5709 88.5215C99.2977 88.2839 98.9217 88.2235 99.1668 88.4565ZM57.5266 89.1115C58.2569 89.6601 58.4998 89.9926 58.7931 90.8451C58.9021 91.1619 59.104 91.5914 59.2418 91.7995C59.3795 92.0077 59.476 92.1942 59.4562 92.214C59.4364 92.2338 59.001 92.1888 58.4886 92.1141C57.9764 92.0392 56.9922 91.9471 56.3016 91.9094C55.611 91.8717 55.046 91.8214 55.046 91.7975C55.046 91.7737 55.1995 91.5531 55.3872 91.3073C55.5749 91.0615 55.8641 90.4991 56.0298 90.0577C56.4691 88.8868 56.6037 88.6147 56.7432 88.6158C56.8117 88.6163 57.1642 88.8393 57.5266 89.1115ZM79.702 88.9225C79.7358 89.0918 79.7635 89.6693 79.7635 90.2059C79.7635 91.7566 79.3582 92.704 78.2798 93.6735C78.0009 93.9243 77.7331 94.1295 77.6849 94.1295C77.6365 94.1295 77.597 93.6491 77.597 93.062C77.597 91.8401 77.8343 90.7276 78.2496 90.0019C78.5392 89.4962 79.35 88.6148 79.5259 88.6148C79.5889 88.6148 79.6681 88.7533 79.702 88.9225ZM51.2055 89.4015C51.2055 90.1064 50.3778 92.2044 50.05 92.3301C49.5826 92.5094 46.5721 91.9809 46.2393 91.6611C46.1002 91.5273 46.8496 90.505 47.3629 90.1282C47.9834 89.6727 48.5478 89.5066 49.8283 89.4025C50.4367 89.3531 50.9585 89.2886 50.9878 89.2591C51.1012 89.1458 51.2055 89.214 51.2055 89.4015ZM74.3925 89.3107C74.277 89.4975 74.4454 89.5436 74.617 89.3721C74.7705 89.2187 74.7708 89.2057 74.6204 89.2057C74.5308 89.2057 74.4282 89.2529 74.3925 89.3107ZM69.3497 89.5985C68.9995 89.812 68.9313 89.9204 69.202 89.8334C69.6871 89.6776 69.9159 89.5672 69.9159 89.4892C69.9159 89.3473 69.6903 89.3908 69.3497 89.5985ZM90.7947 89.9076C90.6627 90.4864 90.6906 92.0133 90.8373 92.2507C91.137 92.7356 91.335 90.3057 91.0494 89.6488L90.921 89.3534L90.7947 89.9076ZM101.33 89.7907C101.33 89.9022 101.374 89.9935 101.428 89.9935C101.482 89.9935 101.527 89.9296 101.527 89.8516C101.527 89.7735 101.482 89.6823 101.428 89.6488C101.374 89.6153 101.33 89.6792 101.33 89.7907ZM60.5674 89.8558C60.8616 89.9426 61.1466 90.0471 61.2008 90.0882C61.2549 90.1292 61.5098 90.2414 61.767 90.3376C62.0242 90.4339 62.2348 90.5518 62.2348 90.5997C62.2348 90.6475 62.1192 90.8698 61.9779 91.0935C61.8366 91.3174 61.617 91.7872 61.49 92.1376C61.3629 92.4881 61.2385 92.7951 61.2137 92.82C61.0978 92.9358 60.7317 92.5984 60.4867 92.1499C59.6259 90.5744 59.2959 89.8477 59.4089 89.7759C59.5947 89.6579 59.9881 89.6849 60.5674 89.8558ZM75.1435 90.1588C75.0695 90.3658 74.9882 90.5905 74.963 90.6582C74.9378 90.7259 74.9645 90.7813 75.0223 90.7813C75.1328 90.7813 75.3672 90.0497 75.3109 89.8807C75.2929 89.8267 75.2176 89.9519 75.1435 90.1588ZM65.8316 90.4833C65.6757 90.6461 65.576 90.8072 65.6101 90.8412C65.704 90.9351 66.3215 90.5435 66.3215 90.39C66.3215 90.1451 66.1186 90.1837 65.8316 90.4833ZM89.7293 90.3086C89.5837 90.4541 89.5729 91.6736 89.7125 92.1767C89.7678 92.3754 89.8964 92.6412 89.9984 92.7671L90.184 92.9962L90.2557 92.6138C90.3433 92.1468 90.2373 90.6375 90.0988 90.3786C89.9821 90.1605 89.894 90.1438 89.7293 90.3086ZM64.2119 90.5919C63.7572 91.0466 63.797 91.1905 64.3047 90.928C64.604 90.7732 64.8336 90.4588 64.726 90.351C64.6146 90.2397 64.5196 90.2842 64.2119 90.5919ZM78.6463 90.666C78.4668 90.8643 78.4272 91.0245 78.5813 90.9293C78.684 90.8659 78.9114 90.4858 78.8467 90.4858C78.8261 90.4858 78.7359 90.5669 78.6463 90.666ZM54.8736 90.7401C54.9469 90.8135 54.5056 91.7725 54.356 91.865C54.294 91.9033 53.9254 91.9445 53.5368 91.9566C53.1482 91.9686 52.4093 92.0342 51.8948 92.1023C51.3802 92.1705 50.9256 92.2084 50.8843 92.1866C50.5728 92.022 52.2608 90.9393 53.1257 90.749C53.4284 90.6824 54.8089 90.6754 54.8736 90.7401ZM70.5068 90.8305C70.1851 91.0144 70.2977 91.0164 70.717 90.8344C70.8993 90.7553 70.9819 90.6904 70.9007 90.6902C70.8194 90.69 70.6422 90.7531 70.5068 90.8305ZM66.962 91.421C66.6279 91.7766 66.7675 91.8121 67.1648 91.4726C67.387 91.2825 67.45 91.1818 67.348 91.1792C67.2628 91.177 67.089 91.2858 66.962 91.421ZM71.0956 91.9161C70.9011 92.1507 71.0438 92.1864 71.3052 91.9687C71.4874 91.817 71.5044 91.7718 71.3804 91.7693C71.2923 91.7675 71.1642 91.8336 71.0956 91.9161ZM68.0879 92.1763L67.7987 92.4881L68.168 92.2138C68.5425 91.9357 68.6014 91.8645 68.4572 91.8645C68.4132 91.8645 68.2469 92.0048 68.0879 92.1763ZM64.3237 92.1631C64.1473 92.4455 64.1786 92.5359 64.3621 92.274C64.4488 92.1501 64.5026 92.0314 64.4814 92.0104C64.4603 91.9892 64.3893 92.0579 64.3237 92.1631ZM63.043 92.4467C62.9771 92.6315 62.942 92.8015 62.9649 92.8245C63.0406 92.9001 63.2327 92.4485 63.1974 92.2779C63.1744 92.167 63.1223 92.2239 63.043 92.4467ZM78.0993 92.5785C78.0938 92.7816 78.1337 92.9477 78.1879 92.9477C78.3007 92.9477 78.3007 92.8074 78.1879 92.4554C78.1175 92.2357 78.108 92.2489 78.0993 92.5785ZM72.7303 92.5815C72.6301 92.7322 72.5773 92.8846 72.613 92.9204C72.7218 93.0291 72.9901 92.6879 72.9501 92.4916C72.9176 92.3317 72.8888 92.3435 72.7303 92.5815ZM97.1339 92.6939C97.065 92.8733 97.2725 93.2671 97.3957 93.1909C97.5558 93.0919 97.5074 92.5538 97.3384 92.5538C97.2554 92.5538 97.1634 92.6169 97.1339 92.6939ZM65.4352 93.1447C65.3512 93.3072 65.3041 93.4401 65.3304 93.4401C65.4075 93.4401 65.7799 93.0168 65.7799 92.9291C65.7799 92.744 65.5768 92.871 65.4352 93.1447ZM63.3355 93.9571C63.2673 94.1331 63.192 94.7425 63.1681 95.3112C63.1215 96.424 63.2179 96.2857 63.4084 94.9665C63.4633 94.5874 63.5373 94.1331 63.5731 93.9571C63.6088 93.7812 63.5979 93.6371 63.5488 93.6371C63.4998 93.6371 63.4038 93.7812 63.3355 93.9571ZM62.4841 93.829C62.4523 93.8804 62.4043 94.2903 62.3773 94.7399C62.3386 95.3856 62.351 95.5057 62.4362 95.3112C62.4955 95.1758 62.5695 94.7659 62.6006 94.4003C62.6537 93.7767 62.6196 93.6096 62.4841 93.829ZM68.488 94.031C68.3334 94.1924 68.2291 94.3465 68.2562 94.3736C68.2833 94.4007 68.4319 94.2909 68.5865 94.1295C68.7411 93.9681 68.8454 93.8139 68.8183 93.7869C68.7912 93.7598 68.6426 93.8696 68.488 94.031ZM91.0003 94.1097C90.86 94.3719 90.8624 94.8623 91.0061 95.3604C91.1139 95.7331 91.1239 95.7411 91.1927 95.5081C91.2963 95.158 91.2983 94.2041 91.1958 94.0423C91.1266 93.9329 91.0879 93.9462 91.0003 94.1097ZM89.8939 94.1945C89.6367 94.5055 89.8166 96.3944 90.1035 96.3944C90.3884 96.3944 90.5704 94.2996 90.3004 94.128C90.0972 93.9987 90.0493 94.0066 89.8939 94.1945ZM96.406 94.3264C96.2261 94.6625 96.5292 94.935 97.0409 94.8974C97.5228 94.8619 97.5813 94.6344 97.1445 94.4941C96.982 94.4419 96.775 94.3348 96.6846 94.2562C96.5386 94.1292 96.5073 94.137 96.406 94.3264ZM61.0347 95.0041C61.0621 95.3867 61.0454 95.4277 60.887 95.366C60.3115 95.142 59.6394 95.0942 58.5974 95.2033C56.597 95.4128 54.888 96.0648 52.9739 97.3487C51.9352 98.0456 51.2009 98.4624 51.0124 98.4624C50.8144 98.4624 50.9131 97.9954 51.1925 97.6097C51.9888 96.5103 53.6342 95.6055 55.9098 95.0156C57.3257 94.6486 58.1111 94.5515 59.5759 94.5622L61.0038 94.5726L61.0347 95.0041ZM64.606 94.6793C64.6107 94.794 64.634 94.8173 64.6655 94.7388C64.6939 94.6677 64.6904 94.5827 64.6577 94.5501C64.625 94.5174 64.6017 94.5755 64.606 94.6793ZM64.4505 95.1142C64.4136 95.2307 64.4054 95.3482 64.4325 95.3753C64.4595 95.4024 64.512 95.3292 64.549 95.2127C64.5859 95.0962 64.5941 94.9787 64.567 94.9516C64.5399 94.9246 64.4874 94.9977 64.4505 95.1142ZM64.2657 95.6597C64.1707 95.9072 64.1987 95.9712 64.3148 95.7716C64.3723 95.6727 64.3986 95.5711 64.3732 95.5457C64.3479 95.5203 64.2994 95.5716 64.2657 95.6597ZM75.4409 95.8403C75.2765 96.0385 75.4157 96.2959 75.6873 96.2959C75.9466 96.2959 76.0125 96.0309 75.8048 95.8232C75.6523 95.6708 75.5787 95.6743 75.4409 95.8403ZM10.9288 96.4545C10.9288 96.5526 11.5025 97.1228 11.8643 97.3845C12.0513 97.5197 12.0537 97.5169 11.9135 97.3303C11.8323 97.2222 11.7191 97.0893 11.662 97.0349C11.1534 96.5503 10.9288 96.3725 10.9288 96.4545ZM70.0069 96.6573L69.7682 96.9202L70.0359 96.7312C70.1832 96.6272 70.305 96.5088 70.3068 96.4683C70.3118 96.347 70.2578 96.381 70.0069 96.6573ZM61.489 97.2807C61.8549 98.4532 62.7825 99.6729 64.1 100.714C64.6171 101.122 65.4753 101.614 65.6718 101.614C65.7242 101.614 65.8765 101.655 66.0102 101.706L66.2534 101.798L66.1003 102.42C66.0162 102.762 65.9294 103.062 65.9076 103.088C65.8858 103.113 65.7606 102.997 65.6293 102.829C65.4981 102.661 64.9273 102.254 64.3611 101.924C62.8039 101.015 61.9686 100.306 61.2406 99.2748C60.8801 98.7642 60.9911 98.7298 61.4523 99.2091C61.6389 99.4031 61.8769 99.6082 61.9812 99.6649C62.1548 99.7593 62.152 99.7359 61.9467 99.386C61.4851 98.5987 61.0188 98.0685 60.788 98.0685C60.6229 98.0685 60.5238 97.974 60.4142 97.7118C60.3323 97.5157 60.2653 97.2987 60.2653 97.2299C60.2653 97.0925 61.1643 96.6015 61.2603 96.6864C61.2931 96.7153 61.3961 96.9828 61.489 97.2807ZM91.0951 96.9114C91.099 97.0874 91.1382 97.3201 91.1824 97.4284C91.2562 97.6095 91.2684 97.6036 91.3339 97.3546C91.4157 97.0434 91.3275 96.5914 91.1849 96.5914C91.1317 96.5914 91.0914 96.7354 91.0951 96.9114ZM77.4986 96.8941C78.137 97.0002 79.4515 97.0045 80.3599 96.9032C81.1634 96.8137 81.4868 96.8808 81.4868 97.137C81.4868 97.4517 80.8526 97.5961 79.1727 97.664C78.3331 97.6978 77.5931 97.7597 77.5281 97.8013C77.4547 97.8483 77.3653 97.792 77.2923 97.6527C77.2276 97.5293 77.0374 97.2533 76.8696 97.0394C76.6222 96.724 76.6016 96.6649 76.7608 96.7273C76.8686 96.7694 77.2007 96.8445 77.4986 96.8941ZM84.56 97.0498C85.2627 97.1743 85.498 97.17 85.9921 97.0232C86.115 96.9866 86.1645 97.0273 86.1645 97.1651C86.1645 97.4378 85.9828 97.4781 85.1097 97.3993C84.6878 97.3611 83.8219 97.3299 83.1856 97.3299C82.0422 97.3299 82.0284 97.3272 82.0285 97.1024C82.0285 96.8803 82.049 96.8754 82.9105 96.8943C83.3956 96.905 84.1378 96.9749 84.56 97.0498ZM77.6444 97.2837C77.6062 97.3456 77.6194 97.4409 77.674 97.4955C77.8139 97.6354 78.1387 97.5532 78.1387 97.3778C78.1387 97.2007 77.7424 97.1253 77.6444 97.2837ZM90.3034 97.522C90.3012 97.7338 90.3299 97.783 90.4092 97.7038C90.4871 97.6259 90.4879 97.5436 90.4121 97.4132C90.3195 97.2539 90.3061 97.2673 90.3034 97.522ZM59.2805 97.6343C59.2805 97.9396 59.9022 99.3723 60.2803 99.9387C61.116 101.19 62.2692 102.163 63.9033 102.996C64.6022 103.352 64.8265 103.419 65.3108 103.419C65.6838 103.419 65.8725 103.457 65.8461 103.526C65.8236 103.584 65.7234 103.892 65.6233 104.21C65.4365 104.803 65.28 104.963 65.0627 104.783C64.9946 104.726 64.4744 104.565 63.9068 104.425C60.8243 103.665 58.8604 101.812 57.857 98.7178C57.7182 98.2895 57.6221 97.9216 57.6435 97.9001C57.725 97.8187 59.1362 97.4122 59.2066 97.4498C59.2472 97.4715 59.2805 97.5546 59.2805 97.6343ZM46.0355 97.859C47.6904 98.0904 49.3451 98.2667 49.8514 98.266C50.0546 98.2657 50.2213 98.2987 50.2221 98.3393C50.2228 98.3799 50.2512 98.5173 50.2853 98.6445L50.3472 98.8757L49.57 98.8053C48.5186 98.7099 44.2232 97.8238 44.0812 97.6729C43.9922 97.5785 44.0424 97.5646 44.3121 97.6093C44.5017 97.6407 45.2772 97.7532 46.0355 97.859ZM68.0882 97.9188C67.1566 98.2702 66.581 98.5919 66.8 98.6388C67.2142 98.7274 68.9227 97.9235 68.7254 97.7328C68.7032 97.7112 68.4164 97.795 68.0882 97.9188ZM69.7091 98.2781C69.1331 98.6875 69.0953 98.7259 69.2031 98.7926C69.2539 98.824 69.5273 98.6517 69.8106 98.4098C70.4045 97.9029 70.3453 97.8259 69.7091 98.2781ZM57.2248 98.6299C57.44 100.364 58.7847 102.58 60.3794 103.828C61.5858 104.772 63.3196 105.459 64.5734 105.491C64.8577 105.498 65.0903 105.522 65.0904 105.544C65.0914 105.766 62.7358 109.781 62.1473 110.561L61.9721 110.793L61.5624 110.584C61.3371 110.469 60.7646 110.284 60.2905 110.173C58.5233 109.761 56.85 108.699 55.2264 106.959C54.0162 105.662 53.4486 104.757 52.6308 102.822L52.1635 101.715L52.6266 101.173C53.2129 100.487 53.9469 99.8809 54.0497 99.998C54.0928 100.047 54.187 100.353 54.2591 100.678C54.4171 101.39 55.0037 102.798 55.4557 103.55C56.7642 105.727 59.9921 108.205 61.8901 108.488C62.526 108.583 63.2868 108.539 63.3714 108.402C63.4544 108.267 62.7423 107.851 61.9393 107.564C59.663 106.751 57.2967 105.016 56.1904 103.349C55.6237 102.494 54.3567 99.9322 54.3567 99.6403C54.3567 99.4336 56.8185 98.0396 57.0648 98.1069C57.1189 98.1218 57.1909 98.357 57.2248 98.6299ZM14.2769 98.5498C14.2769 98.6499 14.9684 99.0839 15.0299 99.0224C15.0513 99.0011 14.8906 98.8657 14.6728 98.7216C14.4551 98.5775 14.2769 98.5002 14.2769 98.5498ZM65.9276 99.1517C65.8195 99.3266 65.9803 99.4472 66.3215 99.4472C66.7672 99.4472 66.8379 99.295 66.4545 99.1613C66.0727 99.0283 66.0047 99.027 65.9276 99.1517ZM67.7166 99.1189C67.4734 99.3621 67.8555 99.4218 68.2418 99.201L68.488 99.0603L68.1352 99.0567C67.9411 99.0548 67.7527 99.0828 67.7166 99.1189ZM104.631 99.1255C104.394 99.1854 102.393 100.228 101.576 100.717C101.251 100.912 100.255 101.449 99.3614 101.912C98.2907 102.467 97.6993 102.83 97.6247 102.98C97.5452 103.139 97.5069 104.548 97.4958 107.72C97.4784 112.679 97.489 112.78 98.058 113.075C98.2169 113.157 98.6232 113.408 98.9609 113.632C99.2986 113.856 99.9144 114.194 100.329 114.382C102.108 115.191 103.099 115.675 103.841 116.097C104.719 116.596 105.176 116.779 105.544 116.779C105.935 116.779 108.604 115.344 111.522 113.566C111.955 113.302 112.478 112.997 112.684 112.889C112.89 112.781 113.169 112.577 113.304 112.436C113.536 112.194 113.55 112.113 113.57 110.959C113.592 109.626 113.465 105.021 113.383 104.21C113.347 103.845 113.259 103.624 113.067 103.415C112.739 103.057 111.598 102.346 109.602 101.256C109.141 101.005 108.499 100.634 108.174 100.431C106.448 99.3562 105.336 98.9467 104.631 99.1255ZM73.0671 100.426C73.0671 101.254 72.9925 101.676 72.4292 104.026C71.9418 106.06 71.9051 106.163 71.691 106.095C71.5938 106.064 71.1469 105.997 70.6978 105.946C70.2486 105.895 69.8405 105.812 69.7906 105.762C69.7356 105.707 69.9172 105.362 70.2541 104.881C71.1364 103.622 71.7869 102.035 71.7869 101.141C71.7869 100.869 71.889 100.705 72.3532 100.235C72.6646 99.9193 72.9527 99.6571 72.9933 99.6525C73.0339 99.6479 73.0671 99.9958 73.0671 100.426ZM56.4712 100.107C56.5328 100.436 57.0139 101.429 57.2195 101.653C57.2642 101.702 57.2431 101.524 57.1726 101.259C56.8781 100.151 56.302 99.2052 56.4712 100.107ZM55.4399 100.079C55.4399 100.463 56.8392 102.906 56.9791 102.766C57.0469 102.698 56.4538 101.253 56.0517 100.506C55.6858 99.8261 55.4399 99.6546 55.4399 100.079ZM62.9241 100.119C62.9241 100.211 63.292 100.56 63.515 100.678C63.5962 100.722 63.5099 100.595 63.3233 100.397C62.9647 100.018 62.9241 99.9894 62.9241 100.119ZM105.607 100.423C107.101 101.122 107.563 101.365 108.174 101.771C109.642 102.746 110.878 103.45 111.581 103.714L112.034 103.884L112.097 105.186C112.132 105.902 112.19 107.672 112.226 109.12C112.289 111.651 112.285 111.754 112.104 111.821C111.896 111.898 110.788 112.576 109.503 113.414C109.043 113.715 108.153 114.231 107.525 114.562C106.897 114.894 106.259 115.262 106.108 115.381C105.813 115.613 105.564 115.656 105.409 115.502C105.265 115.357 102.317 113.92 101.084 113.393C100.488 113.138 99.7355 112.788 99.4119 112.614L98.8236 112.298L98.8667 110.969C98.9255 109.154 98.8746 105.137 98.7818 104.268L98.7059 103.558L99.2053 103.353C100.125 102.977 103.127 101.377 104.333 100.622C105.029 100.186 105.084 100.177 105.607 100.423ZM9.64856 100.814C9.64856 100.92 10.2648 101.227 10.3357 101.156C10.408 101.083 9.95098 100.727 9.78534 100.727C9.71011 100.727 9.64856 100.766 9.64856 100.814ZM74.6715 101.124C74.8782 101.365 75.0975 101.795 75.2324 102.222L75.4538 102.924L75.2347 103.846C75.0037 104.818 74.9676 105.67 75.1333 106.24C75.2932 106.791 75.3621 108.036 75.2488 108.327C75.1848 108.49 74.9191 108.723 74.5445 108.942C74.2136 109.136 73.9287 109.295 73.9115 109.295C73.8942 109.295 73.8508 109.106 73.815 108.876C73.6908 108.08 73.4346 107.176 73.2011 106.711L72.9666 106.244L73.5035 104.052C73.7987 102.846 74.051 101.66 74.064 101.417C74.1082 100.592 74.1848 100.555 74.6715 101.124ZM104.413 101.364C104.217 101.537 104.182 101.608 104.292 101.61C104.377 101.612 104.551 101.503 104.678 101.367C104.977 101.049 104.773 101.047 104.413 101.364ZM71.0513 101.491C70.806 102.473 70.0092 103.922 69.2516 104.765L68.8532 105.208L68.7902 104.716C68.7556 104.445 68.6433 103.869 68.5408 103.435C68.4384 103.002 68.3293 102.53 68.2985 102.386C68.2678 102.242 68.2155 102.054 68.1824 101.967C68.1349 101.843 68.1913 101.81 68.4528 101.808C68.8193 101.806 70.3186 101.489 70.7037 101.332C71.0815 101.179 71.1243 101.198 71.0513 101.491ZM67.5924 102.428C67.7953 102.999 67.9282 104.372 67.8813 105.416C67.7975 107.284 67.48 108.444 66.264 111.322C65.8959 112.194 65.564 113.029 65.5265 113.178C65.4659 113.42 65.4248 113.443 65.1585 113.39C64.7667 113.312 64.7686 113.315 64.779 112.794C64.7888 112.311 64.7766 112.338 66.1935 109.59C67.4529 107.148 67.5525 106.86 67.5525 105.668C67.5525 104.662 67.355 103.658 67.1024 103.379C66.992 103.257 66.9712 103.077 67.0166 102.637C67.0496 102.318 67.0933 102.002 67.1139 101.935C67.1883 101.693 67.4132 101.924 67.5924 102.428ZM105.375 102.034C104.97 102.24 105 102.432 105.407 102.238C105.602 102.146 105.761 102.033 105.761 101.989C105.761 101.879 105.655 101.891 105.375 102.034ZM11.9677 102.099C12.0191 102.149 12.1942 102.221 12.3567 102.258C12.6401 102.324 12.6441 102.32 12.4551 102.17C12.245 102.003 11.8042 101.939 11.9677 102.099ZM102.979 102.226C102.776 102.344 102.61 102.476 102.61 102.519C102.61 102.675 102.863 102.588 103.243 102.3C103.692 101.961 103.52 101.913 102.979 102.226ZM106.451 102.148C106.451 102.175 106.539 102.245 106.647 102.303C106.756 102.361 106.844 102.386 106.844 102.359C106.844 102.332 106.756 102.263 106.647 102.204C106.539 102.146 106.451 102.121 106.451 102.148ZM51.9883 102.865C52.6428 105.809 55.3055 108.966 58.4896 110.573C59.4212 111.044 60.7036 111.183 61.6193 110.913C61.7614 110.871 61.8409 110.889 61.8409 110.964C61.8409 111.101 60.3366 112.626 59.9566 112.875C59.707 113.038 59.6771 113.036 59.1688 112.807C58.8781 112.676 58.3745 112.472 58.0495 112.352C57.1044 112.005 56.2556 111.516 55.0953 110.65C53.1292 109.184 51.6802 107.527 50.6161 105.528L50.105 104.569L50.4208 104.051C50.9076 103.254 51.7083 102.199 51.789 102.249C51.8288 102.274 51.9185 102.551 51.9883 102.865ZM103.955 102.853C103.748 102.994 103.603 103.132 103.632 103.161C103.685 103.214 104.579 102.726 104.579 102.644C104.579 102.527 104.295 102.622 103.955 102.853ZM107.704 102.906C107.771 102.973 107.851 103.004 107.881 102.973C107.911 102.943 107.857 102.888 107.76 102.851C107.619 102.798 107.608 102.809 107.704 102.906ZM14.33 103.085C14.3015 103.131 14.4561 103.24 14.6735 103.327C15.1545 103.519 15.4033 103.529 15.066 103.342C14.9312 103.268 14.7872 103.227 14.746 103.253C14.7046 103.278 14.6708 103.257 14.6708 103.206C14.6708 103.078 14.3945 102.98 14.33 103.085ZM101.219 103.128C100.398 103.349 99.3507 104.174 99.8905 104.174C100.23 104.174 101.419 103.483 101.613 103.173C101.675 103.073 101.714 102.995 101.7 102.999C101.686 103.003 101.47 103.061 101.219 103.128ZM76.8493 103.93C77.3037 104.229 77.7196 104.529 77.7737 104.595C77.8278 104.661 77.9454 105.225 78.035 105.848C78.1246 106.471 78.2425 107.15 78.2969 107.357C78.375 107.653 78.3607 107.825 78.2294 108.169C78.1377 108.409 78.0355 108.605 78.0022 108.605C77.9689 108.604 77.5001 108.327 76.9605 107.989L75.9792 107.374L75.7957 106.291C75.6384 105.362 75.6285 105.096 75.7262 104.42C75.8515 103.553 75.8908 103.386 75.97 103.386C75.9993 103.386 76.395 103.631 76.8493 103.93ZM101.921 103.949C101.731 104.033 101.628 104.121 101.692 104.144C101.756 104.167 101.978 104.097 102.185 103.987C102.625 103.755 102.424 103.726 101.921 103.949ZM16.9358 104.171C16.9358 104.285 17.0135 104.328 17.3789 104.412C17.6527 104.475 17.66 104.47 17.4774 104.344C17.1982 104.15 16.9358 104.066 16.9358 104.171ZM59.182 104.292C59.182 104.457 59.7762 104.991 59.8635 104.904C59.8895 104.878 59.7468 104.693 59.5464 104.492C59.2874 104.234 59.182 104.175 59.182 104.292ZM51.3552 104.494C51.4467 104.808 51.974 105.947 52.028 105.947C52.0997 105.947 51.7931 104.847 51.6373 104.546C51.4665 104.216 51.2633 104.178 51.3552 104.494ZM50.7131 104.45C50.7131 104.752 51.6572 106.414 51.7669 106.304C51.79 106.281 51.6452 105.936 51.445 105.538C51.0716 104.796 50.7131 104.262 50.7131 104.45ZM105.687 104.834C105.499 104.904 105.541 105.139 105.763 105.258C105.92 105.342 105.974 105.332 106.022 105.205C106.094 105.019 105.867 104.768 105.687 104.834ZM99.761 105.38C99.7668 105.649 99.7817 105.668 99.8526 105.503C99.9695 105.231 99.9695 105.06 99.8526 105.06C99.7985 105.06 99.7573 105.204 99.761 105.38ZM101.061 105.454C101.061 105.698 101.08 105.798 101.104 105.676C101.127 105.554 101.127 105.354 101.104 105.233C101.08 105.111 101.061 105.21 101.061 105.454ZM19.8901 105.245C19.8901 105.333 20.2295 105.487 20.6779 105.603C20.8133 105.638 21.0017 105.688 21.0964 105.715C21.1911 105.741 21.2687 105.724 21.2687 105.676C21.2687 105.628 20.9918 105.492 20.6533 105.373C19.9705 105.133 19.8901 105.12 19.8901 105.245ZM50.3785 106.587C51.2042 108.311 52.595 109.827 55.0122 111.64C56.6488 112.868 57.6759 113.327 58.8023 113.335C59.2117 113.338 59.2222 113.346 59.0343 113.495C58.8087 113.675 56.828 114.632 56.3566 114.789C56.1074 114.872 56.0526 114.867 56.0915 114.766C56.1557 114.598 55.4734 114.207 54.6398 113.933C53.4322 113.536 52.3158 112.738 51.1761 111.458C50.3332 110.511 49.9549 109.949 49.2222 108.554L48.6381 107.442L49.0539 106.571C49.2825 106.092 49.5367 105.595 49.6188 105.466L49.768 105.231L49.861 105.466C49.9121 105.595 50.145 106.099 50.3785 106.587ZM22.5489 106.038C22.5489 106.125 23.1693 106.385 23.9276 106.616C24.6196 106.827 25.3616 106.924 25.7002 106.848L26.0448 106.77L25.5417 106.511C25.265 106.369 24.7415 106.184 24.3785 106.1C23.6523 105.931 22.5489 105.894 22.5489 106.038ZM69.1384 106.301C69.2339 106.387 69.4811 106.518 69.6878 106.592C70.1349 106.751 71.3271 106.777 71.5965 106.632C71.8265 106.509 71.8264 106.488 71.5976 107.5C71.4528 108.14 71.3569 108.359 71.1506 108.522C70.4088 109.105 69.8174 110.046 69.8174 110.642C69.8174 110.899 69.7721 110.974 69.5959 111.007C69.474 111.03 68.909 111.158 68.3403 111.292C67.7716 111.425 67.2911 111.521 67.2726 111.505C67.254 111.489 67.4636 110.923 67.7384 110.248C68.2873 108.899 68.7319 107.303 68.7333 106.677C68.7345 106.123 68.8371 106.028 69.1384 106.301ZM99.727 106.307C99.6998 106.353 99.6252 106.645 99.5611 106.956C99.4715 107.392 99.4716 107.652 99.5614 108.084C99.6657 108.587 99.6918 108.627 99.8088 108.467C99.9746 108.24 100.09 107.337 100.02 106.815C99.9662 106.411 99.8181 106.155 99.727 106.307ZM103.989 106.872C103.989 107.02 104.228 107.152 104.324 107.056C104.453 106.926 104.371 106.734 104.186 106.734C104.077 106.734 103.989 106.796 103.989 106.872ZM27.4235 107.03C27.457 107.084 27.6922 107.124 27.9463 107.118C28.3245 107.11 28.3636 107.094 28.1621 107.03C27.8009 106.914 27.352 106.914 27.4235 107.03ZM52.7811 107.237C52.7811 107.317 52.9867 107.58 53.238 107.822C53.6741 108.241 53.6865 108.246 53.5096 107.936C53.2625 107.504 52.7811 107.042 52.7811 107.237ZM30.3285 107.336C31.0992 107.489 33.7276 107.812 34.8308 107.89C36.2005 107.987 41.9095 107.988 42.0062 107.891C42.0468 107.851 42.0573 107.795 42.0296 107.767C42.0018 107.739 40.2772 107.672 38.1972 107.618C36.1171 107.564 33.6031 107.453 32.6103 107.373C31.6177 107.293 30.5985 107.232 30.3454 107.238L29.8854 107.248L30.3285 107.336ZM100.88 107.494C100.846 107.645 100.781 107.923 100.736 108.113C100.606 108.665 100.527 110.793 100.625 111.117L100.714 111.412L100.835 111.117C101.016 110.674 101.126 109.673 101.13 108.439C101.133 107.38 101.01 106.916 100.88 107.494ZM72.9567 107.621C73.1029 108.012 73.2098 108.342 73.4084 109.016C73.5533 109.508 73.5561 109.607 73.4311 109.853C73.3532 110.006 73.1469 110.575 72.9726 111.117C72.4129 112.856 71.5585 114.794 71.2734 114.97C71.1315 115.058 71.2139 114.554 71.7806 111.871C72.0397 110.644 72.3567 109.119 72.4849 108.482C72.6132 107.846 72.7469 107.325 72.7821 107.325C72.8174 107.325 72.896 107.458 72.9567 107.621ZM76.2111 108.252C76.2745 108.328 76.701 108.643 77.1587 108.951C77.9236 109.465 77.9909 109.536 77.9909 109.837C77.9909 110.209 78.2176 110.78 78.6672 111.539C78.8368 111.826 78.9757 112.151 78.9757 112.26C78.9757 112.37 78.8381 112.66 78.6699 112.904C78.5017 113.149 78.2669 113.52 78.148 113.729L77.9319 114.11L77.4714 113.475C77.2182 113.126 76.8688 112.753 76.695 112.648C76.397 112.467 76.3803 112.426 76.4021 111.934C76.4287 111.331 76.2211 110.262 75.9225 109.464C75.7414 108.98 75.7303 108.86 75.8347 108.512C75.9633 108.082 76.0314 108.035 76.2111 108.252ZM48.5334 108.699C48.7271 109.345 49.4946 110.779 50.0386 111.51C50.7359 112.448 52.2287 113.899 52.9147 114.307C53.7105 114.779 54.6546 115.03 55.3907 114.965C56.055 114.906 56.0582 114.904 54.5353 115.485L53.483 115.887L52.4894 115.456C50.9141 114.772 49.2441 113.253 48.1201 111.482L47.546 110.577L47.9124 109.444C48.114 108.82 48.31 108.31 48.348 108.31C48.3859 108.31 48.4694 108.485 48.5334 108.699ZM54.61 108.876C54.7622 109.079 55.0427 109.401 55.2333 109.59C55.4239 109.78 55.5126 109.846 55.4304 109.738C55.3481 109.63 55.1082 109.308 54.897 109.024C54.6859 108.74 54.4727 108.507 54.4233 108.507C54.3738 108.507 54.4578 108.673 54.61 108.876ZM71.0192 110.107L70.8596 110.87H70.5354C70.3572 110.87 70.2113 110.844 70.2113 110.811C70.2113 110.561 71.0589 109.222 71.155 109.32C71.1682 109.333 71.1071 109.687 71.0192 110.107ZM78.9825 110.083C79.2193 110.938 79.1872 111.301 78.926 110.723C78.7561 110.346 78.5863 109.18 78.7197 109.305C78.7548 109.338 78.8731 109.688 78.9825 110.083ZM75.4212 109.803C75.4808 109.974 75.5817 110.505 75.6454 110.984C75.7818 112.008 75.6758 112.906 75.2775 114.102C74.786 115.577 74.4128 115.88 72.8377 116.085C72.3595 116.147 71.7281 116.304 71.4344 116.434C70.8209 116.705 70.7501 116.61 71.2435 116.177C71.4319 116.011 71.7853 115.576 72.0286 115.21C72.4496 114.577 72.6387 114.138 73.3683 112.101C73.9402 110.505 74.0949 110.224 74.6096 109.846C74.8715 109.654 75.1369 109.495 75.1993 109.494C75.2618 109.493 75.3616 109.632 75.4212 109.803ZM99.5684 109.896C99.437 110.273 99.4262 111.159 99.5508 111.356C99.6742 111.551 99.9734 110.503 99.9326 110.019C99.8933 109.553 99.7096 109.491 99.5684 109.896ZM47.7961 111.978C47.9764 112.371 48.3304 112.965 48.5827 113.298C49.4991 114.509 51.1013 115.764 52.0268 115.997C52.2791 116.061 52.4856 116.146 52.4856 116.187C52.4856 116.275 50.9195 116.877 50.6893 116.877C50.6004 116.877 50.502 116.836 50.4706 116.785C50.4392 116.734 50.1733 116.555 49.8798 116.387C48.8429 115.794 46.8731 113.688 46.8722 113.173C46.8719 113.022 47.0175 112.446 47.3231 111.387C47.3882 111.162 47.4658 111.259 47.7961 111.978ZM70.7037 111.615C70.7037 111.645 70.6625 111.855 70.6119 112.082C70.5614 112.309 70.4673 112.77 70.4026 113.106C70.2944 113.667 70.2615 113.721 69.989 113.781C69.6622 113.853 66.7485 115.772 66.1246 116.327C65.9079 116.519 65.6974 116.678 65.6568 116.679C65.5335 116.682 65.5771 116.185 65.7818 115.253C65.9925 114.293 66.0448 114.131 66.4869 113.074L66.7801 112.373L68.1264 112.11C68.8669 111.966 69.7165 111.789 70.0144 111.717C70.7081 111.549 70.7037 111.55 70.7037 111.615ZM100.792 112.145C100.735 112.236 101.103 112.643 101.242 112.643C101.281 112.643 101.384 112.67 101.469 112.703C101.727 112.801 101.652 112.482 101.366 112.256C101.086 112.036 100.883 111.997 100.792 112.145ZM49.8179 112.725C49.925 112.925 50.2207 113.196 50.2207 113.095C50.2207 113.059 50.1491 112.921 50.0617 112.787C49.8768 112.505 49.6724 112.453 49.8179 112.725ZM76.8899 113.554C77.5881 114.591 77.6455 114.825 77.3933 115.602C77.2256 116.119 76.2818 118.268 76.1412 118.453C76.1207 118.48 76.0099 118.369 75.8951 118.207C75.6357 117.84 74.995 117.195 74.5626 116.865L74.2364 116.616L74.6165 116.365C74.8584 116.205 75.1078 115.903 75.3025 115.535C75.6452 114.888 76.2184 113.319 76.2184 113.029C76.2184 112.686 76.4029 112.83 76.8899 113.554ZM79.9477 114.514C80.2593 115.971 80.5513 117.692 80.5513 118.071C80.5513 118.261 80.5113 118.277 80.1502 118.228C79.7301 118.172 79.3085 117.918 78.6037 117.298L78.1824 116.927L78.1345 115.933L78.0867 114.94L78.802 113.944C79.1954 113.397 79.5455 112.98 79.5799 113.017C79.6142 113.055 79.7798 113.729 79.9477 114.514ZM46.9607 114.292C47.3837 115.111 48.4463 116.173 49.4083 116.739C49.7468 116.938 50.0237 117.113 50.0237 117.129C50.0237 117.145 49.1929 117.431 48.1773 117.766C47.1618 118.1 46.0026 118.525 45.6013 118.709C45.2001 118.894 44.8538 119.028 44.832 119.006C44.81 118.984 44.9446 118.64 45.1311 118.242C45.4545 117.55 45.7555 116.684 46.3328 114.785C46.4767 114.311 46.6341 113.923 46.6823 113.923C46.7305 113.923 46.8559 114.089 46.9607 114.292ZM65.2195 113.997C65.2426 114.038 65.2056 114.248 65.1372 114.465C65.0592 114.712 65.0061 114.785 64.9949 114.662C64.9851 114.553 64.9609 114.379 64.9413 114.273C64.8875 113.986 65.0956 113.78 65.2195 113.997ZM70.0716 115.27C69.9893 116.177 69.9128 116.341 69.5361 116.417C69.0294 116.518 67.3187 118.056 66.6945 118.971C66.3901 119.417 66.3011 119.37 65.9501 118.575C65.5579 117.686 65.5255 117.407 65.7982 117.265C65.9236 117.2 66.3141 116.935 66.6662 116.676C67.2217 116.268 69.9962 114.524 70.1018 114.517C70.1228 114.515 70.1092 114.854 70.0716 115.27ZM46.8328 115.203C47.3082 115.705 47.545 115.875 47.2107 115.474C46.7816 114.96 46.5349 114.711 46.4535 114.711C46.4057 114.711 46.5765 114.933 46.8328 115.203ZM46.8725 115.843C47.0563 116.033 47.2287 116.188 47.2558 116.188C47.2829 116.188 47.1547 116.033 46.971 115.843C46.7872 115.654 46.6148 115.499 46.5877 115.499C46.5606 115.499 46.6888 115.654 46.8725 115.843ZM47.1679 116.51C47.1679 116.585 47.2843 116.754 47.4266 116.885L47.6853 117.124L47.5258 116.81C47.3453 116.455 47.1679 116.306 47.1679 116.51ZM78.5342 117.988L79.2478 118.674L78.9508 119.327C78.1302 121.13 78.0459 121.71 78.3827 123.234C78.6299 124.352 78.6288 124.612 78.3733 125.586C78.2336 126.119 78.0963 126.429 77.9568 126.528C77.8422 126.609 77.4775 126.92 77.1462 127.217C76.5624 127.742 75.4008 128.498 75.1776 128.498C75.1016 128.498 75.0915 128.354 75.1449 128.03C75.1872 127.773 75.2245 127.317 75.2277 127.017C75.2331 126.519 75.2588 126.457 75.5292 126.297C75.9476 126.05 76.5846 125.066 76.7631 124.392C77.03 123.383 76.9539 121.288 76.5988 119.87C76.4728 119.368 76.6871 118.428 77.1452 117.474C77.6216 116.482 77.6259 116.478 77.7299 116.917C77.7982 117.207 77.9974 117.472 78.5342 117.988ZM74.0203 117.728C74.8504 118.49 74.992 118.672 75.377 119.476C75.996 120.768 76.1586 121.502 76.1643 123.032C76.1698 124.488 76.0482 124.891 75.3809 125.629C74.7707 126.305 74.8866 126.434 73.2316 123.232C72.8289 122.453 72.8259 122.439 72.8239 121.361C72.8228 120.764 72.8858 119.82 72.964 119.265C73.0807 118.436 73.0843 118.148 72.9838 117.662C72.8719 117.12 72.8883 116.877 73.0369 116.877C73.0681 116.877 73.5106 117.26 74.0203 117.728ZM72.43 117.405C72.51 117.938 72.4551 118.756 72.2393 120.251C72.0261 121.727 72.1251 122.601 72.6257 123.658C72.8143 124.056 72.9687 124.4 72.9687 124.421C72.9687 124.443 72.8965 124.46 72.8082 124.46C72.7201 124.46 72.3883 124.637 72.0709 124.854C71.7535 125.071 71.4541 125.248 71.4057 125.248C71.3572 125.248 71.2934 125.148 71.2637 125.026C71.2342 124.905 71.116 124.472 71.0011 124.066C70.5371 122.426 70.3921 120.062 70.6387 118.159L70.7598 117.224L71.495 117.115C71.8993 117.054 72.2606 116.998 72.2979 116.99C72.3353 116.982 72.3946 117.169 72.43 117.405ZM48.3895 117.257C48.5979 117.492 48.6451 117.513 48.6451 117.373C48.6451 117.321 48.5453 117.226 48.4235 117.162C48.2031 117.046 48.2029 117.047 48.3895 117.257ZM64.8867 117.736C64.8905 117.91 64.9633 118.257 65.0483 118.508C65.1885 118.921 65.1887 119 65.05 119.346C64.8949 119.734 64.7073 120.539 64.5013 121.703C64.4389 122.055 64.3466 122.529 64.2961 122.756C64.2456 122.983 64.2043 123.282 64.2043 123.42C64.2043 123.559 64.16 123.672 64.1058 123.672C63.9857 123.672 63.9857 123.679 64.109 121.328C64.169 120.183 64.2817 119.106 64.3923 118.62C64.4933 118.176 64.6083 117.636 64.648 117.419C64.7081 117.092 64.7337 117.058 64.8 117.222C64.8439 117.33 64.8829 117.562 64.8867 117.736ZM69.772 117.739C69.6622 118.934 69.6366 119.014 69.2975 119.223C69.1231 119.33 68.8123 119.542 68.6069 119.693C68.3149 119.908 68.1301 119.966 67.7604 119.961C67.5003 119.957 67.1864 119.899 67.0629 119.833C66.8436 119.716 66.8592 119.692 67.7123 118.826C68.5789 117.947 69.5942 117.075 69.7514 117.074C69.7963 117.074 69.8056 117.373 69.772 117.739ZM80.6932 119.383C80.7222 119.657 80.799 120.391 80.864 121.013C81.0213 122.523 81.0207 127.492 80.863 128.695C80.6803 130.087 80.5617 130.54 80.1689 131.342C79.5618 132.583 78.5692 133.482 77.4915 133.769C76.323 134.08 76.0134 133.911 75.5019 132.683C75.3214 132.25 75.0068 131.61 74.8028 131.262C74.5987 130.914 74.4551 130.56 74.4834 130.475C74.7012 129.819 74.9266 129.259 74.9992 129.192C75.0469 129.148 75.2632 129.058 75.4798 128.991C76.0054 128.83 76.8611 128.355 77.3722 127.94C77.6007 127.755 77.8106 127.605 77.8388 127.607C77.867 127.61 77.9111 128.154 77.9369 128.818C77.9627 129.481 78.0451 130.246 78.12 130.516C78.3021 131.174 78.6387 131.817 78.8646 131.937C79.2543 132.146 79.2693 131.794 78.9141 130.77C78.7032 130.162 78.6467 129.788 78.608 128.744C78.5666 127.627 78.5933 127.306 78.8174 126.234C79.1086 124.839 79.1343 124.168 78.9353 123.151C78.6412 121.647 78.638 121.693 79.1323 120.241L79.5897 118.896L80.1152 118.891L80.6405 118.886L80.6932 119.383ZM73.6228 125.322C73.7705 125.579 74.0228 125.984 74.1834 126.223C74.4504 126.619 74.4734 126.719 74.4538 127.404C74.4313 128.185 74.2219 129.471 74.0738 129.735C73.9738 129.914 73.8596 129.756 72.6607 127.781C71.6974 126.194 71.685 126.156 72.0458 125.898C72.2012 125.786 72.528 125.507 72.7717 125.277C73.0154 125.047 73.2463 124.858 73.2846 124.856C73.3229 124.855 73.4751 125.065 73.6228 125.322Z" fill="white"/>
</svg>
