<svg width="28" height="22" viewBox="0 0 28 22" fill="none" xmlns="http://www.w3.org/2000/svg">
<path d="M2.66666 21.6666C2.13333 21.6666 1.66666 21.4666 1.26666 21.0666C0.866664 20.6666 0.666664 20.1999 0.666664 19.6666V2.33325C0.666664 1.79992 0.866664 1.33325 1.26666 0.933252C1.66666 0.533252 2.13333 0.333252 2.66666 0.333252H25.3333C25.8667 0.333252 26.3333 0.533252 26.7333 0.933252C27.1333 1.33325 27.3333 1.79992 27.3333 2.33325V19.6666C27.3333 20.1999 27.1333 20.6666 26.7333 21.0666C26.3333 21.4666 25.8667 21.6666 25.3333 21.6666H2.66666ZM25.3333 4.16659L14.5333 11.2333C14.4444 11.2777 14.3611 11.3166 14.2833 11.3499C14.2056 11.3833 14.1111 11.3999 14 11.3999C13.8889 11.3999 13.7944 11.3833 13.7167 11.3499C13.6389 11.3166 13.5556 11.2777 13.4667 11.2333L2.66666 4.16659V19.6666H25.3333V4.16659ZM14 9.59992L25.2 2.33325H2.83333L14 9.59992ZM2.66666 4.39992V3.08325V3.09992V3.06659V4.39992Z" fill="white"/>
</svg>
