<svg width="28" height="27" viewBox="0 0 28 27" fill="none" xmlns="http://www.w3.org/2000/svg">
<path d="M5.1975 0.6125C5.3618 0.420411 5.56577 0.266194 5.79536 0.160459C6.02495 0.0547253 6.27473 -1.66262e-05 6.5275 3.78785e-09H21.4725C21.7253 -1.66262e-05 21.975 0.0547253 22.2046 0.160459C22.4342 0.266194 22.6382 0.420411 22.8025 0.6125L27.3682 5.9395C27.7759 6.41521 28 7.02102 28 7.6475V8.09375C28.0001 8.95996 27.7296 9.80455 27.2262 10.5095C26.7228 11.2144 26.0118 11.7445 25.1924 12.0256C24.3731 12.3066 23.4864 12.3247 22.6563 12.0772C21.8262 11.8297 21.0942 11.3291 20.5625 10.6453C20.1742 11.1453 19.6767 11.55 19.108 11.8281C18.5392 12.1063 17.9144 12.2506 17.2812 12.25C16.6481 12.2507 16.0232 12.1065 15.4545 11.8283C14.8857 11.5501 14.3882 11.1454 14 10.6453C13.6118 11.1454 13.1143 11.5501 12.5455 11.8283C11.9768 12.1065 11.3519 12.2507 10.7188 12.25C10.0856 12.2507 9.46072 12.1065 8.89195 11.8283C8.32319 11.5501 7.82566 11.1454 7.4375 10.6453C6.90583 11.3291 6.17379 11.8297 5.34369 12.0772C4.51359 12.3247 3.6269 12.3066 2.80757 12.0256C1.98823 11.7445 1.27719 11.2144 0.773819 10.5095C0.270448 9.80455 -9.55475e-05 8.95996 2.53129e-08 8.09375V7.6475C2.20632e-05 7.02102 0.224099 6.41521 0.63175 5.9395L5.19925 0.61075L5.1975 0.6125ZM8.3125 8.09375C8.3125 8.73193 8.56601 9.34397 9.01727 9.79523C9.46853 10.2465 10.0806 10.5 10.7188 10.5C11.3569 10.5 11.969 10.2465 12.4202 9.79523C12.8715 9.34397 13.125 8.73193 13.125 8.09375C13.125 7.86169 13.2172 7.63913 13.3813 7.47503C13.5454 7.31094 13.7679 7.21875 14 7.21875C14.2321 7.21875 14.4546 7.31094 14.6187 7.47503C14.7828 7.63913 14.875 7.86169 14.875 8.09375C14.875 8.73193 15.1285 9.34397 15.5798 9.79523C16.031 10.2465 16.6431 10.5 17.2812 10.5C17.9194 10.5 18.5315 10.2465 18.9827 9.79523C19.434 9.34397 19.6875 8.73193 19.6875 8.09375C19.6875 7.86169 19.7797 7.63913 19.9438 7.47503C20.1079 7.31094 20.3304 7.21875 20.5625 7.21875C20.7946 7.21875 21.0171 7.31094 21.1812 7.47503C21.3453 7.63913 21.4375 7.86169 21.4375 8.09375C21.4375 8.73193 21.691 9.34397 22.1423 9.79523C22.5935 10.2465 23.2056 10.5 23.8438 10.5C24.4819 10.5 25.094 10.2465 25.5452 9.79523C25.9965 9.34397 26.25 8.73193 26.25 8.09375V7.6475C26.25 7.43895 26.1755 7.23725 26.04 7.07875L21.4725 1.75H6.5275L1.96 7.07875C1.82446 7.23725 1.74998 7.43895 1.75 7.6475V8.09375C1.75 8.73193 2.00352 9.34397 2.45477 9.79523C2.90603 10.2465 3.51807 10.5 4.15625 10.5C4.79443 10.5 5.40647 10.2465 5.85773 9.79523C6.30899 9.34397 6.5625 8.73193 6.5625 8.09375C6.5625 7.86169 6.65469 7.63913 6.81878 7.47503C6.98288 7.31094 7.20544 7.21875 7.4375 7.21875C7.66956 7.21875 7.89212 7.31094 8.05622 7.47503C8.22031 7.63913 8.3125 7.86169 8.3125 8.09375ZM2.625 13.125C2.85706 13.125 3.07962 13.2172 3.24372 13.3813C3.40781 13.5454 3.5 13.7679 3.5 14V24.5H24.5V14C24.5 13.7679 24.5922 13.5454 24.7563 13.3813C24.9204 13.2172 25.1429 13.125 25.375 13.125C25.6071 13.125 25.8296 13.2172 25.9937 13.3813C26.1578 13.5454 26.25 13.7679 26.25 14V24.5H27.125C27.3571 24.5 27.5796 24.5922 27.7437 24.7563C27.9078 24.9204 28 25.1429 28 25.375C28 25.6071 27.9078 25.8296 27.7437 25.9937C27.5796 26.1578 27.3571 26.25 27.125 26.25H0.875C0.642936 26.25 0.420376 26.1578 0.256282 25.9937C0.0921873 25.8296 2.53129e-08 25.6071 2.53129e-08 25.375C2.53129e-08 25.1429 0.0921873 24.9204 0.256282 24.7563C0.420376 24.5922 0.642936 24.5 0.875 24.5H1.75V14C1.75 13.7679 1.84219 13.5454 2.00628 13.3813C2.17038 13.2172 2.39294 13.125 2.625 13.125ZM6.125 14C6.35706 14 6.57962 14.0922 6.74372 14.2563C6.90781 14.4204 7 14.6429 7 14.875V21H21V14.875C21 14.6429 21.0922 14.4204 21.2563 14.2563C21.4204 14.0922 21.6429 14 21.875 14C22.1071 14 22.3296 14.0922 22.4937 14.2563C22.6578 14.4204 22.75 14.6429 22.75 14.875V21C22.75 21.4641 22.5656 21.9092 22.2374 22.2374C21.9092 22.5656 21.4641 22.75 21 22.75H7C6.53587 22.75 6.09075 22.5656 5.76256 22.2374C5.43437 21.9092 5.25 21.4641 5.25 21V14.875C5.25 14.6429 5.34219 14.4204 5.50628 14.2563C5.67038 14.0922 5.89294 14 6.125 14Z" fill="white"/>
</svg>
