<svg width="22" height="27" viewBox="0 0 22 27" fill="none" xmlns="http://www.w3.org/2000/svg">
<path d="M11 13.6667C11.6445 13.6667 12.1945 13.439 12.65 12.9834C13.1056 12.5279 13.3333 11.9779 13.3333 11.3334C13.3333 10.689 13.1056 10.139 12.65 9.68341C12.1945 9.22786 11.6445 9.00008 11 9.00008C10.3556 9.00008 9.80557 9.22786 9.35001 9.68341C8.89445 10.139 8.66668 10.689 8.66668 11.3334C8.66668 11.9779 8.89445 12.5279 9.35001 12.9834C9.80557 13.439 10.3556 13.6667 11 13.6667ZM11 24.7001C13.9556 22.0112 16.1389 19.5723 17.55 17.3834C18.9611 15.1945 19.6667 13.2667 19.6667 11.6001C19.6667 8.97786 18.8278 6.83342 17.15 5.16675C15.4722 3.50008 13.4222 2.66675 11 2.66675C8.57779 2.66675 6.52779 3.50008 4.85001 5.16675C3.17223 6.83342 2.33334 8.97786 2.33334 11.6001C2.33334 13.2667 3.05557 15.1945 4.50001 17.3834C5.94445 19.5723 8.11112 22.0112 11 24.7001ZM11.0333 26.9334C10.8778 26.9334 10.7333 26.9112 10.6 26.8667C10.4667 26.8223 10.3445 26.7556 10.2333 26.6667C6.92223 23.7556 4.44445 21.0556 2.80001 18.5667C1.15557 16.0779 0.333344 13.7556 0.333344 11.6001C0.333344 8.26675 1.40557 5.61119 3.55001 3.63341C5.69445 1.65564 8.17779 0.666748 11 0.666748C13.8222 0.666748 16.3056 1.65564 18.45 3.63341C20.5945 5.61119 21.6667 8.26675 21.6667 11.6001C21.6667 13.7556 20.8445 16.0779 19.2 18.5667C17.5556 21.0556 15.0778 23.7556 11.7667 26.6667C11.6556 26.7556 11.5389 26.8223 11.4167 26.8667C11.2945 26.9112 11.1667 26.9334 11.0333 26.9334Z" fill="white"/>
</svg>
