<svg width="22" height="27" viewBox="0 0 22 27" fill="none" xmlns="http://www.w3.org/2000/svg">
<path d="M11 13.6667C11.6444 13.6667 12.1944 13.439 12.65 12.9834C13.1055 12.5279 13.3333 11.9779 13.3333 11.3334C13.3333 10.689 13.1055 10.139 12.65 9.68341C12.1944 9.22786 11.6444 9.00008 11 9.00008C10.3555 9.00008 9.80554 9.22786 9.34998 9.68341C8.89442 10.139 8.66665 10.689 8.66665 11.3334C8.66665 11.9779 8.89442 12.5279 9.34998 12.9834C9.80554 13.439 10.3555 13.6667 11 13.6667ZM11 24.7001C13.9555 22.0112 16.1389 19.5723 17.55 17.3834C18.9611 15.1945 19.6666 13.2667 19.6666 11.6001C19.6666 8.97786 18.8278 6.83342 17.15 5.16675C15.4722 3.50008 13.4222 2.66675 11 2.66675C8.57776 2.66675 6.52776 3.50008 4.84998 5.16675C3.1722 6.83342 2.33331 8.97786 2.33331 11.6001C2.33331 13.2667 3.05554 15.1945 4.49998 17.3834C5.94442 19.5723 8.11109 22.0112 11 24.7001ZM11.0333 26.9334C10.8778 26.9334 10.7333 26.9112 10.6 26.8667C10.4666 26.8223 10.3444 26.7556 10.2333 26.6667C6.9222 23.7556 4.44442 21.0556 2.79998 18.5667C1.15554 16.0779 0.333313 13.7556 0.333313 11.6001C0.333313 8.26675 1.40554 5.61119 3.54998 3.63341C5.69442 1.65564 8.17776 0.666748 11 0.666748C13.8222 0.666748 16.3055 1.65564 18.45 3.63341C20.5944 5.61119 21.6666 8.26675 21.6666 11.6001C21.6666 13.7556 20.8444 16.0779 19.2 18.5667C17.5555 21.0556 15.0778 23.7556 11.7666 26.6667C11.6555 26.7556 11.5389 26.8223 11.4166 26.8667C11.2944 26.9112 11.1666 26.9334 11.0333 26.9334Z" fill="#1F2400"/>
</svg>
