<svg width="70" height="62" viewBox="0 0 70 62" fill="none" xmlns="http://www.w3.org/2000/svg">
<path fill-rule="evenodd" clip-rule="evenodd" d="M13.1744 0.0631434C12.3249 0.142894 11.7324 0.243227 10.8716 0.453143C8.04333 1.14297 5.7469 2.38174 4.10579 4.10292C3.2498 5.00067 2.29081 6.28415 1.77218 7.22614C1.67607 7.40069 1.56027 7.61025 1.51484 7.69186C1.35707 7.97517 0.89262 9.08746 0.75325 9.51573C0.257068 11.0407 0.206969 11.3342 0.0686418 13.5282C-0.0245737 15.0069 -0.0235305 15.4091 0.0759418 16.3165C0.211503 17.553 0.868182 20.0422 1.43677 21.4747C1.78592 22.3543 2.39568 23.381 3.12281 24.3136C4.64622 26.2676 5.01582 26.6552 5.61442 26.9269C5.80203 27.0121 6.28448 27.0521 6.28158 26.9823C6.27668 26.8648 5.99204 26.53 5.49441 26.0564C4.9689 25.5563 4.25572 24.7213 4.30882 24.6682C4.3211 24.656 4.43876 24.7279 4.57033 24.8282C5.15669 25.2751 6.56004 26.0712 8.34587 26.97C9.90773 27.7561 10.4307 27.9539 11.3609 28.11C11.8566 28.1932 12.0439 28.2019 12.857 28.1791C14.1145 28.1439 14.265 28.1083 13.9111 27.9298C13.7131 27.8299 12.3953 27.4088 12.0636 27.3393C11.2732 27.1739 10.5782 26.9926 10.2795 26.874C9.94323 26.7404 8.05217 25.8092 7.46178 25.4865C5.58377 24.46 4.72207 23.8746 3.97073 23.1149C2.58809 21.7168 1.84568 20.0568 1.43709 17.4499C1.17435 15.7737 1.1384 15.3234 1.14017 13.7322C1.14189 12.1917 1.18813 11.6731 1.41451 10.6561C1.87759 8.57518 3.21208 6.3002 5.00879 4.52851C6.3163 3.23923 7.72583 2.41402 9.80132 1.72266C11.5547 1.13861 13.0025 0.902808 14.8406 0.901946C15.878 0.901448 16.2106 0.962927 15.3846 1.00251C14.9233 1.02463 13.9947 1.21465 13.7638 1.3342L13.6505 1.39292L13.7681 1.43807C13.8328 1.46292 14.1082 1.53083 14.3801 1.58905C14.8392 1.6873 14.9775 1.69487 16.3124 1.69487C17.6096 1.69487 17.7579 1.68725 17.828 1.6172C17.8936 1.55164 17.8971 1.52072 17.8506 1.41867C17.8203 1.35216 17.8017 1.29158 17.8093 1.28397C17.8342 1.25908 18.273 1.49506 18.3598 1.58003C18.4065 1.62568 18.4325 1.68267 18.4177 1.70666C18.4029 1.73064 18.1913 1.76473 17.9475 1.78242C17.5375 1.81216 17.0993 1.87083 16.4161 1.98739C16.0314 2.053 15.084 2.2883 14.8472 2.37707C14.7376 2.41815 14.5357 2.49278 14.3985 2.54288C13.0394 3.0396 12.0291 3.58679 11.0809 4.33968C10.8646 4.51146 10.5993 4.68729 10.4915 4.7304C10.2106 4.84275 9.72869 5.07828 9.72869 5.10322C9.72869 5.11492 9.8409 5.11043 9.97805 5.09329C10.122 5.07529 10.2274 5.07973 10.2274 5.10381C10.2274 5.20913 9.91753 5.42263 9.68335 5.47858C9.43458 5.53806 8.83988 5.80583 8.75392 5.89705C8.70758 5.94624 9.33982 5.91323 9.48092 5.8591C9.59377 5.8158 9.55668 5.90358 9.29458 6.29988C9.00428 6.73889 8.64542 7.45528 8.46112 7.96389C8.32484 8.33983 8.31686 8.34727 7.86982 8.51633C7.60269 8.61735 7.02843 8.96146 7.06534 8.99841C7.09182 9.02489 7.67296 8.90008 7.95519 8.80727C8.0645 8.77136 8.16234 8.75037 8.17259 8.76062C8.20374 8.79172 8.08826 9.2174 8.0339 9.27185C8.00602 9.29982 7.86687 9.38529 7.72469 9.46177C7.39595 9.63873 6.75541 10.119 6.8196 10.1404C6.87496 10.1589 7.65596 9.85844 7.81709 9.7567C7.87535 9.71993 7.93366 9.70043 7.94662 9.7134C7.95959 9.72637 7.93851 9.95755 7.89974 10.2271C7.86103 10.4967 7.81523 10.9861 7.798 11.3147L7.76672 11.9123L7.49728 12.013C7.21378 12.1191 6.75686 12.3945 6.65149 12.5229C6.59477 12.592 6.60982 12.5987 6.82151 12.5987C6.94923 12.5987 7.05373 12.6099 7.05373 12.6237C7.05373 12.6374 7.02258 12.7088 6.98455 12.7823C6.88739 12.9703 6.96029 12.945 7.12174 12.7348C7.21772 12.6098 7.32445 12.5352 7.48445 12.4809C7.60913 12.4387 7.73485 12.3954 7.76387 12.3848C7.79909 12.3718 7.82584 12.468 7.84452 12.6748C7.87123 12.9699 8.04093 13.9675 8.08368 14.0807C8.101 14.1265 7.77851 14.3216 7.68548 14.3216C7.66829 14.3216 7.5768 14.3539 7.48222 14.3934C7.36185 14.4437 7.32798 14.4763 7.36947 14.5019C7.41408 14.5295 7.40388 14.5518 7.32798 14.5924C7.27263 14.622 7.2364 14.6554 7.24751 14.6665C7.25857 14.6776 7.43825 14.6147 7.64671 14.5268C7.85518 14.4389 8.05698 14.3671 8.09515 14.3672C8.13954 14.3675 8.19458 14.4612 8.24803 14.6279C8.35517 14.9619 8.72032 15.7234 8.92666 16.0431L9.0867 16.2911L8.8645 16.348C8.53335 16.4327 7.93824 16.8121 7.50775 17.2129L7.34843 17.3612L7.59779 17.2663C7.73494 17.2141 8.14298 17.0148 8.50456 16.8233C8.86613 16.6318 9.18069 16.4752 9.20354 16.4752C9.22639 16.4752 9.25327 16.4997 9.26325 16.5297C9.27327 16.5598 9.16355 16.6437 9.01765 16.7174C8.87261 16.7908 8.63151 16.9416 8.48189 17.0527C8.15414 17.296 7.50711 17.9144 7.50711 17.9843C7.50711 18.0835 8.3738 17.6686 9.18463 17.1813L9.57001 16.9497L9.65284 17.0525C10.5979 18.2248 11.2196 18.8013 12.1203 19.3408C12.3509 19.479 12.5397 19.6029 12.5397 19.6161C12.5397 19.6294 12.3508 19.836 12.1199 20.0753C11.889 20.3145 11.5728 20.6974 11.4171 20.9261C11.1094 21.3781 11.0538 21.485 11.1266 21.485C11.2044 21.485 12.2195 20.7077 12.573 20.3774C13.0993 19.8858 13.104 19.8829 13.2879 19.9436C13.3751 19.9724 13.4464 20.0075 13.4464 20.0216C13.4464 20.0357 13.2877 20.2126 13.0937 20.4148C12.6032 20.9259 11.782 22.0911 11.8239 22.2166C11.8461 22.2833 12.5981 21.6772 13.2651 21.0551C13.5518 20.7876 13.8732 20.4971 13.9791 20.4094C14.1637 20.2567 14.1797 20.2521 14.3644 20.2984C14.9903 20.4551 16.4244 20.6689 16.8494 20.6689C16.9697 20.6689 17.0778 20.6845 17.0896 20.7036C17.1014 20.7227 17.0105 20.8733 16.8877 21.0382C16.6115 21.409 16.0761 22.2949 16.0761 22.3811C16.0761 22.4219 16.1447 22.3905 16.2673 22.2936C16.5051 22.1056 17.142 21.5234 17.3185 21.3327C17.391 21.2544 17.5431 21.0897 17.6567 20.9668C17.8773 20.728 17.9807 20.699 18.4008 20.7582L18.572 20.7823L18.3825 21.009C18.0654 21.3885 17.7591 21.8863 17.462 22.5051C17.0942 23.2713 16.9587 23.6069 17.0003 23.6485C17.0577 23.7059 18.0358 22.662 18.73 21.8024C19.1633 21.2658 19.5827 20.8358 19.8096 20.6955C20.0883 20.5232 21.6661 20.3946 22.4288 20.482C23.0012 20.5476 24.0319 20.8095 24.4047 20.9839C24.629 21.0889 25.1824 21.4052 25.4075 21.5571C25.4155 21.5625 25.2214 21.8392 24.9761 22.172C24.2957 23.0955 24.2388 23.1951 24.0302 23.8249C23.8127 24.4819 23.7205 24.9918 23.568 26.3816C23.5556 26.4938 23.5722 26.7873 23.6048 27.0339C23.7169 27.8844 23.4884 28.7775 22.977 29.4872C22.8153 29.7117 22.6727 29.9328 22.6602 29.9787C22.6429 30.0421 22.609 30.0559 22.5191 30.0361C21.4881 29.8091 21.4889 29.8092 18.9097 29.8068C16.5765 29.8047 15.9068 29.8281 14.2852 29.9684C12.2564 30.1438 10.6751 30.4869 9.13929 31.0846C8.60385 31.293 7.27525 31.9365 7.05169 32.0956C6.98278 32.1447 6.91418 32.1849 6.89926 32.1849C6.85705 32.1849 5.94036 32.7991 5.63088 33.0347C4.67846 33.76 3.54536 34.8933 2.76369 35.9026C2.26202 36.5504 1.56372 37.625 1.16628 38.3609C0.930025 38.7985 0.469976 39.9632 0.386191 40.3363C0.332783 40.5738 0.388912 40.7119 0.524428 40.6764C0.574618 40.6633 0.615694 40.6723 0.615694 40.6965C0.615694 40.7206 0.712582 40.7398 0.831051 40.739C0.94952 40.7383 1.30144 40.7746 1.61314 40.8196C2.01524 40.8778 2.463 40.9021 3.15464 40.9035C4.22775 40.9056 4.61431 40.8633 5.98828 40.5933C6.43713 40.5051 6.96986 40.4207 7.17206 40.4058L7.5398 40.3785L7.88347 40.6972C8.14648 40.9411 8.29986 41.0436 8.53684 41.1342C8.70717 41.1993 8.87928 41.2525 8.91936 41.2525C9.02944 41.2525 9.07886 41.3424 9.1071 41.594C9.16985 42.1537 9.40851 42.559 9.88738 42.9191C10.3737 43.2849 10.5919 43.353 11.253 43.3452C11.8815 43.3378 12.2501 43.2481 12.5974 43.0181C13.0985 42.6862 13.4875 42.0622 13.616 41.3845L13.6883 41.0032L14.5082 40.7923C14.9591 40.6763 15.5207 40.5284 15.7563 40.4636C16.3036 40.313 16.4637 40.3155 16.9527 40.4818C17.4395 40.6474 17.8801 40.6615 18.4455 40.5297C19.6762 40.2427 22.3392 39.172 23.1902 38.6219C23.3437 38.5227 23.4874 38.4416 23.5095 38.4416C23.5317 38.4416 23.5746 38.5181 23.6049 38.6116C23.7206 38.9688 23.9345 39.3464 24.5359 40.2554C25.1066 41.1181 25.2924 41.7593 25.393 43.2131C25.4241 43.6627 25.4701 43.5812 24.9091 44.0707C24.2587 44.6384 23.9774 45.4926 24.0456 46.6931C24.0981 47.6164 24.0844 47.9179 23.9728 48.3026C23.8292 48.7979 23.7912 49.655 23.8902 50.1688C23.9694 50.5798 24.0679 50.8692 24.4365 51.7742C24.7623 52.574 24.9001 53.1386 24.9614 53.9246C25.0184 54.6567 25.0698 54.9611 25.1936 55.301C25.3645 55.77 25.6518 56.0838 26.0565 56.2434C26.1654 56.2863 26.3266 56.3685 26.4147 56.426C26.5028 56.4835 26.6801 56.5618 26.8087 56.6C26.981 56.6512 27.0858 56.7199 27.2069 56.8612C27.3698 57.0511 28 57.9547 28 57.9983C28 58.0493 28.9816 59.6107 29.1628 59.8479C29.3979 60.1558 29.8533 60.5769 30.1232 60.7359C30.5879 61.0097 30.9465 61.1219 31.4004 61.1356C31.6373 61.1427 32.0555 61.1729 32.3298 61.2026C32.7145 61.2443 33.1603 61.2445 34.2794 61.2036C35.9219 61.1435 36.2668 61.1068 36.7228 60.9431C37.1747 60.7809 37.4248 60.6491 37.9971 60.2714C39.0135 59.6007 39.794 58.7046 40.2973 57.6306C40.4843 57.2316 40.9769 55.9259 41.0626 55.6021C41.0891 55.5024 41.1635 55.3648 41.2282 55.2964C41.3424 55.1756 41.356 55.1728 41.7116 55.1987C42.3135 55.2423 42.4594 55.1378 43.0184 54.2619C43.4969 53.5122 43.5202 53.4422 43.5004 52.8138C43.4914 52.527 43.4857 51.9558 43.4879 51.5443C43.4917 50.8064 43.494 50.7899 43.6554 50.3276C43.9129 49.5905 44.2999 48.9485 44.8184 48.3985C45.1799 48.0151 46.4463 46.9754 47.0587 46.5593C47.6579 46.1522 48.3174 45.4094 48.6306 44.7889C48.9548 44.1467 49.201 43.0795 49.2339 42.1749C49.2555 41.5786 49.2006 39.9927 49.1306 39.1896C49.0083 37.7886 48.9481 36.9291 48.9473 36.5714C48.9463 36.1621 48.9748 36.108 49.1241 36.236C49.2094 36.3092 49.4548 36.4366 50.2177 36.8037C50.7275 37.049 50.8187 37.1116 51.0983 37.4081C51.8393 38.1939 52.1151 38.4621 52.3971 38.6716C53.0179 39.1327 53.5343 39.2739 54.1463 39.1498C54.7096 39.0357 54.7569 39.0441 55.2472 39.3454C56.4391 40.0779 56.8685 40.1509 57.4944 39.7275C57.7919 39.5264 57.9409 39.5256 58.4447 39.7229C59.3507 40.0776 59.8253 40.1752 60.6663 40.1799C61.1696 40.1826 61.3231 40.1652 61.7174 40.0604C62.1957 39.9333 62.5341 39.9121 62.9332 39.984C64.079 40.1904 64.6012 40.2059 65.3065 40.0541C65.5648 39.9986 65.7011 39.9924 65.9142 40.0267C66.2114 40.0746 66.5278 40.0288 66.7068 39.912C66.7955 39.8541 66.849 39.8542 67.1375 39.9126C67.3188 39.9492 67.6411 39.9927 67.8538 40.0092C68.2267 40.0382 68.2457 40.0349 68.3832 39.9193C68.5483 39.7803 68.6079 39.5809 68.529 39.4303C68.4989 39.3728 68.3185 39.1624 68.128 38.9629C67.7986 38.6178 66.5888 37.0442 66.0192 36.22C64.9341 34.6497 63.8716 33.3971 62.6611 32.2607C61.6345 31.2971 61.2971 31.0112 60.4396 30.3786C59.5734 29.7396 59.2136 29.5095 58.558 29.1751C57.9392 28.8594 57.6032 28.728 56.7218 28.4566C55.2242 27.9955 54.8649 27.9251 54.0015 27.924C53.4567 27.9233 52.4604 28.0119 51.9746 28.1044C51.7655 28.1442 51.6656 28.1401 51.4532 28.0828C50.9923 27.9585 50.5228 27.9507 49.9438 28.0576C49.657 28.1105 49.3921 28.1581 49.3552 28.1631C49.3036 28.1703 49.2846 28.1093 49.2734 27.9004C49.2416 27.3048 48.8422 26.2944 48.4066 25.7079C47.4781 24.4578 45.9155 23.6605 44.3962 23.6616C43.7198 23.6622 42.3644 23.9645 42.5602 24.0712C42.6269 24.1076 43.3439 24.1867 43.9591 24.2256C46.0209 24.356 47.605 25.4418 48.2222 27.1475C48.3456 27.4885 48.5836 28.327 48.5836 28.4207C48.5836 28.4548 48.1543 28.6485 48.0789 28.6485C48.0572 28.6485 48.0396 28.6166 48.0396 28.5775C48.0396 28.4591 47.558 28.0165 47.3036 27.9011C46.9528 27.7419 46.8154 27.7151 46.8154 27.8055C46.8154 27.9459 47.1035 28.3885 47.3894 28.6873C47.5475 28.8526 47.6768 29.011 47.6768 29.0393C47.6768 29.2096 47.9602 29.2256 48.8556 29.106C49.2676 29.0509 50.5024 29.0416 50.4701 29.0938C50.4574 29.1144 50.2926 29.2075 50.1039 29.3007C49.3411 29.6777 48.5527 30.6914 48.3736 31.5253C48.2496 32.1032 48.3561 33.1596 48.5385 33.1596C48.576 33.1596 48.6774 33.0244 48.7654 32.857C48.8529 32.6905 48.937 32.5418 48.9523 32.5265C48.9676 32.5112 49.014 32.6023 49.0554 32.7289C49.2246 33.2465 49.5568 33.6594 50.1478 34.0869C51.5799 35.1228 53.2897 35.6879 54.7617 35.6118C55.08 35.5953 55.3713 35.57 55.4089 35.5556C55.5198 35.513 55.4113 35.425 55.1083 35.3117C54.9581 35.2555 54.8516 35.1953 54.8717 35.1779C54.8918 35.1605 55.0511 35.1087 55.2257 35.063C55.5761 34.9711 56.2379 34.6543 56.4498 34.477C56.5641 34.3814 56.575 34.356 56.5178 34.3175C56.4025 34.24 55.5329 34.2654 55.0027 34.3618C53.8228 34.5762 52.5814 34.4136 51.6323 33.9201C51.2999 33.7473 50.8617 33.413 50.7606 33.2552C50.7111 33.1779 50.7162 33.1725 50.8121 33.2009C51.0504 33.2713 51.6139 33.3242 51.8465 33.2979C52.2503 33.2523 52.7855 33.0421 52.7294 32.9513C52.6653 32.8476 52.1574 32.6687 51.7008 32.589C51.1638 32.4953 50.8601 32.3648 50.6378 32.1322C50.0753 31.5442 50.2482 30.4632 50.9865 29.9514C51.1237 29.8563 51.3031 29.7156 51.3852 29.6387C51.6152 29.4234 52.0524 29.3584 53.2988 29.3544C54.4162 29.3509 54.5124 29.3631 55.6791 29.6546C56.6726 29.9029 56.7865 29.9409 57.3566 30.2136C57.9378 30.4916 58.4988 30.891 60.0315 32.1178C62.1937 33.8484 63.7579 35.4262 65.1321 37.2629C65.6476 37.9518 66.2717 38.6277 66.643 38.8992L66.8165 39.0261L66.5001 39.0231C66.3261 39.0214 66.1574 39.0364 66.1252 39.0563C66.093 39.0762 65.9023 39.0947 65.7014 39.0975C65.5005 39.1002 65.1423 39.1394 64.9054 39.1846C64.4161 39.2779 64.0132 39.2632 63.2279 39.1237C62.6048 39.013 62.0464 39.0303 61.6184 39.1736C61.3426 39.2659 61.2148 39.2797 60.6436 39.2786C59.8731 39.277 59.6539 39.2353 58.8413 38.9353C57.9673 38.6128 57.5868 38.6274 57.0312 39.0049C56.7499 39.1961 56.677 39.1744 55.7015 38.6082C55.0291 38.2179 54.8032 38.1648 54.2769 38.2731C53.707 38.3904 53.5527 38.3771 53.1973 38.1801C52.823 37.9727 52.4323 37.6363 51.984 37.1355C51.4927 36.5868 51.1447 36.3328 50.5105 36.0602C49.9023 35.7987 49.4 35.5256 49.2376 35.3682C49.136 35.2697 48.9344 35.0181 48.7897 34.8091C48.6449 34.6001 48.4832 34.3939 48.4304 34.3508C48.3047 34.2484 48.1883 34.2496 48.1553 34.3536C48.0867 34.5698 48.2836 35.2691 48.5175 35.64C48.623 35.8074 48.6554 35.8986 48.6276 35.9504C48.606 35.9908 48.5434 36.2363 48.4884 36.496C48.3777 37.0195 48.3609 37.7263 48.3991 40.2551C48.4174 41.462 48.412 41.5782 48.3177 42.0178C48.034 43.3406 47.5766 44.2859 46.9451 44.8543C46.6065 45.159 45.5853 45.9314 45.5576 45.9038C45.545 45.8912 45.5858 45.7525 45.6482 45.5956C45.7813 45.2609 45.9208 44.6952 46.0036 44.1542C46.0652 43.7514 46.0767 42.9397 46.0424 41.4112C46.0226 40.5326 46.0259 40.489 46.1492 40.0057C46.4231 38.9314 46.5226 38.1116 46.4806 37.2749C46.4485 36.6361 46.4168 36.4013 46.3628 36.4013C46.3444 36.4013 46.2636 36.6104 46.183 36.8661C45.972 37.5357 45.9726 37.5334 45.8196 38.3282C45.7428 38.7272 45.6211 39.2474 45.5492 39.4843C45.2577 40.4446 45.2565 40.4553 45.2503 42.2273C45.2458 43.5454 45.2302 43.9327 45.1696 44.2399C44.9648 45.2781 44.7828 45.6894 43.9135 47.0785C43.0598 48.4429 42.8178 48.9957 42.6668 49.927C42.5837 50.4393 42.5755 51.9283 42.6523 52.5489C42.7177 53.0773 42.685 53.2201 42.4033 53.6366C42.2961 53.795 42.1526 54.0215 42.0844 54.1399L41.9604 54.3553H41.6449C41.4714 54.3553 41.3295 54.3473 41.3295 54.3376C41.3295 54.3278 41.3698 54.2309 41.4192 54.1222C41.4685 54.0135 41.5093 53.8394 41.5098 53.7352C41.5107 53.5816 41.4865 53.5258 41.3826 53.4405C41.312 53.3826 41.2006 53.2411 41.1349 53.126C41.0692 53.0109 40.8107 52.7151 40.5605 52.4687C40.3101 52.2222 40.1054 51.9978 40.1054 51.9701C40.1054 51.9423 40.1686 51.8402 40.246 51.7433C40.5539 51.3575 40.854 50.6236 41.0039 49.8895C41.1364 49.2405 41.1436 49.1833 41.1772 48.518C41.1939 48.1876 41.2216 47.9173 41.2388 47.9173C41.256 47.9173 41.3064 47.9573 41.3507 48.0063C41.395 48.0553 41.5218 48.1299 41.6323 48.1722C41.8189 48.2434 41.8446 48.2436 41.9883 48.1751C42.1697 48.0886 42.2265 47.9312 42.1461 47.7372C42.1158 47.6641 42.0404 47.5711 41.9785 47.5306C41.8338 47.4358 41.7541 47.2404 41.6429 46.7079C41.5452 46.2399 41.3866 45.7367 41.2133 45.3449C41.1525 45.2074 41.1028 45.0873 41.1028 45.078C41.1028 45.0686 41.2272 45.061 41.3792 45.061C41.696 45.061 42.1456 44.945 42.1456 44.8633C42.1456 44.776 41.6854 44.5199 41.2369 44.3575C40.7179 44.1696 40.524 44.0342 40.1919 43.6277C39.6662 42.9844 39.1014 42.5673 38.7559 42.5673C38.6184 42.5673 38.6062 42.5776 38.6341 42.6694C38.6851 42.8367 38.9457 43.3404 39.1443 43.6555C39.3888 44.0432 39.8351 44.9137 39.9885 45.3018C40.4736 46.5296 40.5741 48.2823 40.2493 49.8486C40.1903 50.1327 39.8938 50.8686 39.754 51.0779C39.6854 51.1806 39.5611 51.3594 39.4778 51.4753C39.3046 51.7162 39.2738 51.976 39.3915 52.2018C39.4305 52.2765 39.6802 52.5688 39.9464 52.8513C40.4116 53.3449 40.6009 53.6308 40.6031 53.8425C40.6036 53.8971 40.5276 54.0319 40.4341 54.1422C40.3406 54.2524 40.2433 54.3781 40.218 54.4215C40.1779 54.4903 40.1477 54.494 39.9853 54.4503C39.8405 54.4113 39.1909 54.0348 39.0627 53.9155C39.0502 53.904 39.0929 53.856 39.1575 53.809C39.3068 53.7003 39.5329 53.3765 39.4985 53.3209C39.4584 53.2561 39.0831 53.3411 38.8021 53.4786C38.666 53.5452 38.5305 53.5996 38.5009 53.5996C38.4713 53.5996 38.203 53.5058 37.9047 53.3911C37.2277 53.1307 36.8404 53.0187 36.3196 52.9325C36.0952 52.8954 35.8299 52.8506 35.7302 52.8331C35.6305 52.8155 34.9766 52.7976 34.2772 52.7932C33.5779 52.7888 32.9805 52.7696 32.9497 52.7506C32.919 52.7316 32.8015 52.576 32.6886 52.4046C32.5057 52.1268 31.9843 51.5897 31.8977 51.5897C31.7717 51.5897 31.8761 52.3192 32.0517 52.6658C32.1174 52.7954 32.1712 52.9208 32.1712 52.9443C32.1712 52.9679 32.0844 53.0018 31.9785 53.0196C31.3265 53.1295 30.4313 53.5428 29.7072 54.0684C28.8505 54.6901 28.191 55.1159 27.9249 55.219C27.7172 55.2996 27.572 55.3212 27.2519 55.3192C26.8556 55.3168 26.4359 55.2265 26.4359 55.1437C26.4359 55.1215 26.5481 55.0913 26.6852 55.0765C26.9603 55.0469 27.2939 54.9147 27.5638 54.7283C27.8036 54.5627 28.154 54.1284 28.0952 54.0696C28.0333 54.0077 27.4226 54.1136 27.0582 54.2493C26.7776 54.3539 26.3566 54.39 26.2451 54.3191C26.2113 54.2976 26.1718 54.054 26.1417 53.6817C26.0495 52.5406 25.9489 52.2116 25.3588 51.1226C24.9387 50.3471 24.7978 50.0183 24.7292 49.6526C24.645 49.2045 24.7429 48.0986 24.8667 48.0986C24.8866 48.0986 24.9483 48.2646 25.0039 48.4675C25.2137 49.2329 25.4271 49.56 25.8465 49.7586C26.1071 49.882 26.6399 49.9149 26.6399 49.8076C26.6399 49.7186 26.4487 49.477 26.1529 49.1921C25.899 48.9477 25.8813 48.9152 25.7155 48.3933C25.6204 48.0941 25.4414 47.6401 25.3178 47.3844C25.0215 46.7722 24.9763 46.5198 25.0683 45.9925C25.1637 45.4454 25.3696 45.0424 25.8076 44.5455C26.1357 44.1732 26.1887 44.1332 26.637 43.9202C28.0292 43.2584 28.8725 43.0202 30.607 42.7987C31.006 42.7477 31.5874 42.6934 31.8991 42.6779C32.2108 42.6624 32.6699 42.6109 32.9192 42.5634C33.1686 42.5158 33.3777 42.4769 33.3839 42.4768C33.3902 42.4767 33.3953 42.459 33.3953 42.4375C33.3953 42.3841 33.0859 42.2707 32.6358 42.1591C32.1904 42.0486 31.1816 42.0243 30.607 42.1102C29.5927 42.2617 28.4776 42.5589 27.7993 42.8585C27.5519 42.9678 27.32 43.0363 27.32 43.0001C27.32 42.914 28.9231 41.9317 29.6215 41.5899C30.1183 41.3468 30.9042 40.8598 30.969 40.7549C31.0497 40.6244 30.1706 40.7658 29.526 40.9871C28.7511 41.2531 27.8896 41.7514 27.1995 42.3328C27.0211 42.4831 26.8648 42.5957 26.8521 42.583C26.8394 42.5703 26.9097 42.4103 27.0083 42.2275C27.3536 41.5874 27.6157 40.7457 27.7517 39.8404C27.8426 39.2348 27.8435 37.8179 27.753 37.6013C27.6121 37.2643 27.49 37.4998 27.4113 38.2602C27.2671 39.6541 27.1057 40.4208 26.816 41.0889C26.6374 41.5006 26.281 42.133 26.2468 42.0988C26.2369 42.0888 26.2078 41.9504 26.1822 41.7912C26.0698 41.0924 25.7909 40.536 25.2416 39.9151C25.0873 39.7405 24.8968 39.4694 24.8185 39.3125C24.6935 39.0622 24.6719 38.9624 24.6419 38.4964C24.6062 37.9425 24.5841 37.8407 24.4182 37.4668C24.3324 37.2734 24.3125 37.1204 24.2829 36.4257C24.2638 35.9778 24.258 35.5392 24.2701 35.451L24.2921 35.2905L24.8495 35.2777C25.6934 35.2582 26.2009 35.3894 26.5846 35.7263C26.8293 35.9412 27.0963 35.8828 27.1676 35.5989C27.212 35.4217 27.1499 34.7341 27.0618 34.4291C27.0186 34.2795 26.9812 33.9939 26.9788 33.7944C26.97 33.0889 26.8322 32.7054 26.4436 32.3044C26.189 32.0419 26.0417 31.9505 25.7439 31.8704C25.3476 31.7638 24.6605 31.9966 24.322 32.3522L24.1689 32.513L24.305 32.4912C24.3798 32.4792 24.617 32.4332 24.8321 32.3891C25.3515 32.2826 25.5883 32.3176 25.8309 32.5367C26.0092 32.6978 26.2526 33.1012 26.202 33.1518C26.1877 33.166 26.1257 33.1446 26.0641 33.1042C25.9952 33.059 25.8178 33.0231 25.6026 33.0106C25.2929 32.9927 25.1951 33.0091 24.7458 33.1543C24.184 33.336 24.0115 33.3489 23.6541 33.2362L23.4113 33.1596L23.3927 32.4569C23.3604 31.2413 23.3708 31.0603 23.495 30.6887C23.7076 30.0525 23.9463 29.6683 24.441 29.1664C25.1931 28.4032 25.9744 27.9473 26.9625 27.6951C27.3769 27.5892 27.6006 27.4876 27.8139 27.3081C27.9929 27.1575 27.9523 27.0937 27.6152 26.9958C27.2065 26.8769 26.5837 26.9218 26.1235 27.1032C25.9014 27.1908 25.9292 27.1136 26.211 26.8606C26.3596 26.7271 26.4653 26.6016 26.4459 26.5816C26.355 26.4879 25.4098 26.7946 25.092 27.0208C25.0179 27.0737 24.943 27.1027 24.9257 27.0854C24.8709 27.0304 24.8972 25.4219 24.9587 25.0668C25.0828 24.3502 25.3967 23.5648 25.7923 22.9812C25.9754 22.7112 26.8342 21.8641 26.8567 21.9314C26.8663 21.9604 26.7232 22.1932 26.5386 22.4487C26.1672 22.9626 26.0292 23.223 26.0707 23.3312C26.108 23.4283 26.2419 23.3019 26.6337 22.7998C26.7991 22.5879 26.9854 22.3561 27.0478 22.2848C27.2124 22.0967 27.7897 21.6384 28.1708 21.3932L28.5003 21.1812L29.3949 21.2023C30.0161 21.2169 30.2757 21.2088 30.2443 21.1759C30.1988 21.1284 29.3468 20.9863 29.1073 20.9863C28.9223 20.9863 29.0139 20.9177 29.3724 20.7877C29.6313 20.6938 29.6775 20.6877 29.6775 20.7476C29.6775 20.807 29.7241 20.8137 29.9729 20.7905C30.1353 20.7753 30.3913 20.7375 30.5418 20.7064C30.7595 20.6614 30.8338 20.6614 30.9054 20.7061C30.9549 20.737 31.189 20.7914 31.4256 20.8269C32.0848 20.9258 32.3443 20.9957 32.3664 21.0798C32.3878 21.1617 33.2109 21.6835 33.7832 21.978C34.0984 22.1403 34.1636 22.1949 34.2593 22.3771C34.3202 22.4932 34.3896 22.6243 34.4136 22.6685C34.4647 22.7629 34.6186 22.8151 34.6212 22.7389C34.6222 22.7101 34.7677 22.5743 34.9447 22.4371C35.1216 22.3 35.4727 21.9938 35.725 21.7568C36.5379 20.9929 36.8135 20.7936 37.2808 20.6319C37.8023 20.4515 37.9313 20.4482 37.6263 20.6231C37.3398 20.7875 37.2271 20.928 37.3058 21.0228C37.3791 21.111 37.7945 21.071 38.6768 20.8907C39.336 20.756 39.9344 20.5358 39.9113 20.4365C39.9058 20.4128 40.0747 20.3269 40.2867 20.2455C40.4987 20.1642 40.7333 20.0628 40.8081 20.0202L40.9441 19.9429L40.6947 19.9471C40.2734 19.9541 40.2548 19.9424 40.524 19.8392C40.667 19.7844 40.7844 19.7191 40.7849 19.6942C40.7866 19.6094 40.492 19.5706 40.0147 19.5927C39.4799 19.6175 39.1817 19.7089 39.207 19.8403C39.2348 19.9846 39.4382 20.0423 39.7644 19.9986C39.927 19.9769 40.06 19.9746 40.06 19.9935C40.06 20.0597 39.8685 20.0879 39.3425 20.0993C39.0514 20.1056 38.7175 20.1364 38.6006 20.1678C38.3427 20.2371 38.2118 20.2061 38.4052 20.1215L38.5412 20.062L38.4097 20.0445C38.3374 20.0348 38.1906 20.0489 38.0836 20.0759C37.7919 20.1493 37.7566 20.1361 37.9064 20.0093L38.0425 19.8941L37.8838 19.9243C37.6647 19.9659 37.4691 20.0725 37.4454 20.1632C37.4344 20.205 37.3399 20.274 37.2353 20.3164C36.8855 20.4586 36.8532 20.4615 36.9997 20.3375C37.1053 20.2481 37.1236 20.21 37.0818 20.1673C36.9581 20.0411 36.5983 19.9984 35.8662 20.0229C35.1171 20.048 34.5098 20.0109 34.552 19.9425C34.5653 19.921 34.3258 19.8962 34.0197 19.8873C33.6343 19.8762 33.3518 19.8411 33.1006 19.7731C32.2673 19.5477 31.0079 19.5547 30.1763 19.7893C29.8003 19.8953 29.6533 19.9119 29.0201 19.9194C28.3824 19.927 28.2482 19.9423 27.9093 20.0461C27.3605 20.2143 26.6408 20.5443 26.2555 20.8043L25.9248 21.0275L25.8402 20.9339C25.471 20.525 24.7318 20.1084 24.0103 19.9026C23.0235 19.6212 22.6519 19.5654 21.7433 19.5622C21.282 19.5606 20.7414 19.5844 20.5419 19.6151C19.0711 19.8415 18.5029 19.8771 17.4348 19.8099C14.9577 19.654 13.6923 19.3076 12.3482 18.4173C11.3246 17.7392 9.89703 16.0654 9.33851 14.8883C9.02409 14.2256 8.84029 13.4807 8.73456 12.44C8.69584 12.0594 8.70495 10.9042 8.74866 10.6492C8.75936 10.5868 8.79255 10.3624 8.82242 10.1505C9.20648 7.42617 10.7199 5.25456 13.1291 3.97062C14.1168 3.4442 15.2455 3.00859 16.3254 2.73697C17.6423 2.40573 17.9455 2.34035 18.3323 2.30422C18.8822 2.25285 19.1389 2.06823 19.19 1.68743C19.2515 1.22834 18.6733 0.674212 17.8557 0.408938C16.7416 0.0474556 14.8387 -0.0930923 13.1744 0.0631434ZM11.4321 2.08215C11.2843 2.12848 11.0089 2.24333 10.82 2.33731C10.4799 2.50665 10.4782 2.50833 10.6355 2.52497C10.9775 2.5611 12.021 2.32684 12.1363 2.18797C12.3039 1.98603 11.9218 1.92859 11.4321 2.08215ZM59.5555 2.03794C58.6134 2.10813 57.8913 2.25987 57.171 2.53898C56.2376 2.90064 55.6564 3.38603 55.6564 3.80392C55.6564 4.06819 55.9291 4.29316 56.1887 4.24306C56.3303 4.21572 57.8374 4.32512 58.286 4.39531C60.0453 4.67047 61.6375 5.81204 62.4855 7.40618C63.1506 8.65638 63.2674 9.90876 62.9043 11.896C62.7682 12.6408 62.4901 13.6611 62.4097 13.7108C62.3851 13.726 62.3762 13.7565 62.3898 13.7787C62.4226 13.8317 62.136 14.5695 61.9111 15.011C61.2181 16.3711 60.1666 17.4932 58.589 18.5565C56.0201 20.2878 54.0471 20.9428 51.3916 20.9458C50.8788 20.9464 50.4095 20.9354 50.3488 20.9213C50.1844 20.8833 49.1301 20.8015 48.5609 20.7825C47.6459 20.7521 47.2261 20.8674 46.6226 21.3149C46.4245 21.4618 46.2568 21.5754 46.2498 21.5675C46.2428 21.5595 46.1911 21.4612 46.1347 21.349C45.9986 21.0781 45.9232 20.986 45.6324 20.736C45.2992 20.4495 45.0861 20.3485 44.3445 20.1256C42.7982 19.6608 42.1773 19.5558 41.639 19.6681C41.3272 19.7332 41.2375 19.815 41.3737 19.9104C41.428 19.9485 41.4566 20.0047 41.4415 20.044C41.423 20.0923 41.478 20.1384 41.6332 20.2047C42.1578 20.4289 43.256 20.7101 43.3276 20.6385C43.3985 20.5676 44.7992 21.0536 45.2247 21.2968C45.4388 21.4191 45.7262 21.5551 45.8633 21.5989C46.0005 21.6428 46.1192 21.684 46.127 21.6906C46.135 21.6973 46.0474 21.8264 45.9325 21.9775C45.6636 22.331 45.3646 22.8428 45.3646 22.9496C45.3646 23.052 45.4387 23.0342 45.8933 22.823L46.2179 22.6722L46.426 22.747C46.5404 22.7881 46.6341 22.8491 46.6341 22.8825C46.6341 22.9255 46.6715 22.9349 46.7631 22.9147C46.9204 22.8802 47.5052 23.0841 47.93 23.3217C48.09 23.4111 48.4057 23.6568 48.6315 23.8677C49.0342 24.2436 49.2895 24.4214 49.3458 24.365C49.3945 24.3164 49.2259 23.7583 49.0949 23.5346C48.8044 23.038 48.1339 22.5385 47.3708 22.25C47.215 22.1911 47.0874 22.1318 47.0874 22.1182C47.0874 22.0539 47.5912 21.7999 47.8129 21.7524C48.0831 21.6945 49.02 21.7183 49.8567 21.8044C50.3616 21.8563 51.0298 22.0466 51.354 22.2308C51.6073 22.3746 51.9774 22.7415 52.2941 23.1626C52.6199 23.5956 52.979 24.0127 53.348 24.3867C53.7037 24.7471 53.7351 24.6935 53.5224 24.0898C53.2458 23.3046 52.8863 22.6627 52.438 22.1538C52.3337 22.0354 52.2726 21.9384 52.3023 21.9384C52.3627 21.9384 52.4889 22.0391 52.9768 22.4765C53.5149 22.959 54.1317 23.3875 54.1959 23.3233C54.2708 23.2484 53.7868 22.4444 53.4363 22.0615C53.3042 21.9173 53.2039 21.7931 53.2135 21.7856C53.223 21.7781 53.3838 21.7463 53.5708 21.715C54.4926 21.5607 55.4311 21.286 56.2236 20.9384L56.66 20.747L57.4164 21.5167C58.1457 22.259 58.7053 22.7356 58.7878 22.6846C58.8413 22.6515 58.6906 22.2776 58.4138 21.7571C58.1978 21.351 57.734 20.7055 57.521 20.5146C57.3856 20.3933 57.3976 20.3635 57.6264 20.2523L57.8283 20.1543L58.1717 20.324C58.6527 20.5617 58.7236 20.5267 58.4002 20.2111L58.1401 19.9572L58.7977 19.52C59.1594 19.2796 59.6178 18.9602 59.8162 18.8104C60.0146 18.6606 60.1915 18.538 60.2094 18.538C60.2273 18.538 60.3938 18.6302 60.5794 18.7429C61.1114 19.0658 61.5504 19.2428 61.5504 19.1344C61.5504 19.0617 60.9563 18.3999 60.8006 18.299C60.7149 18.2434 60.6445 18.181 60.6441 18.1602C60.6439 18.1393 60.7711 18.0007 60.927 17.8522C61.1295 17.6591 61.2362 17.588 61.301 17.6031C61.3509 17.6146 61.5222 17.6568 61.6816 17.6967C62.111 17.8042 62.1043 17.7535 61.6428 17.4019L61.4905 17.2859L61.8038 16.8698C62.0649 16.5231 62.1379 16.4537 62.2418 16.4531C62.3816 16.4524 62.3991 16.4186 62.2983 16.3441C62.24 16.3011 62.264 16.2381 62.4638 15.9084C62.7545 15.4289 63.0145 14.8822 63.1819 14.3982L63.3104 14.0269L63.6885 14.004C64.1026 13.979 64.1041 13.9844 63.6276 13.7839L63.4152 13.6946L63.4973 13.4234C63.606 13.0644 63.6159 13.0521 63.7973 13.0521C63.9895 13.0521 63.9984 12.9911 63.8173 12.9161C63.6726 12.8562 63.6629 12.8164 63.724 12.5307C63.7453 12.431 63.7859 12.2372 63.8141 12.1C63.9221 11.5748 64.0029 10.8246 64.0296 10.099L64.0574 9.34471L64.2434 9.28922C64.3456 9.2587 64.4878 9.20366 64.5592 9.16685C64.745 9.07118 64.6542 9.0073 64.2868 8.97543L63.9825 8.949L63.9245 8.69964C63.8425 8.34749 63.8473 8.31308 63.9873 8.24938C64.0559 8.21814 64.2542 8.08734 64.428 7.95872C64.7005 7.75705 64.7294 7.72278 64.6384 7.70972C64.5803 7.70142 64.3595 7.74862 64.1477 7.81463C63.9359 7.88069 63.752 7.92403 63.739 7.91102C63.7259 7.89801 63.648 7.72296 63.5657 7.52206C63.4835 7.32117 63.3642 7.06369 63.3006 6.94985L63.1849 6.74297L63.3411 6.51097C63.4271 6.38344 63.4888 6.27045 63.4783 6.25998C63.4678 6.24951 63.3821 6.30446 63.2879 6.38217C63.1936 6.45983 63.0957 6.52226 63.0702 6.5209C63.0447 6.51954 62.9116 6.36499 62.7745 6.17751C62.245 5.45369 61.4518 4.76559 60.7029 4.3803C60.0828 4.0613 59.5609 3.89269 58.763 3.75345C58.4056 3.69107 58.4539 3.64201 58.8883 3.62633C59.3753 3.60878 60.2645 3.32736 60.2256 3.20314C60.2157 3.17154 60.0597 3.09664 59.879 3.03666C59.4844 2.90576 59.5222 2.85222 60.0089 2.85272C61.9027 2.85458 63.7162 3.37787 64.9928 4.29085C65.5328 4.67713 66.5561 5.68895 66.9755 6.25137C67.6866 7.20515 68.215 8.17439 68.5478 9.1357C69.228 11.1008 69.2831 13.8358 68.6911 16.2485C68.4079 17.4024 68.1042 18.2234 67.5676 19.2861C67.2364 19.942 67.2151 19.9794 66.8065 20.6236C65.4419 22.7749 63.3813 24.653 61.3115 25.6321C59.7201 26.3849 58.5461 26.6638 57.0464 26.6453C56.3525 26.6368 56.2329 26.6468 55.9397 26.7373C55.7312 26.8017 55.611 26.8626 55.611 26.904C55.611 26.9808 55.9849 27.2045 56.3332 27.3361C56.4685 27.3873 56.8131 27.4624 57.0989 27.503C57.583 27.5719 57.6621 27.5717 58.2583 27.4994C59.2531 27.379 60.108 27.1399 61.233 26.6673C63.5533 25.6928 65.9497 23.5933 67.5532 21.13C67.877 20.6328 67.87 20.738 67.5305 21.4772C66.967 22.7037 65.4809 24.741 64.8405 25.1649C64.5703 25.3438 64.1346 25.747 64.1346 25.8183C64.1346 25.8466 63.9005 26.0271 63.6143 26.2193C63.1535 26.5288 62.7745 26.8717 62.7745 26.9791C62.7745 27.0925 63.4243 26.9652 63.7946 26.7792C64.0264 26.6628 64.6939 26.214 65.1321 25.88C65.9795 25.234 67.2496 23.7081 67.658 22.8452C67.715 22.7249 68.1769 21.6164 68.2815 21.349C68.6466 20.4157 69.1955 18.7802 69.3671 18.1139C69.7952 16.4522 70.0813 13.4785 69.9793 11.7519C69.8395 9.38678 69.0198 7.30639 67.4966 5.45137C67.1341 5.00991 66.4166 4.27747 65.9955 3.91908C64.7294 2.84157 63.024 2.20569 60.9472 2.03676C60.3156 1.9854 60.2599 1.98544 59.5555 2.03794ZM9.26048 3.37288C8.84691 3.58702 8.10853 4.1308 7.6658 4.54728L7.39377 4.80322L7.77914 4.61547C8.60553 4.21291 9.69881 3.48682 9.6741 3.35702C9.65216 3.24195 9.50223 3.2477 9.26048 3.37288ZM61.017 3.41759C60.7493 3.53388 60.7799 3.69955 61.0934 3.83116C61.3944 3.95752 62.005 4.07513 62.3569 4.07449C63.0003 4.07336 63.0618 3.98445 62.6135 3.70408C62.1419 3.40925 61.3593 3.26879 61.017 3.41759ZM63.4659 4.55825C63.4098 4.57031 63.3649 4.59403 63.3661 4.61103C63.3713 4.68525 63.8248 5.00153 64.1573 5.16275C64.519 5.33816 65.0551 5.48211 65.1168 5.42036C65.1347 5.4025 65.0485 5.28507 64.9253 5.15944C64.5456 4.77216 63.8344 4.47918 63.4659 4.55825ZM65.2369 6.36644C65.2691 6.56434 65.5793 6.99378 65.8427 7.2047C66.1155 7.42323 66.1494 7.42812 66.113 7.24355C66.0326 6.83709 65.5439 6.20603 65.3094 6.20603C65.2219 6.20603 65.2138 6.22398 65.2369 6.36644ZM66.1224 8.06426C66.0967 8.14066 66.1894 8.61902 66.2632 8.79031C66.3013 8.8789 66.3059 8.83438 66.2841 8.58629C66.2542 8.24575 66.1618 7.94738 66.1224 8.06426ZM5.22492 9.20969C5.02076 9.48168 4.64772 10.3679 4.65198 10.5708C4.65543 10.7369 5.41947 9.31687 5.42092 9.14168C5.42192 9.02068 5.34738 9.04652 5.22492 9.20969ZM66.0692 12.0394C66.0211 12.0876 66.0339 12.3897 66.091 12.5536C66.1397 12.6932 66.1474 12.6977 66.2044 12.6197C66.2956 12.495 66.2825 12.1747 66.1825 12.0843C66.1369 12.0429 66.0859 12.0228 66.0692 12.0394ZM4.45562 12.3557C4.4383 12.373 4.42411 12.5742 4.42411 12.8028C4.42411 13.4838 4.59762 14.171 4.6124 13.5486C4.63063 12.7824 4.56072 12.2506 4.45562 12.3557ZM65.4565 14.8253C65.434 14.8849 65.4007 15.0025 65.3824 15.0867C65.3312 15.3218 65.4292 15.2206 65.4913 14.9742C65.548 14.7489 65.524 14.6462 65.4565 14.8253ZM4.78736 15.285C4.78818 15.5056 4.89703 15.8729 5.06306 16.2153C5.18947 16.4759 5.2139 16.5039 5.23032 16.4071C5.25861 16.2402 5.12658 15.6782 4.96137 15.2624C4.89178 15.0872 4.78668 15.1009 4.78736 15.285ZM64.3647 17.1439C64.2591 17.2498 64.014 17.561 63.82 17.8353C63.6261 18.1096 63.3556 18.4826 63.2189 18.6643C62.9223 19.0583 62.5777 19.6479 62.6018 19.7202C62.6113 19.7487 62.8219 19.6209 63.071 19.4355C63.4679 19.14 63.6207 18.9923 64.0451 18.4935C64.2061 18.3043 64.4384 17.893 64.5192 17.6539C64.6137 17.3744 64.6632 16.9512 64.6014 16.9512C64.5769 16.9512 64.4704 17.0379 64.3647 17.1439ZM5.9798 18.6061C6.00288 19.0446 6.11745 19.3642 6.41378 19.8169C6.69121 20.2408 7.0497 20.6318 7.39377 20.8858C7.77008 21.1637 7.78168 21.0923 7.47229 20.4022C7.3108 20.0419 6.46034 18.7695 6.19267 18.4876L5.96067 18.2433L5.9798 18.6061ZM40.2291 19.9709C40.214 19.986 40.1749 19.9876 40.1422 19.9745C40.106 19.96 40.1168 19.9493 40.1696 19.9471C40.2174 19.9452 40.2441 19.9559 40.2291 19.9709ZM40.3184 20.4504C40.0788 20.5378 40.2078 20.6013 40.6087 20.5934C41.0809 20.5841 41.6763 20.4889 41.593 20.436C41.5091 20.3828 40.4717 20.3945 40.3184 20.4504ZM36.7039 20.5978C36.6058 20.694 36.5634 20.7046 36.3672 20.6815L36.1428 20.6551L36.4352 20.5777C36.8316 20.4727 36.8315 20.4727 36.7039 20.5978ZM33.5615 20.6966C33.9353 20.8939 33.9305 20.8898 33.8474 20.9443C33.7888 20.9826 33.789 20.993 33.8487 21.0294C33.8861 21.0521 33.9575 21.1013 34.0074 21.1387C34.0917 21.2018 34.0924 21.2087 34.0182 21.2375C33.9594 21.2602 33.8547 21.1895 33.6207 20.9687C33.4459 20.8038 33.2752 20.6689 33.2413 20.6689C33.2074 20.6689 33.1543 20.6383 33.1233 20.6009C33.0196 20.4761 33.2317 20.5223 33.5615 20.6966ZM34.3266 20.672C34.3754 20.7509 34.3198 20.7676 34.2576 20.6927C34.2218 20.6496 34.2184 20.6236 34.2485 20.6236C34.275 20.6236 34.3102 20.6454 34.3266 20.672ZM35.7025 20.6727L35.9116 20.6763L35.7529 20.7451C35.5494 20.8331 35.5376 20.8465 35.6182 20.8974C35.6549 20.9205 35.7559 20.9265 35.8426 20.9106C35.9948 20.8827 35.9864 20.8949 35.6083 21.2528C35.3927 21.4569 35.0981 21.7814 34.9538 21.9738C34.8095 22.1663 34.6759 22.3425 34.657 22.3653C34.6381 22.3881 34.5822 22.3124 34.5328 22.1972C34.4834 22.0819 34.3995 21.9612 34.3463 21.929C34.2494 21.8702 34.0754 21.5651 34.0754 21.4538C34.0754 21.4162 34.1378 21.3925 34.2454 21.3893C34.5364 21.3808 34.637 21.4007 34.7663 21.4928L34.8914 21.5819V21.4663C34.8914 21.327 35.0643 21.2646 35.2348 21.3423C35.3247 21.3833 35.3448 21.3799 35.3448 21.3243C35.3448 21.2868 35.4009 21.233 35.4695 21.2047L35.5942 21.1532L35.4682 21.1264C35.3757 21.1068 35.3052 21.0346 35.2027 20.8548L35.0632 20.61L35.2783 20.6395C35.3967 20.6557 35.5876 20.6706 35.7025 20.6727ZM34.5689 20.9605C34.5991 20.9791 34.5904 21.0192 34.5447 21.0726C34.476 21.1528 34.4664 21.1518 34.2744 21.0445C34.1649 20.9833 34.0754 20.9295 34.0754 20.9249C34.0754 20.9026 34.5281 20.9353 34.5689 20.9605ZM41.9459 21.1747C41.9697 21.2132 41.9019 21.2191 41.6877 21.1972C41.313 21.1588 40.7136 21.2347 40.3025 21.3726C39.7905 21.5444 39.3248 21.7654 39.3731 21.8137C39.4277 21.8683 40.4614 21.8346 41.5562 21.7426C42.0175 21.7039 42.5939 21.6659 42.837 21.6583C43.0801 21.6506 43.279 21.6336 43.279 21.6206C43.279 21.5621 42.6989 21.3731 42.1229 21.2439C42.0581 21.2293 42.071 21.2205 42.1682 21.2129C42.243 21.2071 42.3196 21.2047 42.3383 21.2077C42.3569 21.2106 42.3723 21.1926 42.3723 21.1677C42.3723 21.1427 42.269 21.1223 42.1429 21.1223C41.9811 21.1223 41.923 21.1377 41.9459 21.1747ZM31.8611 21.3308C31.8701 21.3774 31.9996 21.4882 32.1489 21.5772C32.4416 21.7516 33.0452 22.0291 33.1318 22.0291C33.2784 22.0291 32.2105 21.338 31.9713 21.278C31.8639 21.251 31.8473 21.259 31.8611 21.3308ZM38.3449 21.4649C38.0124 21.5511 37.701 21.6429 37.6527 21.6687C37.6045 21.6945 37.4967 21.7211 37.4131 21.7276C37.3148 21.7353 37.1031 21.8453 36.8131 22.0393C35.9715 22.6021 35.6193 22.9889 35.0194 24.009C34.3755 25.1039 34.2651 25.3331 34.3305 25.4389C34.3798 25.5185 34.5261 25.3259 34.8326 24.7782C35.102 24.2967 35.2055 24.1626 35.662 23.7038C36.3333 23.0292 36.6921 22.7648 37.6231 22.2586C38.3481 21.8644 39.1532 21.3737 39.1532 21.3261C39.1532 21.2757 38.9177 21.3161 38.3449 21.4649ZM60.7796 21.5009C60.5419 21.6775 59.9 22.3434 59.9344 22.3778C59.9472 22.3907 60.1232 22.3131 60.3252 22.2054C60.7851 21.9604 61.1981 21.6035 61.1787 21.4679C61.1576 21.3199 61.0064 21.3324 60.7796 21.5009ZM30.4712 21.5753C30.453 21.6048 30.4562 21.6471 30.4784 21.6692C30.5416 21.7325 31.1961 21.855 31.3869 21.8393C31.5583 21.8251 31.5576 21.8245 31.2386 21.7044C30.8422 21.5551 30.5174 21.5005 30.4712 21.5753ZM45.0472 21.8679C45.0472 21.8988 45.459 22.1765 45.4774 22.158C45.4861 22.1493 45.3929 22.0758 45.2702 21.9946C45.1476 21.9134 45.0472 21.8564 45.0472 21.8679ZM40.733 22.028C40.5523 22.0825 40.3544 22.2096 40.2903 22.3121C40.2435 22.3872 40.2456 22.4155 40.3024 22.4723C40.4019 22.5717 40.5827 22.4854 40.8559 22.2079C41.0594 22.0014 41.0679 21.9841 40.9651 21.9877C40.9037 21.9898 40.7992 22.0079 40.733 22.028ZM28.0635 22.0753C27.7383 22.1097 27.5466 22.1772 27.5466 22.2574C27.5466 22.327 27.7605 22.3087 28.1966 22.2018C28.4854 22.131 28.577 22.0929 28.5161 22.069C28.4691 22.0505 28.4205 22.0368 28.4081 22.0384C28.3956 22.0401 28.2405 22.0567 28.0635 22.0753ZM32.1746 22.1481C32.3945 22.3861 32.6544 22.6432 32.7629 22.7301C32.8239 22.7789 32.7009 22.6413 32.4895 22.424C32.2781 22.2068 32.096 22.0291 32.0849 22.0291C32.0738 22.0291 32.1141 22.0826 32.1746 22.1481ZM38.1915 22.1901C37.3289 22.3992 36.3898 23.2024 35.8351 24.2053C35.705 24.4405 35.5262 24.9021 35.5262 25.0027C35.5262 25.0403 35.7369 24.8304 35.9945 24.5362C36.6296 23.8108 37.0649 23.4144 37.6692 23.0114C38.1291 22.7047 38.6545 22.2485 38.6545 22.1559C38.6545 22.105 38.4932 22.117 38.1915 22.1901ZM30.9319 22.1954C30.8099 22.3173 31.0147 22.4368 31.4889 22.5203C31.8039 22.5758 31.8512 22.566 31.7658 22.4631C31.6149 22.2813 31.0329 22.0944 30.9319 22.1954ZM9.22997 22.4094C9.22997 22.4962 9.60329 22.8268 9.83111 22.9418C10.1395 23.0975 10.6355 23.2609 10.6355 23.2068C10.6355 23.1333 10.1067 22.7481 9.7967 22.5958C9.47897 22.4398 9.22997 22.3579 9.22997 22.4094ZM29.6322 22.4271C29.6322 22.466 30.1192 22.6206 30.2238 22.6149C30.26 22.613 30.1876 22.5622 30.0629 22.5022C29.8393 22.3944 29.6322 22.3583 29.6322 22.4271ZM41.0348 22.461C40.8602 22.4917 40.646 22.5482 40.5587 22.5866C40.4177 22.6486 40.4123 22.6569 40.5103 22.6601C40.6106 22.6635 41.3263 22.4915 41.3711 22.4533C41.4238 22.4083 41.3221 22.4106 41.0348 22.461ZM42.484 22.545C42.1967 22.6156 42.1456 22.6476 42.1456 22.7572C42.1456 22.8306 42.1776 22.8451 42.3383 22.8447C42.616 22.844 43.3491 22.6045 43.3028 22.5296C43.2687 22.4743 42.7305 22.4845 42.484 22.545ZM39.5891 22.8211C39.2978 22.9408 39.0626 23.1353 39.0626 23.2564C39.0626 23.3066 38.9799 23.3672 38.8245 23.4308C38.6936 23.4844 38.5373 23.5658 38.4772 23.6118L38.3679 23.6954L38.593 23.6598C39.0494 23.5876 39.788 23.3614 39.788 23.2937C39.788 23.2702 39.7268 23.2387 39.652 23.2238C39.5003 23.1934 39.4747 23.1366 39.5953 23.0978C39.639 23.0838 39.7664 22.9914 39.8787 22.8927C40.0693 22.7249 40.0752 22.713 39.9693 22.7122C39.907 22.7117 39.7359 22.7607 39.5891 22.8211ZM43.9024 22.7351C43.8838 22.7541 43.8684 22.807 43.8684 22.8528C43.8684 22.9252 43.8289 22.9359 43.5624 22.9358C43.1706 22.9357 42.4818 23.031 42.5611 23.0743C42.7157 23.1587 43.9296 23.1449 44.0109 23.058C44.0564 23.0092 44.1066 23.0092 44.2946 23.058C44.5601 23.1268 44.8832 23.1366 44.8449 23.0746C44.7396 22.9044 43.9986 22.6374 43.9024 22.7351ZM30.9924 22.9262C30.9924 22.9497 31.1993 23.2013 31.4522 23.4852C31.9605 24.0557 32.4046 24.6387 32.7269 25.1583C32.9705 25.5512 33.3934 26.4299 33.5066 26.7783C33.5978 27.0589 33.7142 27.7475 33.68 27.8031C33.6669 27.8244 33.6025 27.738 33.5371 27.611C33.4715 27.484 33.3788 27.3348 33.331 27.2795L33.244 27.1788L33.2015 27.2742C33.1542 27.3803 33.4388 29.4747 33.5514 29.8489C33.6201 30.0771 33.8894 30.5527 33.95 30.5527C34.0287 30.5527 34.0754 30.3018 34.0754 29.8787C34.0754 29.636 34.0958 29.417 34.1207 29.392C34.1838 29.329 34.3327 28.6009 34.361 28.2178L34.3844 27.9004L34.2824 28.1246L34.1804 28.3488L34.1491 27.8252C34.0895 26.8293 33.9752 26.3977 33.5322 25.4975C33.0117 24.4394 32.1954 23.4619 31.5041 23.0687C31.2674 22.934 30.9924 22.8574 30.9924 22.9262ZM32.3525 22.9953C32.3525 23.061 32.5223 23.1981 32.7492 23.3154C32.9455 23.4169 32.9353 23.3431 32.7222 23.1191C32.5523 22.9405 32.3525 22.8736 32.3525 22.9953ZM34.317 23.053C34.2503 23.2268 34.3843 23.888 34.4863 23.888C34.534 23.888 34.6194 23.6255 34.6194 23.4787C34.6194 23.2011 34.3862 22.8728 34.317 23.053ZM28.6755 23.2883C28.8083 23.3806 29.6214 23.7575 30.0856 23.9418C30.6111 24.1505 31.0423 24.3922 31.123 24.5232C31.245 24.7211 31.9192 25.561 31.958 25.5633C32.0011 25.5659 31.8034 25.28 31.5126 24.9194C31.397 24.776 31.3251 24.6587 31.3529 24.6587C31.3808 24.6587 31.5404 24.7916 31.7077 24.9541C31.8751 25.1166 32.0184 25.2304 32.0262 25.2071C32.0496 25.1366 31.827 24.7431 31.6076 24.4674C31.1071 23.8385 30.3871 23.4725 29.2603 23.2742C29.0534 23.2378 28.8127 23.2091 28.7254 23.2103L28.5668 23.2127L28.6755 23.2883ZM45.501 23.2521C45.4115 23.3086 45.4738 23.3599 45.7154 23.4286C45.9411 23.4928 46.498 23.5509 46.498 23.5103C46.498 23.469 46.2305 23.3319 46.022 23.2663C45.8068 23.1986 45.5947 23.1928 45.501 23.2521ZM41.0476 23.3408C40.4541 23.5009 40.0814 23.727 39.584 24.2285C39.2214 24.5941 39.0841 24.7719 38.8986 25.116C38.6236 25.6264 38.5787 25.7468 38.6636 25.7468C38.7611 25.7468 39.5508 25.1339 39.9697 24.7331C40.1818 24.5301 40.6562 24.1232 41.0238 23.8288C41.3914 23.5344 41.6922 23.2845 41.6922 23.2734C41.6922 23.2268 41.3302 23.2646 41.0476 23.3408ZM47.1399 23.9446C47.3117 24.1985 47.7501 24.7819 47.8126 24.8401C47.826 24.8525 47.8927 24.9306 47.9609 25.0136C48.1788 25.2787 48.0946 25.1115 47.7498 24.5945C47.4041 24.0761 47.0669 23.6613 46.9912 23.6613C46.9675 23.6613 47.0344 23.7888 47.1399 23.9446ZM33.1686 23.7684C33.1686 23.928 33.8613 25.2481 33.9451 25.2481C33.9957 25.2481 33.7121 24.4799 33.5433 24.16C33.333 23.7612 33.1686 23.5894 33.1686 23.7684ZM27.8222 23.8395C27.7747 23.8696 27.8088 23.894 27.9516 23.9325C28.1498 23.9858 28.3217 23.9622 28.2456 23.892C28.179 23.8305 27.8926 23.795 27.8222 23.8395ZM11.5913 23.8615C11.719 23.9891 12.9831 24.2977 13.3558 24.2923L13.5598 24.2894L13.3104 24.1997C12.8114 24.0202 12.0359 23.8427 11.75 23.8427C11.6523 23.8426 11.5809 23.8511 11.5913 23.8615ZM38.6748 24.0295C37.6564 24.5497 36.6612 25.5988 36.4291 26.3966C36.3933 26.5198 36.4024 26.5161 36.6504 26.3074C37.8811 25.2714 38.4751 24.7182 38.7677 24.3354C38.9779 24.0605 39.0803 23.8906 39.0526 23.8628C39.043 23.8533 38.8731 23.9283 38.6748 24.0295ZM57.2886 23.888C57.2512 23.9121 57.241 23.9319 57.2659 23.9319C57.2908 23.9319 57.3418 23.9121 57.3792 23.888C57.4166 23.8638 57.4268 23.844 57.4019 23.844C57.377 23.844 57.326 23.8638 57.2886 23.888ZM27.1839 24.0232C26.9106 24.1113 26.5945 24.2426 26.5945 24.268C26.5945 24.3047 27.3057 24.1072 27.4358 24.0344C27.5854 23.9507 27.4303 23.9438 27.1839 24.0232ZM57.0279 24.0009C56.9468 24.0361 56.8805 24.0757 56.8805 24.0888C56.8805 24.1168 57.1102 24.0236 57.1729 23.97C57.2325 23.9193 57.1995 23.9263 57.0279 24.0009ZM25.3982 24.2561C25.2262 24.4992 25.0534 24.8427 25.0532 24.9421C25.0528 25.135 25.1978 24.9974 25.3639 24.6474C25.636 24.0741 25.6514 23.8985 25.3982 24.2561ZM34.4991 24.139C34.4688 24.2179 34.6019 24.3867 34.6945 24.3867C34.7831 24.3867 34.7691 24.2318 34.6725 24.1444C34.5696 24.0512 34.5333 24.0501 34.4991 24.139ZM56.6085 24.2053C56.5212 24.2531 56.4702 24.2922 56.4951 24.2922C56.5201 24.2922 56.6119 24.2531 56.6992 24.2053C56.7864 24.1575 56.8374 24.1185 56.8125 24.1185C56.7876 24.1185 56.6958 24.1575 56.6085 24.2053ZM37.2305 24.3634C35.7075 25.1305 34.6168 27 34.2611 29.4532C34.2421 29.5842 34.2429 29.6913 34.2629 29.6913C34.3102 29.6913 34.9814 28.3245 35.1647 27.8551C35.3803 27.3027 35.8931 26.34 36.2212 25.8716C36.3827 25.6409 36.7158 25.2198 36.9613 24.9359C37.4283 24.3958 37.5842 24.2052 37.5588 24.2055C37.5505 24.2056 37.4028 24.2766 37.2305 24.3634ZM30.675 24.6082C30.675 24.6303 30.809 24.7884 30.9729 24.9596C31.2704 25.2705 31.3037 25.2752 31.0888 24.9761C30.8563 24.6524 30.675 24.4912 30.675 24.6082ZM14.8227 24.7388C14.8575 24.7951 15.3006 24.8933 16.1076 25.0233C16.9173 25.1538 17.0029 25.1185 16.254 24.9631C15.9192 24.8936 15.5739 24.8185 15.4867 24.7962C15.2016 24.7236 14.7913 24.688 14.8227 24.7388ZM44.2721 25.0225C43.943 25.0774 43.4604 25.3606 43.4604 25.4989C43.4604 25.5872 43.5721 25.6052 44.2311 25.6231C44.784 25.638 44.8078 25.643 45.2059 25.8249C45.6331 26.0201 46.2593 26.2273 46.2998 26.1869C46.3468 26.1399 46.1836 25.8996 45.9156 25.6212C45.462 25.1499 44.8485 24.9264 44.2721 25.0225ZM32.3978 25.5278C32.3978 25.5964 32.7954 26.3385 32.879 26.4259C33.0263 26.5798 32.7617 25.8721 32.57 25.5995C32.479 25.47 32.3978 25.4362 32.3978 25.5278ZM35.0641 25.8488C35.0327 25.9049 34.9816 25.9917 34.9506 26.0415C34.828 26.2388 34.5287 26.8563 34.5287 26.9119C34.5287 27.1149 34.7288 26.8139 34.9333 26.3031C34.9809 26.1842 35.0525 26.0104 35.0923 25.9169C35.1719 25.7299 35.1545 25.6878 35.0641 25.8488ZM31.8103 25.9891C31.8079 26.038 32.2792 26.7417 32.3003 26.7208C32.309 26.7121 32.2606 26.603 32.1926 26.4781C32.0648 26.2433 31.8135 25.9219 31.8103 25.9891ZM37.7796 26.2602C37.6219 26.467 37.3006 27.0742 37.4275 26.9256C37.6681 26.6441 37.9585 26.1692 37.9161 26.1268C37.9053 26.1159 37.8439 26.176 37.7796 26.2602ZM32.4774 26.4722C32.4911 26.5845 32.5284 26.7477 32.5602 26.835C32.6096 26.9701 32.6186 26.9773 32.6214 26.8835C32.6243 26.7821 32.5735 26.5834 32.4872 26.3589C32.4676 26.3077 32.4633 26.3571 32.4774 26.4722ZM62.3211 26.9679C61.9015 27.1525 61.4017 27.4371 61.3799 27.5037C61.3247 27.6729 61.948 27.4012 62.354 27.0792C62.7289 26.7819 62.7306 26.7877 62.3211 26.9679ZM35.8356 27.3228C35.51 27.6754 35.3103 28.1271 35.4799 28.1271C35.5465 28.1271 36.015 27.2633 35.9718 27.2201C35.96 27.2083 35.8987 27.2545 35.8356 27.3228ZM6.88557 27.4554C6.83606 27.5844 7.30953 27.911 7.6658 27.9937C7.80168 28.0252 7.80159 28.025 7.59779 27.8119C7.39948 27.6044 7.26746 27.5142 7.02975 27.4239C6.93758 27.3888 6.90869 27.3951 6.88557 27.4554ZM44.5145 27.6811C44.4111 27.7228 44.4558 27.8716 44.6052 27.9831C44.8911 28.1963 45.5913 28.3802 45.5913 28.242C45.5913 28.218 45.5251 28.1229 45.4442 28.0308C45.2086 27.7624 44.745 27.588 44.5145 27.6811ZM43.2537 27.9004C43.1666 27.9677 43.1666 27.9691 43.2537 28.0364C43.3584 28.1173 43.4239 28.1202 43.6644 28.0541C44.0557 27.9466 44.0198 27.8343 43.5937 27.8331C43.4381 27.8327 43.308 27.8584 43.2537 27.9004ZM59.3848 27.9944C59.0644 28.0646 58.9207 28.1293 58.9207 28.2035C58.9207 28.27 59.7248 28.2194 60.0864 28.1301C60.4636 28.037 60.6889 27.9672 60.6889 27.9436C60.6889 27.8965 59.6464 27.9371 59.3848 27.9944ZM36.3208 28.2473C36.1897 28.4032 35.8554 29.0373 35.928 28.9924C35.9909 28.9535 36.3819 28.4282 36.4592 28.2789C36.5518 28.0997 36.4622 28.0792 36.3208 28.2473ZM8.27787 28.2756C8.27787 28.3176 9.0172 28.7513 9.41132 28.9406C9.75236 29.1045 9.56715 28.9646 9.07129 28.684C8.32361 28.2608 8.27787 28.2373 8.27787 28.2756ZM32.7764 28.3538C32.7552 28.4037 32.7379 28.5771 32.7379 28.7392C32.7379 28.9709 32.7524 29.0339 32.8059 29.0339C32.888 29.0339 32.9259 28.5517 32.8577 28.3743C32.8168 28.268 32.8133 28.2671 32.7764 28.3538ZM44.2538 29.4408C43.7215 29.5577 43.3126 29.766 42.9296 30.1154C42.6757 30.347 42.4176 30.6976 42.4176 30.8109C42.4176 30.9292 42.6332 30.8654 42.9188 30.6625C43.5167 30.2378 43.9306 30.0904 44.5421 30.0846C44.9322 30.0808 45.2605 30.1323 45.2005 30.1879C45.1785 30.2082 45.0326 30.2466 44.8762 30.2733C44.1281 30.401 43.419 30.9397 42.9868 31.7088C42.9027 31.8584 42.7491 32.1951 42.6455 32.4569C42.3787 33.1307 42.1374 33.5161 41.7549 33.879C41.5744 34.0502 41.4013 34.2518 41.3701 34.3271C41.3201 34.4478 41.3236 34.4714 41.3995 34.5269C41.4468 34.5615 41.5133 34.5791 41.5472 34.5661C41.5812 34.5531 41.6555 34.5425 41.7125 34.5425C41.7694 34.5425 41.8741 34.4968 41.9451 34.4409C42.0161 34.3851 42.1111 34.3456 42.1562 34.3533C42.3046 34.3784 42.7446 34.2634 43.1169 34.1022C43.9534 33.7401 43.8676 33.7592 44.8205 33.7238C45.4595 33.7002 45.8241 33.6643 46.1353 33.5943C46.5931 33.4913 46.9915 33.3688 47.0625 33.3092C47.0862 33.2893 47.1413 33.273 47.1849 33.273C47.2285 33.273 47.3181 33.2023 47.384 33.1159C47.6647 32.7479 47.5332 31.854 47.1072 31.2346C47.0215 31.1101 46.9514 30.9634 46.9514 30.9086C46.9514 30.7309 46.6338 30.1598 46.4081 29.9317C45.9236 29.442 45.1015 29.2548 44.2538 29.4408ZM34.709 29.5666C34.5621 29.8063 34.4286 30.1987 34.4776 30.2476C34.5053 30.2754 34.5491 30.2368 34.5986 30.1411C34.6813 29.9811 34.8533 29.4192 34.8196 29.4192C34.8085 29.4192 34.7588 29.4855 34.709 29.5666ZM35.4856 30.1071C35.3698 30.683 35.3441 30.8391 35.3624 30.8574C35.3902 30.8852 35.4212 30.7663 35.5049 30.3106C35.5454 30.0902 35.5686 29.8999 35.5564 29.8877C35.5442 29.8756 35.5124 29.9743 35.4856 30.1071ZM25.3024 29.9707C25.1777 29.9938 25.0247 30.0528 24.9624 30.1019C24.8527 30.1882 24.8518 30.1933 24.9347 30.2568C25.0389 30.3368 25.3162 30.3095 25.7104 30.1802C26.0619 30.065 26.1479 29.9988 25.9998 29.9573C25.8506 29.9155 25.5718 29.9208 25.3024 29.9707ZM26.6027 30.4734C26.6269 30.6434 27.4096 31.0103 27.735 31.004C27.8299 31.0022 27.8178 30.9809 27.6221 30.8055C27.3493 30.5609 26.9697 30.3713 26.7529 30.3713C26.608 30.3713 26.59 30.3836 26.6027 30.4734ZM20.1882 31.4954C20.5073 31.5206 20.6758 31.5544 20.7322 31.6047C20.7771 31.6448 20.9415 31.7291 21.0976 31.7922C21.6552 32.0174 21.9772 32.4017 22.2243 33.137C22.2885 33.3279 22.3083 33.5246 22.3091 33.9757C22.31 34.5294 22.3025 34.5807 22.1841 34.8215C22.0662 35.0617 21.5964 35.5634 21.3248 35.7394C21.1394 35.8595 20.3558 35.9135 19.5963 35.8585C18.6566 35.7904 17.532 35.5935 16.0987 35.2459C15.7496 35.1613 15.3926 35.0795 15.3053 35.0641L15.1466 35.0362L15.3053 35.1777C15.5847 35.427 16.1778 35.7932 16.5748 35.9615C16.9931 36.139 17.834 36.3916 18.411 36.5132C18.6105 36.5552 18.8043 36.6003 18.8417 36.6133C18.9618 36.6553 18.7617 36.7034 18.0238 36.8098C17.4092 36.8986 17.2028 36.9079 16.3481 36.8862C14.2882 36.8337 12.8387 36.5216 10.4541 35.6168C9.72438 35.34 9.502 35.2791 9.502 35.3562C9.502 35.4512 9.909 35.8129 10.3183 36.0817C11.4458 36.822 12.8992 37.3321 14.6427 37.5995C16.3858 37.8668 17.5338 37.8388 19.2271 37.4879C20.3255 37.2602 20.8356 37.0804 21.902 36.5448C22.6559 36.1662 22.7984 36.0768 23.0428 35.8297L23.3222 35.5473L23.3724 35.8361C23.4423 36.2372 23.4852 37.069 23.4485 37.3109L23.418 37.5121L22.9094 37.7833C21.6956 38.4305 20.1227 39.0775 18.7747 39.484C17.8642 39.7586 17.6704 39.7691 17.0962 39.575C16.4591 39.3597 16.2356 39.3745 15.0333 39.7121C13.7648 40.0682 13.1232 40.182 11.3382 40.3675C11.2135 40.3805 10.8718 40.4044 10.5788 40.4207C10.0903 40.4479 10.0461 40.4438 10.0461 40.371C10.0461 40.2222 10.4064 39.5985 10.7024 39.2349C11.0076 38.8602 11.0461 38.7645 10.9304 38.6685C10.8558 38.6065 10.7788 38.619 10.4088 38.7525C10.0181 38.8935 9.58651 39.4077 9.33298 40.0341C9.21909 40.3155 9.1952 40.3447 9.07813 40.3452C8.88585 40.346 8.69407 40.2385 8.39457 39.9618C8.00629 39.603 7.79896 39.5178 7.32581 39.5222C7.11381 39.5242 6.66496 39.5781 6.32832 39.6419C4.93276 39.9066 4.51828 39.981 4.15208 40.0326C3.75401 40.0887 1.45826 40.1153 1.40735 40.0644C1.37484 40.0319 1.42113 39.9241 1.82183 39.099C2.4183 37.8708 3.31595 36.9243 5.76159 34.9445C6.66074 34.2167 7.21432 33.8667 8.17477 33.4193C10.7884 32.2016 13.1966 31.639 16.6428 31.4412C17.0831 31.416 19.6853 31.4557 20.1882 31.4954ZM45.4326 31.9337C45.5074 31.9645 45.6333 32.0443 45.7123 32.111C45.8688 32.243 46.1353 32.6201 46.1353 32.7096C46.1353 32.7441 46.0301 32.7776 45.8588 32.7974C45.5153 32.8373 43.8186 32.853 43.8343 32.8162C43.8406 32.8013 43.9889 32.6665 44.1639 32.5167C44.3388 32.3668 44.5428 32.1673 44.6172 32.0734C44.6916 31.9794 44.7933 31.8853 44.8432 31.8642C44.949 31.8194 45.2381 31.8535 45.4326 31.9337ZM25.6316 34.2786C25.8255 34.37 26.1797 34.7457 26.1243 34.8011C26.1081 34.8174 25.9777 34.7926 25.8346 34.7461C25.6915 34.6996 25.401 34.6501 25.1891 34.636C24.8331 34.6124 24.8026 34.6027 24.7892 34.5086C24.7812 34.4525 24.8195 34.3438 24.8741 34.267C24.9692 34.1335 24.9836 34.1288 25.206 34.1575C25.3338 34.174 25.5253 34.2285 25.6316 34.2786ZM40.9537 35.1362C40.762 35.4363 40.6688 36.6356 40.7832 37.3308C40.8957 38.0145 41.3255 39.0481 41.7538 39.6647C41.8817 39.8488 41.8977 39.8591 41.911 39.7653C41.929 39.6381 41.7981 38.7767 41.7131 38.4642C41.6793 38.3395 41.5691 37.9487 41.4683 37.5957C41.2673 36.8917 41.2117 36.5683 41.1473 35.7301C41.1237 35.4232 41.0862 35.1396 41.0639 35.0997C41.0288 35.037 41.014 35.0419 40.9537 35.1362ZM27.5473 36.8887C27.5482 37.1081 27.6142 37.2255 27.6584 37.0864C27.6954 36.9699 27.6475 36.7187 27.5884 36.7187C27.5654 36.7187 27.547 36.7952 27.5473 36.8887ZM42.3921 41.014C42.438 41.1366 42.6961 41.5544 42.8122 41.6943C42.9457 41.8551 42.9071 41.7478 42.6744 41.3126C42.5788 41.1337 42.4695 40.9753 42.4314 40.9607C42.38 40.941 42.3699 40.9548 42.3921 41.014ZM12.6303 41.2251C12.6303 41.3687 12.4431 41.879 12.3181 42.076C12.2361 42.2052 12.0989 42.3374 11.9651 42.416C11.7685 42.5316 11.7048 42.5447 11.3382 42.5447C10.9773 42.5447 10.9066 42.5307 10.7261 42.4237C10.425 42.2452 10.1917 41.9813 10.0697 41.6811C10.0103 41.5348 9.96966 41.4021 9.97946 41.3863C9.98925 41.3704 10.3092 41.3421 10.6904 41.3234C11.0716 41.3046 11.5978 41.2634 11.8596 41.2319C12.53 41.1511 12.6303 41.1502 12.6303 41.2251ZM36.864 41.8825C36.7811 41.9158 36.7858 41.9252 36.9195 41.9943C36.9998 42.0358 37.1935 42.081 37.3499 42.0948L37.6344 42.1199L37.4531 42.0038C37.3533 41.94 37.2411 41.8874 37.2037 41.8869C37.1663 41.8864 37.0949 41.8771 37.045 41.8661C36.9951 41.8551 36.9137 41.8625 36.864 41.8825ZM37.3288 43.8935C37.2883 43.9247 37.2231 44.0627 37.184 44.2002C37.1448 44.3378 37.0465 44.552 36.9655 44.6763C36.8299 44.8845 36.7683 44.9272 36.1798 45.2196C35.4317 45.5915 35.1386 45.802 34.8656 46.164C34.5249 46.6154 34.4527 47.0613 34.6165 47.7016C34.8081 48.451 35.1758 48.9147 35.5784 48.9147C35.7713 48.9147 36.063 48.7275 36.4107 48.3803C36.8307 47.961 37.0956 47.5999 37.3361 47.1189C37.6268 46.5373 37.7076 46.1838 37.7342 45.3783C37.7737 44.1801 37.6317 43.6602 37.3288 43.8935ZM25.942 45.4046C25.8756 45.5778 26.1009 46.0615 26.3943 46.3751C26.5854 46.5795 26.5921 46.5958 26.5427 46.7376C26.5094 46.8331 26.5009 47.0381 26.519 47.3122C26.5801 48.2438 26.9977 48.9479 27.6895 49.2862C28.1479 49.5103 28.5435 49.4969 28.7754 49.2495C28.8728 49.1457 28.8836 49.095 28.8795 48.7635C28.8761 48.4828 28.8459 48.3152 28.7547 48.0701C28.488 47.3531 28.2139 47.0345 27.4026 46.4986C26.8604 46.1405 26.6022 45.9135 26.4334 45.6463C26.3768 45.5567 26.2967 45.4496 26.2553 45.4082C26.1599 45.3129 25.978 45.3108 25.942 45.4046ZM28.2947 48.229C28.3156 48.2986 28.3106 48.3264 28.2804 48.3078C28.2547 48.2919 28.2204 48.2182 28.204 48.144C28.1877 48.0697 28.1556 47.9973 28.1325 47.9831C28.1095 47.9689 28.0911 47.933 28.0915 47.9033C28.0925 47.8328 28.2527 48.0896 28.2947 48.229ZM35.6395 54.2614C35.9138 54.3091 36.2301 54.3692 36.3423 54.395C36.5976 54.4538 37.3017 54.7072 37.3534 54.7589C37.3746 54.7801 37.2322 54.8115 37.0371 54.8288C36.4552 54.8803 35.0551 55.1749 34.9617 55.2656C34.9345 55.292 34.9345 55.3075 34.9617 55.3078C34.9854 55.308 35.1782 55.3289 35.3902 55.3544C35.9712 55.4242 37.4191 55.4131 38.0089 55.3345C38.4566 55.2748 38.5424 55.2745 38.706 55.3322C38.8086 55.3685 39.0227 55.3981 39.1816 55.3981C39.3482 55.3981 39.4706 55.4177 39.4706 55.4444C39.4706 55.5161 38.8288 56.7887 38.6182 57.1348C37.9471 58.2374 37.0374 59.1731 36.2518 59.5693C35.3521 60.0229 34.8552 60.0818 32.3978 60.0261L31.2417 59.9999L31.0233 59.8715C30.7245 59.6959 30.2164 59.2083 29.9051 58.7985C29.6332 58.4403 28.7574 57.1174 28.7801 57.099C28.7875 57.0931 28.9873 57.0667 29.2242 57.0403C29.6798 56.9896 29.9309 56.9186 30.3916 56.7105C30.8931 56.484 30.7789 56.4441 29.5302 56.4097C29.0377 56.3961 28.6349 56.372 28.635 56.3562C28.6352 56.3283 28.9779 56.1481 30.9017 55.1645C32.1183 54.5423 32.4122 54.4235 33.0099 54.3119C34.0699 54.114 34.7201 54.1015 35.6395 54.2614Z" fill="#1F2400"/>
</svg>
