<svg width="80" height="53" viewBox="0 0 80 53" fill="none" xmlns="http://www.w3.org/2000/svg">
<path fill-rule="evenodd" clip-rule="evenodd" d="M40.7774 0.12885C40.7542 0.207664 40.7323 0.675171 40.7287 1.16776C40.7253 1.66034 40.6974 2.13716 40.6668 2.22739C40.5538 2.56081 40.2744 3.01747 40.0705 3.20197L39.8607 3.39189L39.8351 2.88118C39.814 2.46055 39.7847 2.31992 39.6689 2.0843C39.5132 1.76705 39.345 1.58368 39.2778 1.65773C39.1952 1.74883 39.1186 2.18865 39.1163 2.58502C39.115 2.80478 39.0834 3.05365 39.046 3.1381L38.978 3.29163L38.9392 3.1381C38.9178 3.05365 38.8406 2.8579 38.7677 2.70309C38.6947 2.54827 38.5999 2.31869 38.557 2.1929C38.42 1.79171 37.9034 1.50451 37.6344 1.68005C37.571 1.7214 37.5955 1.76546 37.7752 1.93307C37.9664 2.11147 37.9925 2.1626 37.9915 2.35559C37.989 2.85012 37.6635 3.23272 36.9403 3.59127C36.6851 3.71773 36.4463 3.85735 36.4097 3.90146C36.3731 3.94563 36.1788 4.02843 35.978 4.08555C35.3099 4.27552 35.2057 4.3094 34.8708 4.44584C34.0769 4.76933 33.3369 5.18387 32.5678 5.73603C31.1845 6.72923 30.1275 7.96942 29.6569 9.15147C29.2507 10.1717 29.0341 11.2692 28.9986 12.4875C28.9589 13.8506 29.1619 14.6309 29.5205 14.4933C29.6722 14.4351 29.6975 14.2873 29.7047 13.4194C29.7126 12.4551 29.7819 11.9534 29.9776 11.4416C30.2756 10.662 30.542 10.2729 31.3735 9.40224C32.4583 8.26625 32.7852 7.8251 33.0572 7.12995C33.3176 6.46454 33.6295 6.16858 34.5777 5.6871C35.2337 5.35399 36.1606 5.04298 36.8923 4.91043C37.568 4.78801 38.7251 4.73356 39.32 4.79615C39.8134 4.8481 39.8473 4.87507 39.9688 5.31315C40.1013 5.79058 40.3671 6.44085 40.4223 6.42263C40.4512 6.41316 40.4978 6.18967 40.526 5.926L40.5771 5.44662L40.7879 5.69974C41.0832 6.05451 41.2424 6.39586 41.3432 6.8909C41.3909 7.1254 41.4856 7.47075 41.5537 7.65836C41.6218 7.84598 41.6775 8.0054 41.6775 8.01256C41.6775 8.01973 41.6987 8.02556 41.7245 8.02556C41.8124 8.02556 41.9465 7.29198 41.9423 6.83415C41.9397 6.55344 41.9569 6.39643 41.9882 6.41572C42.0495 6.45359 42.3784 7.10027 42.4806 7.38385C42.5216 7.49751 42.6203 7.92505 42.6998 8.33391C42.8494 9.10285 43.1487 10.0795 43.2384 10.0915C43.2665 10.0952 43.3082 9.97159 43.3309 9.81678C43.3536 9.66197 43.3903 9.46622 43.4124 9.38177C43.4469 9.24978 43.4581 9.27844 43.4926 9.58648C43.5333 9.95158 43.6731 10.3874 43.8787 10.7903C43.9922 11.0129 44.5189 11.608 44.6024 11.608C44.7162 11.608 44.6149 10.7947 44.4303 10.227C44.3299 9.91837 44.3264 9.85547 44.38 9.33136C44.4921 8.23498 44.3624 7.55248 43.8276 6.42432C43.7637 6.28951 43.7235 6.16715 43.7383 6.15241C43.7531 6.13762 43.9757 6.54377 44.233 7.05493C44.4904 7.56609 44.7806 8.10269 44.8781 8.24737L45.0552 8.51037L45.057 9.12522C45.0593 9.91627 45.1535 10.4339 45.3803 10.9021C45.568 11.2895 46.5043 12.5804 46.5976 12.5804C46.6569 12.5804 46.6312 12.3654 46.4996 11.7615C46.3952 11.283 46.396 11.0508 46.5042 10.4053C46.7117 9.16683 46.5472 7.87024 46.0482 6.81153C45.861 6.41439 45.8456 6.36429 45.9258 6.41383C46.0245 6.47483 46.3523 7.03 46.5753 7.51379C46.8915 8.20013 47.4075 9.15244 47.5433 9.30076C47.6146 9.37855 47.6045 9.19661 47.512 8.73555C47.3914 8.13472 47.3434 7.95975 47.1941 7.57592C47.1363 7.42714 47.1019 7.29239 47.1179 7.27647C47.1676 7.22668 47.4357 7.8164 47.7141 8.58852C47.9715 9.30219 48.1672 9.71519 48.4978 10.242C48.7302 10.6125 48.7627 10.5106 48.6919 9.63372C48.6445 9.04538 48.6447 8.87169 48.693 8.84185C48.7654 8.79707 48.7414 8.60336 48.5423 7.62894C48.5178 7.50933 48.512 7.41169 48.5293 7.41205C48.5467 7.41235 48.6385 7.55632 48.7334 7.73191C48.9476 8.12802 49.6344 9.1679 49.7395 9.25511C49.8646 9.35895 49.8727 9.29185 49.7836 8.89041C49.7374 8.68217 49.6892 8.44266 49.6766 8.35822C49.6542 8.20832 49.6591 8.21078 49.8857 8.46057C50.1458 8.74732 50.1614 8.71861 50.0247 8.20469C49.8189 7.43093 49.5281 6.81025 49.1196 6.27273L48.9349 6.02963H49.1508C49.3342 6.02963 49.3573 6.01838 49.3047 5.95497C49.2534 5.8932 49.2678 5.87421 49.388 5.84504C49.4679 5.82559 49.6599 5.75036 49.8147 5.67784L50.0962 5.54601L49.6939 5.51914L49.2916 5.49227L49.7579 5.26422C50.0143 5.13884 50.2241 5.01627 50.2241 4.99191C50.2241 4.9676 50.0571 4.9503 49.8531 4.95352C49.4408 4.96002 48.9948 4.91135 48.9979 4.86017C48.9989 4.8419 49.0979 4.7549 49.2177 4.66688C49.4252 4.51442 49.7175 4.07301 49.6535 4.00894C49.6368 3.9923 49.5626 4.00633 49.4885 4.0401C49.309 4.12183 49.2865 4.0856 49.379 3.8641C49.4748 3.63493 49.4785 3.47075 49.388 3.47075C49.3503 3.47075 49.2179 3.57572 49.0937 3.70397C48.722 4.08795 48.0711 4.39195 47.6207 4.39195C47.265 4.39195 47.2958 4.35689 47.954 4.01226C48.5135 3.71937 48.6207 3.6012 48.2773 3.65617C48.0097 3.69895 48.0213 3.6553 48.3537 3.36927C48.65 3.1143 48.8091 2.92438 48.7537 2.89198C48.732 2.87939 48.4768 2.92612 48.1864 2.99592C47.8961 3.06573 47.6489 3.11322 47.6372 3.1015C47.6254 3.08973 47.6368 3.00683 47.6625 2.91722C47.7467 2.62392 47.5843 2.69459 46.8732 3.26077C46.5976 3.48017 46.4516 3.55832 46.2334 3.60305C46.078 3.63493 45.9413 3.65284 45.9297 3.64286C45.9181 3.63288 46.046 3.48068 46.2139 3.30463C46.7105 2.7841 47.3812 1.78782 47.2938 1.70046C47.2452 1.65179 46.5028 2.06475 46.0299 2.40344C45.7964 2.57064 45.597 2.69894 45.5866 2.68855C45.5762 2.67816 45.622 2.55626 45.6885 2.41767C45.8141 2.1559 45.9419 1.74151 45.9991 1.41085C46.0407 1.16996 45.9511 1.15547 45.7095 1.36407C45.617 1.44396 45.4754 1.56484 45.3947 1.63276C45.3139 1.70072 45.08 1.96357 44.8747 2.2169C44.5199 2.65472 44.134 3.06348 44.134 3.00145C44.134 2.98564 44.2376 2.75391 44.3643 2.4865C44.6159 1.95543 44.6529 1.7954 44.505 1.87805C44.4557 1.90558 44.1134 2.23097 43.7442 2.60114C43.1643 3.18247 43.0535 3.27187 42.9311 3.25729L42.7892 3.24045L43.0187 2.98456C43.145 2.84383 43.3785 2.53466 43.5376 2.29761C43.9853 1.63061 43.9569 1.62687 43.1458 2.24617C42.8114 2.5015 42.5309 2.70303 42.5225 2.69398C42.5141 2.68492 42.5491 2.51629 42.6003 2.31925C42.698 1.94335 42.7035 1.14979 42.6091 1.05537C42.5801 1.0264 42.5086 1.07129 42.4246 1.17108C42.3491 1.26075 42.2735 1.32027 42.2565 1.30328C42.2395 1.28628 42.2144 1.15563 42.2007 1.01289C42.167 0.662582 42.0732 0.688835 41.7802 1.1306C41.5239 1.51715 41.5473 1.52897 41.4186 0.947693C41.3435 0.608846 41.0249 0.025061 40.9021 0.00141692C40.8492 -0.00881861 40.8047 0.0366794 40.7774 0.12885ZM44.0327 5.59585C44.1315 5.71505 44.061 5.73746 43.9552 5.62052C43.904 5.56407 43.886 5.51786 43.9151 5.51786C43.9441 5.51786 43.997 5.55297 44.0327 5.59585ZM50.6198 5.85579C50.5687 5.90681 50.6792 6.13915 50.8796 6.40216C51.2033 6.82703 51.8029 7.16834 52.5609 7.35928C52.6779 7.38876 52.9121 7.51476 53.0812 7.63922C53.2503 7.76374 53.5461 7.95084 53.7384 8.05504C54.4478 8.43944 54.9248 8.7464 55.1274 8.94896C55.2417 9.06335 55.4726 9.38024 55.6403 9.65317C56.0537 10.3258 56.6276 10.9149 57.1843 11.238C57.5656 11.4594 58.4904 12.2039 58.7605 12.5068C59.2356 13.0399 59.4148 13.5237 59.3403 14.0725C59.2971 14.3912 59.3708 14.8527 59.4952 15.0427C59.6926 15.344 60.0345 15.3608 60.1666 15.0758C60.2449 14.9069 60.3293 14.0754 60.3106 13.6577C60.2891 13.1786 59.9561 12.4866 59.4638 11.8981C59.3501 11.762 58.9094 11.3555 58.4846 10.9946C57.6284 10.2672 57.2507 9.86883 56.5494 8.95311C55.8936 8.0967 55.6678 7.8423 55.3384 7.58825C54.7262 7.11629 54.0909 6.83957 53.1668 6.64249C52.3456 6.46736 51.8146 6.29325 51.3633 6.05118C50.9815 5.84632 50.7025 5.77303 50.6198 5.85579ZM12.9156 7.44147C11.6743 7.58456 11.5453 7.60693 10.7661 7.8142C10.555 7.87034 10.1175 7.98692 9.79377 8.07331C9.17084 8.23949 7.02706 8.72501 6.59517 8.79773C6.45443 8.82143 5.70166 8.88775 4.92237 8.94512C4.14309 9.00255 3.22241 9.08622 2.87645 9.1311C1.38467 9.32466 0.48614 9.78444 0.136341 10.5333C-0.145699 11.137 0.0486732 12.3368 0.366384 11.9535C0.395555 11.9183 0.46741 11.6965 0.52606 11.4607C0.652213 10.9536 0.779542 10.7295 1.05498 10.53C1.63226 10.1119 2.41948 9.98111 5.05687 9.8653C6.72342 9.79217 7.45557 9.68797 9.17964 9.27855C10.4644 8.97348 10.8734 8.92614 11.8921 8.96447C15.0249 9.08233 16.8983 9.92313 19.3128 12.295C20.1734 13.1405 20.7122 13.4752 21.4711 13.6361C22.1442 13.7788 22.6738 13.6572 23.0685 13.2692C23.3535 12.9891 23.4818 12.6789 23.4066 12.4513C23.3226 12.1965 23.1108 12.0709 22.6253 11.9879C21.7508 11.8383 21.4507 11.6476 20.2596 10.4848C18.9341 9.19062 18.0948 8.61242 16.7324 8.05448C16.4055 7.9206 15.5384 7.68109 14.9746 7.56896C14.472 7.46901 13.3042 7.39669 12.9156 7.44147ZM7.41401 11.6841C6.82613 11.8141 6.59363 11.9682 6.64947 12.1907C6.66907 12.2689 6.71093 12.3398 6.74251 12.3485C6.77403 12.3572 7.12711 12.3911 7.52706 12.4238C8.35809 12.4919 8.82544 12.6063 9.3496 12.8699C9.96066 13.1772 10.3341 13.479 11.457 14.5728C13.1353 16.2076 13.4729 16.4328 14.6101 16.6758C14.858 16.7287 15.1251 16.8064 15.2037 16.8483C15.2823 16.8902 15.5653 17.1471 15.8327 17.4192C16.6614 18.2624 17.3892 18.8005 18.2553 19.2101C18.9941 19.5595 19.5441 19.7033 20.234 19.7276C20.7588 19.7461 20.8528 19.7357 21.1021 19.6317C21.4517 19.4857 21.6378 19.2421 21.5966 18.984C21.5438 18.6535 21.3391 18.5188 20.6946 18.3906C19.7565 18.204 18.8522 17.9383 18.8522 17.8493C18.8522 17.8274 18.9419 17.7944 19.0515 17.7758C19.5216 17.6964 20.0696 17.3279 20.2994 16.9368C20.3882 16.7857 20.3878 16.7807 20.2829 16.7245C20.1332 16.6444 19.4613 16.6858 19.0569 16.8C18.7616 16.8834 18.6758 16.8871 18.292 16.8325C18.0543 16.7987 17.6892 16.7049 17.4807 16.6239C17.1122 16.4808 16.2933 15.9794 16.2933 15.8968C16.2933 15.8742 16.3691 15.8557 16.4617 15.8557C16.6877 15.8557 17.1815 15.7242 17.4981 15.5796C17.8073 15.4384 18.3747 14.9291 18.3205 14.8414C18.2687 14.7576 17.5719 14.765 17.1889 14.8534C16.3719 15.0421 15.9261 15.0018 15.2247 14.6759C14.968 14.5567 14.758 14.4399 14.758 14.4163C14.758 14.3928 14.8213 14.3596 14.8987 14.3424C15.4926 14.2112 15.8404 14.0417 16.1328 13.741C16.3465 13.5214 16.3516 13.509 16.2514 13.4553C16.1224 13.3863 15.3569 13.3814 15.1242 13.4481C15.0304 13.475 14.6506 13.5119 14.2801 13.5301C13.7164 13.5579 13.5647 13.5489 13.3506 13.4754C13.0657 13.3776 12.0855 12.9044 11.15 12.413C10.4694 12.0555 9.5819 11.7385 9.04453 11.6608C8.56269 11.5911 7.78382 11.6023 7.41401 11.6841ZM33.2962 11.9181C32.6247 12.0505 31.7772 12.806 31.1979 13.7886C30.5959 14.8096 30.4333 16.7694 30.8603 17.8586C30.9818 18.1685 31.1036 18.3129 31.3817 18.4767C31.6793 18.6519 31.8017 18.6545 31.9976 18.4897C32.2377 18.2876 32.276 18.0912 32.2544 17.1735L32.2352 16.3567L32.6151 16.2598C33.1522 16.1228 33.7138 15.8306 34.0255 15.5258C34.4899 15.0718 34.8077 14.2627 34.7337 13.7228L34.7012 13.4856L34.9337 13.6455C35.3303 13.9184 35.6407 14.0134 36.136 14.0134C36.4834 14.0134 36.6271 13.9899 36.8044 13.904C37.0001 13.8093 37.2242 13.5598 37.2248 13.436C37.2253 13.3469 37.0451 13.3357 36.905 13.4161C36.6885 13.5404 36.395 13.5738 36.1683 13.4999C35.8865 13.408 35.6159 13.2102 35.0691 12.6962C34.5018 12.163 34.3264 12.0476 33.9231 11.9425C33.5916 11.8562 33.6074 11.8568 33.2962 11.9181ZM24.1279 12.2044C24.0298 12.2731 24.0187 12.3135 24.0481 12.4962C24.0893 12.7524 24.3531 13.2415 24.6129 13.5436C24.7175 13.6653 24.9656 13.8789 25.1642 14.0184C25.702 14.3961 26.882 15.5363 27.0847 15.8742C27.2534 16.1555 27.3637 16.421 27.4598 16.7769C27.4864 16.8755 27.5248 17.3025 27.5453 17.7259C27.5888 18.625 27.6619 18.8377 27.9829 18.997C28.3803 19.1943 28.7723 18.9126 28.9798 18.2807C29.1098 17.8848 29.1188 17.4292 29.0092 16.8008C28.7798 15.485 28.0305 14.5967 26.58 13.9208C26.1811 13.7349 25.4036 13.2542 25.0996 13.0054C25.0032 12.9264 24.8106 12.7174 24.6718 12.5408C24.3632 12.1484 24.2807 12.0973 24.1279 12.2044ZM0.377081 12.8786C0.377081 12.9656 0.629745 13.5378 0.799092 13.8342C1.11993 14.396 1.44352 14.9076 1.54956 15.0208C1.69516 15.1763 2.23171 15.9868 2.37321 16.2652C2.53714 16.5876 3.08617 17.3784 3.54575 17.954C3.75926 18.2214 3.96162 18.5035 3.99544 18.5809C4.02927 18.6583 4.07912 18.7217 4.10624 18.7217C4.13332 18.7217 4.25154 18.8426 4.36889 18.9904C4.69207 19.3974 5.72622 20.4913 6.67101 21.4256C7.9612 22.7013 8.9369 23.3788 10.3567 23.9846C11.564 24.4998 13.117 24.9424 13.9903 25.0204C14.2859 25.0468 14.6544 25.0899 14.8092 25.1161C14.964 25.1424 15.5052 25.1565 16.0119 25.1474C17.0026 25.1297 17.2402 25.094 18.9034 24.7131C20.747 24.291 21.1001 24.1787 22.5388 23.5578C23.7852 23.0199 24.6909 22.786 25.7868 22.7192C26.1246 22.6987 26.4509 22.6546 26.512 22.6213C26.573 22.588 26.6498 22.4797 26.6826 22.3805C26.7333 22.2267 26.728 22.1758 26.6461 22.0346C26.5703 21.9037 26.4618 21.8337 26.1271 21.6994C25.4978 21.447 25.0682 21.3706 24.2771 21.3702C23.2308 21.3698 22.6812 21.5194 20.8481 22.3034C18.7266 23.2109 17.6697 23.4581 15.9607 23.4464C14.5224 23.4366 13.4844 23.2481 12.156 22.7553C11.159 22.3855 9.53507 21.5155 8.58429 20.8419C7.64124 20.1738 5.86584 18.6764 5.03425 17.8478C4.52585 17.3413 3.32983 16.0216 2.79001 15.3715C2.69563 15.2578 2.5225 15.0612 2.40525 14.9345C2.288 14.8079 1.94767 14.4164 1.64895 14.0645C1.00309 13.3038 0.976372 13.2747 0.696788 13.0282C0.485834 12.8421 0.377081 12.7913 0.377081 12.8786ZM33.4203 13.5898C33.4901 13.7566 33.491 13.809 33.4283 14.012C33.3664 14.2124 33.3292 14.2533 33.1526 14.315C32.9663 14.3801 32.9274 14.377 32.707 14.2795C32.4286 14.1563 32.4051 14.0669 32.5819 13.8046C32.7333 13.5798 33.0052 13.3992 33.1922 13.3992C33.3153 13.3992 33.3544 13.4319 33.4203 13.5898ZM67.9828 13.5055C66.3728 13.6403 64.9298 14.0457 63.9142 14.6486C63.6608 14.799 63.3088 14.9946 63.132 15.0834C62.6959 15.3023 62.223 15.5953 61.8609 15.8708C61.2113 16.3651 60.4278 17.2298 60.258 17.6395C60.138 17.9293 60.2913 18.1587 60.6051 18.1587C60.6532 18.1587 60.9569 17.9363 61.2798 17.6645C62.172 16.9135 63.6717 15.8067 64.0165 15.6446C64.4444 15.4436 65.3947 15.1638 66.0636 15.0419C66.9262 14.8847 67.538 14.8322 68.5068 14.8322C69.6569 14.8322 70.3521 14.9175 72.4096 15.311C75.5962 15.9205 77.7334 15.8994 79.0627 15.2452C79.6306 14.9657 80.0736 14.5101 79.9898 14.2916C79.9394 14.1602 79.3277 14.2209 78.7537 14.4143C77.8619 14.7147 77.6083 14.7546 76.5806 14.755C75.5167 14.7555 75.0681 14.6899 74.0729 14.3882C72.4671 13.9015 71.0014 13.6139 69.5518 13.5011C68.8539 13.4468 68.6767 13.4473 67.9828 13.5055ZM56.7365 13.9996C56.5018 14.0814 56.9009 14.6666 57.4455 15.0391C57.7532 15.2496 57.7881 15.3102 57.9437 15.9069C58.0879 16.4601 58.1709 17.0069 58.1714 17.4072C58.1717 17.6868 58.15 17.7832 58.0623 17.8934C57.7934 18.2314 57.6755 18.487 57.6544 18.7784C57.6352 19.0438 57.6466 19.0863 57.77 19.2097C57.9049 19.3446 58.0417 19.3602 58.26 19.2654C58.3221 19.2384 58.3508 19.3006 58.4028 19.5747C58.4726 19.9428 58.7439 20.5129 58.8492 20.5129C58.9676 20.5129 58.9923 20.3388 59.0128 19.3614L59.0331 18.389L59.2438 17.9673C59.4299 17.5947 59.4571 17.4943 59.4776 17.1039C59.5051 16.5796 59.4331 16.2055 59.2207 15.7688C58.9732 15.2598 58.5803 14.9065 57.952 14.6276C57.7971 14.5589 57.5093 14.3966 57.3122 14.2669C56.9162 14.0063 56.8308 13.9667 56.7365 13.9996ZM51.6767 15.6313C51.5845 15.9983 51.7819 16.8737 52.0739 17.3933C52.1362 17.504 52.1747 17.6071 52.1594 17.6223C52.1442 17.6375 51.9298 17.6147 51.6831 17.5717C50.6439 17.3905 48.7639 17.5532 47.8405 17.9043C47.7628 17.9339 47.4241 18.0387 47.0878 18.1374C46.2063 18.396 45.6393 18.6987 45.1447 19.1748C44.725 19.5788 44.8336 19.6431 45.4516 19.3565C46.7367 18.7605 47.4048 18.6074 48.7057 18.6106C49.2918 18.612 49.6827 18.6452 50.3009 18.746C50.7513 18.8194 51.4767 18.9344 51.913 19.0016C52.7119 19.1245 53.2192 19.2427 53.7762 19.4358C53.9424 19.4934 54.1219 19.5405 54.1748 19.5405C54.3862 19.5405 55.045 19.9666 55.7287 20.5454L55.9877 20.7645L55.6776 21.09C55.0831 21.714 54.6009 22.46 54.3851 23.0898C54.2611 23.4515 54.2422 23.5849 54.2422 24.0954C54.2421 24.5721 54.2603 24.7179 54.3378 24.863C54.6554 25.4578 55.1219 25.7574 55.7239 25.7533C55.9356 25.7519 56.1618 25.7172 56.2728 25.6691C56.7493 25.4627 57.1602 24.8606 57.2201 24.281C57.2848 23.6536 56.9223 23.0711 56.2593 22.7373C56.0685 22.6412 55.8989 22.5406 55.8823 22.5139C55.8448 22.4531 56.0163 22.0111 56.1769 21.7544C56.3339 21.5035 56.37 21.3503 56.3095 21.1912C56.2824 21.12 56.2701 21.0518 56.2821 21.0398C56.3346 20.9872 56.5173 21.2626 56.6226 21.553C56.6856 21.7269 56.858 22.0764 57.0058 22.3297C57.4901 23.16 57.747 23.856 57.9438 24.8705C58.1771 26.074 58.1434 26.3513 57.5513 28.0934C57.4402 28.4205 57.3331 28.8053 57.3135 28.9485C57.2814 29.1815 57.2907 29.2218 57.4024 29.3335C57.5508 29.482 57.5207 29.5645 57.2589 29.7263C56.8753 29.9633 56.6137 29.777 55.8973 28.7568C54.9365 27.3887 54.2219 26.9567 52.9216 26.9579C51.7217 26.959 49.2909 27.2731 48.8859 27.4793C48.8396 27.5029 48.5376 27.5899 48.2148 27.6725C47.5967 27.8308 47.1747 28.0179 46.6673 28.3586C46.1156 28.7289 45.9507 28.8754 44.2619 30.4942C43.2826 31.433 42.8439 31.6566 42.043 31.6252C41.7718 31.6146 41.199 31.0287 40.8983 30.4545C40.6751 30.0282 40.4315 29.3532 40.3715 28.9948C40.3563 28.9038 40.3224 28.7026 40.2963 28.5478C40.2702 28.393 40.2122 27.7068 40.1674 27.0229C40.1226 26.339 40.0731 25.746 40.0574 25.7051C40.0002 25.5562 39.8779 25.6367 39.7624 25.8994C39.4896 26.5194 39.3469 27.5422 39.4071 28.4455C39.4492 29.0777 39.6308 29.9662 39.8081 30.4085C40.2605 31.5365 41.1516 32.6319 41.928 33.014C42.2338 33.1645 42.3054 33.1791 42.7256 33.1763C43.1302 33.1735 43.2414 33.1511 43.6264 32.995C44.8452 32.5009 45.7431 31.7736 47.1006 30.1811C47.5516 29.6521 48.1283 29.0964 48.4585 28.8726C49.0328 28.4835 49.1811 28.4279 49.6868 28.4122C49.9401 28.4043 50.988 28.3717 52.0154 28.3396C53.4412 28.2951 53.9197 28.2955 54.0368 28.3414C54.3708 28.4721 54.7169 28.8104 55.1842 29.4632C56.0584 30.6843 56.7046 31.1818 57.4123 31.1787C57.9198 31.1765 58.3564 30.8363 58.687 30.1855C58.7942 29.9744 59.004 29.6738 59.1531 29.5174C59.6709 28.9745 59.8967 28.3186 59.8967 27.3574C59.8967 26.7277 59.8003 26.2914 59.5947 25.991C59.5391 25.9096 59.482 25.66 59.4423 25.3236C59.2549 23.7381 58.6765 22.441 57.514 20.9991C56.8979 20.2349 56.2586 19.7116 54.4207 18.4668C53.1673 17.6179 52.8613 17.2928 52.3205 16.2357C52.1501 15.9028 51.9859 15.6005 51.9556 15.5639C51.8612 15.4502 51.7131 15.4859 51.6767 15.6313ZM78.7896 16.5718C78.2015 16.7834 77.3744 17.3168 76.6641 17.9425C76.4634 18.1193 76.0343 18.4879 75.7106 18.7615C75.3869 19.0351 74.4877 19.882 73.7123 20.6436C72.6015 21.7346 72.1348 22.1536 71.5116 22.6196C69.1856 24.359 67.7253 25.1548 66.4115 25.399C65.7556 25.5209 64.7191 25.5939 64.1723 25.5568C63.0173 25.4783 61.8021 25.1453 61.0724 24.7073C60.8886 24.597 60.6659 24.4923 60.5774 24.4746C60.4184 24.4428 60.416 24.4453 60.3798 24.6868C60.3512 24.8775 60.3638 24.9695 60.4373 25.106C60.6052 25.4178 61.3277 26.0443 61.8831 26.3598C63.3665 27.2024 64.48 27.3682 66.4143 27.0345C67.6537 26.8207 69.5478 26.0331 70.814 25.2051C71.4161 24.8114 72.3438 24.0209 73.234 23.1432C74.3612 22.0318 75.0127 21.2777 75.8379 20.1291C76.6715 18.9689 77.3128 18.2578 78.1869 17.5245C78.8666 16.9543 79.1907 16.6367 79.1907 16.5406C79.1907 16.4478 79.1187 16.4535 78.7896 16.5718ZM70.6433 17.0078C69.5842 17.7204 69.2449 17.8765 68.1206 18.1686C67.5009 18.3296 67.4885 18.3307 66.3364 18.3211C65.1987 18.3116 65.1692 18.314 64.8139 18.4457C64.6146 18.5196 64.4515 18.6006 64.4515 18.6257C64.4515 18.665 64.7185 18.8038 65.2192 19.0249C65.3186 19.0688 65.2101 19.0766 64.733 19.0601C64.3952 19.0483 63.9231 19.0603 63.6839 19.0866C63.2827 19.1308 62.5403 19.3401 62.4373 19.4381C62.3735 19.4988 62.5301 19.565 62.989 19.671C63.2665 19.7351 63.3715 19.7786 63.3216 19.8089C63.2816 19.8332 63.0056 19.9958 62.7083 20.1702C61.951 20.6145 61.4876 21.1557 61.7712 21.2646C61.8226 21.2843 62.2008 21.1193 62.7564 20.8347C63.7838 20.3086 64.4257 20.0732 65.4495 19.8472C67.8728 19.3121 68.7782 19.0001 69.9019 18.3126C70.7631 17.7857 71.1457 17.3997 71.3096 16.8925C71.3686 16.7098 71.407 16.5505 71.395 16.5385C71.383 16.5265 71.0447 16.7376 70.6433 17.0078ZM29.337 19.2974C29.2931 19.4017 29.2673 19.6547 29.2679 19.9755C29.2689 20.4553 29.2794 20.5065 29.4358 20.7944C29.5275 20.9633 29.7751 21.2972 29.9859 21.5365C30.4695 22.0851 30.7868 22.5877 30.9391 23.0462C31.0422 23.3567 31.0578 23.5034 31.0562 24.1465C31.0544 24.8672 31.0492 24.9019 30.8777 25.3492C30.721 25.7582 30.7017 25.862 30.7055 26.275C30.7094 26.6877 30.7289 26.7814 30.8779 27.1048C30.9703 27.3053 31.0872 27.5067 31.1376 27.5523C31.2228 27.6294 31.2349 27.6266 31.3101 27.5117C31.4298 27.3291 31.5324 26.9415 31.5943 26.438C31.6245 26.1924 31.6927 25.8469 31.7458 25.6703C31.9155 25.1061 31.9704 24.6488 31.939 24.0612C31.9046 23.4196 31.8044 22.99 31.5687 22.4743C31.3348 21.9624 31.1462 21.7047 30.54 21.0692C29.9471 20.4477 29.8514 20.2909 29.7321 19.7453C29.686 19.5341 29.639 19.3269 29.6278 19.2847C29.6166 19.2424 29.6056 19.1906 29.6035 19.1695C29.6013 19.1484 29.5563 19.1311 29.5034 19.1311C29.4434 19.1311 29.3808 19.1937 29.337 19.2974ZM43.3812 20.1004C42.6012 20.4694 41.3934 21.9503 40.9882 23.0346C40.8065 23.5206 40.8158 23.9418 41.0081 23.9418C41.1268 23.9418 41.3001 23.7455 41.6648 23.1977C42.2636 22.298 43.0306 21.4458 43.6723 20.9672C44.2161 20.5615 44.3258 20.2062 43.9605 20.0328C43.7361 19.9263 43.7533 19.9243 43.3812 20.1004ZM44.9017 20.5897C44.9017 20.7193 45.0996 20.8739 45.4982 21.0556L45.8793 21.2292L45.6463 21.5558C45.3397 21.9853 45.2566 22.2369 45.2553 22.7379C45.2524 23.9004 46.1579 25.2116 47.1997 25.5534C47.5552 25.67 48.1834 25.6366 48.5872 25.4796C48.9904 25.3227 49.5207 24.9153 49.7362 24.5968C50.0685 24.1056 50.1898 23.5076 50.0665 22.9694C49.9769 22.579 49.673 22.0156 49.3827 21.7021C48.911 21.1926 48.5457 21.048 47.2814 20.8707C46.8592 20.8114 46.2048 20.7067 45.8273 20.6379C45.0221 20.4913 44.9017 20.485 44.9017 20.5897ZM48.1116 22.0401C48.6255 22.3044 48.8423 22.6208 48.8423 23.1065C48.8423 23.4486 48.768 23.5895 48.5374 23.6851C48.3952 23.7439 48.3656 23.7371 48.1899 23.6049C47.8094 23.3186 47.3452 22.8369 47.2321 22.6112C47.1072 22.3617 47.0295 21.9852 47.0902 21.9229C47.1675 21.8433 47.8904 21.9263 48.1116 22.0401ZM26.8721 23.2574C26.8025 23.327 27.007 23.5918 27.4218 23.9694C28.1807 24.6603 28.3005 24.925 28.4266 26.1901C28.4786 26.712 28.477 26.9968 28.4178 27.7766C28.3297 28.9374 28.3299 30.2079 28.4183 30.8252C28.5954 32.0619 28.9231 33.4641 29.2257 34.2797C29.4667 34.9295 30.0343 36.0638 30.3596 36.5459C30.5735 36.8629 30.6234 36.9776 30.6247 37.1561C30.6268 37.4426 30.7447 38.2527 30.8503 38.7066C31.0245 39.4555 31.3432 40.2683 31.8696 41.3068C32.4459 42.4435 32.7029 42.8435 33.1947 43.3692C33.5821 43.7833 34.7068 44.5428 34.7979 44.4518C34.8552 44.3944 34.2213 43.3289 33.8854 42.9181C33.1626 42.0343 32.7253 41.2336 32.4207 40.2364C32.2454 39.6623 32.0252 38.5924 32.0727 38.5449C32.09 38.5276 32.263 38.6418 32.4572 38.7986C33.2276 39.4211 34.0507 39.8813 34.9409 40.1873C35.4145 40.3501 36.1558 40.5207 36.3967 40.5223C36.6004 40.5236 36.7042 40.575 36.9279 40.7854C37.1801 41.0227 37.8841 41.4743 38.2755 41.6499C38.8158 41.8923 39.9094 42.2394 40.6795 42.413C41.5495 42.609 43.1263 42.561 44.1596 42.307C45.0749 42.0819 45.2467 42.0074 45.0168 41.9351C44.7082 41.838 43.9225 41.7441 43.0593 41.7012C41.191 41.6084 40.5579 41.5112 39.7071 41.1868C39.0218 40.9255 38.4021 40.634 38.4021 40.573C38.4021 40.5457 38.5345 40.5234 38.6964 40.5234C38.8582 40.5234 39.1749 40.488 39.4001 40.4448C39.6252 40.4016 40.0628 40.3308 40.3724 40.2876C41.79 40.0896 42.5712 39.7225 43.026 39.0406C43.1885 38.7971 43.1441 38.732 42.8162 38.7334C42.4668 38.7348 42.3266 38.7675 41.6519 39.0044C40.5424 39.394 39.3737 39.4617 37.5321 39.243C36.6043 39.1327 35.7941 38.8588 34.722 38.2928C33.1567 37.4662 32.331 36.6841 31.1879 34.945C30.5599 33.9896 30.2316 33.1685 29.98 31.9242C29.8468 31.2648 29.839 31.1404 29.802 29.0852C29.7807 27.903 29.7374 26.7745 29.7057 26.5775C29.463 25.0674 28.7364 23.928 27.685 23.4084C27.3396 23.2377 26.9619 23.1676 26.8721 23.2574ZM24.8912 23.8051C24.8912 23.8424 24.9517 24.0209 25.0257 24.2017C25.2119 24.6566 25.2957 25.4349 25.2983 26.731C25.3006 27.9603 25.2208 28.9221 24.9733 30.6461C24.899 31.1638 24.7742 32.4768 24.7083 33.4353C24.6602 34.1344 24.821 35.5826 25.0492 36.5059C25.4011 37.93 25.973 39.2652 26.7058 40.3743C27.0678 40.9221 27.4174 41.2912 29.3195 43.1334C31.8877 45.6207 33.9863 47.7329 34.4806 48.328C35.02 48.9773 35.926 50.2681 36.1487 50.7047C36.2099 50.8247 36.4285 51.1824 36.6345 51.4997C37.1908 52.3565 37.2463 52.3549 37.0727 51.4872C36.7691 49.9697 36.2824 48.9706 35.1097 47.458C34.6046 46.8063 33.2561 45.4033 32.5422 44.7867C30.3901 42.9277 30.0002 42.531 29.0813 41.2655C27.7798 39.473 26.8841 37.0968 26.4771 34.3565C26.2939 33.1231 26.2587 32.3663 26.3057 30.6717C26.3925 27.5439 26.3413 26.4167 26.0627 25.3277C25.9493 24.8842 25.727 24.3825 25.5282 24.122C25.306 23.8307 24.8912 23.6243 24.8912 23.8051ZM57.824 31.7692C57.6715 31.8316 57.5838 31.9531 57.3045 32.4885C56.9101 33.2447 56.5866 33.7067 56.1374 34.1549C55.5951 34.6962 55.2549 34.8703 54.7534 34.8632C54.4383 34.8587 54.3119 34.823 53.7042 34.5657C51.9349 33.8169 51.5173 33.8701 49.6458 35.0837C48.5202 35.8137 48.0776 35.8881 47.0039 35.5278C46.2748 35.2832 45.9053 34.9271 45.2845 33.8703C45.0778 33.5184 44.8504 33.1327 44.7792 33.0131C44.6902 32.8636 44.6149 32.7956 44.5385 32.7956C44.4327 32.7956 44.4286 32.8124 44.4536 33.141C44.486 33.5657 44.6278 33.9837 44.9849 34.7077C45.4283 35.6064 45.9953 36.3006 46.6374 36.7307C47.2605 37.1481 47.6843 37.2715 48.3695 37.2353C48.9393 37.2053 49.3765 37.0674 49.98 36.7272C50.3107 36.5408 50.5122 36.3983 51.3962 35.7249C51.7663 35.443 52.0079 35.34 52.2296 35.3697C52.3377 35.3842 52.7194 35.5573 53.0779 35.7544C53.9141 36.214 54.2701 36.333 54.8158 36.3353C55.2041 36.3369 55.2691 36.3212 55.6602 36.1317C55.9779 35.9777 56.1615 35.8451 56.3935 35.602C57.1347 34.8255 57.8308 33.7085 58.2805 32.5741C58.4399 32.172 58.4253 31.9833 58.2226 31.8238C58.0835 31.7144 57.9894 31.7015 57.824 31.7692ZM54.532 36.8736C54.4054 36.936 54.2261 37.1621 53.8329 37.7553C53.045 38.9436 53.008 38.9767 50.3071 40.9105C49.3024 41.6298 48.7047 42.1383 48.2727 42.6412C48.0669 42.8807 47.8896 43.0678 47.8787 43.0569C47.83 43.0082 48.6203 41.8224 49.0216 41.3421C49.1271 41.2158 49.4442 40.8659 49.7264 40.5644C50.1751 40.0851 50.8383 39.2002 50.8383 39.0808C50.8383 39.058 50.813 39.0392 50.7822 39.0392C50.7118 39.0392 49.9096 39.4708 49.6345 39.6566C49.2546 39.9134 48.4351 40.7348 48.0622 41.2327C47.8589 41.504 47.5815 41.8642 47.4457 42.0331C46.245 43.5261 45.4031 45.6755 44.9198 48.4815C44.7401 49.5244 44.7164 50.6945 44.8672 51.066C44.9187 51.1926 45.025 51.4765 45.1035 51.6967C45.1821 51.917 45.2916 52.1588 45.3471 52.2341C45.4024 52.3094 45.4644 52.438 45.4848 52.5197C45.5449 52.7614 45.6419 52.5928 45.7914 51.9872C45.9167 51.4798 45.9457 51.2947 46.0758 50.1704C46.2385 48.7658 47.1039 46.4475 47.9825 45.0626C48.3219 44.5276 48.6092 44.1448 49.1038 43.5685C49.8129 42.7421 50.2529 42.3576 51.5364 41.4425C52.7063 40.6085 53.1267 40.2718 53.5348 39.8422C54.1219 39.2241 54.5365 38.5375 54.8043 37.7396C54.9519 37.2999 54.9657 37.0623 54.8528 36.9012C54.7583 36.7663 54.751 36.7657 54.532 36.8736Z" fill="#1F2400"/>
</svg>
