<svg width="70" height="54" viewBox="0 0 70 54" fill="none" xmlns="http://www.w3.org/2000/svg">
<path fill-rule="evenodd" clip-rule="evenodd" d="M31.2289 0.16175C31.1039 0.25733 31.0124 0.371793 30.9959 0.453283C30.981 0.527074 30.9536 0.596798 30.9351 0.608225C30.9166 0.619652 30.7649 0.586534 30.5981 0.53458C30.4312 0.482674 30.1677 0.440161 30.0124 0.440161C29.5231 0.440161 29.2865 0.661292 29.2865 1.11881V1.37093L29.1174 1.33921C28.8935 1.29718 28.2256 1.29719 28.0478 1.33916C27.8112 1.39509 27.6032 1.54834 27.5477 1.70759C27.4757 1.9141 27.4844 2.18282 27.5676 2.32852C27.7351 2.62141 27.6209 2.67578 26.647 2.76638C25.8551 2.84007 25.6098 2.98281 25.61 3.36953C25.6101 3.59188 25.7047 3.72145 26.053 3.97676C26.3035 4.16032 26.327 4.20433 26.1998 4.25106C26.1532 4.26815 25.9625 4.38436 25.7761 4.50923C25.1799 4.90869 24.8781 5.33139 24.9462 5.67173C24.9616 5.74872 24.9423 5.88642 24.903 5.9806C24.819 6.18164 24.8114 6.41221 24.8844 6.54856C24.9229 6.62046 24.9205 6.70219 24.8754 6.85486L24.8139 7.06316L24.5282 7.09545C24.371 7.11327 24.1082 7.16891 23.9441 7.21912C23.7799 7.26933 23.4387 7.35464 23.1857 7.40873C22.9327 7.46277 22.4751 7.57481 22.1689 7.65765C21.6593 7.79555 21.5716 7.80572 21.1356 7.77739C20.4656 7.73386 19.6539 7.5091 18.8522 7.14513C18.2426 6.86837 16.2852 6.03565 15.8744 5.87834C14.1873 5.23228 13.7307 5.12062 11.2503 4.74755C10.5973 4.64936 9.99232 4.49248 9.63102 4.32766C9.53631 4.28447 8.61992 3.83644 7.59464 3.33211C4.34914 1.73552 4.03679 1.62406 2.82533 1.62949C2.21632 1.6322 2.1081 1.64605 1.76011 1.76579C0.841738 2.08177 0.37299 2.54805 0.134137 3.38319C-0.00608528 3.87343 -0.0473876 5.39119 0.0632991 5.98418C0.210155 6.7708 0.639394 7.88692 1.10529 8.69368C1.58609 9.5262 2.43866 10.7511 3.06138 11.504C3.99612 12.6342 6.59958 14.6281 8.14498 15.3973C9.10025 15.8728 10.925 16.4383 12.1703 16.6447C12.589 16.7141 12.9721 16.733 13.9618 16.7334L15.2207 16.7338L15.7775 16.9466C16.8188 17.3446 17.0781 17.5218 17.2975 17.9855C17.4231 18.2509 17.4865 18.4782 17.7656 19.6627C17.9666 20.5157 18.1842 21.1093 18.5421 21.7816C19.0363 22.7096 19.1372 23.059 19.3085 24.4352C19.5101 26.0549 19.7138 27.068 19.9729 27.7401C20.0975 28.0633 20.1581 28.3187 20.4231 29.6371C20.6383 30.7073 20.7821 31.6151 20.9599 33.0264C20.9918 33.2794 21.0262 33.53 21.0364 33.5832C21.0465 33.6365 21.0671 33.7563 21.0822 33.8495C21.2418 34.8398 21.5621 35.7014 21.9748 36.2503C22.3574 36.7593 22.9617 38.1104 23.1532 38.8852C23.2224 39.1648 23.3445 39.7204 23.4246 40.1198C23.7834 41.9091 24.2433 43.131 24.9554 44.1871C25.3492 44.7711 25.5492 45.0141 26.3106 45.8333C27.2004 46.7907 27.5132 47.1756 28.0054 47.9188C28.2536 48.2936 28.5889 48.7461 28.7505 48.9245C28.9122 49.1029 29.0444 49.2741 29.0444 49.305C29.0444 49.4052 29.3555 49.8181 29.4923 49.8995C29.5655 49.943 29.6255 50.0075 29.6255 50.0426C29.6255 50.0778 29.6595 50.1349 29.7011 50.1694C29.7677 50.2246 29.7727 50.2156 29.7423 50.0947C29.7129 49.9773 29.72 49.962 29.7916 49.9895C29.8377 50.0071 29.9064 50.0216 29.9442 50.0216C29.9886 50.0216 30.0141 50.0771 30.0165 50.179C30.0226 50.4403 30.1306 50.6757 30.2426 50.672C30.3103 50.6698 30.3647 50.7225 30.4174 50.8415C30.5197 51.0724 30.6452 51.1408 31.0514 51.1867C31.4383 51.2304 31.7962 51.4075 32.2014 51.7559C32.3352 51.871 32.5184 52.0003 32.6086 52.0434C32.7515 52.1115 32.7727 52.1448 32.7727 52.3009C32.7727 52.5628 32.8941 52.681 33.247 52.7625C33.5447 52.8312 33.7411 52.8009 33.7411 52.6861C33.7411 52.4844 33.5087 52.245 33.2889 52.2203C33.2314 52.2138 33.168 52.2067 33.148 52.2045C33.128 52.2023 33.1117 52.1618 33.1117 52.1144C33.1117 51.97 32.9676 51.8003 32.8957 51.86C32.8478 51.8997 32.8271 51.87 32.8045 51.7287C32.7594 51.4463 32.5476 51.167 32.2108 50.9455C31.7795 50.662 31.5905 50.594 31.2408 50.5967C30.946 50.599 30.7875 50.5316 30.7875 50.4039C30.7875 50.3784 30.7398 50.3398 30.6815 50.3182C30.5872 50.2833 30.5769 50.2487 30.5882 50.0049C30.5996 49.7597 30.5863 49.7162 30.4633 49.5931C30.3837 49.5135 30.2446 49.4404 30.133 49.4195C29.8878 49.3737 29.8191 49.3156 29.8191 49.1536C29.8191 48.9258 29.5679 48.6025 29.2203 48.383C29.0437 48.2714 28.8992 48.162 28.8992 48.1398C28.8992 48.0668 28.4119 47.1968 28.1633 46.8259C27.7963 46.2784 27.5676 45.9827 27.0584 45.3976C25.9492 44.1231 25.6098 43.6049 25.1557 42.4924C24.9202 41.9154 24.5548 40.7232 24.2504 39.5388C24.192 39.3119 23.919 38.4459 23.8382 38.2315L23.8017 38.1347L23.9011 38.2315C23.9558 38.2848 24.0435 38.4046 24.096 38.4978C24.1486 38.591 24.3095 38.8743 24.4538 39.1273C24.5981 39.3802 24.7803 39.7166 24.8588 39.8746C25.0145 40.1884 25.5251 40.7735 25.6431 40.7735C25.7056 40.7735 25.7129 40.7086 25.6907 40.3498C25.6659 39.9508 25.4727 39.2758 25.1884 38.5954C25.1493 38.5018 25.1187 38.4196 25.1204 38.4128C25.1292 38.3781 24.7996 37.7673 24.6698 37.5778C24.5878 37.458 24.1481 36.9895 23.6928 36.5368C22.466 35.317 22.4481 35.2716 22.0726 32.4454C22.0177 32.0326 21.9283 31.4803 21.8739 31.218C21.7708 30.721 21.7842 30.5965 21.9196 30.7953C22.0214 30.9449 22.4451 31.3807 22.61 31.5056C22.6795 31.5582 22.8284 31.764 22.941 31.9628C23.1733 32.3731 23.6274 33.0244 23.682 33.0256C23.7439 33.027 23.7219 32.8282 23.6016 32.3001C23.3615 31.246 22.9911 30.5121 22.0741 29.2739C21.5052 28.5057 21.1981 27.9742 21.0387 27.4824C20.9955 27.3492 20.8833 26.7718 20.7893 26.1993C20.3503 23.5262 20.1793 22.7351 19.8661 21.9279C19.7701 21.6806 19.6414 21.3912 19.58 21.2847C19.269 20.7451 19.0172 20.1707 18.9007 19.7353C18.8294 19.469 18.7107 19.0441 18.6368 18.7911C18.5629 18.5381 18.4656 18.1786 18.4205 17.9922C18.3718 17.7908 18.2708 17.5536 18.1717 17.4076C18.0697 17.2575 18.0048 17.1033 18.0048 17.011C18.0048 16.8639 17.9153 16.7373 17.9006 16.8636C17.8965 16.8984 17.8882 16.9488 17.882 16.9754C17.8758 17.002 17.8682 17.0405 17.8651 17.0609C17.8577 17.1103 17.3754 16.8645 17.3754 16.8113C17.3754 16.7885 17.4665 16.7553 17.5779 16.7375C17.6892 16.7197 17.9195 16.6494 18.0896 16.5814C18.2597 16.5133 18.4064 16.4652 18.4155 16.4744C18.4614 16.5209 18.5178 17.0015 18.4838 17.0565C18.4154 17.1672 18.4773 17.7894 18.5836 18.0591C18.7844 18.5686 19.0453 18.8648 19.4575 19.0511C20.0998 19.3415 20.6583 19.3245 21.1388 19.0002C21.406 18.8198 21.6578 18.491 21.7097 18.2548C21.7268 18.1769 21.756 18.1132 21.7745 18.1132C21.793 18.1132 21.9033 18.244 22.0197 18.4038C22.324 18.8217 22.3626 18.7978 22.3626 18.1921C22.3626 17.6431 22.2426 17.1645 21.9927 16.7166C21.6631 16.1259 20.9492 15.5748 20.291 15.4029C19.9706 15.3192 19.469 15.3364 19.1427 15.4423C18.9829 15.4942 18.4863 15.7241 18.0391 15.9533C17.5919 16.1826 17.1715 16.3701 17.1048 16.3701C17.0352 16.3701 16.7883 16.2368 16.525 16.0571C16.2729 15.8849 15.9851 15.7235 15.8857 15.6983C15.7862 15.6731 15.0403 15.641 14.2281 15.627C12.2151 15.5922 11.6211 15.4945 10.2577 14.9739C9.57969 14.715 8.93257 14.4242 7.84444 13.8896C7.34756 13.6455 6.91396 13.4476 6.88099 13.4499C6.84797 13.4522 6.82967 13.4399 6.84032 13.4227C6.85097 13.4055 6.63759 13.254 6.36615 13.086C5.72619 12.6902 5.16017 12.2453 4.34546 11.4979C3.64193 10.8526 3.34197 10.5157 2.87288 9.84413C2.71068 9.61195 2.49415 9.30314 2.39174 9.15788C2.13763 8.79754 1.58715 7.87777 1.44858 7.58202C1.16005 6.96627 1.05362 6.70742 0.936156 6.33585C0.781311 5.84604 0.684375 5.39569 0.645639 4.98645C0.629564 4.81616 0.609277 4.6004 0.60061 4.50696C0.541199 3.86704 0.907637 3.05166 1.34482 2.85106C1.98841 2.5558 3.32832 2.80366 4.46104 3.42744C5.27497 3.87571 6.31187 4.61018 7.69148 5.71589C8.91252 6.69444 9.24424 6.8399 11.0082 7.17046C11.8132 7.32128 12.0621 7.43439 12.809 7.98889C13.1082 8.21099 13.2519 8.3806 13.0787 8.30715C13.0318 8.28725 12.7755 8.21559 12.5092 8.1479C11.6202 7.92197 10.3357 7.98419 9.28932 8.30395C8.99697 8.39329 8.07327 8.74559 7.7278 8.89956C7.34093 9.07193 7.36925 9.12776 7.82464 9.09019C8.031 9.07314 8.46135 9.03799 8.78092 9.01199C9.10049 8.98604 9.66699 8.91975 10.0398 8.8647C11.3422 8.67228 11.7196 8.68361 13.4534 8.9673C14.2365 9.09542 14.4192 9.14345 14.906 9.34894C15.4977 9.59874 15.7808 9.68817 16.7459 9.93012C17.5536 10.1326 17.713 10.2092 17.9497 10.5087C18.1737 10.7921 18.2353 10.971 18.2784 11.4632C18.3074 11.7936 18.3004 11.8271 18.1296 12.1773C18.0312 12.3794 17.9006 12.7463 17.8395 12.9927C17.7785 13.2391 17.6763 13.5824 17.6125 13.7555C17.4548 14.1831 17.4443 14.9972 17.5929 15.2734C17.6479 15.3758 17.7199 15.4469 17.7606 15.439C17.8566 15.4205 18.0433 15.1363 18.1001 14.922C18.1254 14.8263 18.2132 14.5084 18.2952 14.2155C18.3772 13.9225 18.4958 13.4848 18.5587 13.2428C18.7009 12.6961 18.8203 12.459 19.3577 11.6564C19.9064 10.8372 20.0499 10.4679 19.8759 10.3235C19.8256 10.2817 19.7684 10.2974 19.6317 10.3902C19.5335 10.4569 19.4451 10.5114 19.4353 10.5114C19.4256 10.5114 19.2993 10.397 19.1547 10.2572C18.6567 9.77571 18.0477 9.49943 16.7383 9.16103C15.5235 8.84708 15.0133 8.63277 14.2523 8.11677C13.986 7.93621 13.7572 7.77376 13.7439 7.75575C13.6591 7.64119 12.7852 7.03929 12.4741 6.8812C12.0074 6.64404 11.6341 6.53403 10.7419 6.37091C9.4799 6.14014 9.25867 6.034 7.83911 4.97822C7.37177 4.63067 6.91314 4.29004 6.81993 4.22128C6.46415 3.95885 6.19097 3.7811 6.14322 3.7811C6.11596 3.7811 6.09364 3.76299 6.09364 3.74086C6.09364 3.71873 6.03922 3.67148 5.97269 3.63589C5.90612 3.60025 5.86055 3.56229 5.87135 3.55149C5.90873 3.51411 6.21944 3.70217 7.27992 4.40401C8.47675 5.19606 9.1324 5.55582 9.70089 5.73235C10.0808 5.85035 10.2406 5.88008 11.8541 6.13278C13.6736 6.41773 15.6102 7.07778 17.2776 7.98109C18.6646 8.73261 19.3664 8.972 20.2079 8.98066C20.6848 8.9856 20.8241 8.96493 21.5394 8.78277C21.9788 8.67088 22.5562 8.51177 22.8225 8.42922C23.0888 8.34666 23.5246 8.24672 23.7909 8.20721C24.3978 8.1171 24.3778 8.1233 24.9237 7.85782C25.4321 7.61068 25.7896 7.29877 26.0171 6.90415C26.1329 6.70326 26.1573 6.60439 26.1603 6.32312C26.1633 6.04364 26.1872 5.9452 26.2968 5.76203C26.3824 5.6191 26.4298 5.47113 26.4298 5.34698C26.4298 5.15674 26.4349 5.15127 26.805 4.94433C27.0114 4.82894 27.2699 4.68426 27.3794 4.62282C27.489 4.56138 27.6489 4.43098 27.7349 4.33303C27.8953 4.1503 27.9117 4.01095 27.8096 3.69636C27.7785 3.60064 27.791 3.58728 27.913 3.58636C28.1061 3.58486 28.435 3.42676 28.5295 3.29003C28.5729 3.22723 28.7119 3.11945 28.8385 3.05045C29.1135 2.90059 29.2002 2.75824 29.1748 2.49799L29.1559 2.30431H29.5018C29.7389 2.30431 29.8852 2.27966 29.9673 2.22592C30.0331 2.18282 30.1579 2.13194 30.2447 2.11286C30.4239 2.07354 30.6907 1.86853 30.6907 1.77024C30.6907 1.65379 30.7724 1.64939 31.0071 1.7532C31.1882 1.83333 31.3001 1.84984 31.5329 1.83076C31.6955 1.81745 31.8642 1.79193 31.9077 1.77402C32.0636 1.70981 32.9398 2.9189 33.3123 3.71234C33.5591 4.23794 33.6459 4.5838 33.6761 5.16105C33.6965 5.54913 33.6814 5.72974 33.6003 6.0708C33.5446 6.30486 33.499 6.60284 33.499 6.73304C33.499 6.93107 33.5198 6.98612 33.6266 7.07008C33.7695 7.18246 33.9209 7.19665 34.0358 7.10838C34.133 7.03372 34.3321 6.71357 34.4187 6.49258C34.4553 6.39938 34.5672 6.20071 34.6675 6.0511C34.7677 5.90148 35.0057 5.52018 35.1964 5.20376C35.387 4.88734 35.5489 4.622 35.5561 4.61416C35.5633 4.60631 35.6356 4.66621 35.7167 4.74731C35.9664 4.99706 36.1539 4.96239 36.8859 4.53121C37.2254 4.33124 37.6319 4.11534 37.7892 4.05137C38.0732 3.93599 38.8192 3.75907 38.8581 3.7979C38.8692 3.80904 38.7669 3.93251 38.6308 4.07229C38.1121 4.60481 38.1265 4.69806 38.7143 4.61488C38.9217 4.58554 39.2984 4.48081 39.5514 4.38218C40.1777 4.138 40.4986 4.07529 41.1329 4.07331C41.7964 4.07123 42.2409 4.15306 43.0283 4.42222C43.6311 4.62825 43.7626 4.71264 43.5742 4.77244C43.1874 4.89523 43.1643 5.71192 43.5421 5.90777C43.8755 6.08058 44.739 6.30036 45.2012 6.32999L45.6942 6.36166L45.5268 6.58095C45.3204 6.85123 45.2844 6.98366 45.3646 7.17733C45.4565 7.39914 45.6913 7.48451 46.0036 7.4096C46.2681 7.34612 46.5947 7.36743 47.1865 7.48668C47.8018 7.61073 47.7945 7.59485 47.3428 7.82886C46.8971 8.05968 46.5556 8.31495 46.5989 8.38482C46.6427 8.4558 47.6771 8.43633 48.049 8.35756C48.2355 8.31809 48.4187 8.28541 48.4563 8.28493C48.5575 8.28372 49.462 9.23385 49.7795 9.67495C49.931 9.88528 50.1779 10.263 50.3282 10.5143C50.6283 11.0163 50.7397 11.1609 51.2955 11.7703C51.502 11.9967 51.7275 12.3017 51.7967 12.4482C51.9195 12.7079 51.9223 12.736 51.9107 13.586C51.9005 14.337 51.913 14.5145 52.0011 14.8691C52.1289 15.3836 52.2015 15.5263 52.3971 15.647C52.7962 15.8934 52.9583 15.6304 52.8378 14.9319C52.6804 14.02 52.6843 13.9954 52.9562 14.1833C53.1517 14.3185 53.7783 14.6006 53.9804 14.6445C54.047 14.6589 54.2976 14.7151 54.5372 14.7693C55.8197 15.0595 57.3266 14.9915 58.2269 14.6028C58.7455 14.379 59.1636 14.1609 59.4722 13.9533C59.6607 13.8265 59.9784 13.6125 60.1781 13.4778C60.4501 13.2942 60.6991 13.1812 61.1707 13.0275C62.2861 12.6638 63.0876 12.2389 64.1001 11.4742C65.3582 10.5239 66.2214 9.45343 67.0377 7.83119C67.1563 7.59538 67.2397 7.38878 67.223 7.37207C67.1747 7.3238 65.967 8.5768 65.4572 9.20407C65.1426 9.59114 64.537 10.1707 63.9548 10.6416C62.9074 11.4891 61.936 12.0483 60.977 12.3556C60.2739 12.581 60.1413 12.6457 59.4106 13.12C58.2356 13.8826 57.7679 14.0516 56.8149 14.0576C56.0814 14.0623 55.6229 13.9906 54.8278 13.7469C54.1385 13.5356 53.278 13.1049 53.0835 12.8738C52.7765 12.5089 52.9337 11.6518 53.4446 10.9058C53.7615 10.4429 53.9225 10.3185 54.2676 10.2698C54.6298 10.2186 54.7885 10.1235 54.8809 9.90233C54.9365 9.76917 54.9393 9.69349 54.8951 9.51792C54.8648 9.39765 54.8209 9.28745 54.7976 9.27302C54.7151 9.22203 54.7573 9.16064 54.9488 9.053C55.1471 8.94154 55.2964 8.70332 55.3587 8.39915C55.4042 8.17651 55.5414 8.08045 56.1593 7.83816C57.3338 7.37769 57.9727 7.21495 59.5486 6.97484C59.9082 6.92008 60.3004 6.85602 60.4202 6.83254C60.54 6.80905 61.0248 6.71769 61.4975 6.62947C61.9702 6.5413 62.357 6.45259 62.357 6.43245C62.357 6.32738 59.9797 6.4202 58.8998 6.56744C58.3744 6.6391 58.2201 6.63242 58.4404 6.54764C59.8779 5.99435 61.0165 5.39327 62.5311 4.38813C62.7734 4.22738 63.0984 4.01956 63.2535 3.92636C63.5634 3.73999 64.084 3.39539 65.0442 2.74105C65.7713 2.24558 66.1042 2.07872 66.6377 1.94228C67.5809 1.70105 68.4125 1.91255 68.7591 2.48172C69.1242 3.08115 69.1384 4.38876 68.7943 5.71613C68.4787 6.93349 67.9357 8.02375 67.1685 8.97989C66.6987 9.56557 65.2645 10.9838 64.4874 11.6311C62.0676 13.6469 59.4375 15.0143 56.996 15.5256C56.9369 15.538 56.5556 15.592 56.1486 15.6456C54.6281 15.846 53.8548 16.1486 53.1127 16.8336C52.9641 16.9708 52.7947 17.098 52.7363 17.1164C52.5698 17.1686 52.1601 17.6494 51.9994 17.9813C51.7934 18.4068 51.6639 18.9502 51.5817 19.7353C51.4798 20.7072 51.3877 21.0756 50.9521 22.2531C50.6852 22.9746 50.5012 23.7266 50.4189 24.432C50.2557 25.8316 50.194 26.0773 49.8174 26.8287C49.5715 27.3192 49.2556 27.8105 48.6818 28.5945C47.9202 29.635 47.7807 30.0102 47.7473 31.1089C47.7257 31.8172 47.7304 31.8762 47.8057 31.8473C47.8507 31.8301 47.8967 31.8159 47.908 31.8159C47.9192 31.8159 48.0571 31.6423 48.2144 31.4302C48.4135 31.1616 48.5623 30.8858 48.704 30.5223C48.9404 29.9161 49.0284 29.7339 49.0846 29.7339C49.1069 29.7339 49.0842 29.9027 49.0342 30.1091C48.9841 30.3156 48.8462 30.9637 48.7277 31.5496C48.4425 32.96 48.4216 33.0554 48.2551 33.7043C48.0958 34.325 47.8452 34.9963 47.6226 35.399C47.1484 36.2565 46.7659 36.9615 46.7659 36.9777C46.7659 36.988 46.6883 37.1646 46.5933 37.3702C46.4984 37.5757 46.3448 37.9272 46.252 38.1513C46.0223 38.7061 45.9163 38.905 45.4607 39.6353C44.9157 40.509 44.7761 40.9427 44.7438 41.8629L44.7201 42.5408L44.8234 42.4482C45.0048 42.2857 45.422 41.5889 45.6524 41.0638C45.7751 40.784 46.0798 40.229 46.3295 39.8304C46.7116 39.2205 47.2501 38.1636 47.2501 38.0235C47.2501 38.0016 47.2836 37.9414 47.3245 37.8897C47.3947 37.8011 47.3979 37.8055 47.379 37.9652C47.3505 38.2071 47.0288 39.4515 46.8808 39.8923C46.7119 40.3955 46.2337 41.3694 45.9305 41.8276C45.6399 42.267 45.4612 42.4917 44.8052 43.2429C43.8035 44.3898 43.7029 44.572 43.6759 45.2886C43.6548 45.8466 43.6886 45.8729 44.0495 45.5795C44.3236 45.3566 44.4049 45.2639 44.5705 44.986C44.7498 44.6848 44.9592 44.4147 45.3513 43.9786C47.1474 41.9809 47.639 40.8864 48.2916 37.4326C48.5325 36.1573 48.7331 35.3338 48.9271 34.8233C49.194 34.1211 49.2972 33.7641 49.4819 32.9054C49.6083 32.3176 49.92 30.7215 50.061 29.9397C50.0862 29.7998 50.1275 29.5711 50.1529 29.4313C50.2613 28.8316 50.6175 27.5177 50.7599 27.1919C51.066 26.4915 51.2638 25.7542 51.5395 24.2867C51.7089 23.3841 51.8643 22.734 52.1411 21.7689C52.2175 21.5026 52.359 20.9688 52.4556 20.5826C52.5523 20.1965 52.7278 19.5849 52.8457 19.2235L53.0601 18.5665L53.3711 18.2918C54.2514 17.5141 55.0877 17.1615 56.8856 16.8099C58.8596 16.4239 61.1574 15.4503 62.9864 14.2249C63.3413 13.9871 63.897 13.5814 65.02 12.7402C65.8936 12.0858 66.4262 11.6223 67.0307 10.9903C68.1284 9.84272 69.3447 7.57432 69.7845 5.85466C69.9641 5.15234 70.0188 4.6159 69.9946 3.79194C69.961 2.64552 69.7753 2.06715 69.2819 1.57255C68.8235 1.1131 68.1792 0.875936 67.3891 0.875936C66.3722 0.875936 65.8839 1.05649 63.9693 2.1407C62.2283 3.12656 60.199 4.11863 59.5639 4.29434C59.3494 4.35371 58.9078 4.38169 57.7087 4.41186C55.9963 4.4549 55.2494 4.53755 54.4431 4.77321C53.7991 4.96142 53.4337 5.12648 52.2857 5.74785C50.5218 6.70268 50.2266 6.82832 49.5289 6.92158C48.9624 6.99726 48.0241 6.88711 47.3837 6.66961C47.1242 6.58153 46.8996 6.49714 46.8846 6.48208C46.8695 6.46707 46.9223 6.40838 47.0018 6.35173C47.1845 6.22168 47.347 5.96176 47.347 5.79961C47.347 5.731 47.295 5.61435 47.2313 5.54047C47.091 5.37724 46.9155 5.36843 46.2333 5.49016C45.5936 5.60428 44.9753 5.60089 44.8236 5.48246C44.7601 5.43283 44.6591 5.37691 44.5992 5.35812C44.5393 5.33933 44.4904 5.30912 44.4906 5.29096C44.4911 5.2422 44.8313 5.05947 44.9957 5.01962C45.0739 5.00069 45.1992 4.94152 45.2741 4.88821C45.4521 4.76145 45.4658 4.47815 45.3012 4.32819C45.1498 4.19029 45.0812 4.15901 44.3685 3.90321C44.0227 3.77906 43.5727 3.61405 43.3685 3.53658C42.3449 3.14802 41.6283 3.00392 40.7377 3.00741C40.3649 3.00886 39.9727 2.98799 39.8662 2.96097C39.6159 2.89749 38.8884 2.89662 38.4862 2.95933C38.1104 3.01791 37.4856 3.21532 37.1668 3.37617C37.0403 3.43999 36.937 3.47553 36.9373 3.45509C36.9379 3.40527 37.1833 3.09965 37.5662 2.67196C38.0798 2.09833 38.153 1.87686 37.9206 1.60063C37.7782 1.4314 37.8306 1.43465 37.0567 1.54684C36.6231 1.60964 36.2249 1.84244 35.685 2.34876C35.3953 2.62044 34.9021 3.26127 34.713 3.61163C34.5053 3.99666 34.4913 4.00664 34.4216 3.82013C33.9409 2.53449 33.4441 1.77794 32.3047 0.596653C31.6471 -0.0851408 31.5846 -0.110367 31.2289 0.16175ZM31.7567 4.44861C31.642 4.54143 31.5683 4.82265 31.5636 5.18526C31.5597 5.4857 31.5157 5.54502 31.3521 5.4705C31.0276 5.32267 30.7673 5.73225 30.9794 6.05681C31.0154 6.11196 31.047 6.11695 31.1101 6.07753C31.1746 6.03734 31.2417 6.0525 31.4067 6.14479C31.6119 6.25945 31.6263 6.261 31.7848 6.18536C31.8754 6.14217 31.9496 6.08465 31.9496 6.05758C31.9496 6.03052 31.9744 6.00839 32.0048 6.00839C32.0586 6.00839 32.0412 6.81399 31.9691 7.65465C31.9488 7.89094 31.96 7.99334 32.0141 8.06559C32.0859 8.16155 32.0863 8.16155 32.1943 8.06559C32.6036 7.70167 32.7517 6.32433 32.4882 5.33052C32.3174 4.6862 32.2825 4.59382 32.1657 4.47698C32.0287 4.33996 31.9018 4.33114 31.7567 4.44861ZM58.3321 5.62157C58.2887 5.64684 57.9373 5.78803 57.5512 5.93528C55.896 6.56642 55.0429 7.13395 54.6989 7.83269C54.5415 8.1525 54.3743 8.31514 54.0864 8.42873C53.7583 8.5582 53.6042 8.92706 53.7625 9.20407C53.8006 9.27065 53.8325 9.33858 53.8335 9.35504C53.8344 9.3715 53.69 9.46955 53.5126 9.57293C53.0588 9.83735 52.3749 10.5416 52.1779 10.9472C52.0938 11.1203 52.0159 11.2728 52.0048 11.2861C51.9642 11.3348 51.4153 10.6809 51.1641 10.2845C50.6779 9.51735 50.2398 8.93767 49.8354 8.5262L49.4308 8.11463L49.6357 8.08258C49.7484 8.06491 50.004 8.02627 50.2037 7.99664C51.0189 7.87568 51.7386 7.58125 53.2783 6.73875C53.6245 6.54933 54.0796 6.32791 54.2895 6.24671C55.1008 5.93286 56.2828 5.70795 57.5634 5.6237C58.4054 5.56831 58.4233 5.56826 58.3321 5.62157ZM36.7707 5.8182C36.4718 5.90506 35.7689 6.75197 35.6968 7.11211C35.646 7.36602 35.7743 7.30676 36.3047 6.83152C36.5722 6.59184 36.8184 6.39609 36.8518 6.39647C36.8852 6.39686 37.0031 6.42872 37.1138 6.46726C37.4212 6.57436 37.9102 6.47825 38.1582 6.26201C38.2631 6.17059 38.2368 6.12813 38.0007 6.00771C37.8763 5.94428 37.716 5.91155 37.5294 5.91155C37.3739 5.91155 37.226 5.89257 37.2007 5.86938C37.1237 5.79883 36.9206 5.77467 36.7707 5.8182ZM39.8783 5.91712C39.6784 6.0662 39.7042 6.18672 39.9509 6.25678C40.3707 6.37604 40.7619 6.28172 40.7619 6.06122C40.7619 5.83684 40.1251 5.73298 39.8783 5.91712ZM29.5543 6.32496C29.3939 6.59867 29.4056 6.75308 29.5882 6.77414C29.7902 6.79739 29.9847 6.58274 29.9449 6.38045C29.9175 6.24056 29.8057 6.10523 29.7177 6.10523C29.6986 6.10523 29.6251 6.2041 29.5543 6.32496ZM42.5292 6.44417C42.5122 6.47162 42.553 6.49258 42.6232 6.49258C42.6913 6.49258 42.7471 6.4708 42.7471 6.44417C42.7471 6.41753 42.7048 6.39575 42.6531 6.39575C42.6014 6.39575 42.5457 6.41753 42.5292 6.44417ZM27.3098 7.62144C27.1267 7.81628 27.1839 8.04283 27.4155 8.04046C27.6711 8.03789 27.8583 7.82194 27.7814 7.61834C27.7238 7.46596 27.4542 7.46775 27.3098 7.62144ZM3.79372 10.7047C3.95351 10.8704 4.31302 11.2292 4.59264 11.5019C5.97492 12.85 6.58893 13.2551 8.00621 13.7546C8.32578 13.8672 8.8596 14.0632 9.19248 14.1901C9.90038 14.4599 10.6467 14.6907 11.0566 14.7663C11.2164 14.7958 11.9245 14.8415 12.6303 14.8681C13.8942 14.9155 14.1473 14.9448 15.5569 15.2065C15.8483 15.2607 16.1969 15.3041 16.3316 15.3032L16.5764 15.3014L16.4339 15.1849C16.1164 14.9254 14.6784 14.4961 13.7681 14.389C13.5284 14.3608 12.8966 14.3145 12.364 14.2863C11.1976 14.2242 10.9244 14.1683 9.43458 13.6857C6.90036 12.8648 6.8838 12.857 5.55004 11.8508C4.58804 11.1251 3.78656 10.5485 3.62425 10.4653C3.54935 10.427 3.61399 10.5183 3.79372 10.7047ZM48.5731 12.6687C48.0602 12.9359 47.3328 13.5154 47.4115 13.5941C47.4575 13.6401 48.1436 13.4045 48.5703 13.1964C49.1636 12.9069 49.4404 12.6155 49.2071 12.526C49.0507 12.4659 48.8949 12.501 48.5731 12.6687ZM20.9828 13.2232C21.0283 13.2968 21.2771 13.4154 21.6569 13.5446C22.0713 13.6856 22.0064 13.5991 21.5096 13.3484C21.1796 13.1818 20.919 13.1199 20.9828 13.2232ZM50.04 14.7293C49.3234 14.8975 48.3153 15.8744 48.3153 16.4005C48.3153 16.4637 48.3392 16.5154 48.3683 16.5154C48.3974 16.5154 48.5914 16.3574 48.7995 16.1644C49.0076 15.9713 49.3923 15.6826 49.6544 15.5228C50.1008 15.2507 50.6395 14.81 50.6395 14.7169C50.6395 14.6643 50.2858 14.6716 50.04 14.7293ZM20.3532 14.8964C20.433 14.9627 20.7809 15.2071 21.1262 15.4394C21.9504 15.9939 22.0543 16.1033 22.2639 16.6358C22.3852 16.9439 22.462 17.0761 22.5271 17.0886C22.6115 17.1049 22.6168 17.0822 22.5922 16.8108C22.5468 16.3107 22.1698 15.7678 21.6216 15.4132C21.2676 15.1842 20.4042 14.7732 20.2805 14.7748C20.2349 14.7754 20.2618 14.8205 20.3532 14.8964ZM16.87 15.3582C16.9267 15.4499 17.4828 15.7891 17.5765 15.7891C17.7893 15.7891 17.6161 15.6095 17.23 15.4297C16.9457 15.2975 16.8166 15.2717 16.87 15.3582ZM50.5638 15.4487C49.5904 15.6555 48.9588 16.2774 48.5497 17.4318C48.4236 17.7878 48.3373 17.9439 48.1575 18.1412C47.9231 18.3985 47.7565 18.7095 47.8083 18.7932C47.86 18.877 48.0918 18.8417 48.3511 18.7105L48.6061 18.5815L48.7827 18.7581C49.1385 19.114 49.5676 19.2313 50.2855 19.1693C50.7409 19.1299 50.9695 19.0303 51.2276 18.7589C51.677 18.2863 51.8605 17.4268 51.6729 16.6728C51.6334 16.5141 51.7174 16.5381 51.971 16.7575C52.1342 16.8987 52.2379 16.9512 52.3538 16.9512C52.5108 16.9512 52.6731 16.8324 52.6731 16.7174C52.6731 16.6862 52.6957 16.6607 52.7232 16.6607C52.7873 16.6607 52.7056 16.5022 52.5184 16.2633C52.3627 16.0646 51.837 15.6969 51.4876 15.5424C51.2269 15.427 50.8469 15.3885 50.5638 15.4487ZM43.9688 15.5844C43.7093 15.7188 43.1144 16.1725 43.1505 16.2086C43.1797 16.2378 43.6469 16.0466 43.9041 15.9002C44.2898 15.6806 44.4858 15.4475 44.2816 15.4512C44.2499 15.4518 44.1091 15.5117 43.9688 15.5844ZM28.5865 16.2701C28.5731 16.2916 28.7663 16.4772 29.0157 16.6824C29.6565 17.2096 29.7043 17.2722 30.791 19.0032C31.0565 19.4261 31.3309 19.8401 31.4009 19.9232C31.5207 20.0657 31.526 20.0673 31.493 19.9532C31.3902 19.5972 31.0381 18.7121 30.8479 18.3311C30.39 17.4145 29.9516 16.8751 29.4153 16.5682C29.0984 16.3869 28.6205 16.215 28.5865 16.2701ZM19.616 16.9672C19.814 17.0505 20.2038 17.4268 20.3427 17.6686L20.4291 17.819L20.2357 17.9177C20.1293 17.972 20.022 18.0164 19.9972 18.0164C19.8973 18.0164 19.4454 17.5531 19.3642 17.3674C19.2189 17.0353 19.1669 16.9002 19.1669 16.8554C19.1669 16.8077 19.3393 16.8506 19.616 16.9672ZM47.7716 17.157C47.4775 17.4473 47.0804 18.0763 47.1222 18.1855C47.1681 18.3048 47.3802 18.2689 47.5598 18.1112C47.7695 17.9271 47.9428 17.6343 48.0438 17.2934C48.1855 16.8151 48.1407 16.7926 47.7716 17.157ZM50.4942 17.1706C50.4942 17.5446 50.1392 18.309 49.9673 18.3052C49.9242 18.3042 49.8258 18.2518 49.7486 18.1886L49.6082 18.0738L49.7331 17.8635C49.8871 17.6042 50.3884 16.9996 50.4495 16.9996C50.4741 16.9996 50.4942 17.0765 50.4942 17.1706ZM42.4076 17.6411C42.3549 17.7277 42.3116 17.824 42.3115 17.8551C42.3114 17.8862 42.2962 17.9516 42.2777 18.0003C42.2467 18.0822 42.2502 18.083 42.3234 18.0105C42.4293 17.9056 42.6503 17.5777 42.6503 17.5254C42.6503 17.4239 42.495 17.498 42.4076 17.6411ZM22.7247 18.0084C22.7806 18.4959 23.0747 19.1009 23.179 18.9428C23.2745 18.7979 23.0453 18.1768 22.7746 17.8469C22.6994 17.7552 22.6967 17.7638 22.7247 18.0084ZM29.916 18.8676C29.916 18.883 30.0216 19.0192 30.1508 19.1702C30.2799 19.3212 30.4585 19.5537 30.5476 19.6869C30.9167 20.2385 31.5316 21.0377 31.5482 20.9877C31.5581 20.9581 31.4746 20.7187 31.3626 20.4556C31.0309 19.677 30.6304 19.1032 30.3011 18.9352C30.1222 18.844 29.916 18.8078 29.916 18.8676ZM41.8907 18.9744C41.824 19.0168 41.6623 19.3787 41.5903 19.6469C41.5441 19.8186 41.546 19.8251 41.6151 19.7353C41.7226 19.5956 41.9048 19.2248 41.9422 19.0695C41.9772 18.9243 41.9752 18.9207 41.8907 18.9744ZM42.4168 19.7484C42.0707 20.1197 41.3886 21.4172 41.3165 21.8415L41.2877 22.011L41.5088 21.7689C41.8281 21.4193 42.2486 20.8438 42.5427 20.3544C42.7424 20.0219 42.7953 19.892 42.7848 19.7599C42.7654 19.5164 42.6368 19.5124 42.4168 19.7484ZM30.7559 21.0928C30.7402 21.1338 30.7594 21.2046 30.7985 21.2502C30.8377 21.2958 30.9329 21.4077 31.0102 21.4989C31.2045 21.7281 31.5293 22.0352 31.5773 22.0352C31.6968 22.0352 31.3872 21.4728 31.1215 21.2071C30.9218 21.0074 30.803 20.9703 30.7559 21.0928ZM42.0109 21.9263C41.8362 22.1279 41.4038 23.0322 41.4568 23.0852C41.4935 23.1219 41.8671 22.6021 42.0227 22.2979C42.216 21.9199 42.2089 21.6976 42.0109 21.9263ZM31.0962 22.3967C31.0497 22.518 31.6507 23.3187 31.7292 23.2401C31.7638 23.2056 31.5339 22.7329 31.3921 22.547C31.246 22.3555 31.1339 22.2986 31.0962 22.3967ZM31.3201 23.6949C31.3201 23.8183 31.7273 24.3116 31.9126 24.4129C31.9867 24.4534 31.9911 24.4444 31.95 24.3361C31.8656 24.1143 31.7636 23.9501 31.611 23.7904C31.457 23.6294 31.3201 23.5844 31.3201 23.6949ZM41.3249 24.2245C41.2864 24.3652 41.2435 24.5566 41.2297 24.6499C41.2063 24.8073 41.2124 24.8021 41.3147 24.5772C41.4473 24.286 41.5016 24.0344 41.44 23.9963C41.4153 23.9811 41.3635 24.0837 41.3249 24.2245ZM31.5326 25.058C31.518 25.0961 31.5413 25.2016 31.5844 25.2924C31.6749 25.4831 31.9809 25.7968 32.0292 25.7484C32.0815 25.6961 31.951 25.3178 31.8214 25.1462C31.6956 24.9795 31.5767 24.9432 31.5326 25.058ZM32.0161 26.5348C32.0471 26.7289 32.3345 27.4768 32.366 27.4453C32.3927 27.4186 32.2385 26.7399 32.1667 26.5679C32.0574 26.3063 31.9767 26.2886 32.0161 26.5348ZM42.315 34.0698C42.3171 34.2017 42.3495 34.3858 42.3872 34.479C42.4545 34.6456 42.4555 34.6425 42.4425 34.2983C42.427 33.8872 42.309 33.6756 42.315 34.0698ZM29.5589 34.0977C29.5422 34.1809 29.5293 34.3498 29.5301 34.4729C29.5322 34.7837 29.6163 34.6296 29.6569 34.2405C29.6895 33.929 29.6145 33.8197 29.5589 34.0977ZM42.5804 35.4595C42.5989 35.5194 42.6447 35.6229 42.6823 35.6895L42.7507 35.8105L42.7182 35.6895C42.6648 35.4901 42.606 35.3505 42.5756 35.3505C42.5598 35.3505 42.562 35.3996 42.5804 35.4595ZM29.316 35.6928C29.2969 35.7842 29.2393 36.0768 29.1878 36.3431C29.1364 36.6094 29.0501 37.0125 28.9961 37.2389C28.8676 37.7771 28.7539 38.6655 28.7539 39.1312C28.7539 39.8731 28.97 40.7112 29.3267 41.3535C29.5144 41.6915 30.0802 42.2941 30.4728 42.5743C30.7845 42.7967 31.4042 43.1075 31.4979 43.0883C31.6118 43.065 31.1537 42.4035 30.6913 41.9237C30.192 41.4054 29.9612 41.0661 29.769 40.5678C29.4992 39.8683 29.4593 39.57 29.4594 38.2557C29.4594 37.6032 29.4745 36.9452 29.493 36.7934C29.5262 36.5203 29.4653 35.8371 29.3897 35.6325C29.3542 35.5365 29.3473 35.5421 29.316 35.6928ZM32.0464 35.8839C31.9441 35.951 32.0115 35.9881 32.6275 36.2037C33.2707 36.4289 33.8486 36.6763 34.1285 36.8463C34.594 37.129 35.1453 37.328 35.1453 37.2133C35.1453 37.1183 34.7311 36.6407 34.4924 36.4606C34.1912 36.2331 33.6591 36.0123 33.1584 35.907C32.7692 35.8251 32.1554 35.8124 32.0464 35.8839ZM38.969 36.1951C38.5111 36.3638 38.016 36.7044 37.6703 37.0883C37.381 37.4097 36.9852 38.1449 36.9852 38.3609C36.9852 38.3901 37.1977 38.1976 37.4573 37.9331C38.0333 37.3464 38.4187 37.0674 39.0811 36.7573C39.5513 36.5372 39.9388 36.2712 39.9388 36.1686C39.9388 36.1024 39.1629 36.1236 38.969 36.1951ZM42.9591 36.9111C42.9775 37.2186 43.0134 37.5978 43.039 37.7539C43.0646 37.9101 43.0856 38.3608 43.0858 38.7554C43.0861 39.4485 43.0794 39.4966 42.8906 40.1596C42.7593 40.6208 42.6274 40.9653 42.4887 41.2093C42.3109 41.5217 42.098 41.994 42.003 42.2866C41.9568 42.4287 42.0369 42.3846 42.4189 42.0574C42.7735 41.7535 43.0413 41.4331 43.2049 41.1167C43.3422 40.8512 43.4688 40.2354 43.5197 39.5859C43.5468 39.2405 43.5917 38.8197 43.6197 38.6509C43.7128 38.089 43.5345 37.2452 43.2096 36.7104C42.9372 36.262 42.921 36.2749 42.9591 36.9111ZM41.1464 37.1856C40.9969 37.3427 40.8477 37.536 40.8149 37.6151C40.7822 37.6942 40.7078 37.7806 40.6496 37.8071C40.5915 37.8336 40.4132 37.963 40.2535 38.0947C39.999 38.3044 39.426 38.6883 39.2837 38.7444C39.0174 38.8496 38.3536 39.318 38.0552 39.6114C37.4312 40.225 36.8417 41.2702 36.9105 41.6407C36.9283 41.7363 36.9496 41.8971 36.9579 41.998C36.9755 42.213 37.0013 42.2497 37.0959 42.1942C37.2193 42.1219 37.6695 41.5782 37.7713 41.3787C38.0409 40.8499 38.0728 40.8221 39.2125 40.1184C39.9151 39.6846 40.148 39.4933 40.6373 38.948C41.0873 38.4466 41.3649 37.989 41.4834 37.5536C41.5561 37.2865 41.5526 36.9 41.4774 36.9C41.4448 36.9 41.2958 37.0285 41.1464 37.1856ZM30.3518 37.1089C30.3518 37.2484 30.4814 37.7428 30.5568 37.891C30.6733 38.1199 31.3206 39.0288 31.535 39.2643C31.8383 39.5976 32.3502 39.9123 32.9235 40.1177C33.4767 40.3159 33.9592 40.6145 34.2791 40.9565C34.436 41.1241 34.5642 41.2851 34.5642 41.3142C34.5642 41.3434 34.6405 41.4733 34.7337 41.6031C34.8269 41.7328 34.9032 41.848 34.9032 41.859C34.9032 41.8701 34.9492 41.9844 35.0054 42.1131C35.0937 42.3152 35.1131 42.3339 35.1473 42.2503C35.258 41.9796 35.1342 40.8178 34.9498 40.3969C34.7175 39.867 33.9489 39.2687 32.918 38.8154C32.0504 38.434 31.4613 38.0299 30.957 37.4703C30.6908 37.175 30.5894 37.0942 30.4849 37.0939C30.4117 37.0938 30.3518 37.1005 30.3518 37.1089ZM35.3131 37.6384C35.3312 37.7253 35.3206 37.7715 35.2824 37.7715C35.2503 37.7715 35.2864 37.8366 35.3627 37.9163C35.5092 38.0692 35.6054 38.0774 35.4677 37.9252C35.4234 37.8763 35.3998 37.8236 35.4153 37.8082C35.4307 37.7927 35.4079 37.7182 35.3644 37.6426L35.2855 37.5052L35.3131 37.6384ZM35.7802 38.4736C35.7809 38.5535 35.7974 38.6591 35.8167 38.7083C35.8456 38.7815 35.8616 38.7859 35.9058 38.7325C35.9462 38.6835 35.9371 38.625 35.8692 38.4978L35.7788 38.3283L35.7802 38.4736ZM36.583 39.3806C36.4678 39.6235 36.4846 39.7234 36.6029 39.4991C36.6566 39.3974 36.6925 39.2902 36.6828 39.2609C36.673 39.2317 36.6281 39.2855 36.583 39.3806ZM31.0647 39.6478C31.1086 39.7637 31.2766 40.0472 31.3016 40.0472C31.3127 40.0472 31.2666 39.9383 31.1991 39.8051C31.08 39.5701 30.9998 39.4763 31.0647 39.6478ZM40.5367 39.9395C40.3237 40.2587 40.1091 40.7017 40.0168 41.0123C39.9211 41.3348 39.9205 41.3193 40.0271 41.2623C40.1943 41.1728 40.4354 40.8941 40.5334 40.6769C40.7118 40.2818 40.8262 39.7061 40.7256 39.7095C40.7057 39.7102 40.6206 39.8137 40.5367 39.9395ZM31.8621 40.9598C32 41.1546 32.9664 41.9001 32.9664 41.8116C32.9664 41.7401 31.9249 40.8718 31.8379 40.8708C31.8164 40.8705 31.8273 40.9106 31.8621 40.9598ZM39.5834 41.5773C39.4545 41.6719 39.3606 41.7608 39.3748 41.7751C39.406 41.8062 39.6371 41.6462 39.7647 41.505C39.893 41.3631 39.8545 41.3784 39.5834 41.5773ZM43.6273 41.5635C43.5959 41.6384 43.5724 41.78 43.575 41.8782L43.5798 42.0566L43.6488 41.8387C43.6867 41.7189 43.7102 41.5773 43.7011 41.524C43.6866 41.4402 43.6767 41.4456 43.6273 41.5635ZM38.7302 42.1374C38.4781 42.2851 38.3579 42.4682 38.5132 42.4682C38.5547 42.4682 38.6909 42.3706 38.8159 42.2514C39.0542 42.024 39.0144 41.971 38.7302 42.1374ZM36.4405 42.5443C36.4205 42.5646 36.4042 42.6363 36.4042 42.7038C36.4042 42.792 36.4189 42.8117 36.4567 42.774C36.4856 42.7451 36.5019 42.6733 36.493 42.6144C36.4841 42.5556 36.4604 42.524 36.4405 42.5443ZM43.1421 43.5033C43.0905 43.6199 42.897 43.9196 42.7122 44.1691C42.5273 44.4187 42.2699 44.7754 42.1402 44.9618C41.6317 45.6928 41.0919 46.1499 39.8904 46.8673L39.5272 47.0841L38.6799 47.1645C38.2139 47.2087 37.6814 47.2384 37.4967 47.2304C37.1816 47.2169 37.15 47.205 36.9883 47.0384C36.8934 46.9407 36.7686 46.8299 36.711 46.7921C36.5129 46.6623 36.4491 46.4341 36.4464 45.8463C36.4437 45.2862 36.3925 44.982 36.3421 45.2281C36.3285 45.2947 36.2948 45.4581 36.2673 45.5912C36.1645 46.09 35.9664 46.5445 35.7347 46.8135L35.5084 47.0762L34.879 47.0484C33.8715 47.0038 33.1403 46.8693 32.2008 46.5554C31.3224 46.262 30.7486 45.9625 30.037 45.426C29.635 45.1229 29.4224 44.9283 28.565 44.0787C28.1548 43.6723 27.8013 43.3397 27.7794 43.3397C27.6975 43.3397 27.8973 43.7539 28.1884 44.1871C28.6494 44.8733 29.2403 45.5237 29.8434 46.0086C30.1773 46.2772 31.2888 46.9712 31.385 46.9712C31.4032 46.9712 31.5104 47.0137 31.6233 47.0655C32.1969 47.3292 33.3767 47.6331 34.3706 47.7733C34.9011 47.8481 35.2046 47.8464 35.9527 47.7645C36.1404 47.7439 36.2778 47.7635 36.4999 47.8424C36.8729 47.9748 37.5532 48.017 38.0746 47.9402C38.2877 47.9088 38.6908 47.8661 38.9704 47.8453C39.6958 47.7915 40.1576 47.6086 40.9798 47.0496C42.0017 46.3548 42.6554 45.5492 43.114 44.4194C43.3855 43.7507 43.4117 42.8937 43.1421 43.5033ZM36.3383 43.6544C36.2795 43.8075 36.3036 44.0176 36.38 44.0176C36.4298 44.0176 36.4524 43.9682 36.4519 43.8602C36.4509 43.66 36.3832 43.5373 36.3383 43.6544ZM36.0479 44.0987C36.0335 44.1473 36.0104 44.3505 35.9966 44.5502L35.9716 44.9134L36.0385 44.4776C36.1018 44.0653 36.1058 43.9032 36.0479 44.0987ZM35.8438 45.7836C35.7867 45.8707 35.7484 45.8933 35.7243 45.8543C35.6691 45.765 35.5896 45.8433 35.5347 46.0409C35.4679 46.2815 35.4695 46.3964 35.538 46.2785C35.5765 46.2125 35.6046 46.2041 35.6532 46.2445C35.7343 46.3119 35.8516 46.1581 35.9244 45.889C35.9869 45.6577 35.9542 45.615 35.8438 45.7836ZM36.7915 45.8093C36.7915 45.9176 36.8372 46.0064 36.9489 46.1155L37.1063 46.2691L37.1218 46.1341C37.1401 45.9741 36.9901 45.695 36.8737 45.6726C36.8105 45.6604 36.7915 45.692 36.7915 45.8093ZM43.3857 46.1015C43.2656 46.2134 43.2486 46.2933 43.3449 46.2933C43.4224 46.2933 43.5702 46.1399 43.5702 46.0595C43.5702 45.9755 43.505 45.9904 43.3857 46.1015ZM37.2706 46.3467C37.2135 46.3834 37.2143 46.3975 37.2757 46.4379C37.3669 46.4977 37.6783 46.5024 37.6418 46.4433C37.5942 46.3662 37.3421 46.3006 37.2706 46.3467ZM43.4454 46.5101C43.1608 46.6519 42.905 46.9048 42.7144 47.2327C42.6195 47.3961 42.5395 47.4758 42.4581 47.4882C42.2297 47.523 42.2092 47.7017 42.4159 47.8559C42.5061 47.9232 42.628 47.9538 42.8226 47.9579C43.1175 47.9642 43.1931 47.9082 43.064 47.7792C42.9966 47.7118 43.0024 47.6944 43.1224 47.6019C43.4502 47.3493 43.815 46.9434 43.8895 46.7481C44.0325 46.3736 43.8815 46.2927 43.4454 46.5101ZM30.2799 47.6479C30.2233 47.7394 30.3932 47.9372 30.6967 48.1334C30.9958 48.3266 31.5921 48.5553 31.6489 48.4985C31.7151 48.4322 30.6733 47.6491 30.5189 47.6491C30.4846 47.6491 30.4242 47.6367 30.3848 47.6216C30.3454 47.6064 30.2982 47.6183 30.2799 47.6479ZM42.0381 47.916C41.988 48.0465 42.2238 48.2324 42.5627 48.3296C42.742 48.381 42.7432 48.2893 42.5655 48.1255C42.2673 47.8507 42.0902 47.7804 42.0381 47.916ZM31.4102 48.0041C31.4785 48.0864 31.9744 48.3578 31.9325 48.2899C31.8913 48.2234 31.4622 47.9396 31.4027 47.9396C31.3774 47.9396 31.3807 47.9685 31.4102 48.0041ZM40.0477 48.2129C39.9491 48.2541 39.9786 48.4607 40.0949 48.5421C40.2314 48.6378 40.3457 48.6379 40.4248 48.5426C40.4763 48.4805 40.4703 48.4453 40.3896 48.3368C40.2941 48.2084 40.1679 48.1626 40.0477 48.2129ZM32.9664 48.5687L32.8454 48.5992L32.9664 48.6657C33.0822 48.7293 34.5255 48.8092 34.4674 48.7488C34.4406 48.721 33.5859 48.5813 33.2811 48.5549C33.1746 48.5458 33.033 48.5519 32.9664 48.5687ZM41.5608 48.5771C41.325 48.7076 40.8933 49.2487 40.8518 49.4659C40.8412 49.5217 40.7871 49.5683 40.7222 49.5775C40.5814 49.5975 40.5264 49.728 40.6334 49.7879C40.6829 49.8156 40.7135 49.8943 40.7135 49.9939C40.7135 50.0825 40.7417 50.1784 40.7762 50.207C40.8706 50.2854 41.6335 50.2192 41.6335 50.1327C41.6335 50.12 41.5884 50.0733 41.5334 50.0287C41.434 49.9482 41.4354 49.9445 41.7392 49.4785C42.0232 49.043 42.0546 49.0112 42.1782 49.0352C42.2739 49.0537 42.3113 49.0413 42.3113 48.991C42.3113 48.9163 42.1441 48.6803 42.0219 48.5827C41.9299 48.5091 41.6891 48.5062 41.5608 48.5771ZM39.1042 48.7264C39.0262 48.7866 39.0089 49.0594 39.0785 49.1291C39.1165 49.167 39.2734 49.0722 39.449 48.9051C39.5593 48.8002 39.5605 48.7922 39.4761 48.7305C39.3651 48.6494 39.2063 48.6476 39.1042 48.7264ZM32.3462 48.752C32.2728 48.7639 32.2397 48.798 32.2498 48.8512C32.2722 48.969 32.6239 49.045 33.1601 49.0479C33.6785 49.0506 33.6681 49.0145 33.1074 48.8642C32.6972 48.7543 32.5055 48.726 32.3462 48.752ZM34.9839 48.795C34.9661 48.8127 34.9516 48.907 34.9516 49.0044C34.9516 49.1298 34.9863 49.2142 35.0702 49.293C35.1827 49.3986 35.2331 49.4042 35.4823 49.3383C35.5318 49.3252 35.5802 49.4034 35.6431 49.5979C35.6926 49.751 35.7508 49.8764 35.7725 49.8764C35.8213 49.8764 35.87 49.7025 35.8709 49.5253C35.8713 49.4521 35.8934 49.3922 35.92 49.3922C35.9466 49.3922 35.9684 49.3396 35.9684 49.2754C35.9684 49.0956 35.7054 48.8986 35.4865 48.9144C35.3805 48.922 35.2631 48.8943 35.1927 48.8449C35.0636 48.7545 35.0319 48.7469 34.9839 48.795ZM36.7695 48.9496C36.7067 49.1475 36.8291 49.2834 37.2442 49.4766C37.4695 49.5814 37.8087 49.6253 37.808 49.5495C37.8079 49.5296 37.7656 49.4493 37.7141 49.3712C37.6135 49.2185 37.4463 49.1061 37.3158 49.1033C37.2712 49.1024 37.17 49.0472 37.0909 48.9806C36.9199 48.8368 36.8087 48.826 36.7695 48.9496ZM37.8877 48.9415C37.8113 49.018 37.8659 49.1984 37.9929 49.2888C38.1626 49.4096 38.3894 49.4718 38.3894 49.3974C38.3894 49.3679 38.4493 49.343 38.5225 49.3421L38.6557 49.3405L38.54 49.2442C38.4754 49.1904 38.387 49.1596 38.3399 49.1746C38.2936 49.1893 38.2446 49.1735 38.231 49.1394C38.1988 49.058 37.9276 48.9017 37.8877 48.9415ZM36.5107 49.1597C36.3608 49.3097 36.542 49.6827 36.7647 49.6827C36.8397 49.6827 36.8488 49.6535 36.8262 49.4852C36.8024 49.3075 36.681 49.1016 36.6 49.1016C36.5828 49.1016 36.5427 49.1278 36.5107 49.1597ZM40.1942 50.554C40.0208 50.5939 39.8891 50.673 39.6725 50.8671C39.5926 50.9387 39.4147 51.0518 39.2772 51.1184C39.1397 51.185 38.9892 51.2814 38.9429 51.3326C38.8965 51.3838 38.7974 51.4258 38.7225 51.4258C38.4826 51.4258 38.3854 51.8131 38.5725 52.0235C38.7747 52.2508 39.1928 52.2782 39.3614 52.0751C39.3958 52.0336 39.5561 51.9381 39.7177 51.8629C39.8792 51.7877 40.0908 51.6531 40.1879 51.5638C40.285 51.4746 40.4538 51.3221 40.5632 51.2249C40.7233 51.0826 40.7619 51.0159 40.7619 50.8814C40.7619 50.6142 40.5254 50.4779 40.1942 50.554ZM37.367 51.6379C37.2707 51.6722 37.1257 51.7475 37.0448 51.8052C36.9511 51.8719 36.8251 51.91 36.6978 51.91C36.4314 51.91 36.1769 52.0219 35.9579 52.2353C35.7941 52.3949 35.775 52.4023 35.7448 52.3177C35.6466 52.0426 35.4182 51.971 35.3325 52.1884C35.2491 52.3999 35.2636 52.8542 35.3584 52.9989C35.541 53.2776 35.8278 53.2432 36.2287 52.8945C36.4216 52.7267 36.4593 52.7134 36.7517 52.7103C37.0308 52.7073 37.0969 52.6868 37.3287 52.5312C37.5256 52.3991 37.6601 52.3482 37.8717 52.3257C38.1671 52.2943 38.3604 52.1999 38.4422 52.047C38.4814 51.9738 38.4635 51.9282 38.3517 51.8164C38.1233 51.588 37.7141 51.5138 37.367 51.6379ZM33.765 52.1525C33.7257 52.2162 33.7817 52.3964 33.8733 52.5009C33.9131 52.5462 34.0582 52.6085 34.1956 52.6393C34.4033 52.6857 34.4758 52.6825 34.6259 52.6198C34.7251 52.5783 34.8063 52.5233 34.8063 52.4974C34.8063 52.421 34.484 52.2445 34.212 52.1722C33.9098 52.0917 33.8055 52.0871 33.765 52.1525Z" fill="#1F2400"/>
</svg>
