<svg width="70" height="52" viewBox="0 0 70 52" fill="none" xmlns="http://www.w3.org/2000/svg">
<path fill-rule="evenodd" clip-rule="evenodd" d="M28.9884 0.0869954C28.8526 0.197012 28.8534 0.439182 28.9912 0.911036C29.0872 1.24002 29.097 1.37691 29.1284 2.83688C29.147 3.7013 29.1753 4.48824 29.1912 4.58564C29.2714 5.07356 29.3021 5.07746 29.4531 4.61884C29.7533 3.70643 29.8786 2.95044 29.8787 2.05105C29.8787 1.81025 29.8968 1.64153 29.9225 1.64153C30.0028 1.64153 30.2689 2.05521 30.5917 2.68193C30.9851 3.44562 31.0333 3.5158 31.228 3.60819C31.4515 3.71427 31.6368 3.66309 31.9514 3.40857C32.2009 3.20664 32.2377 3.19106 32.4653 3.19106C32.6 3.19106 32.7912 3.1587 32.8901 3.11912C32.9891 3.07954 33.0773 3.05461 33.0862 3.06378C33.0951 3.0729 33.1903 3.2796 33.2978 3.5231C33.449 3.86595 33.5274 3.98902 33.6449 4.06862C33.8413 4.20157 34.0156 4.17129 34.2014 3.97193C34.4821 3.67084 34.4184 3.19845 34.1003 3.22293C33.9834 3.23197 33.9592 3.2043 33.7828 2.85972C33.5419 2.38942 33.357 2.21707 33.0931 2.21707C32.9644 2.21707 32.8507 2.25165 32.7463 2.32244C32.6288 2.40217 32.5147 2.4321 32.277 2.44551C32.0105 2.46057 31.9322 2.48487 31.7607 2.60582C31.6495 2.68419 31.5436 2.74834 31.5254 2.74834C31.5071 2.74834 31.4061 2.57404 31.3009 2.36095C30.8437 1.43535 30.2559 0.660013 29.6423 0.173371C29.3947 -0.0229761 29.1622 -0.0536577 28.9884 0.0869954ZM35.0109 0.398496C34.8825 0.526885 34.8815 0.532109 34.8809 1.05151C34.8805 1.47586 34.8557 1.67938 34.75 2.12512C34.5977 2.76742 34.4899 3.70267 34.5601 3.77284C34.5917 3.80441 34.6891 3.7094 34.8735 3.46719C35.317 2.88456 35.5367 2.38805 35.6421 1.73007C35.6713 1.54745 35.6986 1.39259 35.7026 1.38594C35.7067 1.37926 35.7975 1.42384 35.9045 1.48503C36.0408 1.56295 36.1657 1.59637 36.3222 1.59673L36.5454 1.59726L36.67 1.85182C37.0673 2.66329 37.4942 3.18455 37.9468 3.41069C38.3325 3.60346 38.76 3.5927 38.8385 3.38829C38.8832 3.27177 38.7875 3.15325 38.5325 3.00932C38.1586 2.79827 37.7787 2.35267 37.4751 1.76886C36.9934 0.842813 36.8716 0.725624 36.4372 0.770472C36.1989 0.795087 36.1887 0.791323 35.9251 0.582978C35.5805 0.310526 35.4981 0.269088 35.3016 0.269088C35.1823 0.269088 35.1066 0.302823 35.0109 0.398496ZM43.6134 1.02167C43.5351 1.08556 43.4835 1.09516 43.3792 1.06528C43.3037 1.04359 43.1423 1.04372 43.0083 1.0655C42.4901 1.14989 42.0089 1.52244 41.789 2.00974C41.6631 2.28857 41.506 2.86694 41.4531 3.2464C41.4369 3.36208 41.4103 3.45669 41.3938 3.45669C41.2628 3.45669 40.7892 3.29156 40.4905 3.1417C39.7823 2.78641 39.4421 2.73687 39.1297 2.94358C38.8939 3.09964 38.8984 3.17725 39.1537 3.35336C39.2268 3.40374 39.3862 3.47564 39.5079 3.51314C39.6297 3.55064 39.9285 3.65459 40.172 3.74424C40.5626 3.88799 40.6486 3.90446 40.9025 3.88436C41.0608 3.87183 41.242 3.84846 41.3052 3.83239L41.4201 3.80317L41.4473 4.18896C41.4623 4.40115 41.487 4.58714 41.5022 4.60233C41.5884 4.68813 41.9422 3.89707 42.256 2.91661C42.3441 2.64146 42.4622 2.3366 42.5184 2.2392C42.6245 2.05552 42.8353 1.83287 42.8701 1.86772C42.8811 1.8787 42.8201 2.06198 42.7345 2.27502C42.6035 2.60131 42.5783 2.71969 42.5743 3.02632C42.569 3.44558 42.6548 3.75513 42.8521 4.02745C43.0179 4.25625 43.1672 4.33129 43.531 4.36857C43.8693 4.40323 43.9163 4.34909 43.6728 4.20538C43.5388 4.12631 43.5045 4.0646 43.3787 3.67522C43.2535 3.28779 43.2393 3.19575 43.262 2.91396C43.2765 2.73479 43.3482 2.41762 43.4248 2.19493C43.5991 1.68748 43.7445 1.12235 43.7272 1.01946C43.7144 0.943134 43.7095 0.943222 43.6134 1.02167ZM24.1433 1.84722C24.0176 1.98287 24.0269 1.91301 24.0175 2.79261C24.0108 3.42114 23.9996 3.50938 23.8844 3.84226C23.7465 4.24067 23.4752 4.7378 23.3707 4.78367C23.3342 4.79969 23.1605 4.88625 22.9848 4.97594C22.7285 5.10677 22.616 5.13904 22.4159 5.13904C21.7993 5.13904 21.5283 4.77105 21.4215 3.78873C21.3633 3.25286 21.3149 3.05603 21.2126 2.93933C20.9272 2.61379 20.463 2.71491 20.2383 3.15161C20.0918 3.43619 20.0365 3.90398 20.0627 4.6373L20.0851 5.26446L19.8574 5.24715C19.7321 5.23759 19.4758 5.2209 19.2877 5.21005C19.0622 5.19704 18.849 5.15161 18.6617 5.07666C18.1508 4.8723 17.2963 4.64589 17.0161 4.64067C16.5751 4.63248 16.3355 4.85216 16.2675 5.3272C16.2509 5.44288 16.2215 5.53749 16.202 5.53749C16.1447 5.53749 15.8478 5.32467 15.5984 5.10477C15.3717 4.90493 15.1087 4.78362 14.6882 4.68494C14.5106 4.64328 14.4641 4.64841 14.334 4.72408C14.1108 4.85388 14.0378 5.09583 14.1124 5.45846C14.1703 5.73959 14.3708 6.29605 14.5754 6.7432C14.7384 7.09964 14.7411 7.15609 14.5945 7.14081C14.4377 7.12448 14.2399 7.22834 14.1413 7.37882C14.0834 7.46719 14.07 7.54759 14.0894 7.68908C14.1043 7.79781 14.0966 7.8918 14.0715 7.90725C14.0473 7.92222 13.9757 8.03679 13.9123 8.16191C13.8489 8.28698 13.712 8.47195 13.6082 8.57293C13.5042 8.67392 13.379 8.84746 13.3298 8.95868L13.2404 9.16082L12.7162 9.15325C12.1148 9.14458 11.9507 9.20001 11.8302 9.45267C11.7375 9.6472 11.7757 9.83908 11.9679 10.144C12.0512 10.276 12.1143 10.3891 12.1082 10.3952C12.1021 10.4013 11.8594 10.3573 11.569 10.2974C9.73379 9.91876 7.76005 10.1754 5.50406 11.086C3.59734 11.8555 2.43595 12.4501 1.63298 13.0676C1.15249 13.4371 0.960841 13.6187 0.642833 14.006C0.0211169 14.7629 -0.131977 15.3814 0.107492 16.1689C0.169429 16.3726 0.249871 16.6977 0.286308 16.8913C0.370204 17.3378 0.555705 17.7148 0.879601 18.0974C1.31161 18.6076 2.38331 19.4864 3.37899 20.1472C3.78191 20.4145 4.1507 20.7056 4.44153 20.9859C5.60832 22.1102 5.92275 22.3822 6.35608 22.6422C6.93702 22.9909 7.47653 23.2105 8.18046 23.3849C8.87593 23.5573 9.115 23.5907 9.115 23.5156C9.115 23.4251 7.95051 22.6278 7.33397 22.2962C6.66081 21.9341 6.43475 21.7485 5.15161 20.5053C4.66099 20.03 4.39177 19.8118 3.86771 19.4649C3.0717 18.9379 2.00553 18.086 1.63041 17.6771C1.3561 17.3781 1.14599 17.0326 1.14599 16.8804C1.14599 16.8351 1.1934 16.6602 1.25131 16.4915C1.30922 16.3229 1.37062 16.1065 1.38771 16.0105C1.416 15.8517 1.41224 15.8416 1.34557 15.8969C1.30528 15.9304 1.23356 16.0337 1.18614 16.1267C1.13873 16.2196 1.08219 16.2957 1.06054 16.2957C1.03894 16.2957 0.996612 16.158 0.966551 15.9897C0.918604 15.7214 0.921349 15.6546 0.988953 15.4474C1.23741 14.6856 2.02497 14.0373 4.11223 12.8764C5.537 12.0839 6.35962 11.7388 7.60974 11.409C8.69795 11.1218 9.54422 11.089 11.1073 11.2734C11.6308 11.3351 12.2384 11.3971 12.4576 11.4113C12.6767 11.4254 12.8781 11.4544 12.905 11.4758C12.932 11.4971 13.0117 11.5036 13.0821 11.4902C13.1525 11.4768 13.3297 11.4863 13.4758 11.5114C13.6219 11.5365 13.9108 11.5862 14.1178 11.6218C14.7984 11.7388 14.8985 11.6987 14.2884 11.5534C13.9382 11.47 13.4374 11.2464 13.1831 11.0601C13.0829 10.9867 13.0639 10.9331 13.0408 10.6582C13.0262 10.4838 13.0014 10.2689 12.9856 10.1807L12.957 10.0204L13.1973 9.9904C13.3294 9.97388 13.4949 9.93063 13.5649 9.89433C13.6652 9.84226 13.7176 9.83881 13.8124 9.87808C13.9646 9.94112 14.0773 9.88578 14.1995 9.68793C14.2489 9.60811 14.3521 9.49636 14.4289 9.43952C14.5902 9.32025 14.6933 9.10411 14.6933 8.8851C14.6933 8.75839 14.7197 8.71606 14.8475 8.63704C14.9715 8.56036 15.0812 8.44065 15.2031 8.24895C15.207 8.24275 15.3131 8.25718 15.4389 8.28104C15.863 8.36144 16.0207 8.1805 15.778 7.89198C15.6956 7.79409 15.6673 7.70922 15.6673 7.56007C15.6673 7.44983 15.6275 7.18375 15.5788 6.96877C15.4056 6.20348 15.3876 6.11232 15.4065 6.09342C15.4171 6.08288 15.5846 6.17674 15.7789 6.30194C16.0718 6.49067 16.1738 6.53255 16.3757 6.54699C16.7026 6.57036 16.7992 6.48815 17.0677 5.95799C17.1848 5.72671 17.2993 5.53749 17.322 5.53749C17.3447 5.53749 17.5844 5.61076 17.8546 5.70028C18.3132 5.85227 18.3825 5.86316 18.8992 5.86466C19.4896 5.86639 19.7975 5.79954 20.0257 5.62001C20.1577 5.5162 20.1383 5.48188 20.2883 6.08341C20.4027 6.54221 20.4273 6.59741 20.4874 6.53065C20.5355 6.47735 20.6513 5.84775 20.7373 5.17224C20.752 5.05656 20.7797 4.96195 20.7989 4.96195C20.818 4.96195 20.87 5.0423 20.9142 5.14054C21.0218 5.37895 21.3665 5.72268 21.6155 5.83974C22.1735 6.10201 22.8872 6.05092 23.3707 5.71414C23.4316 5.67172 23.5488 5.62245 23.6313 5.60456C24.0931 5.50451 24.7228 4.29521 24.8129 3.33494C24.8295 3.15839 24.858 3.01397 24.8763 3.01397C24.9202 3.01397 25.229 3.42659 25.3733 3.67805C25.5399 3.9683 25.6307 4.2721 25.6733 4.6814C25.7192 5.12337 25.8048 5.30178 26.0124 5.38851C26.2262 5.47786 26.3644 5.43783 26.7309 5.18043C27.0672 4.94424 27.1116 4.93118 27.2419 5.02978C27.4065 5.15431 27.6329 5.11128 27.9183 4.90121C28.2228 4.67701 28.6509 4.19006 28.7837 3.91664C28.86 3.75965 28.8658 3.71577 28.8183 3.65849C28.6931 3.50765 28.4624 3.61014 27.8919 4.07022C27.5861 4.31677 27.5536 4.32788 27.4242 4.23004C27.2828 4.12312 27.012 4.15039 26.7507 4.29787C26.6212 4.37092 26.4993 4.43068 26.4797 4.43068C26.46 4.43068 26.4106 4.28879 26.3699 4.11538C26.2288 3.51389 25.9171 2.98156 25.3442 2.36321C24.9241 1.90973 24.6664 1.73007 24.4362 1.73007C24.2938 1.73007 24.2273 1.75668 24.1433 1.84722ZM45.0707 4.07735C44.8619 4.17204 44.5328 4.41541 44.5328 4.475C44.5328 4.53348 44.9518 4.60777 45.2817 4.60777C45.5696 4.60777 45.5938 4.61618 45.8083 4.79066C46.0388 4.9782 46.1408 5.15963 46.1926 5.4744C46.2539 5.84709 46.2686 5.89167 46.3305 5.89167C46.3657 5.89167 46.4126 5.84381 46.4349 5.78537C46.4731 5.68492 46.4993 5.6781 46.9097 5.66159C47.1486 5.65193 47.3523 5.64985 47.3622 5.65689C47.3722 5.66389 47.3187 5.82721 47.2433 6.01975C47.038 6.54429 47.0248 6.66103 47.1557 6.79195C47.2306 6.86681 47.2975 6.89386 47.3724 6.87956C47.4705 6.86079 47.4882 6.88248 47.5596 7.10907C47.6519 7.40157 47.8874 7.66243 48.1194 7.72897C48.2367 7.76257 48.2768 7.79989 48.2862 7.88392C48.3125 8.11861 48.3453 8.19511 48.4487 8.2628C48.5745 8.34528 48.6907 8.30199 48.8715 8.10515C48.9324 8.03888 49.1295 7.92093 49.3096 7.84306C49.6086 7.71374 49.9346 7.51102 50.2572 7.25384C50.3629 7.16954 50.3871 7.16467 50.4225 7.22068C50.5009 7.3446 50.4698 8.18674 50.3676 8.7115L50.2698 9.21311L50.08 9.30502C49.8743 9.40459 49.7127 9.57756 49.7127 9.6982C49.7127 9.80622 49.8549 9.92045 49.9895 9.92045C50.1921 9.92045 50.5074 9.58039 50.5108 9.35819C50.5115 9.31436 50.5732 9.21873 50.648 9.14568C50.9456 8.85486 51.0926 8.40279 51.0928 7.7774C51.093 7.30457 50.9583 6.5156 50.8374 6.28193C50.7598 6.1318 50.583 6.05132 50.4391 6.1005C50.3368 6.13548 49.1372 7.37652 49.1372 7.44731C49.1372 7.54068 49.0442 7.47206 48.9878 7.33711C48.9158 7.16472 48.7174 7.00972 48.5177 6.96979C48.4197 6.95017 48.3457 6.89098 48.2706 6.77202C48.2117 6.67865 48.1086 6.56793 48.0415 6.526C47.9745 6.48408 47.9118 6.4441 47.9021 6.43724C47.8925 6.43037 47.9384 6.30491 48.0041 6.15841C48.1734 5.78117 48.2729 5.22679 48.2071 5.02734C48.0972 4.69455 47.8195 4.65643 47.3273 4.90657C47.1477 4.9979 46.9057 5.15732 46.7896 5.26079C46.6735 5.36425 46.569 5.44895 46.5573 5.44895C46.5457 5.44895 46.5273 5.28 46.5165 5.07356C46.4982 4.72567 46.4843 4.68002 46.327 4.45158C46.0995 4.12131 45.8678 3.98765 45.5251 3.98893C45.3609 3.98955 45.1916 4.02249 45.0707 4.07735ZM36.4026 6.63301C36.2661 6.7448 36.1654 6.96842 36.1654 7.15941C36.1654 7.37904 36.3175 7.68332 36.4952 7.8188C36.6672 7.95002 36.9964 8.0197 37.2132 7.97078C37.373 7.93475 37.6264 7.7318 37.6264 7.63985C37.6264 7.544 37.4207 7.39684 37.1918 7.32884C36.8982 7.24166 36.8216 7.13027 36.8387 6.81532L36.8516 6.57789L36.6745 6.5666C36.5576 6.55912 36.4652 6.5817 36.4026 6.63301ZM45.4183 7.30838C45.2964 7.43031 45.2984 7.83305 45.4224 8.10528C45.5085 8.29441 45.5163 8.30013 45.5768 8.218C45.6712 8.0897 45.7277 7.84855 45.7279 7.5718C45.7283 7.22976 45.6033 7.12341 45.4183 7.30838ZM37.7659 7.62922C37.6975 7.69762 37.7017 7.77413 37.7821 7.92966C37.8452 8.0518 38.0478 8.19383 38.159 8.19383C38.2297 8.19383 38.1677 7.9359 38.0605 7.78422C37.9468 7.62329 37.8322 7.56299 37.7659 7.62922ZM39.2035 7.81928C39.1507 7.95697 39.4104 8.19383 39.6144 8.19383C39.7524 8.19383 39.7287 8.07372 39.5566 7.90163C39.3968 7.74177 39.2466 7.70674 39.2035 7.81928ZM30.878 8.04202C30.7824 8.13765 30.7903 8.17988 30.9196 8.26466C31.0544 8.35299 31.2448 8.32443 31.4379 8.18692C31.5651 8.09639 31.5683 8.08722 31.4922 8.03161C31.3776 7.94785 30.9652 7.95485 30.878 8.04202ZM24.6784 8.12069C24.5752 8.19613 24.6252 8.28237 24.7721 8.28237C24.89 8.28237 25.1416 8.15527 25.1416 8.09572C25.1416 8.03702 24.7651 8.05734 24.6784 8.12069ZM20.3602 8.14238C20.3602 8.20029 20.63 8.42573 20.6616 8.39416C20.6996 8.35613 20.515 8.12924 20.4329 8.11312C20.3929 8.10524 20.3602 8.11839 20.3602 8.14238ZM18.9396 8.27662C18.8146 8.37778 18.8094 8.66121 18.9288 8.86562C19.1069 9.17052 19.6737 9.35505 20.1329 9.2576C20.476 9.18482 20.5277 9.15232 20.4498 9.05842C20.3832 8.97816 20.0698 8.82329 19.6843 8.6802C19.5061 8.61397 19.3877 8.53388 19.2917 8.41448C19.1202 8.20109 19.0613 8.17802 18.9396 8.27662ZM28.3587 8.35617C28.3054 8.40948 28.3278 8.64244 28.4012 8.79704C28.5002 9.00565 28.8237 9.27983 29.07 9.36372C29.3082 9.44487 29.67 9.45382 29.9423 9.38528C30.1445 9.33437 30.4542 9.11137 30.4542 9.01676C30.4542 8.91768 30.2221 8.84919 29.7582 8.81147C29.2759 8.7722 29.0516 8.69756 28.71 8.4626C28.515 8.32841 28.4163 8.29853 28.3587 8.35617ZM34.632 8.56961C34.5979 8.6586 34.8018 8.99728 34.9802 9.14785C35.1151 9.26172 35.1259 9.26411 35.138 9.18296C35.1551 9.06927 35.0006 8.71142 34.8842 8.59502C34.777 8.4878 34.6677 8.47677 34.632 8.56961ZM43.6764 8.80607C43.5904 8.90103 43.5862 8.94934 43.6511 9.09203C43.7234 9.25043 43.9188 9.34491 44.1744 9.34491C44.2985 9.34491 44.3999 9.32999 44.3998 9.3117C44.3994 9.22263 44.206 8.97904 44.0407 8.85924C43.8253 8.70323 43.776 8.69601 43.6764 8.80607ZM39.6485 9.06413C39.5887 9.1239 39.7234 9.21209 39.8744 9.21209C40.028 9.21209 40.0294 9.2105 39.9506 9.12355C39.8729 9.03757 39.7076 9.00507 39.6485 9.06413ZM41.8637 9.23702C41.7079 9.39277 41.6732 9.59483 41.7646 9.81366C41.9243 10.196 42.2616 10.3871 42.7694 10.3829C43.0171 10.3808 43.0989 10.3592 43.2785 10.2484C43.4058 10.1698 43.4979 10.0788 43.5059 10.0235C43.529 9.86458 43.2429 9.69594 42.7309 9.56671C42.5865 9.53023 42.5169 9.47795 42.4196 9.33273C42.3172 9.17973 42.2659 9.14325 42.1379 9.13244C42.0168 9.12217 41.9549 9.14581 41.8637 9.23702ZM23.2993 9.23117C23.2635 9.32441 23.3864 9.46059 23.6142 9.58004C23.9536 9.7581 24.5871 9.67172 24.8288 9.41437L24.9278 9.309L24.8244 9.27447C24.7675 9.25543 24.462 9.23755 24.1454 9.23467C23.8289 9.23175 23.5153 9.21342 23.4486 9.19389C23.3548 9.16649 23.3209 9.17495 23.2993 9.23117ZM44.9543 9.36217C44.7851 9.53134 44.7972 9.82119 44.9821 10.0318C45.1821 10.2596 45.3467 10.3328 45.6037 10.3081C45.7219 10.2967 45.8318 10.2744 45.8478 10.2583C45.8886 10.2175 45.7629 9.9683 45.6118 9.79033C45.5419 9.70798 45.4448 9.55914 45.3961 9.45957C45.2842 9.2306 45.1217 9.19478 44.9543 9.36217ZM51.4496 9.54077C51.0059 9.65875 50.7752 9.78909 50.7752 9.92191C50.7752 10.0388 50.9346 10.112 51.1226 10.0815C51.3404 10.0461 52.3207 10.1268 52.7184 10.2127C53.137 10.3032 53.5494 10.473 53.9407 10.716C54.4726 11.0463 55.0423 11.3311 55.3159 11.4036C55.7644 11.5223 56.4402 11.6011 57.0176 11.6021C57.855 11.6036 58.8629 11.6785 59.7445 11.8047C60.2514 11.8773 60.9922 11.9402 61.799 11.9792C63.7005 12.0712 65.7198 12.2936 66.2614 12.4707C66.366 12.5048 66.6947 12.5821 66.9919 12.6422C67.8538 12.8167 68.5794 13.1058 68.8988 13.4019C69.0378 13.5309 69.1482 13.7576 69.1483 13.9146C69.1485 14.07 68.7529 15.7071 68.6399 16.0186C68.3658 16.7742 67.9291 17.2117 66.7541 17.9077C65.8134 18.4648 64.9969 18.9909 64.3273 19.4713C62.8058 20.5628 62.2593 21.059 61.4374 22.0953C60.6858 23.0429 60.5865 23.1182 59.6246 23.471C58.9116 23.7323 58.3182 24.026 57.7038 24.4213C56.5379 25.1717 56.3993 25.2393 55.6594 25.4188C55.0696 25.5619 54.7536 25.73 54.3862 26.0961C54.1507 26.3308 54.0357 26.4883 53.9386 26.7095C53.8667 26.8732 53.7948 27.0077 53.7789 27.0084C53.7629 27.009 53.6968 26.919 53.6319 26.8082C53.5462 26.662 53.4573 26.5805 53.3067 26.5103C53.1928 26.4571 53.092 26.409 53.0827 26.4033C53.0734 26.3976 53.102 26.3175 53.1463 26.2253C53.2641 25.9798 53.2822 25.5897 53.1872 25.341C53.0918 25.0911 52.8527 24.8186 52.6284 24.7042C52.4466 24.6115 52.1704 24.5906 52.1238 24.666C52.0589 24.7709 52.1619 25.0194 52.3878 25.3029C52.6499 25.6318 52.6997 25.7874 52.6557 26.1402C52.6276 26.3649 52.6216 26.3727 52.3983 26.4796C52.0369 26.6526 52.0618 26.7361 52.5307 26.9224C52.9094 27.0728 52.9862 27.1376 53.1058 27.408C53.1219 27.4445 53.206 27.569 53.2925 27.6847C53.4483 27.893 53.5466 27.9393 53.6385 27.8475C53.7018 27.7841 53.8541 28.0304 53.9151 28.2948C53.9881 28.6116 53.9758 29.1573 53.8942 29.225C53.856 29.2567 53.8314 29.3328 53.8388 29.3964C53.8494 29.4874 53.9074 29.5382 54.1211 29.6438C54.2691 29.7168 54.4244 29.8109 54.4662 29.8529C54.5081 29.8949 54.6203 29.9502 54.7156 29.9758C54.938 30.0357 54.9636 30.0828 54.8512 30.2257C54.7055 30.4109 54.7329 30.5775 54.9258 30.6791C54.983 30.7092 55.0255 30.7733 55.0258 30.8296C55.026 30.8835 55.0758 31.0342 55.1365 31.1645C55.1971 31.2947 55.2467 31.4313 55.2467 31.468C55.2467 31.5048 55.3094 31.6661 55.386 31.8266C55.512 32.0906 55.5199 32.1311 55.4692 32.2535C55.275 32.7221 55.1872 33.4192 55.3025 33.5769C55.3332 33.6188 55.4776 33.6886 55.6234 33.7319C55.8294 33.793 55.9109 33.8436 55.9883 33.9584C56.0902 34.1096 56.115 34.3848 56.0483 34.6244C56.0197 34.727 55.9977 34.7351 55.746 34.7355C55.5967 34.7357 55.4613 34.7493 55.4449 34.7656C55.4286 34.7819 55.5294 34.8813 55.6689 34.9865C55.8085 35.0917 56.0807 35.3272 56.2739 35.5098C56.4671 35.6925 56.6437 35.8485 56.6665 35.8566C56.6891 35.8648 56.7077 35.8078 56.7077 35.7301C56.7077 35.613 56.7209 35.5943 56.7852 35.6208C56.9563 35.6913 57.0077 35.6905 57.0815 35.6167C57.1719 35.5263 57.1477 35.3192 57.0318 35.1911C56.9683 35.1209 56.9654 35.08 57.0102 34.886C57.123 34.3972 57.0419 33.8118 56.8152 33.4781C56.6786 33.2771 56.3973 33.09 56.1753 33.0525C56.0785 33.0362 55.9994 33.0155 55.9994 33.0065C55.9994 32.9976 56.0483 32.9181 56.1081 32.83C56.2646 32.5995 56.3979 32.2158 56.3968 31.9996C56.3959 31.8085 56.2703 31.4726 56.1788 31.4161C56.1433 31.3941 56.1367 31.2923 56.1572 31.0839C56.1904 30.7469 56.1389 30.531 55.9798 30.3399C55.9246 30.2736 55.8545 30.1429 55.824 30.0495C55.7575 29.8456 55.5499 29.599 55.3636 29.5027C55.2891 29.4641 55.1298 29.4203 55.0097 29.4053C54.6985 29.3665 54.6759 29.2989 54.8678 28.9806C55.0727 28.6409 55.1287 28.4381 55.1316 28.0278C55.1343 27.6314 55.0186 27.349 54.7693 27.1435C54.6815 27.0712 54.6186 27.0051 54.6294 26.9968C55.2428 26.5209 55.406 26.4341 55.9329 26.3031C56.7205 26.1073 57.0498 25.953 57.9635 25.3516C58.6994 24.8673 59.184 24.6176 59.9346 24.336C61.029 23.9255 61.276 23.7424 62.0557 22.7639C62.8572 21.7581 63.472 21.192 64.7663 20.2683C65.7378 19.5749 66.3179 19.1943 67.1781 18.6862C68.402 17.9633 68.9075 17.4768 69.2907 16.6536C69.4656 16.2779 69.5522 15.9807 69.8113 14.8657C69.9962 14.0704 70.0288 13.8122 69.9791 13.5383C69.9278 13.2563 69.7661 13.0191 69.4203 12.7186C68.7189 12.1091 67.8004 11.7423 66.3583 11.4959C65.8516 11.4094 64.301 11.1768 63.8356 11.1175C60.7886 10.7297 60.5573 10.7104 57.9695 10.6299C56.6513 10.5888 55.9189 10.5325 55.5788 10.4459C55.4814 10.4212 55.1837 10.3003 54.9173 10.1774C53.4318 9.49193 52.3678 9.29661 51.4496 9.54077ZM37.2832 9.50898C37.1384 9.53687 37.0839 9.6634 37.1661 9.78077C37.2541 9.90641 37.548 9.91013 37.7481 9.78812C37.9468 9.66699 37.9304 9.58646 37.6953 9.52727C37.4949 9.4768 37.4587 9.4752 37.2832 9.50898ZM32.7785 10.009C32.7936 10.0333 32.8147 10.0533 32.8254 10.0533C32.8362 10.0533 32.8449 10.0333 32.8449 10.009C32.8449 9.98464 32.8238 9.96472 32.7981 9.96472C32.7723 9.96472 32.7635 9.98464 32.7785 10.009ZM21.4227 10.2487C21.4227 10.2861 21.4825 10.3475 21.5555 10.3853C21.7009 10.4605 21.7338 10.4159 21.6109 10.3104C21.4756 10.1943 21.4227 10.1769 21.4227 10.2487ZM31.7935 10.7909C31.7631 10.8032 31.7381 10.8537 31.7381 10.9031C31.7381 10.9865 31.7596 10.9915 32.037 10.9728C32.3649 10.9506 32.6 10.8752 32.5572 10.806C32.5297 10.7615 31.8973 10.749 31.7935 10.7909ZM41.4993 11.4851C41.2131 12.088 41.1304 12.1467 40.4294 12.2445C39.8831 12.3207 39.2202 12.5152 39.2202 12.5992C39.2202 12.6643 39.4855 12.7966 39.8901 12.9331C40.1244 13.0123 40.2467 13.0254 40.6147 13.0106C41.2929 12.9834 41.6639 12.7723 41.9077 12.2749C42.1338 11.8137 42.0486 11.2124 41.7509 11.1681C41.6722 11.1564 41.63 11.2095 41.4993 11.4851ZM22.0548 11.5253C21.9518 11.6584 21.954 11.757 22.0652 11.9843C22.1757 12.21 22.5898 12.6198 22.6483 12.5612C22.709 12.5006 22.2452 11.47 22.1573 11.47C22.1245 11.47 22.0784 11.4949 22.0548 11.5253ZM26.2654 11.7684C26.0866 11.8903 26.1916 12.2147 26.497 12.4835C26.9763 12.9053 27.7452 12.8072 27.9888 12.2931C28.114 12.0289 28.0703 11.9817 27.7416 12.026C27.1908 12.1003 27.0004 12.081 26.7476 11.9249C26.4913 11.7667 26.34 11.7175 26.2654 11.7684ZM38.6346 11.8225C38.4574 11.9619 38.2178 12.6211 38.3444 12.6211C38.3728 12.6211 38.4997 12.5141 38.6262 12.3835C38.8694 12.1324 38.9587 11.9138 38.8645 11.8002C38.7945 11.7159 38.7668 11.7185 38.6346 11.8225ZM33.6327 11.9958C33.5912 12.0109 33.4543 12.1388 33.3286 12.2799C33.0065 12.6413 32.7595 12.7561 32.2262 12.7919C31.6233 12.8324 31.4705 12.9495 31.6129 13.262C31.6414 13.3246 31.7361 13.4202 31.8232 13.4744C31.9564 13.5572 32.0452 13.5729 32.3801 13.5729C32.7352 13.5729 32.8105 13.5578 33.073 13.4334C33.5308 13.2165 33.8536 12.8423 33.9289 12.4414C33.9798 12.17 33.8188 11.9277 33.6327 11.9958ZM30.6203 12.0459C30.3907 12.189 30.6591 12.4878 31.0174 12.4881C31.2199 12.4882 31.6939 12.3024 31.6939 12.2228C31.6939 12.0812 30.7999 11.934 30.6203 12.0459ZM15.3562 12.4391C15.4895 12.5609 15.7034 12.7264 15.8316 12.8068C15.9598 12.8873 16.0649 12.979 16.0652 13.0106C16.0655 13.0423 16.2107 13.137 16.3878 13.2211C16.6458 13.3436 16.8046 13.3846 17.186 13.4273C17.5574 13.4687 17.6569 13.4938 17.6387 13.5413C17.6258 13.5749 17.6153 13.6294 17.6153 13.6625C17.6153 13.6956 17.4957 13.7864 17.3496 13.8643C17.2035 13.9421 17.084 14.0222 17.084 14.0422C17.084 14.1071 17.4495 14.1792 17.7724 14.1779C17.9807 14.1771 18.1759 14.1446 18.3494 14.0818C18.4935 14.0295 18.6612 13.9809 18.7221 13.9737C18.783 13.9665 18.8476 13.9581 18.8658 13.9549C18.937 13.9426 19.2534 13.6255 19.2534 13.5664C19.2534 13.4773 19.1317 13.4421 19.052 13.5082C18.9977 13.5533 18.9633 13.5527 18.8736 13.5047C18.778 13.4535 18.706 13.4581 18.3549 13.5376C18.1307 13.5883 17.9341 13.622 17.918 13.6123C17.9019 13.6026 17.911 13.5357 17.9382 13.4636C18.0056 13.2851 17.9383 13.1115 17.7618 13.0084C17.5701 12.8964 16.8487 12.8159 16.5559 12.8739C16.3443 12.9156 16.3248 12.9108 16.0782 12.7548C15.9367 12.6654 15.6619 12.508 15.4675 12.405L15.1139 12.2178L15.3562 12.4391ZM43.2932 12.2716C43.2932 12.2986 43.2637 12.3093 43.2277 12.2955C43.1917 12.2817 43.0772 12.309 42.9732 12.3562C42.86 12.4075 42.685 12.4424 42.5376 12.443C42.2786 12.444 41.8549 12.5485 41.8091 12.6226C41.7559 12.7088 41.8355 12.8229 42.0516 12.97C42.2346 13.0945 42.3232 13.1233 42.5784 13.1416C42.8079 13.158 42.9217 13.1454 43.0296 13.0915C43.109 13.0519 43.1882 13.0195 43.2056 13.0195C43.2229 13.0195 43.277 13.1154 43.3257 13.2326C43.5304 13.7252 43.9205 13.9713 44.4886 13.9661C44.9162 13.9623 45.2674 13.8304 45.5363 13.5727C45.7054 13.4107 45.7324 13.3611 45.7203 13.2344C45.7081 13.1076 45.6874 13.0838 45.5781 13.0713C45.5077 13.0633 45.2624 13.1007 45.033 13.1544C44.6119 13.2531 44.3211 13.2522 44.1335 13.1519C44.0863 13.1266 43.9648 12.9838 43.8634 12.8345C43.5557 12.3814 43.2932 12.1223 43.2932 12.2716ZM50.1997 12.4178C50.1997 12.4712 50.4646 13.0047 51.0066 14.0432C51.1015 14.2249 51.1534 14.4159 51.1992 14.7515C51.2832 15.3673 51.3399 15.5961 51.4995 15.9636C51.6285 16.2608 51.6342 16.3 51.6363 16.9175L51.6385 17.5614L51.8046 17.8976C51.8959 18.0825 51.9706 18.2765 51.9706 18.3286C51.9706 18.4673 51.7363 18.9083 51.3935 19.4148C51.228 19.6594 51.0098 20.0175 50.9088 20.2104C50.774 20.4677 50.6435 20.6367 50.4194 20.8442C49.9813 21.2499 49.8797 21.4814 49.715 22.4495C49.4865 23.7923 49.2542 24.7078 48.9948 25.2875C48.7874 25.751 48.513 26.2569 48.4691 26.2569C48.4487 26.2569 48.4089 26.2121 48.3808 26.1573C48.3094 26.0179 48.0234 25.7257 47.9585 25.7257C47.856 25.7257 47.8353 26.0197 47.8324 27.5187C47.829 29.213 47.8235 29.2578 47.4717 30.4263C47.1171 31.6042 47.0832 31.9983 47.2398 33.1233C47.3575 33.9692 47.3674 34.7613 47.265 35.1444C47.2244 35.2964 47.0529 35.7547 46.8839 36.1626C46.5487 36.9719 46.4436 37.2959 46.1691 38.3654C45.7717 39.9137 45.4662 40.6894 45.1391 40.9811C44.7433 41.3342 44.4826 41.5397 44.4597 41.5167C44.4467 41.5038 44.4764 41.3273 44.5257 41.1246C44.6448 40.6353 44.6686 40.0699 44.5702 40.0699C44.4603 40.0699 44.1767 40.4395 43.9692 40.8532C43.7763 41.238 43.5719 41.7369 42.8211 43.6559C42.5663 44.3071 41.9761 45.4931 41.8321 45.6433C41.7712 45.7069 41.6404 45.8302 41.5414 45.9175C41.4424 46.0047 41.1474 46.3181 40.8859 46.6139C40.0366 47.5744 38.7287 48.5184 38.0469 48.6629C37.8882 48.6966 37.4517 48.7197 36.9623 48.7203C35.4819 48.7224 34.385 48.44 33.022 47.7058C32.0086 47.16 31.8562 47.0431 30.7199 45.9404C29.8724 45.118 29.4697 44.807 29.252 44.807C29.1411 44.807 29.1261 44.8232 29.1261 44.942C29.1261 45.1847 29.3627 45.5496 29.9286 46.1795C30.2416 46.5279 30.8396 47.1274 31.2069 47.4611C31.5748 47.7953 30.786 47.2775 29.9894 46.6618C29.3336 46.1549 28.6631 45.43 27.8846 44.3864C27.703 44.1429 27.5245 43.9194 27.488 43.8898C27.4023 43.8202 27.2547 43.8184 27.1869 43.8861C27.088 43.9851 27.1331 44.1467 27.3739 44.5549C27.7948 45.2686 28.0634 45.6088 28.7913 46.3502C29.8952 47.4744 30.276 47.7645 31.4504 48.3755C32.6795 49.0149 33.7771 49.3417 35.2135 49.4962C35.4327 49.5197 35.8112 49.5716 36.0547 49.6114C36.712 49.719 37.319 49.6808 38.0691 49.4849C38.7622 49.3038 39.0635 49.1843 39.8842 48.7649C40.4805 48.4602 40.4835 48.4579 41.1407 47.7954C41.503 47.4301 41.9 47.0118 42.0229 46.8657C42.679 46.0854 43.2768 44.8927 43.9099 43.1007C43.9877 42.8805 44.0651 42.6807 44.0818 42.6567C44.0986 42.6327 44.2315 42.5888 44.3773 42.5591C44.5419 42.5256 44.7265 42.4468 44.8643 42.3513C45.3575 42.0095 45.8501 41.5805 46.0445 41.3233C46.3663 40.8974 46.6652 40.0536 47.1191 38.29C47.315 37.529 47.4759 37.0596 47.849 36.1607C48.2114 35.2876 48.2919 34.6724 48.1813 33.6218C48.1406 33.2357 48.0982 32.6508 48.087 32.3219C48.0646 31.6645 48.0619 31.6799 48.4097 30.457C48.6663 29.5547 48.7381 29.0553 48.7384 28.1721L48.7387 27.453L48.8892 27.2558C49.2789 26.7454 49.7882 25.7737 49.9929 25.1501C50.1825 24.573 50.3914 23.5983 50.5525 22.5398C50.6024 22.2121 50.6614 21.9258 50.6836 21.9036C50.7078 21.8794 50.7368 21.9492 50.7561 22.0789C50.7964 22.3482 51.0858 23.253 51.2088 23.494C51.3866 23.8426 51.903 24.1254 52.4248 24.16C52.8133 24.1857 52.9016 24.1447 52.8133 23.9799C52.7402 23.8432 52.3745 23.4602 52.1131 23.2464C51.9469 23.1105 51.8993 23.0267 51.7258 22.5645C51.5079 21.9843 51.4992 21.9187 51.594 21.5641C51.6297 21.4301 51.6808 21.1612 51.7074 20.9664C51.7737 20.4806 51.8559 20.3236 52.2985 19.8374C52.7278 19.3659 52.8812 19.0923 52.9248 18.7206C52.9532 18.4786 52.9669 18.4562 53.2262 18.2287C53.8359 17.6939 54.5815 17.3137 55.3401 17.1508C55.6222 17.0902 55.9088 17.071 56.5306 17.0709L57.3497 17.0708L58.0532 17.2588C58.4402 17.3622 58.8026 17.4467 58.8586 17.4467C58.9146 17.4467 58.9719 17.4653 58.9859 17.4881C59 17.5108 58.8162 17.725 58.5775 17.964C58.3388 18.203 58.0119 18.5705 57.8509 18.7807C57.4518 19.3015 57.0906 19.8366 57.1189 19.8649C57.2015 19.9475 58.2759 19.1547 59.3764 18.199C59.6145 17.9923 59.9728 17.7135 60.1724 17.5795C60.3721 17.4456 60.5757 17.2727 60.6249 17.1954C60.7388 17.0165 61.1812 16.8035 61.9796 16.5433C62.5518 16.3568 63.6243 15.9048 63.7189 15.8102C63.7897 15.7394 62.83 15.7549 62.286 15.8334C62.0304 15.8702 61.6618 15.9181 61.467 15.9398C61.2722 15.9615 60.8899 16.0484 60.6175 16.1329C59.8929 16.3578 59.7882 16.3643 59.0035 16.234C58.6296 16.1719 58.1524 16.1004 57.943 16.0751C57.4696 16.018 55.7469 15.995 55.612 16.0441C55.4053 16.1192 55.5244 15.961 56.1211 15.3684C57.174 14.3226 57.6059 14.0309 58.5827 13.7055C59.2626 13.4791 59.5129 13.4496 60.5045 13.4786C62.0922 13.5251 63.4105 13.589 63.7249 13.6347C64.639 13.7677 65.0903 13.8158 65.4294 13.8165C66.0029 13.8176 66.9932 14.092 67.2385 14.3178C67.296 14.3707 67.4016 14.5171 67.4731 14.6429C67.6167 14.8957 67.9715 15.2488 68.0547 15.2217C68.1527 15.1899 68.2342 14.9477 68.2375 14.6788C68.2416 14.3331 68.0346 13.8886 67.773 13.6813C67.4262 13.4067 67.0874 13.3238 65.2338 13.0603C63.5348 12.8187 62.9273 12.7548 62.3265 12.7543C61.9298 12.754 61.6689 12.7239 61.1754 12.6214C60.1975 12.4184 59.3967 12.4459 58.545 12.7117C57.6845 12.9802 55.9697 13.9845 54.8831 14.8564C54.3612 15.2751 53.5746 16.0721 52.9003 16.8653L52.4354 17.4121L52.4104 16.7985C52.387 16.2235 52.3268 15.9342 52.1908 15.7423C52.0963 15.6089 51.9281 14.9409 51.8618 14.4359C51.7911 13.8973 51.1559 13.0264 50.4432 12.4909C50.2439 12.3412 50.1997 12.3279 50.1997 12.4178ZM36.9955 12.6193C36.8722 12.7401 36.6997 12.8721 36.6122 12.9126C35.9769 13.207 35.5667 13.4454 35.3331 13.6557C35.239 13.7404 35.2373 13.7497 35.311 13.7788C35.3548 13.796 35.594 13.8116 35.8427 13.8133C36.2025 13.8158 36.3625 13.7949 36.6265 13.7111C36.809 13.6531 36.9691 13.6166 36.9824 13.6299C36.9957 13.6432 37.0063 13.7056 37.0061 13.7685C37.0058 13.8313 37.0479 14.0032 37.0996 14.1503L37.1935 14.4178L37.0785 14.5872C36.8821 14.8766 36.8229 15.2477 36.9183 15.5911C37.0252 15.9759 37.5396 16.3031 37.785 16.1424C37.872 16.0854 37.892 16.0349 37.892 15.8723C37.892 15.7597 37.8533 15.5965 37.8034 15.4988C37.7099 15.3154 37.689 15.077 37.757 14.9696C37.7923 14.9137 37.8292 14.9152 38.0369 14.9806C38.5281 15.1355 39.1077 15.0438 39.4002 14.7649L39.5138 14.6567L39.6215 14.7721C39.7916 14.9543 40.0543 15.0658 40.3699 15.0897L40.659 15.1116L40.5262 14.9696C40.3858 14.8196 39.8366 14.4362 39.7619 14.4362C39.7377 14.4362 39.6905 14.3948 39.6569 14.3442C39.5858 14.2372 39.3391 14.2193 38.7547 14.2788C38.4372 14.3111 38.3756 14.3044 38.1678 14.215C37.8941 14.0973 37.7208 13.9133 37.5327 13.5407C37.4015 13.2808 37.3986 13.2636 37.4667 13.1484C37.5578 12.9941 37.5591 12.6268 37.4689 12.4981C37.3635 12.3475 37.2411 12.3789 36.9955 12.6193ZM8.93791 12.5578C8.34373 12.6153 7.36461 12.7739 6.81089 12.9025C5.45284 13.2178 3.06842 14.3057 2.11219 15.0464C1.86554 15.2374 1.59575 15.5648 1.64463 15.6137C1.65831 15.6274 2.0348 15.4582 2.48133 15.2379C4.07867 14.4497 6.00443 13.7578 7.16702 13.5546C8.56323 13.3105 9.90075 13.3181 10.9225 13.576C11.4354 13.7054 11.7667 13.8548 12.0812 14.0983C12.2152 14.202 12.3995 14.332 12.4908 14.3873C12.695 14.5108 12.705 14.5776 12.5129 14.5347C12.4337 14.5171 12.0702 14.5036 11.7049 14.5048C11.0968 14.5067 10.983 14.5206 10.3546 14.6703C9.5413 14.8641 9.19766 15.0207 8.64093 15.4516C7.96073 15.978 7.38896 16.6987 6.9287 17.6097C6.58502 18.2899 6.59422 18.3238 7.03283 17.9941C7.42229 17.7013 7.74251 17.4075 8.27267 16.8562C8.86158 16.2438 9.27097 15.9623 9.92204 15.722C10.2713 15.5931 10.8043 15.4536 10.8471 15.48C10.8677 15.4928 10.8079 15.6566 10.714 15.8441C10.4781 16.3155 10.2502 17.3596 10.3949 17.3065C10.4726 17.278 10.98 16.6385 11.2817 16.1889C11.75 15.4908 11.9663 15.3398 12.4308 15.3863C12.7728 15.4204 13.5571 15.5996 13.789 15.6965C13.8776 15.7335 13.9675 15.7531 13.9888 15.7399C14.0657 15.6924 14.2164 15.8202 14.2963 16.0008C14.3412 16.1023 14.3985 16.3492 14.4236 16.5495C14.4685 16.9079 14.5514 17.124 14.7715 17.4566C14.8775 17.6168 14.8806 17.6411 14.85 18.0774C14.831 18.3501 14.7824 18.6286 14.7285 18.7749C14.6792 18.9088 14.6291 19.0717 14.6172 19.1368C14.5838 19.3204 14.6845 19.5599 14.8404 19.6674C14.9178 19.7208 14.9893 19.7708 14.9993 19.7786C15.0092 19.7863 14.9833 19.8304 14.9415 19.8765C14.8998 19.9226 14.8267 20.0627 14.7792 20.1879C14.6566 20.5105 14.7198 20.7493 14.9907 20.9878L15.1885 21.1618L15.0447 21.3622C14.9655 21.4724 14.8661 21.5735 14.8236 21.587C14.6553 21.6404 14.2112 21.962 14.0946 22.1149C14.0266 22.204 13.9373 22.3805 13.8961 22.5071L13.8212 22.7373L13.5762 22.7641C13.2071 22.8045 12.9752 22.9782 12.7177 23.4071C12.6707 23.4854 12.6635 23.4858 12.5833 23.4141C12.3816 23.2337 12.0714 23.1431 11.5845 23.1224C11.1637 23.1046 11.0681 23.1154 10.7413 23.2173C10.1113 23.4137 9.73131 23.7201 9.53634 24.1889C9.49795 24.2811 9.45435 24.5429 9.43938 24.7706L9.4122 25.1846L9.20275 25.2125C8.98568 25.2412 8.7053 25.4114 8.51307 25.6309C8.45676 25.6952 8.3351 25.912 8.24266 26.1126L8.0746 26.4775L7.8806 26.4779C7.71653 26.4782 7.66406 26.5021 7.54046 26.6332C7.40631 26.7755 7.37319 26.7883 7.13678 26.7892C6.80593 26.7904 6.5631 26.9009 6.28919 27.1748C5.86218 27.6018 5.66712 28.227 5.79484 28.7594L5.85218 28.9984L5.63179 29.1966C5.18845 29.5952 4.98209 30.2217 5.14971 30.6605C5.24117 30.9 5.44434 31.0826 5.61935 31.0826C5.80644 31.0826 5.85435 30.9599 5.81813 30.5734C5.78028 30.1694 5.83247 29.9724 6.06229 29.6515C6.19298 29.469 6.27046 29.4003 6.34568 29.4003C6.40261 29.4003 6.4657 29.3654 6.48585 29.3228C6.50603 29.2801 6.52312 28.9863 6.52379 28.6698C6.52494 28.1574 6.53645 28.0712 6.62862 27.8839C6.73253 27.673 7.08157 27.2752 7.16281 27.2752C7.18955 27.2752 7.19588 27.3976 7.17933 27.5949L7.15254 27.9147L7.26889 27.8384C7.41127 27.7451 7.43265 27.7439 7.43265 27.8286C7.43265 28.0182 7.67646 27.8049 7.84846 27.4647C7.88813 27.3862 7.96166 27.3001 8.01191 27.2732C8.08926 27.2318 8.10701 27.2386 8.12755 27.3171C8.16363 27.455 8.23132 27.3794 8.57342 26.8192C8.89709 26.2891 9.18774 25.9361 9.38417 25.8345C9.56715 25.7399 9.58318 25.7495 9.62776 25.9802C9.65012 26.0959 9.68833 26.1908 9.71268 26.1912C9.73703 26.1916 9.78187 26.2077 9.81238 26.227C9.84926 26.2505 9.88237 26.2239 9.91137 26.1477C9.9819 25.9622 10.1215 25.3804 10.2013 24.9394C10.2453 24.696 10.3145 24.4715 10.3717 24.3867C10.6225 24.0145 11.3655 23.8417 12.2961 23.9389L12.5682 23.9674L12.5701 24.2156C12.5727 24.5516 12.669 24.9509 12.7475 24.9509C12.8274 24.9509 13.1644 24.4032 13.2816 24.0828C13.3465 23.9055 13.4251 23.7917 13.5569 23.6842C13.9184 23.3895 13.8882 23.4005 13.9487 23.5407C14.0824 23.8499 14.3467 24.2177 14.4367 24.2197C14.5004 24.2211 14.5651 23.8733 14.5912 23.3898L14.618 22.8912L14.8493 22.7588C14.9765 22.6861 15.1678 22.5319 15.2743 22.4163C15.3809 22.3007 15.5278 22.1762 15.6009 22.1396C15.6868 22.0967 15.7519 22.0173 15.7854 21.9148C15.8138 21.8277 15.8976 21.6667 15.9716 21.5572C16.1299 21.3225 16.242 21.2793 16.877 21.2085C17.4689 21.1425 17.9241 21.052 17.9851 20.9883C18.0542 20.9161 17.6116 20.9644 16.985 21.0974C16.5717 21.1851 16.5027 21.1899 16.4563 21.134C16.4269 21.0985 16.3216 21.0137 16.2222 20.9453C16.1229 20.8769 16.0149 20.7712 15.9823 20.7104C15.9291 20.611 15.935 20.5825 16.0399 20.4289C16.1491 20.2691 16.3314 19.7717 16.3314 19.6336C16.3314 19.5954 16.2839 19.5718 16.2071 19.5718C16.1045 19.5718 16.0691 19.5407 16.0043 19.3941C15.9588 19.2908 15.8717 19.1882 15.7966 19.1494C15.6487 19.0729 15.6529 19.0842 15.7129 18.9264C15.7459 18.8395 15.7429 18.7623 15.7018 18.6468C15.6678 18.5509 15.6452 18.2748 15.6452 17.9559C15.6452 17.3989 15.6215 17.3109 15.3866 16.9931L15.2967 16.8715L15.3934 16.6993C15.4466 16.6046 15.4898 16.47 15.4892 16.4003C15.4878 16.2136 15.3464 15.9406 15.1599 15.7644C15.0696 15.6792 14.9179 15.4766 14.8226 15.3143C14.661 15.0388 14.288 14.6133 14.2082 14.6133C14.1887 14.6133 14.086 14.4988 13.9799 14.3587C13.4513 13.6613 13.2072 13.4456 13.0542 13.5412C12.9917 13.5802 12.9593 13.5715 12.8938 13.4981C12.7591 13.3472 12.3824 13.083 12.0951 12.938C11.7529 12.7652 11.2644 12.6372 10.6291 12.5539C10.0488 12.4777 9.75969 12.4785 8.93791 12.5578ZM34.4153 12.786C34.3732 12.8866 34.3514 13.0463 34.3594 13.1955L34.3723 13.4401L34.4941 13.2091C34.6312 12.949 34.6624 12.6211 34.55 12.6211C34.5138 12.6211 34.4532 12.6953 34.4153 12.786ZM46.4454 12.6742C46.3215 12.7981 46.4299 13.123 46.6462 13.2765C46.9596 13.4988 47.2576 13.612 47.643 13.6553C47.7554 13.6679 47.809 13.6562 47.809 13.619C47.809 13.5426 46.6362 12.6211 46.5389 12.6211C46.5167 12.6211 46.4746 12.645 46.4454 12.6742ZM13.144 12.9863C13.1443 13.2714 13.4123 13.5441 13.5665 13.4162C13.6564 13.3416 13.6466 13.2286 13.5383 13.091C13.4579 12.9888 13.2399 12.8424 13.1681 12.8424C13.1547 12.8424 13.1439 12.9071 13.144 12.9863ZM27.7257 13.247C27.4428 13.3525 27.3188 13.4758 27.3987 13.5721C27.4722 13.6606 27.6844 13.6577 27.8238 13.5664C27.9168 13.5054 28.0635 13.2969 28.0635 13.2257C28.0635 13.1644 27.9232 13.1733 27.7257 13.247ZM24.7284 13.2261C24.6693 13.2852 24.7013 13.5321 24.786 13.671C24.9526 13.9442 25.6526 14.294 25.947 14.2512C26.0406 14.2375 26.0386 14.2304 25.8963 14.0687C25.8149 13.9762 25.5968 13.7831 25.4117 13.6397C25.2266 13.4962 25.0459 13.3379 25.01 13.2878C24.9473 13.1998 24.7892 13.1653 24.7284 13.2261ZM34.7487 13.2851C34.7487 13.3095 34.7773 13.3294 34.8125 13.3294C34.8476 13.3294 34.8886 13.3095 34.9036 13.2851C34.9187 13.2608 34.8899 13.2409 34.8398 13.2409C34.7897 13.2409 34.7487 13.2608 34.7487 13.2851ZM41.5112 13.7314C41.4567 13.7632 41.4338 13.8322 41.4338 13.9652C41.4338 14.4179 42.0717 14.6523 42.3781 14.3122C42.4876 14.1905 42.4221 14.0743 42.1761 13.954C42.0722 13.9031 41.9274 13.8216 41.8544 13.7728C41.7066 13.6742 41.6261 13.6645 41.5112 13.7314ZM33.2562 13.905C33.2401 13.9666 33.1958 13.9935 33.1104 13.9935C33.0429 13.9935 32.861 14.0517 32.706 14.1228C32.5061 14.2146 32.3213 14.2606 32.0693 14.2814L31.7142 14.3108L31.66 14.1079C31.6178 13.9503 31.5854 13.905 31.5147 13.905C31.3895 13.905 31.2061 14.0063 31.0741 14.1485C31.0132 14.2141 30.8849 14.308 30.7889 14.3572C30.4207 14.546 29.6723 14.3873 29.2716 14.0354C29.0856 13.8721 28.9299 13.8752 28.8038 14.0449C28.5685 14.3615 28.9543 14.8809 29.5908 15.1042C30.2799 15.3459 31.0671 15.2171 31.4305 14.8032L31.56 14.6556L31.7266 14.7652C32.0486 14.9769 32.5318 14.9989 32.8781 14.8175C33.0627 14.7208 33.275 14.475 33.3074 14.3205L33.3363 14.1827L33.6353 14.2041C33.8782 14.2215 33.9678 14.2085 34.1121 14.1349C34.2098 14.085 34.3155 14.0132 34.3469 13.9753C34.4366 13.8673 34.2371 13.8164 33.7234 13.8164C33.3166 13.8164 33.2774 13.8238 33.2562 13.905ZM26.0046 13.9496C25.9565 14.0275 26.0225 14.1488 26.1555 14.2274C26.4242 14.3861 26.5122 14.2805 26.3108 14.0412C26.197 13.9058 26.0575 13.8641 26.0046 13.9496ZM29.6352 14.069C29.5622 14.1086 29.5259 14.1488 29.5546 14.1584C29.5834 14.168 29.683 14.1357 29.776 14.0866C29.8945 14.0241 29.9186 13.9973 29.8566 13.9972C29.8079 13.9971 29.7083 14.0294 29.6352 14.069ZM27.3109 14.207C27.3109 14.3312 27.7626 14.3919 28.0635 14.308C28.1676 14.279 28.169 14.2751 28.0857 14.242C27.9305 14.1805 27.3109 14.1524 27.3109 14.207ZM43.1416 14.539C42.9479 14.6806 43.2836 14.9675 43.643 14.9675C43.8521 14.9675 43.8887 14.9272 43.7976 14.797C43.6669 14.6105 43.2617 14.4511 43.1416 14.539ZM45.5056 14.6687C45.3868 14.8619 45.2414 15.4427 45.3247 15.3912C45.3906 15.3505 45.6839 14.7216 45.6839 14.6211C45.6839 14.4823 45.6077 14.5026 45.5056 14.6687ZM41.4949 14.8547C41.4608 14.9434 41.5113 15.0118 41.6109 15.0118C41.7215 15.0118 41.7642 14.9349 41.6978 14.8549C41.6292 14.7722 41.5266 14.7721 41.4949 14.8547ZM18.5229 15.054C18.0498 15.2497 18.1026 16.0041 18.6246 16.5056C18.7578 16.6336 18.906 16.7384 18.9539 16.7384C19.0354 16.7384 19.0389 16.718 19.0089 16.4174C18.9913 16.2409 18.9494 15.9909 18.9159 15.8618C18.8824 15.7328 18.8549 15.5082 18.8549 15.3627C18.8549 15.1194 18.8457 15.0946 18.7413 15.0549C18.6789 15.0312 18.6241 15.013 18.6196 15.0145C18.6151 15.0161 18.5716 15.0339 18.5229 15.054ZM48.0082 15.1414C47.6305 15.276 47.319 15.4537 47.0975 15.6609C46.5413 16.1811 47.2895 15.9463 48.0857 15.3508C48.4963 15.0436 48.4714 14.9763 48.0082 15.1414ZM22.6402 15.2975C22.6158 15.3065 22.5411 15.326 22.4742 15.3408C22.2797 15.3836 22.3324 15.4763 22.5992 15.5604C22.735 15.6032 23.0986 15.7588 23.4072 15.9062C23.9136 16.1481 24.4789 16.3842 24.5518 16.3842C24.6961 16.3842 23.758 15.6484 23.3949 15.4768C23.1096 15.342 22.7501 15.2565 22.6402 15.2975ZM20.9698 15.761C20.9033 15.7827 20.8173 15.8322 20.7785 15.871C20.7398 15.9098 20.6478 15.9415 20.5741 15.9415C20.4296 15.9415 20.0247 16.0498 19.9187 16.1168C19.7202 16.2424 20.1756 16.1745 20.6203 16.0122C20.8597 15.9248 20.9929 15.923 21.1513 16.0049C21.2188 16.0398 21.4419 16.1111 21.6472 16.1634C22.1124 16.282 22.9293 16.673 23.1936 16.9038C23.4078 17.0908 23.8571 17.4025 23.9124 17.4025C24.0534 17.4025 23.5983 16.7029 23.244 16.3748C22.9964 16.1456 22.8662 16.0779 22.2311 15.8477C21.9687 15.7526 21.1646 15.6973 20.9698 15.761ZM46.9457 16.1222C46.8726 16.1443 46.7873 16.1529 46.7561 16.1413C46.6792 16.1128 46.084 16.6008 45.9381 16.812C45.8736 16.9055 45.79 17.0559 45.7524 17.1465C45.679 17.3228 45.6595 17.6238 45.7215 17.6238C45.7421 17.6238 45.887 17.488 46.0434 17.322C46.1999 17.156 46.4914 16.9055 46.6914 16.7654C47.0236 16.5326 47.3663 16.2001 47.3663 16.1106C47.3663 16.0636 47.1162 16.0705 46.9457 16.1222ZM45.3477 16.9064C45.0911 17.2067 44.887 17.517 44.887 17.6069C44.887 17.6712 44.9086 17.664 45.0116 17.5653C45.139 17.4432 45.5744 16.747 45.543 16.7155C45.5334 16.706 45.4456 16.7919 45.3477 16.9064ZM48.4288 16.8398C47.932 17.0109 47.4447 17.413 47.084 17.9496C46.9504 18.1483 46.6932 18.4701 46.5125 18.6647C46.3317 18.8592 46.1698 19.0627 46.1526 19.1169C46.1133 19.2409 46.2315 19.4991 46.3817 19.6173C46.5058 19.7149 46.6875 19.7295 46.8509 19.6551C46.9451 19.6122 46.9943 19.627 47.2183 19.7651C47.3697 19.8584 47.6359 19.9655 47.8604 20.0235C48.2125 20.1144 48.2703 20.1179 48.5681 20.0669C49.246 19.9506 49.9345 19.4177 49.9339 19.0095C49.9337 18.8453 49.7791 18.5978 49.6768 18.5978C49.5922 18.5978 49.4028 18.7698 49.4028 18.8465C49.4028 18.8706 49.3371 18.954 49.2568 19.0319C49.1141 19.1702 49.1017 19.1734 48.7034 19.1734C48.4793 19.1734 48.296 19.1621 48.296 19.1483C48.296 19.1177 48.6757 18.6726 48.9933 18.3308C49.1211 18.1933 49.2257 18.0592 49.2257 18.033C49.2257 17.9533 49.3275 17.9439 49.508 18.0068C49.6023 18.0396 49.7652 18.0665 49.87 18.0665C50.1007 18.0665 50.244 17.9195 50.244 17.6827C50.244 17.483 50.161 17.3661 49.8406 17.1144C49.3542 16.7323 48.9623 16.656 48.4288 16.8398ZM21.1128 17.1855C20.7958 17.2394 20.4465 17.412 20.1857 17.6436C19.8328 17.9571 19.6546 18.0809 19.2583 18.2879C18.7805 18.5376 18.7582 18.6213 19.1707 18.6167C19.5086 18.613 19.9234 18.4798 20.2245 18.2783L20.4209 18.1469L20.6391 18.2174C20.7591 18.2562 20.9024 18.2879 20.9574 18.2879C21.0316 18.2879 21.1153 18.371 21.2809 18.6089C21.4039 18.7854 21.5697 19.0176 21.6495 19.1248L21.7945 19.3197L21.5087 19.2968C21.299 19.2799 21.177 19.2427 21.0509 19.1572C20.9564 19.093 20.8569 19.0402 20.8299 19.0398C20.8029 19.0393 20.7338 18.9895 20.6765 18.9291C20.6192 18.8686 20.5544 18.8192 20.5326 18.8192C20.4798 18.8192 20.4797 18.8187 20.5825 19.0201C20.6395 19.1318 20.6626 19.2385 20.6462 19.3139C20.5766 19.6318 20.9104 20.1174 21.2729 20.2257C21.8006 20.3834 22.527 20.1651 23.2157 19.6418C23.3762 19.5198 23.5281 19.4397 23.5995 19.4395C23.7607 19.4388 23.8577 19.3967 23.8577 19.3272C23.8577 19.2073 23.6813 18.8645 23.5356 18.701C23.4524 18.6077 23.3288 18.4355 23.261 18.3182C23.0019 17.8709 22.4653 17.3967 22.0539 17.2515C21.8134 17.1667 21.396 17.1374 21.1128 17.1855ZM38.6889 17.7795C38.6889 17.9561 38.852 18.7861 38.9585 19.1512C39.0145 19.3432 38.9644 18.2064 38.9043 17.9212C38.8237 17.5384 38.6889 17.4497 38.6889 17.7795ZM45.9581 17.9614C45.9534 18.0619 45.9369 18.2113 45.9216 18.2934C45.9002 18.4074 45.906 18.4313 45.946 18.3941C45.9793 18.363 45.9926 18.2425 45.9825 18.062C45.9724 17.881 45.9635 17.8447 45.9581 17.9614ZM19.1205 20.2393C18.8855 20.3455 18.3571 20.6826 18.3838 20.7093C18.4405 20.766 19.3507 20.4578 19.4858 20.3362C19.6961 20.1468 19.4625 20.0848 19.1205 20.2393ZM39.1545 20.5004C39.1194 20.5571 39.1584 21.407 39.2155 21.8297C39.2483 22.0729 39.2484 22.0726 39.2841 21.6369C39.3396 20.9607 39.2664 20.3193 39.1545 20.5004ZM20.0209 20.9248C19.987 21.0134 20.1111 21.6356 20.2022 21.8333C20.2701 21.9806 20.2715 21.9728 20.2536 21.5419C20.2351 21.0943 20.1797 20.8557 20.0942 20.8557C20.0685 20.8557 20.0356 20.8868 20.0209 20.9248ZM17.6159 22.8694C17.5312 22.9715 17.4723 23.6165 17.4986 24.154C17.5251 24.6928 17.6096 25.0205 17.8814 25.6381C18.1206 26.1817 18.1853 26.423 18.261 27.0538C18.4058 28.2607 18.6064 29.0384 18.9485 29.7203C19.2276 30.2764 19.2849 30.5417 19.319 31.4368C19.371 32.7985 19.4612 33.3199 19.7697 34.0429C19.9402 34.4426 20.2427 34.9615 20.5145 35.3207C20.8198 35.7242 21.839 36.7597 22.1361 36.9683C22.495 37.2203 22.5844 37.3227 22.8735 37.812C23.2401 38.4324 23.6137 38.7909 23.5259 38.438L23.4967 38.3211L23.6293 38.4477C23.8737 38.681 23.9226 38.5055 23.7525 38.0053C23.5453 37.396 23.3114 37.0625 22.8081 36.6583C22.0115 36.0186 21.5632 35.4857 21.1586 34.6975C20.6464 33.6996 20.4906 33.0674 20.3607 31.4589C20.3352 31.1424 20.3031 30.8286 20.2894 30.7616C20.2688 30.6604 20.2799 30.6399 20.3551 30.6399C20.4437 30.6399 20.6463 30.8276 21.4006 31.6083C21.837 32.06 21.91 32.1071 21.909 31.9364C21.9081 31.7648 21.7511 31.1587 21.6623 30.984C21.443 30.5524 21.1947 30.2823 20.744 29.985C20.2012 29.627 20.1017 29.4828 19.8269 28.656C19.7243 28.347 19.6028 28.0198 19.557 27.929C19.4844 27.7849 19.4793 27.7252 19.5176 27.4641C19.5529 27.224 19.5902 26.5526 19.6055 25.8827C19.6073 25.8087 19.6315 25.8188 19.7736 25.9521C19.8649 26.0378 20.0719 26.213 20.2337 26.3413C20.6574 26.6775 20.8337 26.9427 21.1108 27.6615C21.3218 28.2087 21.5573 28.4955 22.1645 28.9444C22.9754 29.544 23.1023 29.6902 23.4547 30.4311C23.7805 31.1163 24.283 31.9319 24.4265 32.0087C24.4792 32.0369 24.5432 32.151 24.5836 32.2889C24.6827 32.6265 24.8796 32.9817 25.2284 33.452C25.5974 33.9493 25.6945 34.1353 26.0107 34.9502C26.259 35.59 26.8011 36.7451 26.9278 36.9044C26.9972 36.9918 26.9982 36.9915 26.9996 36.8873C27.0015 36.7418 26.8322 35.7238 26.7521 35.3992C26.6282 34.8975 26.3277 33.9822 26.2069 33.7389C26.1404 33.605 25.9444 33.2896 25.7712 33.038C25.4319 32.5448 25.3077 32.261 25.1001 31.5032C24.809 30.441 24.438 29.766 23.9019 29.3236C23.7437 29.193 23.4729 28.9664 23.3003 28.8202C23.1276 28.6739 22.8272 28.4477 22.6326 28.3174C22.1331 27.983 21.9521 27.7592 21.7241 27.1944C21.4826 26.5961 20.9731 25.5831 20.9015 25.5593C20.8645 25.547 20.8472 25.5988 20.8472 25.722C20.8472 25.8214 20.8363 25.9027 20.823 25.9027C20.738 25.9027 20.1316 25.4367 20.0547 25.3123C19.9107 25.0793 19.708 24.5603 19.732 24.486C19.7438 24.4495 19.809 24.2973 19.8769 24.1478C20.0748 23.7125 20.153 23.1922 20.0184 23.2056C19.9887 23.2085 19.5299 23.8699 19.2832 24.2655C19.1217 24.5244 19.0291 24.8629 19.0017 25.294C18.9867 25.5314 18.9598 25.7257 18.942 25.7257C18.8962 25.7257 18.6281 25.0868 18.4194 24.4804C18.322 24.1973 18.2023 23.8686 18.1535 23.7499C18.1046 23.6313 18.0324 23.3819 17.993 23.1957C17.9336 22.9156 17.9044 22.8527 17.8236 22.8311C17.6861 22.7942 17.6769 22.7959 17.6159 22.8694ZM46.9933 24.2757C47.0409 24.4264 47.4261 24.9775 47.589 25.128L47.7327 25.2608L47.7054 25.116C47.635 24.7436 47.2384 24.1761 47.0483 24.1761C46.9788 24.1761 46.968 24.1957 46.9933 24.2757ZM39.6629 25.0568C39.6629 25.1213 40.0915 25.6264 40.1918 25.6801C40.3061 25.7413 40.4155 25.7377 40.4155 25.6728C40.4155 25.6438 40.31 25.5193 40.181 25.3961C39.9326 25.1591 39.6629 24.9824 39.6629 25.0568ZM15.4037 25.7146C15.4048 25.7816 15.4316 25.8961 15.4632 25.9692L15.5208 26.102L15.5516 25.9658C15.5847 25.8193 15.5212 25.5928 15.447 25.5928C15.4221 25.5928 15.4025 25.6476 15.4037 25.7146ZM11.1194 25.7239C10.7741 25.807 10.5151 26.1559 10.5124 26.5416C10.5104 26.8235 10.56 27.0096 10.6372 27.0096C10.698 27.0096 10.9975 26.7049 11.1958 26.4411C11.2792 26.3302 11.366 26.2785 11.5475 26.2314C11.8491 26.1532 11.8925 26.1128 11.8201 25.9776C11.7124 25.7763 11.3888 25.6591 11.1194 25.7239ZM13.3577 25.8086C13.1667 25.8804 12.9491 26.4303 13.0292 26.639C13.0567 26.7106 13.0644 26.71 13.1426 26.6303C13.2835 26.4865 13.5434 25.87 13.4833 25.8221C13.4548 25.7994 13.3983 25.7933 13.3577 25.8086ZM16.5836 26.0876C16.1523 26.4396 16.0493 27.2074 16.3949 27.4941C16.4827 27.567 16.4824 27.643 16.3934 27.815C16.2989 27.9977 16.3016 28.4166 16.3986 28.6211C16.4868 28.8067 16.7008 29.0018 16.8163 29.0018C16.8862 29.0018 16.8963 28.9589 16.8976 28.6543C16.899 28.3434 16.9164 28.2726 17.0625 27.9822C17.1719 27.7651 17.2282 27.5907 17.2325 27.4553L17.239 27.253L17.0339 27.2658C16.8348 27.2782 16.8283 27.2746 16.8086 27.1402C16.7974 27.0641 16.81 26.8591 16.8365 26.6847C16.8884 26.3441 16.8682 25.9841 16.7962 25.9631C16.7719 25.956 16.6762 26.0121 16.5836 26.0876ZM32.1674 26.1108C32.0161 26.15 32.1215 26.2348 32.3181 26.232C32.5716 26.2284 32.767 26.1771 32.7335 26.1228C32.707 26.0799 32.3185 26.0716 32.1674 26.1108ZM36.4183 26.1684C36.3391 26.4569 36.4113 26.9658 36.5218 26.8975C36.5801 26.8615 36.5683 26.4488 36.5029 26.2348C36.4519 26.068 36.4469 26.0642 36.4183 26.1684ZM41.6052 26.3213C41.331 26.3969 41.285 26.4279 41.3431 26.4978C41.4332 26.6064 41.9923 26.8291 42.3932 26.916C43.2496 27.1018 43.7178 27.3914 44.3691 28.1382C44.7993 28.6314 45.2433 29.0903 45.2903 29.0903C45.366 29.0903 45.3291 28.6579 45.2332 28.4211C45.1082 28.1126 44.7945 27.6213 44.5452 27.3438C44.1129 26.8623 43.4111 26.4453 42.8284 26.3233C42.4543 26.2451 41.8853 26.2441 41.6052 26.3213ZM29.5909 27.0485C29.213 27.1852 29.0066 27.3103 28.7573 27.5537C28.502 27.803 28.2849 28.1728 28.2849 28.3584C28.2849 28.4975 28.3315 28.4995 28.4918 28.3673C28.6912 28.2027 29.1143 27.9299 29.5688 27.6728C29.9852 27.4372 30.3916 27.0872 30.3419 27.0069C30.2989 26.9373 29.8261 26.9635 29.5909 27.0485ZM15.1487 28.1364C14.317 28.3959 13.6851 29.3745 13.7863 30.2462C13.8157 30.5001 13.8145 30.504 13.6549 30.644C13.4438 30.8294 13.3546 31.0436 13.3513 31.3734C13.349 31.6005 13.3689 31.6724 13.4801 31.838C13.5524 31.9457 13.6453 32.0403 13.6866 32.0483C13.7805 32.0663 14.0137 31.7123 14.0797 31.4515C14.1388 31.2182 14.2578 31.1068 14.5822 30.9811C14.9083 30.8548 14.9658 30.7738 14.8446 30.6114C14.7952 30.5453 14.6862 30.4681 14.6023 30.4399C14.5171 30.4112 14.4429 30.3532 14.4343 30.3085C14.4121 30.1949 14.5127 29.7126 14.5894 29.5642C14.6998 29.3508 14.9656 29.0886 15.3007 28.8624C15.5224 28.7128 15.65 28.5912 15.7113 28.4712C15.7601 28.3754 15.8001 28.277 15.8001 28.2525C15.8001 28.1276 15.4036 28.0569 15.1487 28.1364ZM45.4688 29.4506C45.5252 29.7017 45.5925 29.8193 45.6479 29.7639C45.6775 29.7343 45.6631 29.6536 45.6045 29.5213C45.4856 29.2524 45.4162 29.2162 45.4688 29.4506ZM6.56049 29.9404C6.58572 30.1286 6.86663 30.733 6.96797 30.8171C7.01149 30.8532 7.01481 30.8185 6.98373 30.6517C6.93114 30.3695 6.91121 30.3067 6.78008 30.009C6.6423 29.6963 6.52272 29.6589 6.56049 29.9404ZM11.1162 30.5982C10.6453 30.8334 10.2921 31.3215 10.2227 31.8328C10.2032 31.9766 10.165 32.0827 10.1284 32.0945C9.90136 32.1678 9.64596 32.6624 9.64653 33.0276C9.6468 33.2143 9.72135 33.504 9.77811 33.5391C9.85293 33.5854 10.1728 33.1955 10.2939 32.9104C10.4021 32.6558 10.4253 32.6292 10.5183 32.6525C10.7394 32.708 10.8839 32.5119 10.9704 32.0387C11.0232 31.7501 11.2135 31.4164 11.4047 31.2774C11.4724 31.2281 11.6413 31.1234 11.78 31.0448C12.0479 30.8928 12.1158 30.7872 12.0384 30.6426C11.9166 30.415 11.5208 30.396 11.1162 30.5982ZM51.1422 30.8154C50.9386 30.9396 50.8024 31.2244 50.85 31.4261C50.8915 31.6013 51.0843 31.7735 51.1924 31.732C51.2309 31.7172 51.342 31.5819 51.4394 31.4313C51.575 31.2215 51.6164 31.1135 51.6164 30.9698C51.6164 30.8395 51.595 30.7739 51.5464 30.7553C51.421 30.7072 51.2871 30.7271 51.1422 30.8154ZM36.6721 30.8773C36.6281 31.0525 36.6672 31.2818 36.7409 31.2818C36.8194 31.2818 36.8482 31.13 36.8091 30.9219C36.7766 30.7486 36.7098 30.7268 36.6721 30.8773ZM16.6799 31.1572C16.5045 31.266 16.4114 31.4607 16.3865 31.7705C16.3668 32.0163 16.3804 32.0846 16.5004 32.3409C16.5753 32.5011 16.6573 32.6321 16.6825 32.6321C16.763 32.6321 16.955 32.1915 17.018 31.8627C17.0514 31.6879 17.097 31.4956 17.1193 31.4355C17.2226 31.1568 16.9543 30.9869 16.6799 31.1572ZM53.0439 31.7578C53.0688 31.8337 53.3222 31.9123 53.6591 31.9485C53.9929 31.9844 53.9722 31.9345 53.5959 31.7964C53.3068 31.6903 53.0151 31.6699 53.0439 31.7578ZM5.02667 31.8277C4.94734 31.9153 4.92317 32.278 4.99666 32.278C5.06568 32.278 5.17654 32.0799 5.20474 31.9063C5.23436 31.7238 5.15316 31.6879 5.02667 31.8277ZM29.0172 32.461C28.953 32.5373 28.8601 32.6789 28.8107 32.7757L28.7209 32.9516L28.8762 32.8332C29.0143 32.7279 29.1814 32.5373 29.2757 32.3776C29.3466 32.2575 29.1294 32.3276 29.0172 32.461ZM45.0815 32.4801C44.9952 32.8243 45.1811 34.3904 45.3136 34.4345C45.3693 34.4531 45.527 34.1076 45.5925 33.8235C45.6999 33.3573 45.6026 32.7124 45.3903 32.4834C45.25 32.3322 45.119 32.3308 45.0815 32.4801ZM5.17335 32.7539C5.1726 32.7969 5.08742 32.8826 4.98218 32.9464C4.52131 33.2258 4.46127 33.9877 4.8661 34.4197C5.0168 34.5806 5.0446 34.5944 5.10012 34.5358C5.19925 34.4314 5.26331 34.1903 5.26358 33.9205C5.2638 33.6579 5.33304 33.3405 5.39006 33.3405C5.40879 33.3405 5.46962 33.4215 5.52527 33.5205C5.58092 33.6195 5.63356 33.6933 5.64228 33.6846C5.67084 33.6561 5.5262 33.1597 5.41813 32.9153C5.31489 32.6819 5.17631 32.5905 5.17335 32.7539ZM53.6308 32.7286C53.5821 32.7557 53.5346 32.7844 53.5252 32.7922C53.4753 32.8338 53.6834 33.044 53.9182 33.1889C54.0859 33.2924 54.1957 33.393 54.212 33.458C54.2638 33.6642 54.5662 33.5293 54.6466 33.2642C54.6937 33.1089 54.5509 32.8617 54.3569 32.7627C54.1682 32.6664 53.7752 32.6479 53.6308 32.7286ZM31.505 32.7834C31.1491 32.8791 30.6221 33.4016 30.5044 33.7755C30.4762 33.865 30.4298 34.1327 30.4012 34.3705C30.3328 34.9398 30.2644 34.8675 30.259 34.2204C30.2564 33.8932 30.2379 33.7185 30.2048 33.7075C30.1055 33.6743 29.8621 33.8528 29.8264 33.9848C29.7427 34.2941 29.7346 34.7776 29.8082 35.0648C29.8988 35.4184 30.2227 36.1098 30.4386 36.4102C30.5276 36.5341 30.6664 36.8033 30.7469 37.0085C30.9203 37.4501 31.0855 37.714 31.22 37.7643C31.3258 37.8038 31.5168 37.7499 31.5705 37.6653C31.6256 37.5787 31.6097 37.3735 31.5371 37.233C31.4996 37.1604 31.4792 37.0843 31.4918 37.0639C31.5044 37.0435 31.6054 37.0166 31.7162 37.0041C32.0106 36.9709 32.5558 36.6409 32.7918 36.3531C32.8965 36.2254 32.9747 36.0979 32.9654 36.0699C32.9423 35.9997 32.4683 35.9808 32.231 36.0406C32.0507 36.0859 32.0322 36.0822 31.9678 35.9878C31.8795 35.8584 31.6193 35.6015 31.461 35.4875C31.3458 35.4046 31.246 35.1992 31.1869 34.9232C31.1484 34.7432 31.226 34.7755 31.317 34.9774C31.3606 35.0741 31.4147 35.1419 31.4372 35.128C31.4597 35.1141 31.5117 35.1304 31.5528 35.1643C31.6406 35.2367 31.9568 35.3502 31.9869 35.3201C31.9984 35.3086 31.9471 35.2386 31.8729 35.1645C31.7988 35.0903 31.7381 34.9883 31.7381 34.9377C31.7381 34.814 31.8008 34.8218 31.889 34.9564C31.9289 35.0173 32.0039 35.0671 32.0556 35.0671C32.1072 35.0671 32.259 35.1398 32.3928 35.2286C32.6522 35.4007 33.2072 35.6105 33.347 35.5891C33.4197 35.578 33.4024 35.5379 33.2206 35.2964C33.0375 35.0533 32.4956 34.5801 32.4002 34.5801C32.382 34.5801 32.3043 34.4821 32.2274 34.3623C32.0795 34.1319 31.8571 33.3985 31.9228 33.3579C31.9744 33.3261 32.2174 33.3802 32.3677 33.457C32.5431 33.5466 32.6417 33.6661 32.9381 34.1484C33.2764 34.699 33.7052 35.1384 34.0882 35.3269C34.6706 35.6137 35.1052 35.6576 36.0442 35.5248C36.4325 35.4699 36.5902 35.4635 36.664 35.4994C36.7185 35.5259 36.792 35.5554 36.8275 35.565C36.8813 35.5794 36.8923 35.7346 36.8939 36.4957C36.8962 37.554 36.9303 37.6691 37.1091 37.2225C37.255 36.8581 37.398 36.2985 37.4345 35.9492L37.4629 35.6767L37.6615 35.704C37.7707 35.7189 38.0383 35.7312 38.256 35.7312C38.4841 35.7312 38.6457 35.7489 38.6372 35.7728C38.6291 35.7957 38.5528 35.8612 38.4675 35.9185C38.2868 36.0398 38.2594 36.1885 38.4138 36.2104C38.591 36.2355 39.0659 35.906 39.0339 35.7801C39.0267 35.7522 39.1305 35.6842 39.2644 35.6289C39.3984 35.5737 39.5876 35.4742 39.685 35.4078C39.8307 35.3086 39.8701 35.2981 39.907 35.3485C39.9992 35.4741 40.227 35.4807 40.4274 35.3635C40.5779 35.2755 40.6495 35.2597 40.7918 35.2829C40.9322 35.3058 40.9719 35.3329 40.9834 35.4134C40.9955 35.4982 41.0088 35.5059 41.0642 35.4599C41.1177 35.4156 41.1382 35.4171 41.1694 35.4676C41.2007 35.5183 41.2353 35.505 41.3485 35.3984L41.4887 35.2663L41.458 35.5209C41.4168 35.8637 41.4863 35.8581 41.8657 35.488C42.0368 35.321 42.1768 35.2169 42.1996 35.2397C42.2223 35.2624 42.2001 35.434 42.1465 35.6489C42.0957 35.8525 42.0329 36.2277 42.0069 36.4828C41.9809 36.7379 41.9545 36.9519 41.9481 36.9582C41.9418 36.9646 41.8365 36.8733 41.7142 36.7554C41.4898 36.5391 41.1823 36.3953 40.9443 36.3953C40.8188 36.3953 40.7 36.4955 40.743 36.565C40.7866 36.6356 41.5805 37.0715 41.7658 37.1266C41.909 37.1692 41.9456 37.2022 41.9572 37.299C41.965 37.3649 41.9921 37.4119 42.0174 37.4035C42.0897 37.3794 42.5285 36.632 42.6307 36.3589C42.988 35.4036 43.147 33.742 42.918 33.3543C42.7583 33.0839 42.5111 33.051 42.2307 33.263C42.126 33.3421 42.014 33.4264 41.9817 33.4502C41.9424 33.4792 41.8751 33.4738 41.778 33.4338C41.4415 33.2952 41.2302 33.2747 41.0362 33.3622C40.8451 33.4484 40.6587 33.6331 40.52 33.8738C40.4584 33.9806 40.3453 34.0593 40.0718 34.186C39.8705 34.2791 39.5662 34.4456 39.3956 34.556C38.7104 34.9993 38.4027 35.1039 38.0725 35.0058C37.8112 34.9282 37.6897 34.8669 37.5233 34.7285C37.3462 34.5811 37.1604 34.5952 36.8547 34.7793C36.6755 34.8872 36.5439 34.9343 36.4215 34.9343C36.3248 34.9343 36.008 34.9569 35.7174 34.9845C34.6302 35.0877 34.0836 34.8028 33.394 33.7735C33.2303 33.5291 33.0266 33.2594 32.9413 33.1741C32.7571 32.9899 32.4194 32.827 32.0941 32.7653C31.807 32.7108 31.7706 32.712 31.505 32.7834ZM39.0167 33.1136C38.6772 33.3364 38.3657 33.6591 38.3864 33.7667C38.3951 33.8119 38.458 33.8757 38.5262 33.9084C38.8754 34.0758 39.84 33.4973 39.84 33.1205C39.84 32.9735 39.7781 32.942 39.489 32.942C39.3187 32.942 39.228 32.975 39.0167 33.1136ZM34.4609 33.022C34.3586 33.0429 34.2617 33.1134 34.2617 33.1668C34.2617 33.2322 34.5725 33.2643 34.8077 33.2232C35.0317 33.184 35.0342 33.1819 34.9268 33.1221C34.7872 33.0444 34.5749 32.9988 34.4609 33.022ZM6.3084 33.4971C6.20303 33.6024 6.10625 33.9828 6.07827 34.4016C6.05968 34.6799 6.0657 34.7619 6.10125 34.7129C6.16912 34.6195 6.45866 33.7011 6.45866 33.5793C6.45866 33.4467 6.39407 33.4114 6.3084 33.4971ZM16.3389 33.5544C16.1532 33.7401 15.8444 34.4293 15.8444 34.658C15.8444 34.8081 16.4425 33.9392 16.526 33.6677C16.5438 33.6098 16.5303 33.554 16.4903 33.5209C16.4387 33.478 16.4086 33.4847 16.3389 33.5544ZM35.3017 33.6068C35.2591 33.6756 35.4564 33.8437 35.7448 33.9843C36.0417 34.1291 36.5349 34.1352 36.9053 33.9987C37.1664 33.9024 37.2899 33.8305 37.2546 33.7952C37.2023 33.7428 36.8386 33.6882 36.2761 33.6484C35.9352 33.6242 35.5839 33.5929 35.4954 33.5789C35.3926 33.5626 35.3227 33.5727 35.3017 33.6068ZM28.3782 33.8628C28.2913 34.0253 28.2722 34.564 28.3278 35.2877C28.358 35.6809 28.3972 36.0561 28.415 36.1215C28.4672 36.3132 28.5073 35.7381 28.5112 34.7415C28.5147 33.8723 28.4835 33.6662 28.3782 33.8628ZM11.7008 34.2655C11.4259 34.4331 11.1222 34.8991 10.955 35.4096C10.8251 35.8065 10.8735 35.8329 11.1862 35.5361C11.5641 35.1775 12.1255 34.4779 12.1255 34.3656C12.1255 34.2745 12.0093 34.1815 11.896 34.1818C11.864 34.1819 11.7761 34.2196 11.7008 34.2655ZM40.2827 35.0845C40.2827 35.1543 40.0827 35.2184 40.0083 35.1724C39.9759 35.1524 39.987 35.122 40.041 35.0825C40.1471 35.0049 40.2827 35.006 40.2827 35.0845ZM32.5161 35.5437C32.5423 35.5616 32.5755 35.6085 32.59 35.6479C32.6049 35.6883 32.7674 35.7719 32.9631 35.8397C33.1538 35.9058 33.4293 36.018 33.5754 36.089C33.8397 36.2176 34.0537 36.2505 34.1651 36.1798C34.2094 36.1517 34.1905 36.1149 34.0877 36.0284C34.0129 35.9655 33.9518 35.9065 33.9518 35.8973C33.9518 35.8881 34.0707 35.8891 34.2161 35.8996C34.3615 35.9101 34.515 35.9055 34.5571 35.8893C34.6227 35.8641 34.6149 35.8473 34.5031 35.7728C34.3341 35.6602 33.8382 35.5052 33.7524 35.5381C33.6573 35.5746 33.6707 35.7153 33.7763 35.7893C33.8601 35.848 33.8501 35.854 33.6324 35.8755C33.4099 35.8975 33.1549 35.817 33.1549 35.7248C33.1549 35.6807 32.6855 35.5097 32.5666 35.5105C32.5111 35.5109 32.4893 35.5253 32.5161 35.5437ZM52.037 35.9083C52.0219 35.9326 52.021 35.971 52.0349 35.9935C52.098 36.0955 52.9003 36.2663 52.9003 36.1777C52.9003 36.1275 52.7659 36.0179 52.6037 35.9358C52.4472 35.8565 52.08 35.8387 52.037 35.9083ZM41.8601 36.0522C41.8084 36.2451 41.8305 36.2893 41.9208 36.1739C41.9684 36.113 42.0078 36.0384 42.0083 36.0079C42.01 35.9116 41.888 35.9481 41.8601 36.0522ZM35.2434 36.0388C35.2841 36.0648 35.4435 36.0984 35.5976 36.1135C35.8189 36.1353 35.8668 36.1296 35.8263 36.0863C35.7981 36.0562 35.6388 36.0226 35.4722 36.0116C35.2469 35.9968 35.1882 36.0038 35.2434 36.0388ZM34.8414 36.127C34.7375 36.1912 34.8201 36.2916 35.018 36.3418C35.166 36.3794 35.2249 36.3768 35.2922 36.3297C35.3746 36.2719 35.3731 36.2672 35.2515 36.2058C35.0685 36.1136 34.9119 36.0835 34.8414 36.127ZM56.8589 36.1926C56.576 36.3157 56.4371 36.6541 56.6081 36.8034C56.6507 36.8406 56.7868 36.8946 56.9104 36.9235C57.1106 36.9702 57.1453 36.9964 57.2267 37.1616C57.3417 37.3951 57.5804 37.7234 57.6352 37.7234C57.658 37.7234 57.712 37.6637 57.7552 37.5906C57.7983 37.5176 57.8459 37.4578 57.8608 37.4578C57.8758 37.4578 57.9492 37.543 58.024 37.6471C58.1452 37.8159 58.1532 37.8456 58.0979 37.9212C58.0202 38.0275 58.0177 38.2571 58.0931 38.3603C58.1246 38.4034 58.2491 38.4919 58.3697 38.557C58.5321 38.6448 58.619 38.731 58.7044 38.8892C58.8664 39.189 59.1317 39.4943 59.2303 39.4943C59.3528 39.4943 59.5111 39.0504 59.4856 38.7782C59.4553 38.4539 59.2541 38.0882 59.0303 37.9505C58.8596 37.8454 58.8364 37.8098 58.7913 37.5839C58.6748 36.9988 58.2214 36.3825 57.7884 36.2205C57.5073 36.1153 57.0667 36.1021 56.8589 36.1926ZM5.01118 36.4806C5.02539 36.6007 5.08874 36.7949 5.15196 36.9123L5.2669 37.1258L5.24879 36.836C5.2305 36.5436 5.12558 36.2625 5.03464 36.2625C5.00162 36.2625 4.99387 36.3344 5.01118 36.4806ZM9.40277 36.3494C9.12022 36.4676 8.79093 37.0467 8.67688 37.626L8.60122 38.0105L8.43994 38.0367C8.08509 38.0944 7.82592 38.3808 7.69218 38.8631C7.59526 39.2125 7.59053 39.4567 7.6731 39.8417C7.74619 40.1825 7.8087 40.2623 7.90411 40.1363C8.03436 39.9643 8.26214 39.4682 8.35865 39.1464C8.43391 38.8956 8.50161 38.7723 8.65289 38.6105C8.85924 38.3899 8.90417 38.2225 8.7838 38.1226C8.72775 38.0761 8.75613 38.0223 8.97961 37.7519C9.28478 37.3827 9.82336 36.5892 9.82336 36.5087C9.82336 36.3568 9.59332 36.2697 9.40277 36.3494ZM36.1756 36.4838C36.1756 36.569 36.1848 36.6039 36.1959 36.5613C36.207 36.5187 36.207 36.449 36.1959 36.4063C36.1848 36.3637 36.1756 36.3986 36.1756 36.4838ZM39.8346 36.553C39.6209 36.6188 39.5038 36.7154 39.549 36.7886C39.5815 36.8411 39.7544 36.7949 40.0072 36.6659C40.3315 36.5005 40.227 36.4322 39.8346 36.553ZM35.7333 36.8491C35.7031 36.8866 35.7086 36.9756 35.7503 37.1258C35.7841 37.2475 35.8803 37.6061 35.964 37.9227C36.136 38.5726 36.3427 39.1456 36.4089 39.1556C36.4653 39.1641 36.5107 38.8227 36.5157 38.352C36.5229 37.6705 36.3172 37.0621 36.018 36.8797C35.8539 36.7796 35.7942 36.7732 35.7333 36.8491ZM38.4059 36.8885C38.275 36.9576 38.2107 36.9689 38.1378 36.9357C38.0051 36.8752 37.8147 36.9623 37.6369 37.1648C37.3944 37.4409 37.2867 37.7195 37.2066 38.2769C37.1785 38.4718 37.2796 38.922 37.3889 39.089L37.4568 39.1928L37.561 39.0949C37.675 38.9879 37.8451 38.6618 37.9597 38.3312C38.0566 38.0516 38.3656 37.5935 38.489 37.5466C38.5964 37.5058 38.8101 37.2469 38.9095 37.0372C38.9442 36.9642 38.9817 36.8861 38.9929 36.8637C39.0042 36.8413 38.9802 36.8363 38.9396 36.8526C38.8991 36.8689 38.8361 36.8944 38.7996 36.9091C38.7569 36.9264 38.7332 36.9106 38.7332 36.8649C38.7332 36.7696 38.6152 36.7781 38.4059 36.8885ZM55.6544 37.7227C55.4558 37.7698 55.3353 37.8894 55.3353 38.0393C55.3353 38.1419 55.3691 38.1816 55.5234 38.2602C55.6269 38.3129 55.8836 38.5325 56.0939 38.7481C56.5449 39.2106 56.6428 39.242 56.6882 38.9389C56.7482 38.539 56.6173 38.1575 56.3352 37.9098C56.2062 37.7965 55.9114 37.6667 55.8223 37.684C55.8101 37.6863 55.7346 37.7038 55.6544 37.7227ZM17.9263 38.3864C17.8782 38.4345 17.8259 38.5256 17.81 38.5889C17.7793 38.7114 17.85 38.9188 17.9225 38.9188C17.9959 38.9188 18.1418 38.7354 18.1938 38.5778C18.2757 38.3294 18.1053 38.2074 17.9263 38.3864ZM53.3742 39.1223C53.3061 39.1592 53.2309 39.2408 53.207 39.3036C53.1425 39.4731 53.2453 39.5947 53.6184 39.7907C53.8135 39.8931 53.9601 40.0026 53.9924 40.0699C54.0216 40.1308 54.0644 40.5292 54.0876 40.9553C54.1292 41.7207 54.1551 41.885 54.2341 41.885C54.3008 41.885 54.7036 41.2357 54.805 40.9646C55.0084 40.4211 54.955 39.8278 54.6721 39.4864C54.4736 39.2469 54.0548 39.0512 53.7455 39.0534C53.6094 39.0544 53.4423 39.0854 53.3742 39.1223ZM36.9386 39.6109C36.9233 39.6807 36.8924 39.7956 36.8701 39.8662C36.8165 40.0355 36.8175 40.3828 36.8712 40.291C36.9171 40.2127 37.017 39.5344 36.9871 39.5044C36.9758 39.4931 36.954 39.541 36.9386 39.6109ZM24.4934 40.063C24.543 40.373 24.7947 40.9271 25.0898 41.3759C25.6201 42.1824 25.9436 42.4125 26.708 42.5273C26.9402 42.5622 27.1961 42.6182 27.2766 42.6518C27.4502 42.7244 27.672 42.9659 27.8034 43.2255C27.923 43.4616 28.2463 43.9598 28.3563 44.0773C28.5095 44.2411 28.8723 44.5414 28.917 44.5414C28.9444 44.5414 28.9511 44.4367 28.9346 44.2647C28.8955 43.8569 28.8803 43.7758 28.8234 43.6695C28.7951 43.6165 28.7717 43.5071 28.7714 43.4264C28.7711 43.3457 28.741 43.17 28.7045 43.0361C28.668 42.9022 28.5987 42.6151 28.5504 42.3981C28.4557 41.9715 28.3754 41.8408 28.2084 41.8408C28.1253 41.8408 28.0845 41.8805 28.0271 42.0174C27.9862 42.1145 27.9399 42.1942 27.9241 42.1945C27.9083 42.1947 27.7923 42.0822 27.6663 41.9444C27.4976 41.7598 27.3441 41.5032 27.0834 40.9704C26.8888 40.5725 26.7143 40.247 26.6957 40.247C26.5314 40.247 26.4859 41.0007 26.6225 41.4578C26.712 41.7571 26.6812 41.8242 26.4882 41.7509C26.2685 41.6673 26.0891 41.5022 25.6344 40.965C25.3928 40.6796 25.1541 40.4122 25.1038 40.3707C24.7116 40.0468 24.5145 39.8928 24.4922 39.8928C24.4779 39.8928 24.4784 39.9694 24.4934 40.063ZM15.7298 40.1788C14.7644 40.3925 14.1711 41.1959 14.3993 41.9807C14.4725 42.2327 14.7417 42.6859 14.9205 42.8584C15.0826 43.0147 15.6802 43.3903 15.7669 43.3903C15.8194 43.3903 15.8444 43.3557 15.8444 43.2832C15.8444 43.1368 15.6014 42.4594 15.4187 42.0964C15.2366 41.7346 15.2269 41.5432 15.3814 41.3596C15.5301 41.1828 15.7251 41.0662 16.094 40.9332C16.4293 40.8125 16.5527 40.6989 16.5527 40.5116C16.5527 40.3878 16.3432 40.1592 16.2284 40.1578C16.1998 40.1575 16.1366 40.1486 16.0879 40.1382C16.0392 40.1277 15.878 40.146 15.7298 40.1788ZM36.5735 40.3653C36.433 40.4218 36.1211 41.3089 36.1211 41.6522C36.1211 41.7556 36.0507 41.8478 35.7631 42.1214C35.3081 42.5541 35.2036 42.6312 34.7708 42.8528C34.3703 43.0579 33.6866 43.3274 33.6197 43.3065C33.5954 43.2989 33.3821 43.2937 33.1458 43.2949C32.7914 43.2968 32.6706 43.2786 32.4556 43.1913C32.2097 43.0914 31.6496 42.9412 31.6496 42.9751C31.6496 43.0212 32.0692 43.2457 32.358 43.354C32.7317 43.4942 32.993 43.5103 33.3138 43.4129C33.4334 43.3767 33.5561 43.3468 33.5865 43.3465C33.679 43.3457 33.6484 43.4722 33.5422 43.5293L33.4426 43.5828L33.5679 43.6165C33.6383 43.6354 33.8386 43.6249 34.0253 43.5924C34.3427 43.5372 34.3613 43.5387 34.4424 43.6258C34.5552 43.7469 34.5514 43.7609 34.3834 43.8411C34.2051 43.9264 33.7595 44.2753 33.79 44.3058C33.866 44.3818 34.7938 43.9933 34.9368 43.8255C35.0725 43.6665 35.0201 43.7911 34.8593 44.0101C34.6557 44.2876 34.6583 44.3387 34.8747 44.3041C35.0799 44.2713 35.1121 44.2956 35.0484 44.4353C34.9722 44.6026 35.0445 44.6158 35.3013 44.4813C35.5476 44.3524 35.7916 44.1401 35.997 43.8759L36.1164 43.7223L36.1187 43.9519C36.12 44.0782 36.142 44.2366 36.1677 44.3039L36.2142 44.4264L36.3186 44.2957C36.3761 44.2239 36.4304 44.175 36.4394 44.1872C36.4484 44.1994 36.4897 44.2841 36.5312 44.3754C36.6206 44.5721 36.6849 44.587 36.7218 44.4196C36.7955 44.0852 36.8021 44.0773 37.0183 44.0631C37.1875 44.052 37.2307 44.0654 37.2716 44.1419C37.3269 44.2451 37.405 44.2231 37.405 44.1042C37.405 44.059 37.4698 43.9956 37.5599 43.9526C37.6452 43.912 37.7149 43.8585 37.7149 43.8337C37.7149 43.7687 37.8811 43.7792 38.1355 43.8602C38.2772 43.9052 38.5967 43.939 39.0233 43.9539C39.5715 43.9731 39.7365 43.9637 39.953 43.9012C40.3124 43.7975 40.6117 43.6282 40.7957 43.4244C40.9617 43.2407 40.9599 43.1689 40.7892 43.1689C40.6542 43.1689 40.6508 43.0971 40.7808 42.9916C40.8796 42.9114 40.8788 42.9111 40.6811 42.9481C40.5716 42.9687 40.3126 43.0486 40.1056 43.1259C39.7362 43.2637 39.7195 43.2657 39.198 43.2372C38.5979 43.2044 38.2196 43.1227 37.9536 42.9683C37.6963 42.8188 37.2956 42.485 37.1817 42.3251C37.0745 42.1745 36.9323 41.5866 36.8879 41.1103C36.8647 40.8621 36.693 40.3236 36.6419 40.339C36.6354 40.3409 36.6047 40.3527 36.5735 40.3653ZM58.0876 40.5458C58.1102 40.5967 58.3925 40.9884 58.5792 41.228C58.7822 41.4884 58.8477 41.5023 58.8066 41.2763C58.7303 40.8574 58.4591 40.5126 58.2059 40.5126C58.1327 40.5126 58.0794 40.5276 58.0876 40.5458ZM34.247 41.5794C34.1333 41.6547 34.0403 41.7347 34.0403 41.7573C34.0403 41.8105 34.3605 41.6473 34.4369 41.5552C34.5419 41.4288 34.4583 41.4394 34.247 41.5794ZM17.3192 41.5657C17.2207 41.6283 17.1753 41.8246 17.2209 41.9901C17.2618 42.138 17.4567 42.3278 17.5679 42.3278C17.651 42.3278 17.713 42.0956 17.6853 41.8883C17.6469 41.6015 17.486 41.4596 17.3192 41.5657ZM39.1316 41.6405C39.1316 41.7946 39.6351 41.9736 40.0613 41.9711L40.3048 41.9697L40.143 41.8842C39.9348 41.7742 39.3425 41.5751 39.2234 41.5751C39.1719 41.5751 39.1316 41.6039 39.1316 41.6405ZM42.5332 42.1791C42.4813 42.2965 42.4287 42.4825 42.4164 42.5926C42.3969 42.7656 42.4027 42.7853 42.4595 42.7383C42.5663 42.6499 42.7702 42.21 42.7544 42.1022C42.7282 41.9235 42.6314 41.9571 42.5332 42.1791ZM30.9855 42.8751C30.9855 42.9653 31.7977 43.3012 31.8616 43.2373C31.9093 43.1896 31.17 42.8148 31.0281 42.8148C31.0047 42.8148 30.9855 42.8419 30.9855 42.8751ZM52.6945 42.8825C52.6559 42.9829 52.7024 43.437 52.7668 43.5895L52.8229 43.7223L52.8612 43.5895C52.9486 43.2864 52.9021 42.8148 52.7847 42.8148C52.7494 42.8148 52.7087 42.8452 52.6945 42.8825ZM27.268 43.1357C27.2695 43.1956 27.4814 43.3674 27.5138 43.335C27.5414 43.3073 27.3578 43.0804 27.3077 43.0804C27.2851 43.0804 27.2673 43.1053 27.268 43.1357ZM23.3021 43.5483C23.0484 43.7132 22.9051 44.0242 22.9084 44.4025C22.9113 44.7365 23.015 44.9958 23.2603 45.2823C23.49 45.5508 24.2119 45.899 24.2119 45.7414C24.2119 45.6335 24.0073 45.0605 23.8747 44.7971C23.7034 44.4566 23.6905 44.2894 23.8144 44.0164C23.9255 43.7716 23.9252 43.6349 23.8134 43.5231C23.6932 43.4029 23.5119 43.4119 23.3021 43.5483ZM27.89 43.9627C27.9473 44.0646 28.0226 44.1716 28.0573 44.2004C28.1103 44.2444 28.1153 44.2349 28.0884 44.1426C28.0474 44.0021 27.9206 43.8223 27.8445 43.7969C27.8076 43.7846 27.8246 43.8463 27.89 43.9627ZM32.3618 43.999C32.4229 44.0958 32.6531 44.2727 32.6022 44.1837C32.5436 44.0815 32.3897 43.9216 32.3498 43.9216C32.3295 43.9216 32.3349 43.9564 32.3618 43.999ZM39.5743 44.3666C39.3917 44.4639 38.9933 44.7434 38.6889 44.988C38.3845 45.2326 37.9699 45.5348 37.7675 45.6596C37.5652 45.7844 37.346 45.9364 37.2805 45.9975L37.1615 46.1084L37.2722 46.1384C37.4115 46.1762 37.5044 46.1584 38.0248 45.9944C38.6151 45.8082 38.9281 45.6297 39.2911 45.2719C39.6639 44.9044 40.0963 44.1821 39.9396 44.1886C39.9213 44.1893 39.757 44.2695 39.5743 44.3666ZM33.022 44.8346C33.022 44.8838 33.5645 45.4456 33.7272 45.565C33.9851 45.7541 34.3776 45.8695 34.7627 45.8695C34.9497 45.8695 35.1027 45.8546 35.1026 45.8363C35.102 45.7556 34.5741 45.4347 33.947 45.1339C33.352 44.8485 33.022 44.7417 33.022 44.8346ZM24.9466 45.7884C24.8146 45.9769 24.8688 46.2892 25.0821 46.5688C25.1668 46.6798 25.2075 46.7036 25.2512 46.6673C25.3284 46.6032 25.3705 46.2093 25.3293 45.936C25.298 45.7285 25.2872 45.7138 25.1566 45.701C25.0523 45.6909 24.9995 45.7128 24.9466 45.7884ZM35.4179 45.8763C35.2733 45.9179 35.2713 45.9216 35.3582 45.9824C35.5816 46.1389 36.3785 46.2369 36.6298 46.1389C36.7047 46.1096 36.685 46.0898 36.497 46.0063C36.1146 45.8364 35.7215 45.789 35.4179 45.8763ZM32.5979 46.6819C32.5659 46.7654 32.7824 47.0893 32.9951 47.2761C33.3872 47.6203 34.2615 48.0282 34.9192 48.1737C35.5543 48.3141 36.2817 48.2681 36.5652 48.0695C36.6618 48.0018 36.6616 48.0016 36.4911 47.8947C36.2672 47.7544 36.0338 47.6724 35.3937 47.5089C34.91 47.3854 34.67 47.297 33.5533 46.8314C33.1118 46.6473 32.6395 46.5733 32.5979 46.6819ZM39.0873 47.0189C39.0021 47.0645 38.8536 47.1832 38.7574 47.2826L38.5824 47.4634L38.7131 47.4629C38.8752 47.4624 39.2582 47.2864 39.3694 47.1614C39.4641 47.0548 39.4378 46.9312 39.3211 46.934C39.2778 46.9351 39.1726 46.9733 39.0873 47.0189ZM37.6042 47.6584C37.4825 47.6885 37.2832 47.7613 37.1615 47.8204L36.9401 47.9277L37.2889 47.941C37.8563 47.9626 38.2966 47.8357 38.2326 47.669C38.1988 47.5808 37.936 47.5764 37.6042 47.6584ZM26.3136 47.8637C26.2272 48.0036 26.8273 48.4816 27.0893 48.4816C27.1753 48.4816 27.0143 48.2406 26.7854 48.0265C26.5672 47.8223 26.3792 47.7575 26.3136 47.8637ZM45.4025 49.633C45.1368 49.7146 45.0192 49.9216 45.1482 50.0809C45.2123 50.1601 45.2523 50.1698 45.4063 50.1439C45.6182 50.108 45.9938 49.8844 45.9938 49.794C45.9938 49.6771 45.6044 49.5711 45.4025 49.633ZM43.2633 50.358C42.5924 50.5768 42.1759 51.2382 42.4863 51.5917C42.6092 51.7318 42.7695 51.6874 43.0053 51.448C43.2943 51.1546 43.5187 51.0682 43.8227 51.1334C44.1065 51.1943 44.3588 51.1957 44.5125 51.1373C44.6135 51.0989 44.6262 51.0748 44.6004 50.9713C44.4878 50.52 43.7725 50.1919 43.2633 50.358Z" fill="#1F2400"/>
</svg>
