<svg width="152" height="40" viewBox="0 0 152 40" fill="none" xmlns="http://www.w3.org/2000/svg">
<g clip-path="url(#clip0_490_15346)">
<path d="M78.0212 37.422L77.7804 37.3506C77.881 37.3257 77.9794 37.2929 78.0747 37.2525C78.2751 37.1557 78.4403 36.999 78.5474 36.804C78.6545 36.6089 78.6981 36.3854 78.6723 36.1644C78.6723 35.3974 78.1282 34.9961 77.0937 34.9961C76.6478 34.9961 76.0502 34.9961 75.7202 34.9961V39.8835C76.0502 39.8835 76.6121 39.8835 77.0491 39.8835C77.4861 39.8835 78.8328 39.7497 78.8328 38.4565C78.8351 38.2175 78.756 37.9849 78.6085 37.7969C78.461 37.6089 78.2539 37.4766 78.0212 37.422ZM76.4248 35.6382H76.514C76.7041 35.6284 76.8946 35.6284 77.0848 35.6382C77.6377 35.6382 77.9766 35.9147 77.9766 36.3606C77.9828 36.4745 77.9629 36.5882 77.9185 36.6932C77.8741 36.7982 77.8063 36.8917 77.7203 36.9665C77.6343 37.0414 77.5323 37.0956 77.4222 37.125C77.3121 37.1545 77.1966 37.1584 77.0848 37.1366H76.3802L76.4248 35.6382ZM77.1115 39.3395C76.9125 39.3524 76.7129 39.3524 76.514 39.3395H76.4248V37.7341H77.1561C77.7804 37.7341 78.1372 38.0017 78.1372 38.4744C78.1372 38.947 77.7715 39.3395 77.1115 39.3395Z" fill="black"/>
<path d="M33.7046 35.0039H32.3489V39.9002H33.0535V38.0719H33.1605C33.3746 38.0719 33.66 38.0719 33.8116 38.0719C34.033 38.0995 34.2576 38.0801 34.471 38.0151C34.6844 37.95 34.8817 37.8407 35.05 37.6943C35.2183 37.5479 35.3538 37.3676 35.4478 37.1653C35.5417 36.963 35.592 36.7431 35.5953 36.5201C35.5775 35.9671 35.3367 35.0039 33.7046 35.0039ZM33.7848 37.4565C33.5886 37.4565 33.3746 37.4565 33.1427 37.4565H33.0535V35.6728H33.2408H33.7848C34.6767 35.6728 34.8194 36.1633 34.8194 36.5647C34.8211 36.6948 34.7942 36.8238 34.7408 36.9425C34.6873 37.0611 34.6085 37.1667 34.5099 37.2517C34.4113 37.3367 34.2953 37.399 34.1701 37.4344C34.0448 37.4698 33.9133 37.4774 33.7848 37.4565Z" fill="black"/>
<path d="M40.2865 34.9438C39.7863 34.9491 39.2989 35.1023 38.8858 35.3842C38.4726 35.6661 38.1521 36.0641 37.9648 36.5279C37.7774 36.9916 37.7316 37.5005 37.833 37.9903C37.9345 38.4801 38.1787 38.9289 38.5349 39.2801C38.891 39.6313 39.3432 39.8692 39.8344 39.9637C40.3255 40.0583 40.8337 40.0053 41.2948 39.8115C41.7559 39.6177 42.1493 39.2917 42.4254 38.8746C42.7015 38.4575 42.8479 37.968 42.8462 37.4678C42.8563 37.1305 42.7968 36.7948 42.6712 36.4816C42.5457 36.1684 42.3569 35.8845 42.1167 35.6476C41.8765 35.4107 41.5899 35.226 41.275 35.1049C40.9601 34.9837 40.6236 34.9289 40.2865 34.9438ZM40.2865 39.4031C40.043 39.4035 39.8019 39.3541 39.5783 39.2578C39.3546 39.1616 39.1529 39.0205 38.9858 38.8434C38.8187 38.6663 38.6896 38.4568 38.6066 38.2279C38.5235 37.9989 38.4882 37.7554 38.5028 37.5124C38.4894 37.27 38.5257 37.0275 38.6093 36.7996C38.693 36.5717 38.8223 36.3633 38.9892 36.1872C39.1562 36.011 39.3574 35.8708 39.5805 35.775C39.8035 35.6793 40.0438 35.6302 40.2865 35.6305C40.5292 35.6302 40.7695 35.6793 40.9926 35.775C41.2156 35.8708 41.4168 36.011 41.5838 36.1872C41.7508 36.3633 41.88 36.5717 41.9637 36.7996C42.0473 37.0275 42.0836 37.27 42.0702 37.5124C42.0762 37.7503 42.0344 37.9871 41.9475 38.2087C41.8605 38.4302 41.7301 38.6322 41.5638 38.8026C41.3976 38.9729 41.1989 39.1083 40.9796 39.2008C40.7602 39.2932 40.5246 39.3407 40.2865 39.3407V39.4031Z" fill="black"/>
<path d="M48.3578 38.3846C48.3609 38.1796 48.3197 37.9763 48.2372 37.7887C48.1546 37.601 48.0326 37.4333 47.8794 37.2971C47.7262 37.1608 47.5455 37.0592 47.3495 36.9991C47.1535 36.9389 46.9468 36.9218 46.7436 36.9487C46.5208 36.9354 46.2974 36.9354 46.0747 36.9487H45.9676V35.6109H48.0457V34.9688H45.2631V39.8651H45.593H46.4849C47.6889 39.9453 48.3578 39.3924 48.3578 38.3846ZM46.6276 39.2764C46.4553 39.2851 46.2826 39.2851 46.1103 39.2764H45.9676V37.6443H46.0479C46.255 37.6177 46.4634 37.6028 46.6722 37.5997C47.2876 37.5997 47.6622 37.9208 47.6622 38.4916C47.6622 38.7681 47.5284 39.3389 46.6276 39.3389V39.2764Z" fill="black"/>
<path d="M51.5418 35.0234H50.8372V39.9198H51.4794L54.2887 36.1115V39.9198H54.9933V35.0234H54.3512L51.5418 38.8406V35.0234Z" fill="black"/>
<path d="M58.4983 35.0234H57.7402V39.9198H58.4448V36.0669L60.2107 38.5017H60.2374L61.9944 36.0402V39.9198H62.6901V35.0234H61.9855L60.282 37.4671L58.4983 35.0234Z" fill="black"/>
<path d="M67.6488 34.9413C67.1487 34.9466 66.6612 35.0999 66.2481 35.3818C65.8349 35.6637 65.5144 36.0616 65.3271 36.5254C65.1397 36.9892 65.0939 37.498 65.1954 37.9878C65.2968 38.4776 65.541 38.9264 65.8972 39.2776C66.2533 39.6288 66.7055 39.8667 67.1967 39.9613C67.6879 40.0558 68.196 40.0029 68.6571 39.809C69.1182 39.6152 69.5116 39.2892 69.7877 38.8721C70.0638 38.455 70.2102 37.9655 70.2085 37.4653C70.2227 37.127 70.1659 36.7894 70.0418 36.4744C69.9178 36.1593 69.7291 35.8738 69.488 35.636C69.2469 35.3983 68.9587 35.2136 68.6419 35.094C68.3252 34.9744 67.9869 34.9223 67.6488 34.9413ZM67.6488 39.4006C67.4053 39.4011 67.1643 39.3516 66.9406 39.2554C66.7169 39.1591 66.5152 39.0181 66.3481 38.8409C66.181 38.6638 66.0519 38.4543 65.9689 38.2254C65.8858 37.9965 65.8505 37.753 65.8651 37.5099C65.8517 37.2675 65.888 37.025 65.9716 36.7971C66.0553 36.5692 66.1846 36.3608 66.3515 36.1847C66.5185 36.0085 66.7197 35.8683 66.9428 35.7726C67.1658 35.6769 67.4061 35.6277 67.6488 35.628C67.8915 35.6277 68.1318 35.6769 68.3549 35.7726C68.5779 35.8683 68.7791 36.0085 68.9461 36.1847C69.1131 36.3608 69.2423 36.5692 69.326 36.7971C69.4096 37.025 69.4459 37.2675 69.4325 37.5099C69.4385 37.7478 69.3967 37.9846 69.3098 38.2062C69.2228 38.4278 69.0924 38.6297 68.9261 38.8001C68.7599 38.9705 68.5612 39.1059 68.3419 39.1983C68.1225 39.2907 67.8869 39.3383 67.6488 39.3382V39.4006Z" fill="black"/>
<path d="M82.873 35.0039L80.8038 39.9181H81.4906L82.0257 38.6159H84.3267L84.8618 39.9181H85.602L83.5329 35.0039H82.873ZM82.2843 37.9738L83.1762 35.8155L84.068 37.9738H82.2843Z" fill="black"/>
<path d="M88.7592 35.0234H87.9744L89.8116 37.3601L87.8941 39.9198H88.6789L90.5429 37.369L88.7592 35.0234Z" fill="black"/>
<path d="M91.2386 35.0234H90.5429V39.9198H91.2386V35.0234Z" fill="black"/>
<path d="M93.8071 35.0234H93.0134L91.2386 37.369L93.0937 39.9198H93.8874L91.9699 37.3512L93.8071 35.0234Z" fill="black"/>
<path d="M96.563 39.0992C96.465 39.1868 96.3377 39.2346 96.2062 39.233V39.9287C96.3485 39.9573 96.4951 39.9554 96.6366 39.9231C96.778 39.8908 96.911 39.8289 97.0267 39.7414C97.4994 39.3757 97.8027 38.4125 97.9721 36.7091L98.0881 35.6656H99.7469V39.9198H100.443V35.0234H97.4102L97.3389 35.9153C97.1605 38.3501 96.8127 38.903 96.563 39.0992Z" fill="black"/>
<path d="M103.876 35.0234H103.172V39.9198H103.814L106.623 36.1115V39.9198H107.328V35.0234H106.686L103.876 38.8406V35.0234Z" fill="black"/>
<path d="M112.367 37.422L112.135 37.3506C112.232 37.325 112.328 37.2922 112.42 37.2525C112.622 37.1571 112.789 37.0009 112.898 36.8058C113.007 36.6107 113.052 36.3864 113.027 36.1644C113.027 35.3974 112.483 34.9961 111.448 34.9961C111.002 34.9961 110.405 34.9961 110.075 34.9961V39.8835C110.405 39.8835 110.967 39.8835 111.395 39.8835C111.939 39.8835 113.178 39.7497 113.178 38.4565C113.181 38.2175 113.102 37.9849 112.954 37.7969C112.807 37.6089 112.599 37.4766 112.367 37.422ZM110.779 35.6382H110.868C111.056 35.6283 111.243 35.6283 111.43 35.6382C111.983 35.6382 112.322 35.9147 112.322 36.3606C112.327 36.474 112.306 36.5869 112.261 36.6911C112.216 36.7952 112.148 36.8879 112.062 36.9624C111.977 37.0369 111.875 37.0912 111.766 37.1213C111.657 37.1515 111.542 37.1567 111.43 37.1366H110.735L110.779 35.6382ZM111.466 39.2681C111.264 39.2806 111.062 39.2806 110.86 39.2681H110.779V37.7341H111.511C112.135 37.7341 112.492 38.0017 112.492 38.4744C112.492 38.947 112.126 39.3395 111.466 39.3395V39.2681Z" fill="black"/>
<path d="M116.416 37.7704H118.244V37.1193H116.416V35.6656H118.467V35.0234H115.711V39.9198H118.538V39.2776H116.416V37.7704Z" fill="black"/>
<path d="M109.977 5.67224C111.543 5.67224 112.813 4.40247 112.813 2.83612C112.813 1.26977 111.543 0 109.977 0C108.41 0 107.141 1.26977 107.141 2.83612C107.141 4.40247 108.41 5.67224 109.977 5.67224Z" fill="black"/>
<path d="M14.6366 8.90159C13.9316 8.2659 13.1048 7.78002 12.2065 7.47341C11.3081 7.16679 10.3568 7.04584 9.41026 7.11787C4.29989 7.08219 1 10.5961 1 16.0365C1 21.4768 4.22854 24.8302 9.23188 24.8302C10.2104 24.8768 11.1883 24.7264 12.1075 24.3878C13.0267 24.0492 13.8686 23.5294 14.5831 22.8592C14.5624 23.7603 14.3367 24.6448 13.9231 25.4456C13.165 26.7388 11.515 27.4791 9.3835 27.4791C8.54585 27.5496 7.70473 27.3919 6.94944 27.0229C6.19415 26.6539 5.55286 26.0873 5.09365 25.3832L4.8796 25.071L1.1427 27.6129L1.46377 27.9785C3.55964 30.3509 5.68227 31.2338 9.29431 31.2338C12.4337 31.2338 15.0379 30.5203 16.6254 29.2182C18.4716 27.6574 19.301 25.294 19.301 21.5304V11.5147C19.2862 10.2837 19.3548 9.05312 19.5061 7.83136L19.5596 7.34975H14.6366V8.90159ZM9.91862 21.1647C8.84711 21.1489 7.82371 20.7171 7.06466 19.9607C6.15481 18.9077 5.69095 17.5417 5.77146 16.1524C5.77146 12.8347 7.466 10.8013 10.2308 10.8013C11.1694 10.7946 12.0821 11.1093 12.8172 11.6931C13.3797 12.211 13.8191 12.8483 14.1031 13.5582C14.3871 14.2682 14.5084 15.0327 14.4582 15.7957C14.5002 16.9113 14.2315 18.0166 13.6823 18.9885C13.2858 19.6361 12.7339 20.1743 12.0767 20.5543C11.4194 20.9344 10.6776 21.1442 9.91862 21.1647Z" fill="black"/>
<path d="M30.2085 6.83984C24.5362 6.83984 20.8707 10.5857 20.8707 16.3917C20.8707 22.1977 24.5451 25.9614 30.2352 25.9614C35.7826 25.9614 39.4838 22.0728 39.4838 16.3293C39.4838 10.5857 35.845 6.83984 30.2085 6.83984ZM30.2085 10.8086C33.1516 10.8086 34.7748 12.8064 34.7748 16.4452C34.7748 19.8699 33.0535 21.9123 30.1817 21.9123C27.3099 21.9123 25.5797 19.8521 25.5797 16.3917C25.5797 12.9313 27.3099 10.7997 30.2085 10.7997V10.8086Z" fill="black"/>
<path d="M50.0524 6.83984C44.3802 6.83984 40.7146 10.5857 40.7146 16.3917C40.7146 22.1977 44.3712 25.9614 50.0524 25.9614C55.5819 25.9614 59.301 22.0996 59.301 16.356C59.301 10.6124 55.6622 6.83984 50.0524 6.83984ZM50.0524 10.7997C52.9955 10.7997 54.6187 12.7975 54.6187 16.4363C54.6187 19.861 52.9064 21.9034 50.0256 21.9034C47.1449 21.9034 45.4325 19.8432 45.4325 16.3828C45.4325 12.9223 47.136 10.7997 50.0524 10.7997Z" fill="black"/>
<path d="M79.2609 20.9066V5.1474C79.2598 3.82427 79.3343 2.50217 79.4838 1.18753V0.714844H74.311L74.3646 1.18753C74.5185 2.51062 74.587 3.84225 74.5697 5.17415V8.17081C74.5697 8.57215 74.5697 8.90214 74.5697 9.14294C74.3308 8.88453 74.0713 8.64592 73.7938 8.42945C72.4025 7.40634 70.703 6.89019 68.9777 6.96679C63.8138 6.96679 60.4783 10.6413 60.4783 16.3313C60.4783 19.7026 61.6734 22.5744 63.7514 24.1708C65.2567 25.3134 67.117 25.8882 69.0045 25.794C71.5463 25.794 73.1695 25.1964 74.5875 23.6535V25.3748H79.4838V24.8932C79.3255 23.5704 79.251 22.2388 79.2609 20.9066ZM69.7447 21.736C66.9799 21.736 65.2854 19.6758 65.2854 16.3849C65.2854 13.0939 66.9443 10.9891 69.6109 10.9891C70.2779 10.9936 70.9371 11.1317 71.5499 11.3952C72.1626 11.6586 72.7163 12.0422 73.1784 12.5231C74.0203 13.546 74.4834 14.8281 74.4894 16.153C74.538 17.4888 74.1566 18.8049 73.4013 19.9077C72.9758 20.4756 72.4238 20.9366 71.7891 21.2539C71.1543 21.5713 70.4544 21.7364 69.7447 21.736Z" fill="black"/>
<path d="M100.96 7.74899C100.854 8.92289 100.639 10.0844 100.318 11.2183L98.641 17.2027C98.641 17.2919 98.5608 17.5238 98.4983 17.7824C98.4448 17.5684 98.3913 17.39 98.3556 17.2741L96.1438 10.487C95.8495 9.59515 95.4928 8.22168 95.4036 7.71332L95.3501 7.34766H91.4169L91.3634 7.71332C91.1823 8.65328 90.938 9.57995 90.6321 10.487L88.4827 17.0422C88.4827 17.176 88.3489 17.4614 88.2508 17.8003C88.1795 17.497 88.1171 17.2562 88.0725 17.0957L86.4225 11.2629C86.1082 10.1273 85.8934 8.96647 85.7804 7.79359V7.39225H80.34L80.5541 7.97196C80.9822 9.10462 81.4459 10.3443 81.8027 11.6553L85.0937 22.2774C85.4005 23.191 85.6477 24.1234 85.8339 25.0689L85.9052 25.4168H90.0792L90.1862 25.0689C90.3939 24.1259 90.6499 23.1942 90.9532 22.2774L93.2096 15.2585C93.2096 15.1514 93.3077 14.9285 93.388 14.6609C93.4861 14.9909 93.5307 15.1514 93.5663 15.2317L95.8584 22.2596C96.1611 23.1744 96.4083 24.1066 96.5987 25.0511L96.6522 25.4079H100.889L100.951 25.0511C101.132 24.1074 101.38 23.1776 101.691 22.2685L105.321 10.6743C105.812 9.09571 105.901 8.81923 106.213 7.99871L106.445 7.41009H101.022L100.96 7.74899Z" fill="black"/>
<path d="M112.59 7.83818L112.652 7.34766H107.301L107.372 7.83818C107.556 9.10489 107.637 10.3845 107.613 11.6643V21.0556C107.629 22.3352 107.549 23.6141 107.372 24.8817L107.31 25.3722H112.661L112.608 24.8906C112.456 23.6091 112.387 22.3192 112.402 21.0288V11.691C112.372 10.4039 112.434 9.11624 112.59 7.83818Z" fill="black"/>
<path d="M131.693 21.0585V13.9236C131.693 11.8456 131.381 10.5613 130.596 9.4643C129.428 7.85895 127.644 7.05627 125.165 7.05627C124.111 6.99044 123.056 7.16956 122.083 7.57959C121.109 7.98963 120.244 8.61945 119.555 9.41971V7.35059H114.57L114.641 7.84111C114.817 9.10856 114.895 10.3878 114.873 11.6672V21.0585C114.891 22.3379 114.814 23.6168 114.641 24.8846L114.57 25.3751H119.858L119.787 24.8846C119.62 23.6163 119.542 22.3377 119.555 21.0585V15.1098C120.786 12.3718 122.409 10.9894 124.362 10.9894C124.779 10.9575 125.197 11.0355 125.574 11.2154C125.951 11.3954 126.274 11.6711 126.512 12.015C126.875 12.7596 127.029 13.5888 126.958 14.4141V21.0585C126.964 22.34 126.893 23.6207 126.744 24.8935L126.69 25.3751H132.041L131.961 24.8757C131.764 23.6131 131.675 22.3362 131.693 21.0585Z" fill="black"/>
<path d="M146.07 19.6666C145.927 20.0115 145.728 20.3308 145.482 20.6119C145.06 21.0527 144.552 21.4003 143.988 21.6323C143.424 21.8642 142.818 21.9754 142.208 21.9586C141.565 21.9816 140.924 21.8578 140.336 21.5967C139.747 21.3356 139.225 20.9439 138.811 20.4514C138.217 19.682 137.877 18.747 137.838 17.7758H150.833V17.312C150.779 16.6431 150.779 16.554 150.779 16.4915C150.781 14.8884 150.478 13.2996 149.887 11.8093C149.26 10.2663 148.169 8.95668 146.764 8.0618C145.36 7.16692 143.711 6.73113 142.048 6.81483C136.697 6.81483 133.183 10.5696 133.183 16.3934C133.183 22.2173 136.75 25.9363 142.253 25.9363C143.438 25.9857 144.622 25.7964 145.732 25.3797C146.843 24.9629 147.859 24.3273 148.719 23.5105C149.273 22.9737 149.739 22.3538 150.101 21.6733L146.07 19.6666ZM141.932 10.7479C142.467 10.7106 143.005 10.7867 143.509 10.9711C144.013 11.1555 144.472 11.4441 144.857 11.8182C145.442 12.3977 145.829 13.1467 145.963 13.9586H137.981C138.157 13.0474 138.647 12.2268 139.365 11.64C140.084 11.0532 140.986 10.7375 141.914 10.7479H141.932Z" fill="black"/>
</g>
<defs>
<clipPath id="clip0_490_15346">
<rect width="152" height="40" fill="white"/>
</clipPath>
</defs>
</svg>
