<svg width="120" height="40" viewBox="0 0 120 40" fill="none" xmlns="http://www.w3.org/2000/svg">
<path fill-rule="evenodd" clip-rule="evenodd" d="M97.3747 30.2573V21.087C100.82 21.0903 102.459 21.9838 102.462 25.6697C102.464 29.3705 100.846 30.254 97.3747 30.2573ZM97.3747 16.5018V9.16584C99.8111 9.16084 100.136 8.94878 101.842 10.6594C102.381 15.2376 102.204 16.5109 97.3747 16.5018ZM90.4969 35.3007C100.474 35.3007 109.296 36.831 109.296 25.2138C109.296 21.4034 107.202 20.0505 104.711 18.3361C109.153 17.1336 109.78 8.46032 105.633 5.95108C101.546 3.47854 95.5671 4.12238 90.4969 4.12238V35.3007Z" fill="#282828"/>
<path fill-rule="evenodd" clip-rule="evenodd" d="M62.9866 17.4175L57.1072 4.15373L52.4412 4.10938C51.6511 5.8338 51.5659 32.8481 52.2834 34.9978C53.9168 35.5427 56.4669 35.5427 58.1003 34.9978C58.9609 32.4195 58.4013 23.9037 58.4013 20.6267L58.7561 21.1895C58.7658 21.2106 59.1521 22.1579 59.1547 22.1658C59.4249 22.8866 59.5874 23.3524 59.9134 24.1587L64.4799 35.1817L68.947 35.3103V4.12083L63.283 4.20806C62.4776 6.84978 62.9866 14.374 62.9866 17.4175Z" fill="#282828"/>
<path fill-rule="evenodd" clip-rule="evenodd" d="M0.511126 4.4582C-0.136819 5.85425 -0.189101 32.8967 0.471474 34.877C2.10485 35.4218 4.65492 35.4218 6.2883 34.877C7.1489 32.2987 6.58936 23.7829 6.58936 20.5059L9.60704 27.576C10.3087 29.3327 11.7162 33.755 12.6679 35.0608L17.1351 35.1895V4L11.471 4.08723C11.204 6.9933 11.6328 14.2661 11.6328 17.7549C9.83819 16.4611 7.1721 6.74364 5.0958 4.11749L1.5785 4.03906C0.738465 4.20149 1.0504 4.16419 0.511126 4.4582Z" fill="#282828"/>
<path fill-rule="evenodd" clip-rule="evenodd" d="M29.514 15.1248H30.4316C30.4316 18.5907 31.3456 21.2415 31.3483 24.2948H28.5973C28.5999 21.241 29.514 18.5913 29.514 15.1248ZM20.3441 35.2993H26.763L27.8148 28.9023L32.2653 28.88L33.1946 35.2969L39.6015 35.2993L33.5233 4.23841L25.8463 4.11328L23.0416 19.6563C22.3825 23.7948 20.337 31.6416 20.3441 35.2993Z" fill="#282828"/>
<path fill-rule="evenodd" clip-rule="evenodd" d="M73.5324 35.2994L87.46 35.1288L87.5754 30.5418C84.3078 30.0045 83.896 30.2131 80.4102 30.256V21.5445L85.6257 21.3733L85.9124 16.5005H80.4102V9.16455H87.2879V4.12109H73.5324V35.2994Z" fill="#282828"/>
<path fill-rule="evenodd" clip-rule="evenodd" d="M112.807 34.9982C114.61 35.6 117.738 35.6 119.541 34.9982C120.154 33.163 120.154 6.2577 119.541 4.42224C117.553 3.75902 114.714 4.03453 112.584 4.1996C112.3 8.19242 112 32.5814 112.807 34.9982Z" fill="#282828"/>
</svg>
