<svg width="112" height="40" viewBox="0 0 112 40" fill="none" xmlns="http://www.w3.org/2000/svg">
<g clip-path="url(#clip0_490_15340)">
<path d="M46.9048 0.0040609C42.1335 0.112541 38.7912 3.35971 37.2245 5.28291C37.2245 5.28291 37.1558 5.36479 37.1007 5.43298C37.0354 5.41376 36.9712 5.39099 36.9083 5.36479C33.6356 4.19165 29.9369 3.9734 26.2104 4.72372C22.6225 5.45906 17.4788 7.30168 13.7375 10.289C7.17959 15.5405 3.72812 21.8698 4.01688 28.117C4.18192 31.733 5.85949 34.8554 8.85716 37.1469C13.7798 40.9254 21.9063 40.0521 25.1796 39.5066C28.8371 38.8929 86.0808 28.717 93.6026 27.2848C100.437 25.9889 106.941 23.6837 108.247 15.6769C108.33 15.2039 108.371 14.7247 108.371 14.2447V14.1891C108.371 12.2262 107.751 10.397 106.68 9.15591C104.672 6.85071 101.303 6.57796 98.952 6.56427C95.6793 6.55058 60.5604 7.21903 56.5729 7.3009H56.3118C56.2979 7.17822 56.2842 7.05527 56.2842 7.05527C56.0892 5.50645 55.4328 4.05211 54.4002 2.88137C53.1889 1.51813 50.9064 -0.091505 46.9048 0.0040609Z" fill="#FE8422"/>
<path d="M46.8636 11.6256C48.8571 11.5437 50.8097 10.6573 50.9611 8.59748C51.0711 7.21978 49.9987 5.80127 47.8123 5.67885C46.7084 5.58087 45.6048 5.87017 44.6909 6.4971C44.0808 6.95276 43.6521 7.61007 43.4811 8.35211C43.261 9.2388 43.3711 9.97518 43.7972 10.5475C44.375 11.2979 45.4748 11.6799 46.8636 11.6256Z" fill="white"/>
<path d="M103.984 14.9822C103.695 15.6096 103.104 16.2643 102.581 16.3462L102.348 16.4007C102.348 16.4007 102.555 15.0096 102.568 14.6002C102.61 12.6907 102.155 10.7001 99.1591 10.8628C97.3167 10.9718 94.6354 12.554 94.2227 15.9769V15.9905L94.209 16.0042C94.2099 16.0277 94.2052 16.0511 94.1953 16.0724C93.7413 17.259 92.9026 18.9368 92.2977 19.005C92.2381 19.0123 92.1775 19.0063 92.1205 18.9875C92.0634 18.9686 92.0112 18.9374 91.9676 18.896C91.9096 18.8315 91.8652 18.756 91.8368 18.674C91.8084 18.5921 91.7967 18.5052 91.8023 18.4187C91.8634 17.8588 91.9785 17.3061 92.1458 16.7682C92.4045 15.8294 92.5885 14.8717 92.6962 13.9038C92.9163 11.5715 91.4722 11.1076 89.9734 11.2177C89.0803 11.3042 88.2377 11.672 87.5669 12.2679L87.03 12.8681C87.03 12.8681 87.2777 11.7224 87.3464 11.4085C86.9199 11.4222 84.2663 11.5175 83.9912 11.5175L82.8088 16.2506C82.3955 16.7961 81.8325 17.2463 81.3513 17.369L81.1188 17.4235L81.0912 17.1779C81.0745 16.9342 81.0377 16.6923 80.9812 16.4547C80.9125 15.9229 80.4447 14.1087 78.6566 14.2592C74.05 14.6413 74.1882 20.3016 76.9377 19.497L77.2541 19.4015L77.1988 19.7424C76.8277 21.9931 75.8653 23.1797 74.5312 23.3569C74.4343 23.3696 74.3357 23.3603 74.2429 23.3296C74.1501 23.2989 74.0654 23.2475 73.9953 23.1794C73.8658 23.0282 73.7684 22.8521 73.7092 22.662C73.65 22.4719 73.6301 22.2717 73.6507 22.0737C73.6784 20.9687 75.8919 11.7756 75.8919 11.7756C75.8919 11.7756 71.9042 11.9256 71.6154 11.9393C71.4088 12.785 70.5306 16.4405 70.5306 16.4405L70.393 16.9178C70.2486 17.3978 70.1292 17.885 70.0353 18.3774V18.406L70.0216 18.4197C70.0076 18.4471 70.0076 18.4742 69.9939 18.4879C69.3203 20.2202 68.1516 22.1024 67.244 22.1979C67.1618 22.2122 67.0773 22.2059 66.9981 22.1798C66.9189 22.1536 66.8474 22.1083 66.7899 22.0479C66.7247 21.9788 66.6741 21.8973 66.6411 21.8082C66.608 21.7192 66.5932 21.6244 66.5975 21.5295V21.5158L66.6799 20.7668C66.6799 20.7668 68.9486 12.5419 69.1139 11.9964C68.6051 12.0101 64.2463 12.092 64.2463 12.092L63.8199 13.5924C63.7098 12.3647 61.111 10.728 59.1583 12.474C57.0959 14.3153 56.5318 17.0841 56.2159 19.8121L56.1883 19.9211C55.7492 23.2083 54.9782 25.4588 52.6818 25.7452C52.2312 25.8392 51.7622 25.7817 51.3477 25.5815C52.011 25.1247 52.5767 24.5404 53.0119 23.8628C53.8642 22.458 53.4794 21.2304 52.5854 20.6438C50.7978 19.4844 48.8455 20.9021 48.5019 22.7034C48.3394 23.5979 48.5265 24.5207 49.0244 25.2814C48.4046 25.636 47.9105 26.018 47.0581 26.127C46.8449 26.1545 46.6282 26.1318 46.4253 26.0608C46.2224 25.9898 46.0389 25.8723 45.8894 25.7179C45.3805 25.036 46.0681 22.8398 46.1644 22.5533C46.1644 22.5533 49.3269 13.2375 49.5056 12.6646C48.9557 12.692 43.1391 12.8828 42.8504 12.897C42.658 13.4836 41.9154 15.7614 41.1591 17.8618C39.674 21.9686 35.3562 27.5871 30.901 28.7328C28.5359 29.3465 26.6796 29.2375 25.5109 28.5146C23.9157 27.5331 22.9944 25.2 23.6132 21.9265C23.8604 20.3609 24.3466 18.8425 25.0547 17.4245C28.7813 9.568 34.7764 11.3411 34.4047 11.9414C34.0095 12.0798 33.6276 12.2533 33.2633 12.4598C32.3007 12.9645 30.7608 14.4512 30.7063 16.2925C30.665 17.479 30.995 18.4339 31.6413 19.0613C32.2738 19.675 33.2088 19.9614 34.2675 19.8661C36.6327 19.6479 38.5577 17.8884 38.6403 15.2686C38.6816 13.8501 38.2828 12.6907 37.4576 11.8314C36.1238 10.4537 34.57 9.77179 31.1038 9.86838C25.7273 10.0184 17.5869 13.824 15.2491 22.2403C14.4655 25.0773 15.4966 28.5146 17.2155 30.0695C19.5943 32.2391 22.5506 33.0292 27.7347 32.0608C32.3549 31.2015 36.1362 28.0781 38.9278 24.8046C38.9301 24.855 38.9255 24.9055 38.9141 24.9546C38.2542 27.3551 39.1478 29.9194 43.2042 29.4013C44.8955 29.183 47.8655 28.2281 49.9421 26.6188C50.8908 27.4373 52.541 27.9283 54.4105 27.6555C55.181 27.5465 57.147 27.0281 58.8788 24.5592C60.24 22.622 60.9276 18.8304 61.3124 16.7848C61.4911 15.8291 61.6012 15.2025 61.7515 14.9434C61.8589 14.6439 62.0749 14.3957 62.3567 14.2479C63.0855 13.9478 63.4567 14.6433 63.319 15.1754C63.1819 15.6938 62.4254 18.2988 62.4254 18.3125L62.2877 18.7217C61.8486 19.9901 61.3388 21.436 61.2977 22.9635C61.2701 24.0819 61.5588 24.9686 62.15 25.5141C62.6999 26.0188 63.4841 26.2233 64.4051 26.0869C66.9531 25.7155 68.7678 23.1526 69.6215 21.6656L69.7452 21.4474L69.9105 21.1472L70.0066 21.7064C70.4054 23.9297 72.1793 24.8299 74.8469 24.4344C78.2981 23.9297 80.3742 22.1566 81.0072 19.074L81.0344 18.9376L81.1583 18.8968C81.4929 18.7714 81.8114 18.6066 82.107 18.406L82.3682 18.2286L81.1436 23.1797C81.6387 23.1115 84.8702 22.566 85.1313 22.5386C85.2 22.2385 86.6164 16.2364 86.6164 16.2364C86.8641 15.1997 87.5377 13.222 88.3077 13.1675C88.3842 13.1646 88.4604 13.1777 88.5316 13.2059C88.6027 13.2341 88.6672 13.2768 88.721 13.3312C88.9037 13.5525 88.9926 13.8364 88.9687 14.1224C88.9066 14.8846 88.7495 15.6361 88.5012 16.3594C88.1621 17.5043 87.9274 18.6776 87.7999 19.8648C87.6072 21.9518 89.3811 21.9381 89.9037 21.8562C91.1548 21.679 92.8189 21.0243 94.2354 17.9416L94.3041 18.2691C94.4533 19.0591 94.9041 19.76 95.5612 20.2234C96.2182 20.6868 97.0297 20.8762 97.824 20.7515C99.818 20.4514 101.179 19.3738 101.936 17.6004L101.99 17.4778L102.114 17.4641C102.898 17.3822 103.97 16.4826 104.246 15.4316C104.148 15.3779 104.135 15.1733 103.984 14.9822ZM51.1674 21.5703C51.8824 21.5977 52.1711 22.0352 51.7724 22.9069C51.5799 23.3297 51.0158 23.9708 50.2872 24.5163C49.3933 23.1115 50.2733 21.5292 51.1674 21.5703ZM77.6511 17.8192C77.5134 18.0101 77.2378 18.133 76.7848 18.2149C76.3173 18.2968 76.1936 18.0375 76.1796 17.9285C76.0835 17.5193 76.5373 16.8509 76.9225 16.6737C77.0103 16.6276 77.1089 16.6059 77.208 16.6107C77.3071 16.6155 77.4031 16.6467 77.486 16.7011C77.8022 17.0691 77.6511 17.8192 77.6511 17.8192ZM99.5971 17.6146C99.3084 18.474 98.923 19.4015 98.1531 19.497C98.04 19.5182 97.9237 19.5146 97.8122 19.4863C97.7007 19.458 97.5966 19.4058 97.5073 19.3333C97.2462 19.1008 97.1362 18.8831 97.1501 18.1056C97.1915 16.278 98.1538 11.7087 99.4602 11.6539C99.5505 11.6509 99.6403 11.6676 99.7235 11.703C99.8066 11.7383 99.881 11.7914 99.9414 11.8585C100.216 12.1586 100.326 12.7315 100.258 13.4134L100.244 13.4952C100.244 13.4952 98.8827 13.5497 98.7314 15.5685C98.712 15.9229 98.7886 16.2759 98.9531 16.5904C99.1176 16.9049 99.364 17.1691 99.6661 17.3553L99.5971 17.6146ZM99.9683 16.278C99.5292 16.0053 99.5419 15.2004 99.7896 14.914C99.8352 14.8508 99.9005 14.8045 99.9753 14.7823C100.05 14.7601 100.13 14.7633 100.203 14.7913C100.179 15.2939 100.101 15.7925 99.9685 16.278H99.9683Z" fill="white"/>
</g>
<defs>
<clipPath id="clip0_490_15340">
<rect width="112" height="40" fill="white"/>
</clipPath>
</defs>
</svg>
